<svg xmlns="http://www.w3.org/2000/svg" enable-background="new 0 0 300 300" viewBox="0 0 300 300"><path fill="#f3f1fc" d="M277.8,171.5c0,0.3,0,0.6-0.1,1c-0.3,7.1-1.1,14.2-2.2,21.2c-0.1,0.7-0.2,1.3-0.3,2c0,0.3-0.1,0.6-0.2,1     c-0.1,0.7-0.3,1.5-0.4,2.2c-1.3,7.1-2.9,14.1-4.8,21c-0.1,0.3-0.2,0.6-0.3,1c-0.2,0.8-0.5,1.7-0.7,2.5     c-1.9,6.6-4.3,13.4-7.8,19.4c-0.3,0.6-0.7,1.2-1.1,1.8H32.4c-0.7-0.6-1.5-1.2-2.1-1.8c-3.9-3.6-6.9-8.1-7.9-13     c-0.4-1.8-0.5-3.6-0.3-5.4c0.1-0.7,0.2-1.4,0.3-2.1c1.9-9,10-15.7,16.1-23.4c1.3-1.7,2.6-3.4,3.6-5.1c0.5-0.8,0.9-1.6,1.3-2.5     c2.8-5.9,3.2-12.3,2.4-18.7c-0.2-1.6-0.5-3.2-0.8-4.7c-0.6-3-1.5-5.9-2.4-8.8c-0.8-2.5-1.8-5.1-2.7-7.6     c-2.9-7.9-5.9-15.9-6.4-24.2c-1.5-21.9,16-43.5,38.8-48c13.5-2.7,27.4,0.1,40.9,2.5c13.5,2.4,27.8,4.2,40.8,0     c6.6-2.2,12.6-6.3,16.7-11.7c1.9-2.6,3.5-5.4,4.3-8.5c0.7-2.4-0.4-7.1,0.6-9c2.8-5,15.2-5.1,20.1-4.7c7.1,0.6,14.1,2.9,20.3,6     c19.1,9.5,34.2,24.8,44.6,42.7c0.5,0.8,1,1.7,1.4,2.5c0.2,0.3,0.3,0.6,0.5,0.8c0,0,0.1,0.1,0.1,0.1c4,7.4,7.2,15.2,9.5,23.2     c0.1,0.3,0.2,0.6,0.3,1c0.2,0.6,0.4,1.3,0.5,1.9c0.3,1,0.5,1.9,0.7,2.9c1.5,6.1,2.5,12.2,3.2,18.4c0,0.3,0.1,0.6,0.1,1     C278,156,278.2,163.8,277.8,171.5z"/><path fill="#d0cef2" d="M45.1,167.8c0.3,1.6,0.6,3.2,0.8,4.7c0.8,6.4,0.3,12.8-2.4,18.7c-0.4,0.9-0.9,1.7-1.3,2.5h233.4    c1.1-7,1.9-14.1,2.3-21.2c0-0.3,0-0.6,0.1-1c0.3-7.8,0.2-15.5-0.6-23.2c0-0.3-0.1-0.6-0.1-1c-0.6-6.2-1.7-12.3-3.2-18.4    c-0.2-1-0.5-1.9-0.7-2.9h-12.5c-0.8,0-1.5,0.7-1.5,1.5v26.7c0,1.6-1.3,2.9-2.9,2.9h-12.9c-1.6,0-2.9-1.3-2.9-2.9v-32.1    c0-0.8-0.7-1.5-1.5-1.5h-5.3c-0.8,0-1.5,0.7-1.5,1.5V145c0,1.6-1.3,2.9-2.9,2.9h-23.2c-1.6,0-2.9-1.3-2.9-2.9v-28    c0-0.8-0.7-1.5-1.5-1.5h-32.4c-0.8,0-1.5,0.7-1.5,1.5v16.3c0,1.6-1.3,2.9-2.9,2.9h-18.3c-1.6,0-2.9-1.3-2.9-2.9v-15.8    c0-0.8-0.7-1.5-1.5-1.5h-2.7c-0.8,0-1.5,0.7-1.5,1.5v30.9c0,1.6-1.3,2.9-2.9,2.9h-5.1c-1.6,0-2.9-1.3-2.9-2.9v-12.7    c0-1.2-1-2.2-2.2-2.2h-14.5c-1.2,0-2.2,1-2.2,2.2v17.6c0,1.6-1.3,2.9-2.9,2.9h-8.3c-1.6,0-2.9-1.3-2.9-2.9v-37.2    c0-0.8-0.7-1.5-1.5-1.5H72.8c-0.8,0-1.5,0.7-1.5,1.5v32.2c0,1.6-1.3,2.9-2.9,2.9H40c0.9,2.5,1.8,5,2.7,7.6    C43.6,161.8,44.4,164.8,45.1,167.8z"/><path fill="#fff" d="M67.6,80.4v164.1h-5.1V82.3C64.1,81.6,65.8,81,67.6,80.4z"/><path fill="#fff" d="M114.9,196.2V81.9c-0.5-0.1-1-0.2-1.6-0.3c-1.2-0.2-2.4-0.4-3.6-0.6v115.2H114.9z"/><path fill="#fff" d="M275.5,193.7c-0.1,0.7-0.2,1.3-0.3,2c0,0.3-0.1,0.6-0.2,1c-0.1,0.7-0.3,1.5-0.4,2.2H38.5     c1.3-1.7,2.6-3.4,3.6-5.1H275.5z"/><path fill="#fff" d="M209.5,196.3V50.9c-1.7-0.6-3.4-1.2-5.1-1.6v147H209.5z"/><path fill="#e2dff4" d="M38.8,249c2.4,1.4,4.9,2.4,7.6,3.3H254c1.7-1.9,3.3-3.9,4.6-6.1c0.4-0.6,0.7-1.2,1.1-1.8H32.6    c0.7,0.6,1.4,1.2,2.1,1.8C36,247.3,37.4,248.2,38.8,249z"/><path fill="#f3f1fc" d="M141.6,63.3c-2.8-3.1-7.2-4.8-11.4-4.3c-3.5,0.5-6.7,2.3-10.2,2.2c-2.9-0.1-5.6-1.4-8-3.1    c-2.4-1.7-4.5-3.6-7-5.1c-2.5-1.5-5.4-2.5-8.3-2.1c-2.3,0.4-4.4,1.7-6,3.4c-1.5,1.6-4.8,5.7-4.3,8.9H141.6z"/><path fill="#fff" d="M114.2,94.1c-2-2.2-5.1-3.4-8-3c-2.4,0.3-4.7,1.6-7.2,1.6c-2,0-4-1-5.6-2.2c-1.7-1.2-3.2-2.6-5-3.6    c-1.7-1.1-3.8-1.8-5.8-1.5c-1.6,0.3-3.1,1.2-4.2,2.4c-1.1,1.1-3.4,4-3,6.3H114.2z"/><path fill="#fff" d="M193.8,59.8c-0.3-2.4,1.3-6.1,3-6.5c1.7-0.4,3.4,0.5,4.9,1.6c1.5,1.1,3,2.3,4.7,2.6c3.9,0.7,7.4-3.6,11.3-3.8    c4.4-0.3,8.6,4.8,12.9,3.3c1.9-0.7,3.7-2.6,5.7-2.3c2,0.3,3.4,2.8,4.6,5.1H193.8z"/><path fill="#fff" d="M212.1,228.7L212.1,228.7c0,1.7-1.4,3.1-3.1,3.1h-7.9c-1.7,0-3.1-1.4-3.1-3.1l0,0c0-1.7,1.4-3.1,3.1-3.1h7.9    C210.7,225.6,212.1,227,212.1,228.7z"/><path fill="#fff" d="M252,86.5V231c0,4.7-3.8,8.5-8.5,8.5h-76.9c-4.7,0-8.5-3.8-8.5-8.5V86.5c0-4.7,3.8-8.5,8.5-8.5h76.9     C248.2,78,252,81.8,252,86.5z"/><linearGradient id="a" x1="187.94" x2="222.263" y1="82.586" y2="82.586" gradientUnits="userSpaceOnUse"><stop offset="0" stop-color="#57b3fe"/><stop offset="1" stop-color="#497bfe"/></linearGradient><path fill="url(#a)" d="M222.3,78v6.4c0,1.5-1.2,2.8-2.8,2.8h-28.8c-1.5,0-2.8-1.2-2.8-2.8V78H222.3z"/><linearGradient id="b" x1="158.167" x2="252.035" y1="229.151" y2="229.151" gradientUnits="userSpaceOnUse"><stop offset="0" stop-color="#57b3fe"/><stop offset="1" stop-color="#497bfe"/></linearGradient><path fill="url(#b)" d="M158.2,218.9V231c0,4.7,3.8,8.5,8.5,8.5h76.9c4.7,0,8.5-3.8,8.5-8.5v-12.1H158.2z"/><path fill="#fff" d="M215.3,82.2L215.3,82.2c0,0.6-0.5,1.1-1.1,1.1h-11.6c-0.6,0-1.1-0.5-1.1-1.1l0,0c0-0.6,0.5-1.1,1.1-1.1      h11.6C214.8,81.1,215.3,81.6,215.3,82.2z"/><path fill="#fff" d="M197.9,82.2L197.9,82.2c0,0.6-0.5,1.1-1.1,1.1h-0.7c-0.6,0-1.1-0.5-1.1-1.1l0,0c0-0.6,0.5-1.1,1.1-1.1h0.7      C197.4,81.1,197.9,81.6,197.9,82.2z"/><path fill="#ebf4fe" d="M246.4,85.4c0,1.8-1.4,3.2-3.2,3.2c-1.8,0-3.2-1.4-3.2-3.2c0-1.8,1.4-3.2,3.2-3.2      C244.9,82.2,246.4,83.7,246.4,85.4z"/><linearGradient id="c" x1="241.861" x2="244.496" y1="85.422" y2="85.422" gradientUnits="userSpaceOnUse"><stop offset="0" stop-color="#57b3fe"/><stop offset="1" stop-color="#497bfe"/></linearGradient><path fill="url(#c)" d="M244.2,86.7c-0.1,0-0.2,0-0.2-0.1l-2-2c-0.1-0.1-0.1-0.3,0-0.5s0.3-0.1,0.5,0l2,2c0.1,0.1,0.1,0.3,0,0.5        C244.3,86.7,244.2,86.7,244.2,86.7z"/><linearGradient id="d" x1="241.861" x2="244.496" y1="85.422" y2="85.422" gradientUnits="userSpaceOnUse"><stop offset="0" stop-color="#57b3fe"/><stop offset="1" stop-color="#497bfe"/></linearGradient><path fill="url(#d)" d="M242.2,86.7c-0.1,0-0.2,0-0.2-0.1c-0.1-0.1-0.1-0.3,0-0.5l2-2c0.1-0.1,0.3-0.1,0.5,0        c0.1,0.1,0.1,0.3,0,0.5l-2,2C242.4,86.7,242.3,86.7,242.2,86.7z"/><path fill="#ebf4fe" d="M173.2,83.4h-8.3c-0.2,0-0.3-0.1-0.3-0.3c0-0.2,0.1-0.3,0.3-0.3h8.3c0.2,0,0.3,0.1,0.3,0.3         C173.5,83.2,173.4,83.4,173.2,83.4z"/><path fill="#ebf4fe" d="M173.2,85.9h-8.3c-0.2,0-0.3-0.1-0.3-0.3c0-0.2,0.1-0.3,0.3-0.3h8.3c0.2,0,0.3,0.1,0.3,0.3         C173.5,85.7,173.4,85.9,173.2,85.9z"/><path fill="#ebf4fe" d="M173.2,88.3h-8.3c-0.2,0-0.3-0.1-0.3-0.3c0-0.2,0.1-0.3,0.3-0.3h8.3c0.2,0,0.3,0.1,0.3,0.3         C173.5,88.2,173.4,88.3,173.2,88.3z"/><path fill="#fee1bc" d="M105.4,160c-0.1,0.2-0.2,0.4-0.1,0.5c0.1,0.1,0.3,0.2,0.4,0.2c0.5,0.1,1,0.1,1.4-0.2     c0.3-0.2,0.4-0.5,0.4-0.9c0-0.3,0-0.7,0-1c0-0.3-0.1-0.6-0.4-0.7c-0.3-0.1-0.7,0.3-0.9,0.5C105.9,159,105.7,159.5,105.4,160z"/><path fill="#111d33" d="M67.7,105.7c-0.5,0.5-1,0.9-1.5,1.4C66.6,106.6,67.1,106.1,67.7,105.7z"/><path fill="#ffd475" d="M184.8,96c0,0.2-0.1,0.3-0.3,0.3c-1.2,0-2.2,1-2.2,2.2c0,0.2-0.1,0.3-0.3,0.3c-0.2,0-0.3-0.1-0.3-0.3       c0-0.6-0.2-1.2-0.7-1.6c-0.4-0.4-1-0.7-1.6-0.7c-0.2,0-0.3-0.1-0.3-0.3c0-0.2,0.1-0.3,0.3-0.3c0.6,0,1.2-0.2,1.6-0.7       c0.4-0.4,0.7-1,0.7-1.6c0-0.2,0.1-0.3,0.3-0.3c0.2,0,0.3,0.1,0.3,0.3c0,0.6,0.2,1.2,0.7,1.6c0.4,0.4,1,0.7,1.6,0.7       C184.7,95.7,184.8,95.8,184.8,96z"/><path fill="#ffd475" d="M246.8,138.3c0,0.1-0.1,0.3-0.3,0.3c-1.1,0-2,0.9-2,2c0,0.1-0.1,0.3-0.3,0.3c-0.1,0-0.3-0.1-0.3-0.3       c0-0.5-0.2-1-0.6-1.4c-0.4-0.4-0.9-0.6-1.4-0.6c-0.1,0-0.3-0.1-0.3-0.3c0-0.1,0.1-0.3,0.3-0.3c0.5,0,1-0.2,1.4-0.6       c0.4-0.4,0.6-0.9,0.6-1.4c0-0.1,0.1-0.3,0.3-0.3c0.1,0,0.3,0.1,0.3,0.3c0,0.5,0.2,1,0.6,1.4c0.4,0.4,0.9,0.6,1.4,0.6       C246.7,138,246.8,138.2,246.8,138.3z"/><linearGradient id="e" x1="169.147" x2="174.266" y1="198.902" y2="198.902" gradientUnits="userSpaceOnUse"><stop offset="0" stop-color="#88cfff"/><stop offset="1" stop-color="#a9e0ff"/></linearGradient><path fill="url(#e)" d="M171.5,196.3l2.6,3.3c0.2,0.2,0.1,0.5-0.1,0.7l-1.5,1.2c-0.2,0.2-0.5,0.1-0.7-0.1l-2.6-3.3      c-0.2-0.2-0.1-0.5,0.1-0.7l1.5-1.2C171,196.1,171.3,196.1,171.5,196.3z"/><path fill="#f45170" d="M242.7,100.5l-2.3,1.8c-0.5,0.4-1.1,0-1.1-0.6l0.5-4.2c0.1-0.6,0.8-0.8,1.2-0.3l1.8,2.3      C243,99.9,243,100.3,242.7,100.5z"/><path fill="#f3f1fc" d="M184.5,165.7V180c0,0.9-0.7,1.5-1.5,1.5h-10.5c-0.9,0-1.5-0.7-1.5-1.5v-14.3c0-0.9,0.7-1.5,1.5-1.5H183      C183.8,164.2,184.5,164.8,184.5,165.7z"/><path fill="#d0cef2" d="M174.8,177v-8.4c0-0.4,0.3-0.6,0.6-0.6h4.6c0.4,0,0.6,0.3,0.6,0.6v8.4c0,0.4-0.3,0.6-0.6,0.6h-4.6      C175.1,177.7,174.8,177.4,174.8,177z"/><path fill="#f3f1fc" d="M202.8,165.7V180c0,0.9-0.7,1.5-1.5,1.5h-10.5c-0.9,0-1.5-0.7-1.5-1.5v-14.3c0-0.9,0.7-1.5,1.5-1.5h10.5      C202.1,164.2,202.8,164.8,202.8,165.7z"/><path fill="#d0cef2" d="M193,177v-8.4c0-0.4,0.3-0.6,0.6-0.6h4.6c0.4,0,0.6,0.3,0.6,0.6v8.4c0,0.4-0.3,0.6-0.6,0.6h-4.6      C193.3,177.7,193,177.4,193,177z"/><path fill="#f3f1fc" d="M221,165.7V180c0,0.9-0.7,1.5-1.5,1.5H209c-0.9,0-1.5-0.7-1.5-1.5v-14.3c0-0.9,0.7-1.5,1.5-1.5h10.5      C220.3,164.2,221,164.8,221,165.7z"/><path fill="#d0cef2" d="M211.3,177v-8.4c0-0.4,0.3-0.6,0.6-0.6h4.6c0.4,0,0.6,0.3,0.6,0.6v8.4c0,0.4-0.3,0.6-0.6,0.6h-4.6      C211.6,177.7,211.3,177.4,211.3,177z"/><path fill="#f3f1fc" d="M239.3,165.7V180c0,0.9-0.7,1.5-1.5,1.5h-10.5c-0.9,0-1.5-0.7-1.5-1.5v-14.3c0-0.9,0.7-1.5,1.5-1.5h10.5      C238.6,164.2,239.3,164.8,239.3,165.7z"/><path fill="#d0cef2" d="M229.6,177v-8.4c0-0.4,0.3-0.6,0.6-0.6h4.6c0.4,0,0.6,0.3,0.6,0.6v8.4c0,0.4-0.3,0.6-0.6,0.6h-4.6      C229.9,177.7,229.6,177.4,229.6,177z"/><path fill="#6eb954" d="M225.2,194.2v11.5c0,1-0.8,1.9-1.9,1.9h-37.4c-1,0-1.9-0.8-1.9-1.9v-11.5c0-1,0.8-1.9,1.9-1.9h37.4     C224.3,192.3,225.2,193.1,225.2,194.2z"/><path fill="#4b9534" d="M191.4,198.2c-0.4-0.2-0.9-0.4-1.4-0.4c-0.5,0-1,0.1-1.4,0.4c-0.4,0.2-0.7,0.6-0.9,1      c-0.2,0.4-0.3,0.9-0.3,1.4c0,0.5,0.1,1,0.3,1.4c0.2,0.4,0.5,0.7,0.9,1c0.4,0.2,0.9,0.4,1.4,0.4c0.5,0,1-0.1,1.4-0.4      c0.4-0.2,0.7-0.6,0.9-1c0.2-0.4,0.3-0.9,0.3-1.4c0-0.5-0.1-1-0.3-1.4C192.2,198.7,191.8,198.4,191.4,198.2z M191.8,200.6      c0,0.4-0.1,0.7-0.2,1c-0.1,0.3-0.3,0.5-0.6,0.7c-0.3,0.2-0.6,0.2-0.9,0.2c-0.4,0-0.7-0.1-0.9-0.2c-0.3-0.2-0.5-0.4-0.6-0.7      c-0.1-0.3-0.2-0.6-0.2-0.9c0-0.4,0.1-0.7,0.2-1c0.1-0.3,0.3-0.5,0.6-0.7c0.3-0.2,0.6-0.2,0.9-0.2c0.4,0,0.7,0.1,0.9,0.2      c0.3,0.2,0.5,0.4,0.6,0.7C191.7,199.9,191.8,200.2,191.8,200.6z"/><path fill="#4b9534" d="M196.8,197.9h-3.6c-0.1,0-0.2,0-0.3,0.1c-0.1,0.1-0.1,0.2-0.1,0.3c0,0.1,0,0.2,0.1,0.3      c0.1,0.1,0.2,0.1,0.3,0.1h1.3v4c0,0.1,0,0.2,0.1,0.3v0c0.1,0.1,0.2,0.1,0.3,0.1s0.2,0,0.3-0.1c0.1-0.1,0.1-0.2,0.1-0.3v-4h1.3      c0.1,0,0.2,0,0.3-0.1c0.1-0.1,0.1-0.2,0.1-0.3c0-0.1,0-0.2-0.1-0.3C197,197.9,196.9,197.9,196.8,197.9z"/><path fill="#4b9534" d="M201.1,198.1c-0.3-0.2-0.7-0.2-1.2-0.2h-1.7c-0.1,0-0.2,0.1-0.3,0.1c-0.1,0.1-0.1,0.2-0.1,0.3v4.4      c0,0.1,0,0.2,0.1,0.3v0c0.1,0.1,0.2,0.1,0.3,0.1c0.1,0,0.2,0,0.3-0.1c0.1-0.1,0.1-0.2,0.1-0.3v-1.4h1.2c0.5,0,0.9-0.1,1.2-0.2      c0.3-0.2,0.5-0.4,0.7-0.7c0.1-0.3,0.2-0.5,0.2-0.9c0-0.3-0.1-0.6-0.2-0.8C201.6,198.5,201.4,198.3,201.1,198.1z M201,199.6      c0,0.2-0.1,0.4-0.3,0.6c-0.2,0.2-0.5,0.2-0.9,0.2h-1.1v-1.7h1.1c0.5,0,0.8,0.1,0.9,0.2C200.9,199.2,201,199.4,201,199.6z"/><path fill="#4b9534" d="M206,199c0.3-0.2,0.6-0.2,1-0.2c0.3,0,0.5,0,0.7,0.1c0.2,0.1,0.4,0.1,0.6,0.2c0.2,0.1,0.4,0,0.5-0.1      c0.1-0.1,0.1-0.2,0.1-0.3c0-0.2-0.1-0.3-0.2-0.4c-0.3-0.2-0.5-0.3-0.8-0.3c-0.3-0.1-0.6-0.1-0.9-0.1c-0.5,0-1,0.1-1.4,0.3      c-0.4,0.2-0.7,0.5-1,1c-0.2,0.4-0.3,0.9-0.3,1.5c0,0.5,0.1,1,0.3,1.5c0.2,0.4,0.6,0.7,1,1v0c0.4,0.2,0.9,0.3,1.4,0.3      c0.3,0,0.6,0,0.9-0.1c0.3-0.1,0.5-0.2,0.8-0.3c0.2-0.1,0.2-0.2,0.2-0.4c0-0.1,0-0.2-0.1-0.3c-0.1-0.1-0.3-0.2-0.5-0.1      c-0.2,0.1-0.4,0.2-0.6,0.2c-0.2,0.1-0.4,0.1-0.7,0.1c-0.4,0-0.7-0.1-1-0.2c-0.3-0.2-0.5-0.4-0.6-0.6c-0.1-0.3-0.2-0.6-0.2-0.9      c0-0.4,0.1-0.7,0.2-0.9C205.5,199.3,205.7,199.1,206,199z"/><path fill="#4b9534" d="M212.1,199.4c-0.3-0.2-0.7-0.3-1-0.3c-0.4,0-0.7,0.1-1.1,0.3c-0.3,0.2-0.5,0.4-0.7,0.7      c-0.2,0.3-0.2,0.7-0.2,1.1c0,0.4,0.1,0.8,0.2,1.1c0.2,0.3,0.4,0.6,0.7,0.7v0c0.3,0.2,0.7,0.3,1.1,0.3c0.4,0,0.7-0.1,1-0.3      c0.3-0.2,0.5-0.4,0.7-0.7c0.2-0.3,0.2-0.7,0.2-1.1c0-0.4-0.1-0.8-0.2-1.1C212.7,199.9,212.4,199.6,212.1,199.4z M212.1,201.2      c0,0.3-0.1,0.5-0.2,0.7c-0.1,0.2-0.2,0.3-0.4,0.4h0c-0.3,0.2-0.7,0.2-1,0c-0.2-0.1-0.3-0.2-0.4-0.4c-0.1-0.2-0.2-0.4-0.2-0.7      c0-0.3,0.1-0.5,0.2-0.7c0.1-0.2,0.2-0.3,0.4-0.4c0.2-0.1,0.3-0.1,0.5-0.1c0.2,0,0.3,0,0.5,0.1c0.2,0.1,0.3,0.2,0.4,0.4      C212.1,200.7,212.1,201,212.1,201.2z"/><path fill="#4b9534" d="M216.6,197.8c-0.1,0.1-0.1,0.2-0.1,0.3v1.5c-0.6-0.4-1.4-0.5-2-0.1c-0.3,0.2-0.5,0.4-0.7,0.7      c-0.2,0.3-0.3,0.7-0.3,1.1c0,0.4,0.1,0.8,0.3,1.1c0.2,0.3,0.4,0.6,0.7,0.7c0.3,0.2,0.6,0.2,0.9,0.2c0.4,0,0.8-0.1,1.1-0.4      c0,0.1,0.1,0.2,0.1,0.2c0.2,0.2,0.5,0.2,0.7,0c0.1-0.1,0.1-0.2,0.1-0.3v-4.7c0-0.1,0-0.2-0.1-0.3      C217.1,197.6,216.8,197.6,216.6,197.8z M216.5,200.5v1.4c-0.1,0.1-0.3,0.2-0.4,0.3h0c-0.2,0.1-0.4,0.1-0.6,0.1      c-0.3,0-0.6-0.1-0.8-0.3c-0.2-0.2-0.3-0.5-0.3-0.9c0-0.4,0.1-0.7,0.3-0.9c0.2-0.2,0.4-0.3,0.8-0.3c0.2,0,0.4,0,0.6,0.1      C216.2,200.3,216.3,200.4,216.5,200.5z"/><path fill="#4b9534" d="M221,202.2c-0.1,0.1-0.3,0.1-0.4,0.2c-0.1,0-0.3,0.1-0.5,0.1c-0.3,0-0.6-0.1-0.8-0.2      c-0.2-0.1-0.3-0.3-0.3-0.5h2.3c0.1,0,0.3,0,0.3-0.1c0.1-0.1,0.1-0.2,0.1-0.3c0-0.3-0.1-0.7-0.2-1c-0.1-0.3-0.4-0.5-0.6-0.7      c-0.3-0.2-0.6-0.3-1-0.3c-0.4,0-0.8,0.1-1,0.3c-0.3,0.2-0.5,0.5-0.6,0.8c-0.1,0.3-0.2,0.6-0.2,1c0,0.6,0.2,1.2,0.5,1.5      c0.4,0.4,0.9,0.5,1.5,0.5c0.3,0,0.6,0,0.7-0.1c0.2-0.1,0.4-0.1,0.6-0.3c0.2-0.1,0.3-0.3,0.3-0.4c0-0.1,0-0.2-0.1-0.3      C221.4,202.1,221.2,202.1,221,202.2z M219,200.8c0-0.1,0.1-0.3,0.1-0.4c0.1-0.1,0.2-0.2,0.3-0.3c0.3-0.1,0.6-0.1,0.8,0      c0.1,0.1,0.3,0.2,0.3,0.3c0.1,0.1,0.1,0.2,0.1,0.4H219z"/><g><path fill="#f3f1fc" d="M221.7,123.6c0,9.1-7.4,16.6-16.6,16.6c-9.2,0-16.6-7.4-16.6-16.6c0-9.2,7.4-16.6,16.6-16.6       C214.3,107,221.7,114.5,221.7,123.6z"/><path fill="#6eb954" d="M217.3,123.6c0,6.7-5.5,12.2-12.2,12.2c-6.7,0-12.2-5.5-12.2-12.2c0-6.7,5.5-12.2,12.2-12.2       C211.8,111.4,217.3,116.9,217.3,123.6z"/><path fill="#4b9534" d="M203.3,127.1c-0.1,0-0.3,0-0.4,0c-0.4-0.1-0.8-0.4-1-0.7l-1.8-2.9c-0.5-0.8-0.2-1.8,0.5-2.3        c0.8-0.5,1.8-0.2,2.3,0.5l0.9,1.5l4.8-2.9c0.8-0.5,1.8-0.2,2.3,0.5c0.5,0.8,0.2,1.8-0.5,2.3l-6.2,3.8        C203.9,127.1,203.6,127.1,203.3,127.1z"/><path fill="#f3f1fc" d="M206,99.1v2.5c0,0.5-0.4,0.9-0.9,0.9l0,0c-0.5,0-0.9-0.4-0.9-0.9v-2.5c0-0.5,0.4-0.9,0.9-0.9l0,0       C205.6,98.2,206,98.6,206,99.1z"/><path fill="#f3f1fc" d="M193.7,101.9l1.2,2.1c0.3,0.4,0.1,1-0.3,1.3l0,0c-0.4,0.3-1,0.1-1.3-0.3l-1.2-2.1c-0.3-0.4-0.1-1,0.3-1.3       l0,0C192.8,101.4,193.4,101.5,193.7,101.9z"/><path fill="#f3f1fc" d="M184.4,110.6l2.1,1.2c0.4,0.3,0.6,0.8,0.3,1.3l0,0c-0.3,0.4-0.8,0.6-1.3,0.3l-2.1-1.2       c-0.4-0.3-0.6-0.8-0.3-1.3l0,0C183.4,110.5,183.9,110.3,184.4,110.6z"/><path fill="#f3f1fc" d="M180.6,122.7h2.5c0.5,0,0.9,0.4,0.9,0.9l0,0c0,0.5-0.4,0.9-0.9,0.9h-2.5c-0.5,0-0.9-0.4-0.9-0.9l0,0       C179.7,123.1,180.1,122.7,180.6,122.7z"/><path fill="#f3f1fc" d="M183.4,135l2.1-1.2c0.4-0.3,1-0.1,1.3,0.3l0,0c0.3,0.4,0.1,1-0.3,1.3l-2.1,1.2c-0.4,0.3-1,0.1-1.3-0.3l0,0       C182.9,135.9,183,135.3,183.4,135z"/><path fill="#f3f1fc" d="M192.1,144.3l1.2-2.1c0.3-0.4,0.8-0.6,1.3-0.3l0,0c0.4,0.3,0.6,0.8,0.3,1.3l-1.2,2.1       c-0.3,0.4-0.8,0.6-1.3,0.3l0,0C192,145.3,191.8,144.8,192.1,144.3z"/><path fill="#f3f1fc" d="M204.2,148.1v-2.5c0-0.5,0.4-0.9,0.9-0.9l0,0c0.5,0,0.9,0.4,0.9,0.9v2.5c0,0.5-0.4,0.9-0.9,0.9l0,0       C204.6,149,204.2,148.6,204.2,148.1z"/><path fill="#f3f1fc" d="M216.5,145.3l-1.2-2.1c-0.3-0.4-0.1-1,0.3-1.3l0,0c0.4-0.3,1-0.1,1.3,0.3l1.2,2.1c0.3,0.4,0.1,1-0.3,1.3       l0,0C217.4,145.8,216.8,145.7,216.5,145.3z"/><path fill="#f3f1fc" d="M225.8,136.6l-2.1-1.2c-0.4-0.3-0.6-0.8-0.3-1.3l0,0c0.3-0.4,0.8-0.6,1.3-0.3l2.1,1.2       c0.4,0.3,0.6,0.8,0.3,1.3l0,0C226.8,136.7,226.3,136.9,225.8,136.6z"/><path fill="#f3f1fc" d="M229.6,124.5h-2.5c-0.5,0-0.9-0.4-0.9-0.9l0,0c0-0.5,0.4-0.9,0.9-0.9h2.5c0.5,0,0.9,0.4,0.9,0.9l0,0       C230.5,124.1,230.1,124.5,229.6,124.5z"/><path fill="#f3f1fc" d="M226.8,112.2l-2.1,1.2c-0.4,0.3-1,0.1-1.3-0.3l0,0c-0.3-0.4-0.1-1,0.3-1.3l2.1-1.2c0.4-0.3,1-0.1,1.3,0.3       l0,0C227.4,111.3,227.2,111.9,226.8,112.2z"/><path fill="#f3f1fc" d="M218.1,102.9l-1.2,2.1c-0.3,0.4-0.8,0.6-1.3,0.3l0,0c-0.4-0.3-0.6-0.8-0.3-1.3l1.2-2.1       c0.3-0.4,0.8-0.6,1.3-0.3l0,0C218.2,101.9,218.4,102.4,218.1,102.9z"/></g><g><path fill="#fff" d="M191.4,197.6c-0.4-0.2-0.9-0.4-1.4-0.4c-0.5,0-1,0.1-1.4,0.4c-0.4,0.2-0.7,0.6-0.9,1      c-0.2,0.4-0.3,0.9-0.3,1.4c0,0.5,0.1,1,0.3,1.4c0.2,0.4,0.5,0.7,0.9,1c0.4,0.2,0.9,0.4,1.4,0.4c0.5,0,1-0.1,1.4-0.4      c0.4-0.2,0.7-0.6,0.9-1c0.2-0.4,0.3-0.9,0.3-1.4c0-0.5-0.1-1-0.3-1.4C192.2,198.2,191.8,197.8,191.4,197.6z M191.8,200      c0,0.4-0.1,0.7-0.2,1c-0.1,0.3-0.3,0.5-0.6,0.7c-0.3,0.2-0.6,0.2-0.9,0.2c-0.4,0-0.7-0.1-0.9-0.2c-0.3-0.2-0.5-0.4-0.6-0.7      c-0.1-0.3-0.2-0.6-0.2-0.9c0-0.4,0.1-0.7,0.2-1c0.1-0.3,0.3-0.5,0.6-0.7c0.3-0.2,0.6-0.2,0.9-0.2c0.4,0,0.7,0.1,0.9,0.2      c0.3,0.2,0.5,0.4,0.6,0.7C191.7,199.3,191.8,199.7,191.8,200z"/><path fill="#fff" d="M196.8,197.3h-3.6c-0.1,0-0.2,0-0.3,0.1c-0.1,0.1-0.1,0.2-0.1,0.3c0,0.1,0,0.2,0.1,0.3      c0.1,0.1,0.2,0.1,0.3,0.1h1.3v4c0,0.1,0,0.2,0.1,0.3v0c0.1,0.1,0.2,0.1,0.3,0.1s0.2,0,0.3-0.1c0.1-0.1,0.1-0.2,0.1-0.3v-4h1.3      c0.1,0,0.2,0,0.3-0.1c0.1-0.1,0.1-0.2,0.1-0.3c0-0.1,0-0.2-0.1-0.3C197,197.4,196.9,197.3,196.8,197.3z"/><path fill="#fff" d="M201.1,197.6c-0.3-0.2-0.7-0.2-1.2-0.2h-1.7c-0.1,0-0.2,0.1-0.3,0.1c-0.1,0.1-0.1,0.2-0.1,0.3v4.4      c0,0.1,0,0.2,0.1,0.3v0c0.1,0.1,0.2,0.1,0.3,0.1c0.1,0,0.2,0,0.3-0.1c0.1-0.1,0.1-0.2,0.1-0.3v-1.4h1.2c0.5,0,0.9-0.1,1.2-0.2      c0.3-0.2,0.5-0.4,0.7-0.7c0.1-0.3,0.2-0.5,0.2-0.9c0-0.3-0.1-0.6-0.2-0.8C201.6,198,201.4,197.7,201.1,197.6z M201,199.1      c0,0.2-0.1,0.4-0.3,0.6c-0.2,0.2-0.5,0.2-0.9,0.2h-1.1v-1.7h1.1c0.5,0,0.8,0.1,0.9,0.2C200.9,198.6,201,198.8,201,199.1z"/><path fill="#fff" d="M206,198.4c0.3-0.2,0.6-0.2,1-0.2c0.3,0,0.5,0,0.7,0.1c0.2,0.1,0.4,0.1,0.6,0.2c0.2,0.1,0.4,0,0.5-0.1      c0.1-0.1,0.1-0.2,0.1-0.3c0-0.2-0.1-0.3-0.2-0.4c-0.3-0.2-0.5-0.3-0.8-0.3c-0.3-0.1-0.6-0.1-0.9-0.1c-0.5,0-1,0.1-1.4,0.3      c-0.4,0.2-0.7,0.5-1,1c-0.2,0.4-0.3,0.9-0.3,1.5c0,0.5,0.1,1,0.3,1.5c0.2,0.4,0.6,0.7,1,1v0c0.4,0.2,0.9,0.3,1.4,0.3      c0.3,0,0.6,0,0.9-0.1c0.3-0.1,0.5-0.2,0.8-0.3c0.2-0.1,0.2-0.2,0.2-0.4c0-0.1,0-0.2-0.1-0.3c-0.1-0.1-0.3-0.2-0.5-0.1      c-0.2,0.1-0.4,0.2-0.6,0.2c-0.2,0.1-0.4,0.1-0.7,0.1c-0.4,0-0.7-0.1-1-0.2c-0.3-0.2-0.5-0.4-0.6-0.6c-0.1-0.3-0.2-0.6-0.2-0.9      c0-0.4,0.1-0.7,0.2-0.9C205.5,198.8,205.7,198.6,206,198.4z"/><path fill="#fff" d="M212.1,198.9c-0.3-0.2-0.7-0.3-1-0.3c-0.4,0-0.7,0.1-1.1,0.3c-0.3,0.2-0.5,0.4-0.7,0.7      c-0.2,0.3-0.2,0.7-0.2,1.1c0,0.4,0.1,0.8,0.2,1.1c0.2,0.3,0.4,0.6,0.7,0.7v0c0.3,0.2,0.7,0.3,1.1,0.3c0.4,0,0.7-0.1,1-0.3      c0.3-0.2,0.5-0.4,0.7-0.7c0.2-0.3,0.2-0.7,0.2-1.1c0-0.4-0.1-0.8-0.2-1.1C212.7,199.3,212.4,199.1,212.1,198.9z M212.1,200.7      c0,0.3-0.1,0.5-0.2,0.7c-0.1,0.2-0.2,0.3-0.4,0.4h0c-0.3,0.2-0.7,0.2-1,0c-0.2-0.1-0.3-0.2-0.4-0.4c-0.1-0.2-0.2-0.4-0.2-0.7      c0-0.3,0.1-0.5,0.2-0.7c0.1-0.2,0.2-0.3,0.4-0.4c0.2-0.1,0.3-0.1,0.5-0.1c0.2,0,0.3,0,0.5,0.1c0.2,0.1,0.3,0.2,0.4,0.4      C212.1,200.2,212.1,200.4,212.1,200.7z"/><path fill="#fff" d="M216.6,197.2c-0.1,0.1-0.1,0.2-0.1,0.3v1.5c-0.6-0.4-1.4-0.5-2-0.1c-0.3,0.2-0.5,0.4-0.7,0.7      c-0.2,0.3-0.3,0.7-0.3,1.1c0,0.4,0.1,0.8,0.3,1.1c0.2,0.3,0.4,0.6,0.7,0.7c0.3,0.2,0.6,0.2,0.9,0.2c0.4,0,0.8-0.1,1.1-0.4      c0,0.1,0.1,0.2,0.1,0.2c0.2,0.2,0.5,0.2,0.7,0c0.1-0.1,0.1-0.2,0.1-0.3v-4.7c0-0.1,0-0.2-0.1-0.3      C217.1,197,216.8,197,216.6,197.2z M216.5,200v1.4c-0.1,0.1-0.3,0.2-0.4,0.3h0c-0.2,0.1-0.4,0.1-0.6,0.1c-0.3,0-0.6-0.1-0.8-0.3      c-0.2-0.2-0.3-0.5-0.3-0.9c0-0.4,0.1-0.7,0.3-0.9c0.2-0.2,0.4-0.3,0.8-0.3c0.2,0,0.4,0,0.6,0.1      C216.2,199.7,216.3,199.9,216.5,200z"/><path fill="#fff" d="M221,201.6c-0.1,0.1-0.3,0.1-0.4,0.2c-0.1,0-0.3,0.1-0.5,0.1c-0.3,0-0.6-0.1-0.8-0.2      c-0.2-0.1-0.3-0.3-0.3-0.5h2.3c0.1,0,0.3,0,0.3-0.1c0.1-0.1,0.1-0.2,0.1-0.3c0-0.3-0.1-0.7-0.2-1c-0.1-0.3-0.4-0.5-0.6-0.7      c-0.3-0.2-0.6-0.3-1-0.3c-0.4,0-0.8,0.1-1,0.3c-0.3,0.2-0.5,0.5-0.6,0.8c-0.1,0.3-0.2,0.6-0.2,1c0,0.6,0.2,1.2,0.5,1.5      c0.4,0.4,0.9,0.5,1.5,0.5c0.3,0,0.6,0,0.7-0.1c0.2-0.1,0.4-0.1,0.6-0.3c0.2-0.1,0.3-0.3,0.3-0.4c0-0.1,0-0.2-0.1-0.3      C221.4,201.6,221.2,201.6,221,201.6z M219,200.2c0-0.1,0.1-0.3,0.1-0.4c0.1-0.1,0.2-0.2,0.3-0.3c0.3-0.1,0.6-0.1,0.8,0      c0.1,0.1,0.3,0.2,0.3,0.3c0.1,0.1,0.1,0.2,0.1,0.4H219z"/></g><g><path fill="#8fb7ff" d="M168.2,93.7v24.1c0,1.3-1.1,2.3-2.3,2.3H136l-10.9,7.6c-0.8,0.5-1.9,0-1.9-1v-6.6h-5      c-1.3,0-2.3-1.1-2.3-2.3V93.7c0-1.3,1.1-2.3,2.3-2.3h47.6C167.1,91.3,168.2,92.4,168.2,93.7z"/><path fill="#497bfe" d="M126,97.5c-1.2,0-2.1,0.4-2.8,1.3c-0.6,0.9-0.9,2-0.9,3.5c0,1.4,0.3,2.6,0.9,3.5c0.6,0.9,1.6,1.3,2.8,1.3       c1.2,0,2.1-0.4,2.7-1.3c0.6-0.9,0.9-2,0.9-3.5c0-1.4-0.3-2.6-0.9-3.5C128.2,98,127.2,97.5,126,97.5z M126,105.6       c-0.7,0-1.2-0.3-1.5-0.8c-0.4-0.6-0.6-1.4-0.6-2.5c0-1,0.2-1.9,0.6-2.5c0.4-0.6,0.9-0.8,1.5-0.8c0.7,0,1.2,0.3,1.5,0.8       c0.4,0.6,0.6,1.4,0.6,2.5c0,1.1-0.2,1.9-0.6,2.5C127.2,105.4,126.7,105.6,126,105.6z"/><path fill="#497bfe" d="M139.9,103.3h-0.8v-4.8c0-0.3-0.1-0.5-0.3-0.7c-0.2-0.2-0.4-0.3-0.7-0.3h-0.3c-0.2,0-0.3,0-0.5,0.1       c-0.1,0.1-0.3,0.2-0.4,0.3l-4,5.1c-0.1,0.2-0.2,0.4-0.2,0.6v0.1c0,0.3,0.1,0.5,0.3,0.7c0.2,0.2,0.4,0.3,0.7,0.3h3.7v1.5       c0,0.2,0.1,0.4,0.2,0.6c0.2,0.2,0.3,0.2,0.6,0.2c0.2,0,0.4-0.1,0.6-0.2c0.2-0.2,0.2-0.3,0.2-0.6v-1.5h0.8       c0.2,0,0.4-0.1,0.5-0.2c0.1-0.1,0.2-0.3,0.2-0.5c0-0.2-0.1-0.4-0.2-0.5C140.2,103.4,140.1,103.3,139.9,103.3z M137.5,99.7v3.6       h-2.8L137.5,99.7z"/><path fill="#497bfe" d="M149.3,102.1c0.3-0.2,0.5-0.3,0.7-0.6c0.3-0.4,0.5-0.9,0.5-1.5c0-0.8-0.3-1.4-0.9-1.9       c-0.6-0.4-1.4-0.6-2.4-0.6c-0.9,0-1.8,0.2-2.6,0.7c-0.2,0.1-0.4,0.3-0.4,0.6c0,0.2,0.1,0.4,0.2,0.5c0.2,0.2,0.5,0.3,0.8,0.1       c0.6-0.3,1.2-0.4,1.9-0.4c0.6,0,1.1,0.1,1.4,0.3c0.3,0.2,0.4,0.5,0.4,0.8c0,0.4-0.2,0.8-0.6,1c-0.4,0.2-1,0.4-1.9,0.4h-0.1       c-0.2,0-0.4,0.1-0.5,0.2c-0.1,0.1-0.2,0.3-0.2,0.5c0,0.2,0.1,0.4,0.2,0.5c0.1,0.1,0.3,0.2,0.5,0.2h0.2c2.6,0,2.6,1.1,2.6,1.4       c0,0.4-0.2,0.7-0.6,0.9c-0.4,0.2-1,0.3-1.6,0.3c-0.7,0-1.4-0.1-2-0.4c-0.3-0.1-0.6-0.1-0.8,0.2c-0.1,0.1-0.2,0.3-0.2,0.5       c0,0.2,0,0.3,0.1,0.4c0.1,0.1,0.2,0.2,0.3,0.3l0,0c0.9,0.4,1.8,0.5,2.8,0.5c1,0,1.9-0.2,2.5-0.7c0.7-0.5,1-1.1,1-2       c0-0.8-0.2-1.3-0.6-1.7C149.9,102.5,149.6,102.3,149.3,102.1z"/><path fill="#497bfe" d="M160.6,105.5h-4.1c0.1-0.1,0.2-0.2,0.4-0.4c0.3-0.2,0.7-0.6,1.3-1c0.7-0.4,1.2-0.8,1.6-1.1       c0.4-0.3,0.8-0.7,1.1-1.2c0.3-0.5,0.5-1,0.5-1.5c0-0.6-0.1-1.1-0.4-1.5c-0.3-0.4-0.7-0.8-1.1-1c-0.5-0.2-1-0.3-1.6-0.3       c-1.1,0-2,0.2-2.9,0.7c-0.3,0.1-0.4,0.4-0.4,0.7c0,0.2,0.1,0.4,0.2,0.5c0.2,0.2,0.5,0.3,0.8,0.1c0.7-0.3,1.4-0.4,2.1-0.4       c0.7,0,1.1,0.1,1.4,0.4c0.3,0.2,0.4,0.6,0.4,1c0,0.3-0.1,0.5-0.3,0.7c-0.2,0.3-0.4,0.5-0.7,0.7c-0.3,0.2-0.7,0.5-1.2,0.8       c-0.6,0.4-1.1,0.7-1.5,1c-0.4,0.3-0.7,0.6-1,1c-0.3,0.4-0.4,0.9-0.4,1.4c0,0.3,0.1,0.5,0.3,0.6c0.2,0.2,0.4,0.2,0.6,0.2h4.9       c0.2,0,0.4-0.1,0.5-0.2c0.1-0.1,0.2-0.3,0.2-0.5c0-0.2-0.1-0.4-0.2-0.5C161,105.6,160.8,105.5,160.6,105.5z"/><path fill="#497bfe" d="M129.9,109.8L129.9,109.8c0,0.4-0.3,0.8-0.8,0.8h-6.2c-0.4,0-0.8-0.3-0.8-0.8l0,0c0-0.4,0.3-0.8,0.8-0.8       h6.2C129.6,109,129.9,109.4,129.9,109.8z"/><path fill="#497bfe" d="M140.6,109.8L140.6,109.8c0,0.4-0.3,0.8-0.8,0.8h-6.2c-0.4,0-0.8-0.3-0.8-0.8l0,0c0-0.4,0.3-0.8,0.8-0.8       h6.2C140.3,109,140.6,109.4,140.6,109.8z"/><path fill="#497bfe" d="M151.3,109.8L151.3,109.8c0,0.4-0.3,0.8-0.8,0.8h-6.2c-0.4,0-0.8-0.3-0.8-0.8l0,0c0-0.4,0.3-0.8,0.8-0.8       h6.2C150.9,109,151.3,109.4,151.3,109.8z"/><path fill="#497bfe" d="M162,109.8L162,109.8c0,0.4-0.3,0.8-0.8,0.8H155c-0.4,0-0.8-0.3-0.8-0.8l0,0c0-0.4,0.3-0.8,0.8-0.8h6.2       C161.6,109,162,109.4,162,109.8z"/><path fill="#497bfe" d="M168.2,107.9v9.9c0,1.3-1.1,2.3-2.3,2.3H136l-10.9,7.6c-0.8,0.5-1.9,0-1.9-1v-6.6h-5      c-1.3,0-2.3-1.1-2.3-2.3v-1.4c7,2.1,16.1,2.7,25.9,1.3C152.6,116.1,162.1,112.4,168.2,107.9z"/></g><g><path fill="#4c5c75" d="M109.8,244.5H77.6c-1.6-6.1-3.3-12.4-3.3-12.4l-3.4,10.7l-0.5,1.7H37.4c0.1-3.6,0.4-7.7,0.8-11.8      c1-9.2,2.8-18.5,6.4-21.7c11.1-10.1,46.8-10.1,57.9,0c2.2,2,3.7,6.2,4.8,11.3C108.9,229.2,109.5,237.8,109.8,244.5z"/><path fill="#111d33" d="M107.4,222.2c-2.7,0.8-5.7,0.6-8.5,0c-3.1-0.7-6-1.9-9.1-2.8c-10.7-3-22.5-1.6-32.2,3.7      c-2.6,1.5-5.2,3.3-6.7,5.9c-1.5,2.6-1.7,6.1,0.2,8.5c2.3,2.9,6.6,2.9,10.4,2.8c3.3-0.1,7.2,0.2,9.4,2.5l-0.5,1.7H37.4      c0.1-3.6,0.4-7.7,0.8-11.8c1-9.2,2.8-18.5,6.4-21.7c11.1-10.1,46.8-10.1,57.9,0C104.8,212.9,106.3,217.1,107.4,222.2z"/><path fill="#f7a386" d="M125.3,172c-0.9,1.2,0.4,3.6,2.9,5.5c2.5,1.9,5.2,2.5,6.1,1.3c0.9-1.2-0.4-3.6-2.9-5.5       C128.8,171.4,126.1,170.8,125.3,172z"/><path fill="#ffd475" d="M122.7,179.8c-1.6-11.3-6.8-28.9-9.3-38.6c-2.1-8.6-6-10.1-6-10.1c0-0.4-12-7.3-16.4-8.9       c-1.4-0.5-3-0.9-4.9-1.4c-0.9-0.2-1.9-0.4-2.8-0.6c-7.8-1.5-17.6-2.5-23.5-2.1c-0.2,0-0.3,0-0.5,0c-0.8,0.1-1.7,0.2-2.6,0.4       c-8.4,1.6-22.4,7.5-26.2,11.4c-3.8,4-11.8,59,0.5,68.9c0.9,0.8,2,1.3,3.2,1.4c2.5,0.4,9.5-3.5,9.5-3.5s-8.4,15.5-4.3,20.4       c10.8,12.9,43.5-13.3,66.5,0.7c2.2-2.5,3.3-5,3.7-7.7c0.6-4-0.3-8.1-1.7-12.3c0.7,0.7,1.6,1.1,2.7,1.1       C116.4,199,123.5,185.4,122.7,179.8z M102.5,178.8c0.1,0.7,0.2,1.3,0.4,1.8c0.8,3,1.4,5.9,1.9,8.4       C103.6,185.5,102.6,182.1,102.5,178.8z"/><path fill="#ef9645" d="M29.6,159.1c1.2-13.3,3.7-24.9,5.4-26.7c4.1-4.3,21-11.1,28.8-11.8c0.9-0.1,1.9-0.1,2.9-0.1v-2.4       c-2.8-0.1-5.3-0.1-7.3,0c-7.7,0.6-24.6,7.5-28.8,11.8c-1.8,1.9-4.5,14.8-5.6,29.1H29.6z"/><path fill="#ef9645" d="M86.2,120.8l-6.5,36.6l-22.9-38.9c1-0.2,1.8-0.3,2.6-0.4c0.2,0,0.3,0,0.5,0c5.9-0.4,15.7,0.6,23.5,2.1       C84.3,120.4,85.2,120.6,86.2,120.8z"/><path fill="#fff" d="M83.3,120.2l-5.2,29l-18.3-31.1C65.7,117.7,75.5,118.7,83.3,120.2z"/><path fill="#ef9645" d="M109.7,210.2c-0.4,2.7-1.5,5.3-3.7,7.7c-23-14-55.7,12.2-66.5-0.7c-4.1-5,4.3-20.4,4.3-20.4       s-7,3.9-9.5,3.5c-1.2-0.2-2.3-0.7-3.2-1.4c0.3-0.4,0.6-0.8,0.9-1.2c2.6-3.4,5.5-6.6,7.4-10.4c1.9-3.9,2.4-8.2,2.8-12.4h9.6       c0,1-0.1,2-0.1,3c-0.1,2.6-0.4,5.2-0.7,7.8c-0.2,1.6-0.2,6.6-1.4,7.7l13.1-12.7c3.9-3.7,7.8-7.5,12.4-10.3       c4.6-2.8,4.2-5.3,9.5-4.6c-11.2,10.3-16.5,21.3-27.7,31.5c-3.7,3.4-7.5,6.9-9.2,11.6c-0.5,1.3-0.8,2.8-0.5,4.2       c0.3,1.4,1.2,2.7,2.6,3.1c1,0.3,2,0.1,3-0.1c11.1-2,22.1-4,33.2-6c-4.5-3.4-7.3-8.8-7.5-14.4c2.1,3.4,4.2,6.8,7.3,9.2       c3.1,2.4,7.5,3.5,11.1,1.8c1.1-0.6,2.1-1.4,3.4-1.6c1.7-0.3,3.3,0.6,4.7,1.4C106.5,207.7,108.2,208.9,109.7,210.2z"/><path fill="#f7a386" d="M102.5,158.6v20.3c0.1,0.7,0.2,1.2,0.4,1.8c2.8,10.5,2.9,18.4,7.9,18.4c5.7,0,12.8-13.6,12-19.2       c-0.1-0.9-0.3-1.9-0.5-2.9c0-0.2-0.1-0.4-0.1-0.6c-0.8-4.6-2.1-9.9-3.5-15.2c-0.2-0.8-0.4-1.7-0.7-2.5H102.5z"/><linearGradient id="f" x1="2860.651" x2="2876.829" y1="161.703" y2="161.703" gradientTransform="matrix(-1 0 0 1 2979.316 0)" gradientUnits="userSpaceOnUse"><stop offset="0" stop-color="#f7a386"/><stop offset="1" stop-color="#fd6b58"/></linearGradient><path fill="url(#f)" d="M102.5,158.6v6.3c0.2,0,0.5,0,0.7,0c0.9-0.2,1.6-1,2.3-1.6c1.4-1,3.3-1.2,5.1-1.1       c1.8,0.1,3.5,0.4,5.3,0.1c1-0.2,2-0.6,2.7-1.2c-0.2-0.8-0.4-1.7-0.7-2.5H102.5z"/><linearGradient id="g" x1="2865.478" x2="2876.829" y1="178.778" y2="178.778" gradientTransform="matrix(-1 0 0 1 2979.316 0)" gradientUnits="userSpaceOnUse"><stop offset="0" stop-color="#f7a386"/><stop offset="1" stop-color="#fd6b58"/></linearGradient><path fill="url(#g)" d="M102.5,158.6v20.3c0.1,0.7,0.2,1.2,0.4,1.8c2.8,10.5,2.9,18.4,7.9,18.4c1,0,2.1-0.4,3.1-1.2       c-0.6,0.3-1.2,0.4-1.8,0.4c-5,0-5.1-7.9-7.9-18.4c-0.1-0.5-0.3-1.1-0.4-1.8v-19.5H102.5z"/><path fill="#ffd475" d="M99.6,158c-0.2-0.2-0.4-0.4-0.6-0.7c-4.8-7-0.8-31.7-0.8-31.7c4.6,2.4,9.2,5.2,9.2,5.5       c0,0,3.9,1.6,6,10.1c0.7,2.9,2.9,8.9,4.4,13c0.8,2.1,1.5,3.8,1.7,4.3C120.6,161,103.3,161.9,99.6,158z"/><path fill="#f7a386" d="M134.2,178.8c-2.9,4.5-5.8,9.1-9.5,13c-2.7,2.9-6,5.4-9.9,6.5c-10.5,3.2-7.6-7-7.2-8.6       c0.5-2.1,1.4-4,2.6-5.8c1.9-2.7,4.6-4.8,7.7-5.9c1-0.4,2.1-0.7,3.1-1.1c1-0.5,1.9-1.1,2.4-2.1c0.3-0.5,0.4-1,0.7-1.4       c0.3-0.5,0.8-0.8,1.3-0.8c0.6,0.1,1.1,0.7,1.4,1.2C128.2,175.7,131.4,178.6,134.2,178.8z"/><path fill="#fee1bc" d="M107,194.4c0.1-1.8,0.5-3.5,0.7-4.1c0.5-2.1,1.4-4,2.6-5.8c1.9-2.7,4.6-4.8,7.7-5.9       c1-0.4,2.1-0.7,3.1-1.1c0.4-0.2,0.8-0.4,1.2-0.7c0-0.2-0.1-0.4-0.1-0.6c-0.3,0.2-0.7,0.4-1,0.6c-1,0.5-2,0.8-3.1,1.1       c-3.1,1.2-5.8,3.2-7.7,5.9c-1.2,1.7-2.1,3.7-2.6,5.8C107.6,190.4,107,192.4,107,194.4z"/><linearGradient id="h" x1="2845.105" x2="2872.278" y1="188.776" y2="188.776" gradientTransform="matrix(-1 0 0 1 2979.316 0)" gradientUnits="userSpaceOnUse"><stop offset="0" stop-color="#f7a386"/><stop offset="1" stop-color="#fd6b58"/></linearGradient><path fill="url(#h)" d="M114.9,198.3c3.8-1.2,7.1-3.6,9.9-6.5c3.6-3.9,6.6-8.5,9.5-13c-0.3,0-0.6-0.1-0.9-0.1       c-2.5,3.9-5.1,7.7-8.3,11.1c-2.7,2.9-6,5.4-9.9,6.5c-7.2,2.2-8.1-1.9-7.8-5.3C106.7,194.2,106,201,114.9,198.3z"/><path fill="#4c5c75" d="M135.3,146.8l-13,22.7c-0.5,0.9,0.1,2,1.2,2h12.2c0.5,0,0.9-0.3,1.2-0.7l13-22.7c0.5-0.9-0.1-2-1.2-2        h-12.2C136,146.2,135.5,146.4,135.3,146.8z"/><path fill="#111d33" d="M121.6,171.6h1.9c-1,0-1.7-1.1-1.2-2.1l13-22.7c0.2-0.4,0.7-0.7,1.2-0.7h-1.9c-0.5,0-0.9,0.3-1.2,0.7        l-13,22.7C119.9,170.5,120.5,171.6,121.6,171.6z"/><path fill="#f7a386" d="M133.7,178.8C133.7,178.8,133.7,178.8,133.7,178.8c0,0-0.1,0-0.1,0L133.7,178.8z"/><path fill="#f7a386" d="M131.4,175.1c0,0-0.2,3,2.3,3.7h0c1.2,0,2.2-0.5,3-1.7c0.3-0.6,0.6-1.2,1.1-1.6c0.6-0.4,1.3-0.3,2-0.6       c0.7-0.3,1.1-1,1.2-1.7c0-0.5-0.1-1,0.1-1.3c0.2-0.3,0.6-0.4,0.9-0.6c1.1-0.6,1.6-1.9,1.3-3.1c-0.2-0.7-0.7-1.3-0.8-2.1       c0,0,3.5-4.9,3.2-6.8c-0.2-1.4-3.2-4.1-5.3-5.1c-0.5-0.2-0.9-0.4-1.2-0.4c-0.4,0-0.6,0.1-0.7,0.5c0,0.1,0,0.3,0,0.4       c-0.1,1.8,1,2.8,2.4,4.3c1.4,1.6-1.5,3.6-2.7,3.8c-3.1,0.4-10.8-2.7-12.2-1.8c-1.4,0.8-1.2,2.5,9.5,6.2       c-2.2-0.7-10.2-3.3-11.4-2.7c-1.4,0.7-1.4,2.4,8.9,7.1c-2.1-0.9-9.4-4.1-10.7-3.5C120.9,168.8,121.1,170.1,131.4,175.1z"/><path fill="#fee1bc" d="M141.1,172.9c0,0.1,0,0.3,0,0.4c0,0,0,0,0,0C141.1,173.1,141.1,173,141.1,172.9z"/><path fill="#fee1bc" d="M139.4,154.3c1.7,0.1,6.2,3.7,6.5,5.5c0-0.2,0-0.3,0-0.5c-0.3-1.8-4.8-5.4-6.5-5.5       c-0.4,0-0.6,0.1-0.7,0.5c-0.1,0.3-0.1,0.6,0,0.9c0-0.1,0-0.3,0-0.4C138.8,154.4,139,154.3,139.4,154.3z"/><path fill="#fee1bc" d="M138.4,163.3c1-0.1,3.3-1.7,3-3.1c-0.2,1.3-2.2,2.5-3,2.6c-3.1,0.4-10.8-2.7-12.2-1.8       c-0.4,0.3-0.7,0.6-0.6,1.1c0.1-0.2,0.3-0.4,0.6-0.6C127.6,160.6,135.3,163.6,138.4,163.3z"/><path fill="#fee1bc" d="M124.3,164.4c0.6-0.3,2.9,0.2,5.3,0.8c0,0,0,0,0,0c1.1,0.3,5.1,1.5,6.5,2l-3-0.5c-3.2-1-7.8-2.3-8.8-1.9       c-0.3,0.1-0.5,0.3-0.6,0.6C123.5,165,123.8,164.7,124.3,164.4z"/><path fill="#fee1bc" d="M122.4,168.1c0.7-0.3,2.9,0.4,5.2,1.2c1.4,0.5,5,2,6.2,2.7l-2.5-0.7c-3-1.3-7.9-3.2-8.9-2.7       c-0.3,0.1-0.5,0.3-0.6,0.5C121.6,168.6,121.9,168.3,122.4,168.1z"/><polygon fill="#f7a386" points="80.6 97 80.6 119.8 76.4 132.1 76.1 131.8 62.7 118 62.7 97"/><linearGradient id="i" x1="64.826" x2="90.65" y1="112.365" y2="118.714" gradientUnits="userSpaceOnUse"><stop offset="0" stop-color="#f7a386"/><stop offset="1" stop-color="#fd6b58"/></linearGradient><path fill="url(#i)" d="M76.1,131.8L62.7,118V97c0,0,0.1,0,0.1-0.1c1.3-0.8,2.9-1,4.3-0.7c0.6,0.1,1.1,0.4,1.6,0.7        c1.5,0.9,2.4,2.5,2.8,4.2c0.8,3.1,1.5,6.1,1.8,9.2c0.1,1.9,0.1,3.7,0,5.6c-0.1,1.2-0.2,2.4,0.2,3.5c0.4,1.1,1.9,0.6,2.8,1.4        C79,123.4,74.9,128.2,76.1,131.8z"/><linearGradient id="j" x1="906.006" x2="847.364" y1="98.565" y2="98.196" gradientTransform="translate(-805.908)" gradientUnits="userSpaceOnUse"><stop offset="0" stop-color="#fee1bc"/><stop offset="1" stop-color="#fd6b58"/></linearGradient><path fill="url(#j)" d="M84.5,117c-1.3-0.3-2.6-0.6-3.9-1c-6.9-2.2-12.8-6.1-15.8-8.4c-1.4-1-2.2-1.7-2.2-1.7        v-4.7c0,0-2.2-2.5-3.1-5.2c-0.7-2.2-0.5-4.5,2.6-5.7L63.4,80c12.1-0.5,23.5-0.4,27.7,5.2C91.1,85.2,96.3,119.3,84.5,117z"/><path fill="#8a4852" d="M55.1,85.1c0.5,3,1.8,6.2,3.2,8.9c1.6,3.3,3.3,5.7,3.4,5.8c-1.6-3.2-2.6-8.5,0.3-9.4c3.3-1,4.8,5,4.8,5        s1.2,3.8,2.2,3.4c1.8-0.6-0.7-6.8,1.2-7.6c1.9-0.8,4.1-1.4,4.2-5.1c0.1-2,1-2.7,2.4-2.9c9.8-1.2,12,5.1,16.5,0.9        c2.2-2.1,3.2-4.6,2.6-7c-1-4.5-7.3-8.9-19.7-10c-18.7-1.8-14.3,8.3-14.2,8.5c0,0,0,0,0,0C55.6,76.3,54.3,80.4,55.1,85.1z"/><path fill="#fff" d="M96.1,79.1c0-0.3-0.1-0.6-0.1-0.9c-1-4.5-7.3-8.9-19.7-10c-11.9-1.1-14.4,2.5-14.7,5.4        c-0.2-2.9,1.4-7.7,14.7-6.4c12.4,1.2,18.7,5.5,19.7,10C96.1,77.8,96.1,78.4,96.1,79.1z" opacity=".1"/><path fill="#fff" d="M62.1,75.7c-0.1,0-0.2,0-0.3,0c-0.1-0.6-0.3-1.3-0.2-2.1C61.6,74.8,62,75.6,62.1,75.7z"/><path fill="#fee1bc" d="M84.5,117c-1.1-0.2-2.2-0.5-3.3-0.8c0.7,0.2,1.4,0.3,2.1,0.5c11.4,2.2,7.7-31.4,7.7-31.4        S96.3,119.3,84.5,117z" opacity=".3"/><path fill="#8a4852" d="M79.7,93.7c-1.3,0.3-2.5,1-3.7,1.7c-0.2,0.1-0.5,0.2-0.7,0.1c-0.1-0.1-0.1-0.3-0.1-0.5        c0.1-1,0.8-1.9,1.6-2.5c1.6-1.3,3.7-1.9,5.8-1.6c0.4,0.1,0.7,0.1,1,0.3c0.4,0.1,0.7,0.4,1,0.7c0.2,0.3,0.4,0.7,0.3,1.1        c-0.2,1.1-1.4,0.8-2.2,0.7C81.7,93.5,80.6,93.5,79.7,93.7z"/><path fill="#8a4852" d="M87.2,92.2c0.2-0.4,0.5-0.6,0.8-0.8c0.3-0.2,0.6-0.3,0.9-0.5c1.3-0.5,2.8-0.6,4.2-0.3        c0.6,0.1,1,0.7,1,1.3l0,0c0,0.7-0.6,1.2-1.3,1.2c-0.1,0-0.3,0-0.4,0c-1,0-2,0.2-2.9,0.6c-0.8,0.3-1.8,0.9-2.2-0.2        C87,93,87,92.6,87.2,92.2z"/><path fill="#e27659" d="M90,106.9c-1.2,0-4.9,0.1-7.9-0.6c-0.3-0.1-0.5,0.2-0.3,0.4c0.6,1.2,2.2,3.9,5.2,3.7        c2-0.1,3-2.2,3.3-3.2C90.4,107.1,90.2,106.9,90,106.9z"/><path fill="#fcfcfc" d="M83.3,107.6c0.7,1,1.9,1.9,3.4,2c1.2,0,1.9-0.7,2.3-1.5C87.4,108.2,85.4,108,83.3,107.6z"/><path fill="#e27659" d="M84.4,100.8c-0.1-0.1-0.2,0.1-0.2,0.2c0.2,0.8,0.6,1.5,1.2,2c0.6,0.5,1.5,0.7,2.1,0.3        c0.8-0.6,1.3-1.7,0.8-2c-0.3-0.2-0.9,0.8-1.3,0.9C85.4,102.3,84.8,101.1,84.4,100.8z"/><path fill="#e27659" d="M87.1,113.4c0,0-1.9-1.6-3.5-0.2"/><path fill="#e27659" d="M64.8,95.9c-0.2-0.8-0.6-1.5-1.1-2.1c-0.6-0.6-1.4-0.9-2.1-0.9c-0.4,0-0.8,0.2-1.2,0.4        c-0.1,0-0.1,0.1-0.1,0.2c0,0.1,0.1,0.1,0.2,0.1c0.3-0.2,0.7-0.3,1-0.3c0.7-0.1,1.4,0.2,1.9,0.8c0.4,0.5,0.8,1.1,1,1.8        c-0.2-0.1-0.4-0.3-0.6-0.3c-0.2,0-0.5,0-0.8,0.1c-0.1,0-0.3,0.1-0.5,0.2c-0.2,0.2-0.2,0.4-0.2,0.6c0,0.1,0.1,0.1,0.2,0.1        c0,0,0,0,0,0c0.1,0,0.1-0.1,0.1-0.2c0-0.1,0-0.2,0.1-0.2c0.1-0.1,0.2-0.1,0.3-0.2c0.3-0.1,0.5-0.1,0.7-0.1        c0.3,0,0.6,0.2,0.8,0.5c0,0,0,0,0,0c0.1,0.6,0.1,1.1,0.2,1.7c0,0.1,0.1,0.2,0.2,0.2c0,0,0,0,0,0c0.1,0,0.1-0.1,0.1-0.2"/><path fill="#111d33" d="M80.2,96.7c0,0.5,0.4,1,1,1c0.5,0,1-0.4,1-1c0-0.5-0.4-1-1-1C80.7,95.7,80.2,96.2,80.2,96.7z"/><path fill="#111d33" d="M83.2,96.6c-0.7-0.2-1.3-0.4-2-0.6l0.2,0c-0.5,0.3-0.9,0.6-1.4,0.9c-0.5,0.2-1,0.4-1.6,0.4c0,0,0,0,0,0        c0,0,0,0,0,0c0.4-0.5,0.8-0.8,1.3-1c0.5-0.2,1-0.4,1.5-0.6l0,0c0.1,0,0.1,0,0.2,0C82,95.8,82.6,96.2,83.2,96.6        C83.2,96.5,83.2,96.5,83.2,96.6C83.2,96.6,83.2,96.6,83.2,96.6z"/><path fill="#111d33" d="M89.1,96.6c0,0.5,0.4,1,1,1c0.5,0,1-0.4,1-1c0-0.5-0.4-1-1-1C89.6,95.6,89.1,96,89.1,96.6z"/><path fill="#fcfcfc" d="M90.1,96.8c0,0.1,0.1,0.3,0.3,0.3c0.1,0,0.3-0.1,0.3-0.3c0-0.1-0.1-0.3-0.3-0.3        C90.2,96.5,90.1,96.6,90.1,96.8z"/><path fill="#fcfcfc" d="M81.3,96.8c0,0.1,0.1,0.3,0.3,0.3c0.1,0,0.3-0.1,0.3-0.3c0-0.1-0.1-0.3-0.3-0.3        C81.4,96.5,81.3,96.6,81.3,96.8z"/><path fill="#111d33" d="M92.1,96.4c-0.7-0.2-1.3-0.4-2-0.6l0.2,0c-0.5,0.3-0.9,0.6-1.4,0.9c-0.5,0.2-1,0.4-1.6,0.4c0,0,0,0,0,0        c0,0,0,0,0,0c0.4-0.5,0.8-0.8,1.3-1c0.5-0.2,1-0.4,1.5-0.6l0,0c0.1,0,0.1,0,0.2,0C90.9,95.7,91.5,96,92.1,96.4        C92.1,96.4,92.2,96.4,92.1,96.4C92.1,96.4,92.1,96.4,92.1,96.4z"/><path fill="#51383c" d="M61.6,99.8c-1.6-3.2-2.6-8.5,0.3-9.4c3.3-1,4.8,5,4.8,5s1.2,3.8,2.2,3.4c1.8-0.6-0.7-6.8,1.2-7.6       c1.9-0.8,4.1-1.4,4.2-5.1c0.1-2,1-2.7,2.4-2.9c9.8-1.2,12,5.1,16.5,0.9c2.2-2.1,3.2-4.6,2.6-7c-0.1,0.1-0.3,0.2-0.4,0.3       c-1.3,0.9-2.9,1.2-4.5,1.1c-2.9-0.1-5.8-1-8.7-1.5c-2.9-0.6-6-0.8-8.7,0.3c-2.7,1.2-4.8,4.1-4.2,7c0.2,0.9,0.6,1.8,0.7,2.7       c0.1,0.9-0.3,2-1.2,2.3c-0.8,0.2-1.5-0.2-2.1-0.8c-0.5-0.6-0.9-1.3-1.5-1.8c-1.2-1-3.1-1.1-4.3-0.1c-1,0.8-1.4,2.2-1.7,3.4       c-0.4,1.3-0.7,2.6-1.1,3.9C59.9,97.2,61.5,99.7,61.6,99.8z"/><path fill="#51383c" d="M55.1,85.1c0,0,0.1-0.1,0.1-0.3c0.1-2.3,1.8-6.4,4.5-7.8c2.6-1.4,6.7,0.7,6.9,0.8       c-2.6-2.2-4.5-2.1-4.5-2.1C55.6,76.3,54.3,80.4,55.1,85.1z"/><path fill="#f7a386" d="M89.5,157.3c0.1,0,1,0.2,2,0.3C90.5,157.4,89.6,157.3,89.5,157.3z"/><path fill="#f7a386" d="M88.6,161.4c0.1,0,0.5,0.1,1,0.2C89.1,161.4,88.7,161.4,88.6,161.4z"/><path fill="#fee1bc" d="M138.7,154.7c0.1,0.1,0.1,0.3,0.2,0.4c0.5,0.6,1.2,0.8,1.6,0.4c0.3-0.3,0.4-0.8,0.1-1.3       c-0.5-0.2-0.9-0.4-1.2-0.4c-0.4,0-0.6,0.1-0.7,0.5C138.7,154.4,138.7,154.6,138.7,154.7z"/><path fill="#fee1bc" d="M125.8,161.8c0.1,0.1,0.2,0.3,0.3,0.4c0.5,0.6,1.2,0.8,1.7,0.5c0.4-0.3,0.4-0.9,0.1-1.4       c-0.5-0.2-1-0.4-1.3-0.4c-0.4,0-0.7,0.1-0.7,0.5C125.9,161.5,125.9,161.7,125.8,161.8z"/><path fill="#fee1bc" d="M123.7,165.3c0.1,0.1,0.2,0.4,0.3,0.5c0.5,0.6,1.2,0.8,1.7,0.5c0.4-0.3,0.4-0.9,0.1-1.4       c-0.5-0.2-1-0.4-1.3-0.4c-0.4,0-0.7,0.1-0.7,0.5C123.8,165.1,123.7,165.2,123.7,165.3z"/><path fill="#fee1bc" d="M122,169c0.1,0.1,0.2,0.4,0.3,0.5c0.5,0.6,1.2,0.8,1.7,0.5c0.4-0.3,0.4-0.9,0.1-1.4       c-0.5-0.2-1-0.4-1.3-0.4c-0.4,0-0.7,0.1-0.7,0.5C122.1,168.8,122,168.8,122,169z"/><path fill="#111d33" d="M145.7,148.2l-2.6,4.7c-0.1,0.2,0,0.4,0.2,0.4h2.3c0.1,0,0.2-0.1,0.2-0.1l2.6-4.7c0.1-0.2,0-0.4-0.2-0.4       h-2.3C145.8,148.1,145.7,148.1,145.7,148.2z"/><path fill="#f7a386" d="M34.3,200.3c2.2,0.3,14.1-3.1,23.2-12.6c4.9-5.1,10-10,15-15c1.2-1.2,2.5-2.5,4-3.3         c1.5-0.8,3.2-1.1,4.9-1.4c2.1-0.4,6.4-0.5,7.2-2.2c0.1-0.2,0.1-0.2,0.1-0.4c1.5,0.2,3.9,0.4,4.2-1.2c0.2-1.7-1.9-2.4-3.2-2.8         c1.5,0.2,4.2,0.4,4.7-1.1c0.5-1.7-1.2-2.5-2.7-2.9c-1-0.1-1.9-0.3-2-0.3c0.1,0,1,0.1,2,0.3c1.5,0.1,3.4,0.1,3.8-1.1         c0.8-2.5-3.7-3.1-4.7-3.2c3.8,0.3,7.7,0.6,11.5,0.8c1,0.1,2.2,0,2.8-0.8c0,0,0,0,0,0c0.4-0.7,0.1-1.6-0.5-2.2         c-0.6-0.6-1.4-0.8-2.2-1.1c-5.8-1.8-12.2-2.9-17.9-1c-4.3,1.4-7.9,4.5-11.5,7.3c-9.2,7.3-19,13.7-29.3,19.2l3.1-17.3         l-22.4,0.4C22.8,177.5,24.7,198.8,34.3,200.3z M88.6,161.4c0.1,0,0.5,0.1,1,0.2C89.1,161.5,88.7,161.4,88.6,161.4z"/><linearGradient id="k" x1="2874.377" x2="2955.476" y1="175.76" y2="175.76" gradientTransform="matrix(-1 0 0 1 2979.316 0)" gradientUnits="userSpaceOnUse"><stop offset="0" stop-color="#f7a386"/><stop offset="1" stop-color="#fd6b58"/></linearGradient><path fill="url(#k)" d="M34.3,200.3c2.2,0.3,14.1-3.1,23.2-12.6c4.9-5.1,10-10,15-15c1.2-1.2,2.5-2.5,4-3.3         c1.5-0.8,3.2-1.1,4.9-1.4c2.1-0.4,6.4-0.5,7.2-2.2c0.1-0.2,0.1-0.2,0.1-0.4c1.5,0.2,3.9,0.4,4.2-1.2c0.2-1.7-1.9-2.4-3.2-2.8         c1.5,0.2,4.2,0.4,4.7-1.1c0.5-1.7-1.2-2.5-2.7-2.9c1.5,0.1,3.4,0.1,3.8-1.1c0.8-2.5-3.7-3.1-4.7-3.2         c3.8,0.3,7.7,0.6,11.5,0.8c1,0.1,2.2,0,2.8-0.8c0,0,0,0,0,0c-3.7-1.3-7.6-2-11.5-2c-1.5,0-3.2,0.1-4,1.4         c-0.3,0.5-0.5,1-0.6,1.5c-0.2,0.7-0.4,1.4-0.5,2c-0.3,1.3-0.7,2.6-0.5,3.9c0.2,1.3,1,2.5,0.7,3.8c-0.3,0.9-1.1,1.6-2,1.9         c-0.9,0.3-1.9,0.4-2.8,0.5c-5.8,0.6-11.5,3.1-15.8,7.1c-3.6,3.3-6.3,7.7-10.6,10c-5.1,2.9-9.4,7-14.1,10.6         c-1.6,1.2-3.3,2.5-5.2,3.2c-1.9,0.7-4.2,0.7-5.9-0.5c-2.1-1.4-2.7-4.2-3.2-6.6c-1.3-6.7-3.2-13.5-4.5-20.2         c-0.3-1.5-0.5-3.4,0.7-4.4c0.7-0.6,1.6-0.7,2.5-0.8c3.1-0.3,6.9-0.6,10-0.9c1.4-0.1,6-0.7,7.2-1.5c1.2-0.8,2-2.3,1.5-3.6         c0-0.1-0.1-0.2-0.1-0.2l-22,0.4C22.8,177.5,24.7,198.8,34.3,200.3z"/><path fill="#fee1bc" d="M51.9,170.8c7.3-4.4,14.3-9.2,20.9-14.5c3.6-2.8,7.2-5.9,11.5-7.3c5.8-1.9,12.1-0.8,17.9,1        c0.8,0.2,1.6,0.5,2.2,1.1c0.6,0.6,0.9,1.5,0.5,2.2c0,0,0,0,0,0c-0.1,0.2-0.2,0.3-0.4,0.4c-0.1-0.4-0.3-0.7-0.6-1        c-0.6-0.6-1.4-0.8-2.2-1.1c-5.8-1.8-12.2-2.9-17.9-1c-4.3,1.4-7.9,4.5-11.5,7.3c-6.5,5.1-15.9,10.2-23,14.4L51.9,170.8z"/><path fill="#ffd475" d="M47.7,158.3c-3.2,4.1-24.2,5.9-24.1,0.6c0.4-18.7,5.2-27.2,6.9-29c2.2-2.3,8-5.3,14.2-7.7        C44.7,122.2,53.3,151.1,47.7,158.3z"/><path fill="#ef9645" d="M35.1,132.2c-1.8,1.8-6.5,10.3-6.9,29c0,0.2,0,0.5,0.1,0.7c-2.8-0.4-4.7-1.4-4.6-3        c0.4-18.7,5.2-27.2,6.9-29c2.2-2.3,8-5.3,14.2-7.7c0,0,0.4,1.4,1,3.7C41,128,36.8,130.4,35.1,132.2z"/><path fill="#fee1bc" d="M101.3,152.1c-0.2,0.7,0.5,1.4,1.4,1.7c0.9,0.2,1.8-0.2,2-0.9c0.2-0.7-0.5-1.4-1.4-1.7        C102.3,151,101.5,151.4,101.3,152.1z"/><path fill="#fee1bc" d="M43.3,175.6c0,0-6.3,2.6-9.3,10.1c2.7-4.6,6.4-8.2,10.9-10.9L43.3,175.6z"/></g><g><path fill="#fff" d="M126,97c-1.2,0-2.1,0.4-2.8,1.3c-0.6,0.9-0.9,2-0.9,3.5c0,1.4,0.3,2.6,0.9,3.5c0.6,0.9,1.6,1.3,2.8,1.3      c1.2,0,2.1-0.4,2.7-1.3c0.6-0.9,0.9-2,0.9-3.5c0-1.4-0.3-2.6-0.9-3.5C128.2,97.4,127.2,97,126,97z M126,105.1      c-0.7,0-1.2-0.3-1.5-0.8c-0.4-0.6-0.6-1.4-0.6-2.5c0-1,0.2-1.9,0.6-2.5c0.4-0.6,0.9-0.8,1.5-0.8c0.7,0,1.2,0.3,1.5,0.8      c0.4,0.6,0.6,1.4,0.6,2.5c0,1.1-0.2,1.9-0.6,2.5C127.2,104.8,126.7,105.1,126,105.1z"/><path fill="#fff" d="M139.9,102.8h-0.8V98c0-0.3-0.1-0.5-0.3-0.7c-0.2-0.2-0.4-0.3-0.7-0.3h-0.3c-0.2,0-0.3,0-0.5,0.1      c-0.1,0.1-0.3,0.2-0.4,0.3l-4,5.1c-0.1,0.2-0.2,0.4-0.2,0.6v0.1c0,0.3,0.1,0.5,0.3,0.7c0.2,0.2,0.4,0.3,0.7,0.3h3.7v1.5      c0,0.2,0.1,0.4,0.2,0.6c0.2,0.2,0.3,0.2,0.6,0.2c0.2,0,0.4-0.1,0.6-0.2c0.2-0.2,0.2-0.3,0.2-0.6v-1.5h0.8c0.2,0,0.4-0.1,0.5-0.2      c0.1-0.1,0.2-0.3,0.2-0.5c0-0.2-0.1-0.4-0.2-0.5C140.2,102.8,140.1,102.8,139.9,102.8z M137.5,99.2v3.6h-2.8L137.5,99.2z"/><path fill="#fff" d="M149.3,101.6c0.3-0.2,0.5-0.3,0.7-0.6c0.3-0.4,0.5-0.9,0.5-1.5c0-0.8-0.3-1.4-0.9-1.9      c-0.6-0.4-1.4-0.6-2.4-0.6c-0.9,0-1.8,0.2-2.6,0.7c-0.2,0.1-0.4,0.3-0.4,0.6c0,0.2,0.1,0.4,0.2,0.5c0.2,0.2,0.5,0.3,0.8,0.1      c0.6-0.3,1.2-0.4,1.9-0.4c0.6,0,1.1,0.1,1.4,0.3c0.3,0.2,0.4,0.5,0.4,0.8c0,0.4-0.2,0.8-0.6,1c-0.4,0.2-1,0.4-1.9,0.4h-0.1      c-0.2,0-0.4,0.1-0.5,0.2c-0.1,0.1-0.2,0.3-0.2,0.5c0,0.2,0.1,0.4,0.2,0.5c0.1,0.1,0.3,0.2,0.5,0.2h0.2c2.6,0,2.6,1.1,2.6,1.4      c0,0.4-0.2,0.7-0.6,0.9c-0.4,0.2-1,0.3-1.6,0.3c-0.7,0-1.4-0.1-2-0.4c-0.3-0.1-0.6-0.1-0.8,0.2c-0.1,0.1-0.2,0.3-0.2,0.5      c0,0.2,0,0.3,0.1,0.4c0.1,0.1,0.2,0.2,0.3,0.3l0,0c0.9,0.4,1.8,0.5,2.8,0.5c1,0,1.9-0.2,2.5-0.7c0.7-0.5,1-1.1,1-2      c0-0.8-0.2-1.3-0.6-1.7C149.9,101.9,149.6,101.8,149.3,101.6z"/><path fill="#fff" d="M160.6,105h-4.1c0.1-0.1,0.2-0.2,0.4-0.4c0.3-0.2,0.7-0.6,1.3-1c0.7-0.4,1.2-0.8,1.6-1.1      c0.4-0.3,0.8-0.7,1.1-1.2c0.3-0.5,0.5-1,0.5-1.5c0-0.6-0.1-1.1-0.4-1.5c-0.3-0.4-0.7-0.8-1.1-1c-0.5-0.2-1-0.3-1.6-0.3      c-1.1,0-2,0.2-2.9,0.7c-0.3,0.1-0.4,0.4-0.4,0.7c0,0.2,0.1,0.4,0.2,0.5c0.2,0.2,0.5,0.3,0.8,0.1c0.7-0.3,1.4-0.4,2.1-0.4      c0.7,0,1.1,0.1,1.4,0.4c0.3,0.2,0.4,0.6,0.4,1c0,0.3-0.1,0.5-0.3,0.7c-0.2,0.3-0.4,0.5-0.7,0.7c-0.3,0.2-0.7,0.5-1.2,0.8      c-0.6,0.4-1.1,0.7-1.5,1c-0.4,0.3-0.7,0.6-1,1c-0.3,0.4-0.4,0.9-0.4,1.4c0,0.3,0.1,0.5,0.3,0.6c0.2,0.2,0.4,0.2,0.6,0.2h4.9      c0.2,0,0.4-0.1,0.5-0.2c0.1-0.1,0.2-0.3,0.2-0.5c0-0.2-0.1-0.4-0.2-0.5C161,105,160.8,105,160.6,105z"/><path fill="#fff" d="M129.9,109.3L129.9,109.3c0,0.4-0.3,0.8-0.8,0.8h-6.2c-0.4,0-0.8-0.3-0.8-0.8l0,0c0-0.4,0.3-0.8,0.8-0.8      h6.2C129.6,108.5,129.9,108.8,129.9,109.3z"/><path fill="#fff" d="M140.6,109.3L140.6,109.3c0,0.4-0.3,0.8-0.8,0.8h-6.2c-0.4,0-0.8-0.3-0.8-0.8l0,0c0-0.4,0.3-0.8,0.8-0.8      h6.2C140.3,108.5,140.6,108.8,140.6,109.3z"/><path fill="#fff" d="M151.3,109.3L151.3,109.3c0,0.4-0.3,0.8-0.8,0.8h-6.2c-0.4,0-0.8-0.3-0.8-0.8l0,0c0-0.4,0.3-0.8,0.8-0.8      h6.2C150.9,108.5,151.3,108.8,151.3,109.3z"/><path fill="#fff" d="M162,109.3L162,109.3c0,0.4-0.3,0.8-0.8,0.8H155c-0.4,0-0.8-0.3-0.8-0.8l0,0c0-0.4,0.3-0.8,0.8-0.8h6.2      C161.6,108.5,162,108.8,162,109.3z"/></g><path fill="#fff" d="M212.1,228.6L212.1,228.6c0,1.7-1.4,3.1-3.1,3.1h-7.9c-1.7,0-3.1-1.4-3.1-3.1l0,0c0-1.7,1.4-3.1,3.1-3.1h7.9     C210.7,225.6,212.1,226.9,212.1,228.6z"/><polygon fill="#111d33" points="74.2 232.1 69.9 222.4 85.1 244.3 77.6 244.5"/><path fill="#ef9645" d="M99.6,158c-0.2-0.2-0.4-0.4-0.6-0.7c0.6-0.5,1.5-0.7,2.4-0.9c3.6-0.5,7.2-0.3,10.8-0.7     c1.4-0.2,2.7-0.4,4-0.9c0.6-0.2,1.1-0.4,1.7-0.7c0.8,2.1,1.5,3.8,1.7,4.3C120.6,161,103.3,161.9,99.6,158z"/></svg>