<svg xmlns="http://www.w3.org/2000/svg" enable-background="new 0 0 490 490" viewBox="0 0 490 490"><path fill="#1a3a49" d="M30.246 417h429.508v4H30.246z"/><path fill="#1c5ab5" d="m345.424 69.064 82.034.102c9.06.011 16.166 7.369 15.866 16.428L434.54 350.44c-.3 9.06-7.894 16.4-16.955 16.39l-65.29-.082-6.87-297.683z"/><path fill="#3a6dc9" d="m271.88 85.39-8.784 264.845c-.3 9.06 6.806 16.417 15.867 16.428l137.411.166c9.06.01 10.654-7.33 10.955-16.39l8.784-264.845c.3-9.06-6.806-16.417-15.866-16.428L288.835 69c-9.06-.01-16.654 7.33-16.955 16.39z"/><path fill="#fff" d="m281.07 334.557 129.327.164c5.93.007 10.898-4.795 11.094-10.725l7.102-214.123c.197-5.93-4.451-10.743-10.382-10.75l-129.327-.164c-5.93-.007-10.898 4.795-11.095 10.725l-7.101 214.123c-.197 5.93 4.451 10.743 10.382 10.75zm77.392-254.65c.078-2.372-1.774-4.29-4.138-4.294s-4.343 1.912-4.421 4.284c-.079 2.363 1.774 4.281 4.137 4.284s4.343-1.911 4.422-4.274zm-22.132 9.796a1.65 1.65 0 0 0 1.662 1.72l31.615.037a1.782 1.782 0 0 0 1.776-1.716 1.655 1.655 0 0 0-1.662-1.72l-31.615-.037a1.788 1.788 0 0 0-1.776 1.716zm-7.78 258.411a4.392 4.392 0 0 0 4.415 4.561l24.327.028c2.517.003 4.633-2.034 4.717-4.55a4.413 4.413 0 0 0-1.231-3.23 4.44 4.44 0 0 0-3.184-1.341l-24.327-.029c-2.517-.003-4.634 2.044-4.717 4.56z"/><path fill="#d7daf4" d="M370.963 119.464h27.157c5.798 0 10.491 4.924 10.205 10.707l-8.653 174.784a9.706 9.706 0 0 1-9.744 9.26h-14.47l-4.495-194.75z"/><path fill="#d7daf4" d="M370.963 119.464h27.157c5.798 0 10.491 4.924 10.205 10.707l-.297 5.998h-36.68l-.385-16.705z"/><path fill="#eae8fe" d="M249.818 314.216h135.79a9.706 9.706 0 0 0 9.744-9.261l8.653-174.784c.286-5.783-4.407-10.707-10.205-10.707H258.01a9.706 9.706 0 0 0-9.744 9.262l-8.653 174.783c-.286 5.784 4.406 10.707 10.205 10.707z"/><path fill="#a7abc6" d="M403.708 136.17h-155.81l.368-7.444a9.706 9.706 0 0 1 9.744-9.262H393.8c5.798 0 10.49 4.924 10.205 10.707l-.297 5.998z"/><path fill="#fff" d="M390.923 128.462c-.092 1.235.836 2.238 2.063 2.238 1.235 0 2.312-1.003 2.404-2.238a2.047 2.047 0 0 0-2.071-2.23c-1.227 0-2.304 1.003-2.396 2.23zm-6.48 0c-.092 1.235.836 2.238 2.062 2.238 1.236 0 2.313-1.003 2.405-2.238a2.047 2.047 0 0 0-2.071-2.23c-1.227 0-2.304 1.003-2.396 2.23zm-6.48 0c-.092 1.235.835 2.238 2.062 2.238 1.236 0 2.313-1.003 2.405-2.238a2.047 2.047 0 0 0-2.072-2.23c-1.227 0-2.304 1.003-2.395 2.23z"/><path fill="#fe6081" d="M294.631 219.58c5.65 5.774 13.605 9.318 22.646 9.318 9.175 0 17.75-3.64 24.266-9.566 6.774-6.145 11.328-14.748 12.014-24.266 1.353-18.682-12.7-33.831-31.383-33.831s-34.926 15.149-36.28 33.831c-.695 9.651 2.706 18.35 8.737 24.514z"/><ellipse cx="320.617" cy="185.893" fill="#fff" rx="11.523" ry="10.719" transform="rotate(-43.964 320.617 185.893)"/><path fill="#fff" d="M294.631 219.58c5.65 5.774 13.605 9.318 22.646 9.318 9.175 0 17.75-3.64 24.266-9.566-1.467-10.87-10.508-19.045-22.046-19.045-11.632 0-21.912 8.298-24.866 19.293z"/><path fill="#a7abc6" d="m365.738 242.896-1.15 14.055c-.108 1.335-1.277 2.416-2.612 2.416h-91.794c-1.336 0-2.328-1.08-2.218-2.416l1.148-14.055c.11-1.335 1.278-2.415 2.614-2.415h91.794c1.335 0 2.327 1.08 2.218 2.415zm-2.074 25.364-1.149 14.055c-.109 1.335-1.278 2.416-2.613 2.416h-91.794c-1.335 0-2.327-1.08-2.218-2.416l1.149-14.055c.11-1.335 1.278-2.415 2.613-2.415h91.794c1.335 0 2.327 1.08 2.218 2.415z"/><path fill="#eae8fe" d="m320.59 248.42-34.765-.323-.28 3.075 34.795.322zm8.01.074-.251 3.075 19.527.18.28-3.073z"/><ellipse cx="290.84" cy="275.288" fill="#eae8fe" rx="3.182" ry="2.932" transform="rotate(-43.83 290.84 275.288)"/><ellipse cx="302.809" cy="275.288" fill="#eae8fe" rx="3.182" ry="2.932" transform="rotate(-43.83 302.809 275.288)"/><ellipse cx="314.777" cy="275.288" fill="#eae8fe" rx="3.182" ry="2.932" transform="rotate(-43.83 314.777 275.288)"/><ellipse cx="326.746" cy="275.288" fill="#eae8fe" rx="3.182" ry="2.932" transform="rotate(-43.83 326.746 275.288)"/><ellipse cx="338.714" cy="275.288" fill="#eae8fe" rx="3.182" ry="2.932" transform="rotate(-43.83 338.714 275.288)"/><path fill="#0e1738" d="M126.41 144.18c2.254 6.387 1.738 13.7-1.391 19.707s-8.826 10.622-15.351 12.435c-3.3.918-7.135 1.045-9.851-1.043-2.918-2.244-3.653-6.266-4.152-9.913-.5-3.653-.979-7.356-.523-11.015s1.954-7.324 4.793-9.675c2.855-2.365 6.698-3.14 10.396-3.398a47.18 47.18 0 0 1 11.514.61"/><path fill="#fec3bd" d="M241.14 214.763c-2.271 4.384-27.885 18.678-27.885 18.678l-13.148-15.327s9.01-20.197 12.816-20.605c3.764-.393.821 10.089.821 10.089 1.612-1.618 13.622-13.629 15.379-9.624.64 1.454-.874 4.918-1.808 6.138 3.68-2.77 9.664-5.739 10.636-3.825 1.354 2.663-3.203 5.917-4.846 6.981 1.715-1.026 6.787-3.778 7.574-.903.48 1.75-3.302 4.468-4.94 5.866 1.546-.576 6.885-.323 5.401 2.532z"/><path fill="#3a6dc9" d="m104.58 417.23-.322-1.532-14.18-67.304h54.223l2.062 68.835z"/><path fill="#1c5ab5" d="m90.078 348.394 14.18 67.304 6.642-67.304z"/><path fill="#3a6dc9" d="M50.383 417.23v-68.836H110.9l-14.716 68.835z"/><path fill="#eae8fe" d="M143.81 353.705H52.98s1.809-36.828 1.037-45.563c-1.786-20.32-14.361-54.728-8.388-67.717 1.987-4.339 21.213-14.882 21.213-14.882l12.332-3.269 26.061-1.146 12.674 3.157s14.629 5.717 19.181 12.47c7.872 11.657 4.496 50.773 4.508 70.968.01 7.504 1.446 32.94 2.213 45.982z"/><path fill="#fe6081" d="M48.028 310.654c.715 8.117.618 30.149.378 48.84-.217 16.17-.538 29.834-.538 29.834h10.437c20.144 0 47.63 1.062 48.372-21.18.74-22.212-3.752-79.468-4.245-88.8-1.858-35.165-23.259-57.071-23.259-57.071l-12.333 3.265s-23.685 9.466-25.749 16.354c-2.127 7.082-2.232 14.902-1.356 22.946 1.694 15.761 7.105 32.356 8.293 45.812zm80.297-40.193s5.036 1.616 11.979 3.496c5.79 1.571 12.9 3.322 19.525 4.487 6.895 1.205 13.256 1.777 17.037.822 10.816-2.731 39.061-47.458 39.061-47.458l-16.399-17.035-32.165 31.62c-15.807-10.128-34.556-16.365-43.028-19.863l3.99 43.931z"/><path fill="#b94768" d="M140.304 273.957c5.79 1.571 12.9 3.322 19.525 4.487-12.369-14.006-23.855-38.129-23.855-38.129s3.587 30.97 4.33 33.642z"/><path fill="#fe6081" d="m114.918 294.624 5.463 60.183c1.372 19.16 10.663 34.523 29.872 34.523-1.22-15.718-7.168-71.211-7.18-81.447-.013-20.196 3.186-57.088-5.628-72.319-3.321-5.737-14.127-9.685-19.536-11.28-2.23-.657-9.021-2.246-9.021-2.246l6.03 72.586z"/><path fill="#b94768" d="M48.028 310.654c.715 8.117.618 30.149.378 48.84l53.338-15.908.963-23.527-39.328-10.095s2.193-35.308 1.807-40.947c-.67-9.768-9.314-21.758-9.314-21.758l-16.137 17.583c1.694 15.761 7.105 32.356 8.293 45.812z"/><path fill="#fdd1c4" d="M99.724 323.343s19.193-10.027 22.361-8.026c3.129 1.986-5.5 8.243-5.5 8.243"/><path fill="#070d2b" d="M113.899 365.738h43.504a3.862 3.862 0 0 0 3.78-3.073l12.094-57.939a3.862 3.862 0 0 0-3.78-4.651h-43.505a3.862 3.862 0 0 0-3.78 3.073l-12.094 57.939a3.862 3.862 0 0 0 3.78 4.651z"/><path fill="#fdd1c4" d="M116.584 323.56c2.22-.262 18.74-2.182 17.655 1.96-.393 1.505-3.66 3.244-5.119 3.613 4.509.11 10.906 1.468 10.49 3.528-.58 2.867-6.055 2.595-7.964 2.414 1.94.255 7.506 1.225 6.363 3.91-.696 1.635-5.25 1.423-7.357 1.5 1.536.498 5.481 3.938 2.606 5.227-4.408 1.985-32.758-2.612-32.758-2.612l-.776-19.757"/><path fill="#fe6081" d="M45.145 237.241s20.04 7.556 17.587 45.355c-.534 8.225-6.11 32.185-6.11 32.185l46.085 5.278-.963 23.527c-22.501.885-57.739 5.887-68.24-6.88-5.474-6.653-4.85-90.972 11.64-99.465z"/><path fill="#fec3bd" d="M102.624 235.984c-12.104-.526-23.433-13.338-23.45-13.71-.448-8.854-1.92-28.784-3.939-35.112-.447-1.394.862-2.704 2.256-2.264l29.73 9.268a1.798 1.798 0 0 1 1.199 2.17 36.553 36.553 0 0 0-.828 4.292 48.067 48.067 0 0 0-.169 1.504c-.38 4.233-.034 8.085.43 10.907.102.616.229 1.69.381 2.923v.008c.363 3.169.49 5.062.626 5.527.067.228.605 14.785-6.236 14.487z"/><path fill="#f18b89" d="M108.234 215.962v.008s-16.472-6.07-19.38-11.286c-3.838-6.885 16.161-3.549 16.161-3.549s1.048.431 2.408.997c-.38 4.233-.034 8.085.43 10.907.102.616.229 1.69.381 2.923z"/><path fill="#fec3bd" d="M111.703 210.457c-16.351 4.407-30.95-12.059-34.947-18.91v-.008a41.344 41.344 0 0 1-1.434-2.674 1.76 1.76 0 0 0-.61-.7c-2.111-1.415-11.678-8.239-9.276-14.292 1.568-3.94 4.248-4.406 6.222-4.103 1.16.178 2.171-.842 2.015-2.005-4.252-31.612 30.565-30.243 40.145-15.975a18.37 18.37 0 0 1 1.284 2.289c6.235 12.749 14.168 51.643-3.399 56.378z"/><path fill="#0e1738" d="m78.918 211.906-.45-.598c-5.412-7.235-10.405-14.848-14.788-22.749-2.873-5.179-5.543-10.552-7.355-16.204-2.19-6.836-1.977-13.866-2.176-20.976-.056-1.981-.106-4.006.492-5.895.598-1.889 1.976-3.65 3.89-4.16 1.652-.44 3.394.098 5.103.078s3.718-1.03 3.709-2.74c-.007-1.373-1.314-2.39-1.675-3.715-.372-1.363.358-2.844 1.46-3.729 1.102-.884 2.511-1.282 3.894-1.574a34.863 34.863 0 0 1 18.41 1.131c2.117.727 4.24 1.673 6.477 1.597 2.202-.075 4.23-1.13 6.258-1.992a38.364 38.364 0 0 1 17.216-2.973c5.289.316 18.833 8.977 15.222 19.495-1.913 5.573-4.028 9.071-9.906 9.47s-11.64-1.511-17.222-3.398c-.154 3.563-3.825 6.153-7.383 6.397-3.557.243-6.981-1.236-10.24-2.683.814 2.296-.02 5.074-1.965 6.542-1.464 1.106-3.376 1.355-5.126.907-1.318-.339-3.14-.841-3.203 1.338l-.266 9.063a1.805 1.805 0 0 1-3.499.569l-1.396-3.805a1.778 1.778 0 0 0-.988-1.04c-1.685-.688-5.85-1.727-7.975 3.611-2.402 6.053 7.165 12.877 9.276 14.292.265.177.471.414.61.7.25.516.729 1.46 1.434 2.682l1.533 5.995c.437 1.709.629 14.364.629 14.364z"/><ellipse cx="97.713" cy="176.652" fill="#0e1738" rx="1.999" ry="2.999" transform="rotate(-2.623 97.713 176.652)"/><path fill="#0e1738" d="M94.675 172.15a.5.5 0 0 1-.312-.89c3.847-3.068 6.26-.97 6.36-.878a.5.5 0 0 1-.666.745c-.077-.066-1.912-1.602-5.071.915a.497.497 0 0 1-.311.109z"/><ellipse cx="114.608" cy="176.652" fill="#0e1738" rx="1.999" ry="2.999" transform="rotate(-2.623 114.608 176.652)"/><path fill="#0e1738" d="M111.57 172.15a.5.5 0 0 1-.311-.89c3.847-3.068 6.26-.97 6.36-.878a.5.5 0 0 1-.666.745c-.077-.066-1.913-1.602-5.071.915a.497.497 0 0 1-.311.109z"/><path fill="#f18b89" d="M109.597 192.289a.5.5 0 0 1-.332-.874c.58-.516.91-1.2.932-1.928a2.593 2.593 0 0 0-.781-1.917 7.93 7.93 0 0 0-.792-.66c-.191-.147-.383-.293-.563-.447-1.271-1.08-2.125-2.595-2.472-4.382-.304-1.565-.208-3.135-.115-4.655a.5.5 0 0 1 .998.061c-.09 1.457-.181 2.963.098 4.403.304 1.562 1.043 2.88 2.138 3.81.168.144.346.28.523.416.303.231.616.47.893.748.72.723 1.102 1.665 1.072 2.653-.03 1.005-.48 1.945-1.266 2.645a.498.498 0 0 1-.333.127zm-4.987 8.301c-2.56 0-5.096-1.343-6.521-3.474a.5.5 0 1 1 .83-.555c1.287 1.923 3.588 3.108 5.926 3.024a.5.5 0 0 1 .037 1c-.09.003-.18.005-.271.005z"/><path fill="#f9dae0" d="M139.354 87.818v15.145a2.873 2.873 0 0 1-2.875 2.875h-16.308a2.872 2.872 0 0 1-2.866-2.875V87.818a2.87 2.87 0 0 1 2.866-2.867h16.308a2.872 2.872 0 0 1 2.875 2.867zm-16.029-2.868v-3.687a4.97 4.97 0 0 1 1.466-3.537 4.97 4.97 0 0 1 3.536-1.465 5.008 5.008 0 0 1 5.003 5.002v3.687h2.825v-3.687c0-4.316-3.511-7.828-7.828-7.828-2.09 0-4.055.815-5.534 2.294a7.776 7.776 0 0 0-2.293 5.534v3.687h2.825z"/><path fill="#fff" d="m129.157 96.16 1.538 3.853h-4.732l1.538-3.853a2.758 2.758 0 0 1-1.93-2.629 2.757 2.757 0 1 1 3.586 2.629z"/><path fill="#f9dae0" d="M236.233 332.361s-5.275 25.387-20.937 30.318c-15.387-4.93-19.244-30.318-19.244-30.318 16.16-3.105 20.463-13.333 20.463-13.333s3.733 10.228 19.718 13.333z"/><path fill="#fff" d="m211.136 348.169-3.834-6.161 2.547-1.585 2.23 3.584 12.885-8.231 1.615 2.528z"/><path fill="#eae8fe" d="M186.492 142.501c3.348 1.167 7.049-.398 9.039-3.561l20.331 7.087a2.092 2.092 0 0 0 1.378-3.951l-1.077-.376.464-1.33.609-1.747-2.368-.826-.61 1.748-1.494-.521.61-1.748-2.37-.825-.608 1.747-.464 1.33-13.027-4.54c.408-3.72-1.517-7.243-4.864-8.407-3.963-1.383-8.419 1.062-9.95 5.46-1.533 4.394.437 9.077 4.4 10.46zm-.948-9.26c.795-2.278 3.106-3.545 5.16-2.829 2.058.715 3.078 3.145 2.284 5.425-.794 2.281-3.105 3.549-5.16 2.832-2.057-.715-3.078-3.147-2.284-5.428z"/></svg>