<svg xmlns="http://www.w3.org/2000/svg" viewBox="0 0 3000 3000"><g data-name="License Options Illustration"><path fill="#43ad67" d="M2412.38 2442.64a14 14 0 0 0-6.39 1.5c-13.75 7-18.16 37.32-11.88 82.05-13.71-14.82-26-22.64-35.41-22.62a14.23 14.23 0 0 0-7.29 1.92c-12.86 7.45-15.74 36.18-7.87 78.09h164.25c-29-80.84-69.79-141-95.41-140.94Z"/><path fill="#56bb6a" d="M2575 2303.88c-27 .42-66.15 71.25-88.67 160.55-11.12 44-16.69 86.82-15.49 119.15h205.73c10.78-24.46 12.69-42.41 5.49-50.86-3.07-3.6-7.73-5.43-13.87-5.4-9.34 0-21.9 4.34-36.76 12.62 36.81-62.36 49-112.21 29.84-122.54a17.46 17.46 0 0 0-8.52-1.93c-14.7 0-37.36 13.28-63.51 37.12 17.17-82.28 12-145.55-12.19-148.59a13.94 13.94 0 0 0-2.05-.11Z"/><path d="M2589.24 2452.59s-16.57 21.14-23.68 43.39l-7.11 22.24a232.44 232.44 0 0 1 8.33-59c8.66-30.28 29.06-44.81 29.06-44.81s-4.55 31-6.6 38.21Z"/><path fill="#f4ccc7" d="M1913.2 499.39a80.47 80.47 0 1 1-80.46 80.47 80.42 80.42 0 0 1 80.46-80.47Zm0-6.93a87.4 87.4 0 1 0 87.31 88.11 3.43 3.43 0 0 0 .08-.71 3.36 3.36 0 0 0-.08-.71 87.4 87.4 0 0 0-87.31-86.69Zm-1204.71-28A197.62 197.62 0 1 1 510.87 662a197.56 197.56 0 0 1 197.62-197.59Zm565.17-41.19c198-1.63 312.7 85.12 363.67 190.69 33.29 69 39.34 146.16 23.24 212.25s-54.23 120.89-109 145.7c-113.27 51.33-221.35 188.24-229.33 317.23-4 64.5 17.5 127.14 76.13 175s154 80.92 297.84 87.94c285.85 13.94 404 131.86 451.59 246.16s24.28 225.25 24.28 225.25a2.9 2.9 0 0 0-.09.72c0 137.7-129.7 360.22-580.54 360.22-238.61 0-482.86-40.18-686.75-148.55s-367.5-284.78-445.45-558c-96.25-337.51-91.25-663.2 79.8-901.27a204.36 204.36 0 0 0 169.44 90c112.7 0 204.12-91.29 204.47-203.91a2.79 2.79 0 0 0 .04-.7 2.73 2.73 0 0 0-.07-.64 203.87 203.87 0 0 0-54.32-138.16c62.44-28.42 132-52.49 209.16-71.64 76.82-19.06 145.26-27.84 205.89-28.34Zm.07-6.78c-61.29.42-130.32 9.23-207.6 28.4-78.44 19.46-149.15 44-212.58 73.06a203.8 203.8 0 0 0-145-60.41C595.58 457.49 504 549.11 504 662a203.46 203.46 0 0 0 31 108.36c-174.27 240.64-179.25 569.7-82.39 909.29 78.43 275 243.57 453.13 448.85 562.24s450.62 149.37 690 149.37c452.63 0 587.14-224.58 587.44-366.66.14-.67 23.69-113-24.71-229.13-48.55-116.5-170-236.38-457.65-250.41-142.92-7-236.81-39.89-293.8-86.38s-77.47-106.45-73.59-169.16c7.76-125.41 114.74-261.26 225.27-311.35 57.15-25.89 96.38-82.7 112.86-150.38s10.3-146.42-23.72-216.9c-51-105.7-164.88-192.26-357.7-194.43q-6-.1-12.14 0Z"/><path fill="#56bb6a" d="M904.06 2257.7c28.87.17 69.91 69 103.26 173.24 18.86-36.48 37.41-54.86 52.6-52.11 24.42 4.42 37.09 62.7 33 152 57.25 11.4 90.09 28.69 90.59 47.68a17.12 17.12 0 0 1-.64 5h-550.7c6.61-12.6 27.14-24.87 59.3-35.42-32.39-50.34-43.12-86.89-29.54-100.58 16-16.09 63.55 1.29 126.86 46.37-11.28-42.72-9.89-70.72 3.92-79 16.38-9.83 48.83 8.85 89.4 51.48-18.72-116.59-11.44-201.37 17.91-208.29a16.85 16.85 0 0 1 4-.45Z"/><path d="M875.05 2412.5c1.71 17.26 4.08 35.33 7.07 53.94 0 0 26.16 38.81 37.52 65.91l11.36 27.09s-8-86.36-56-146.94ZM691.47 2548.16l22.53 35.42a82 82 0 0 1-34.1-31.34l11.59-4.08Z"/><path fill="#43ad67" d="M1906.75 2442.64a14.1 14.1 0 0 1 6.41 1.5c13.75 7 18.15 37.32 11.87 82.05 13.71-14.82 25.94-22.64 35.4-22.62a14.26 14.26 0 0 1 7.3 1.92c12.85 7.45 15.73 36.18 7.86 78.09h-164.26c29.05-80.84 69.81-141 95.42-140.94Z"/><path fill="#56bb6a" d="M1744.13 2303.88c27 .42 66.14 71.25 88.69 160.55 11.1 44 16.67 86.82 15.48 119.15h-205.73c-10.77-24.46-12.71-42.41-5.5-50.86 3.07-3.6 7.74-5.43 13.86-5.4 9.36 0 21.92 4.34 36.79 12.62-36.83-62.36-49-112.21-29.86-122.54a17.49 17.49 0 0 1 8.52-1.93c14.71 0 37.36 13.28 63.52 37.12-17.18-82.28-12-145.55 12.18-148.59a13.94 13.94 0 0 1 2.05-.11Z"/><path d="M1729.89 2452.59s16.58 21.14 23.69 43.39l7.11 22.24a232.49 232.49 0 0 0-8.35-59c-8.65-30.28-29-44.81-29-44.81s4.55 31 6.6 38.21Z"/><path fill="#f9b098" d="m2419.77 2408.3 17.29 57.26h95.29l.07-57.26a209.13 209.13 0 0 0-112.63 0Z"/><path fill="#fff" d="M2540.31 2507.35c19.83-55.57-11.35-47.22-40.18-41.79 0 0 5.56 39.79 19.55 45s20.63-3.24 20.63-3.24Z"/><path fill="#4f469c" d="M2457.11 2450.42c-16-.16-20.05 15.14-20.05 15.14 3.07 29.45-49.07 79.76-54.33 86.57-14.87 19.22-3.49 31.45-3.49 31.45h190.13c6.34-30.39-14.54-67.85-29.06-76.23-26.24 7-40.18-41.79-40.18-41.79H2481s-4.94-13.85-22.25-15.1h-1.59Z"/><path d="m2560.14 2531.86-22.14 29.59h-135a241.88 241.88 0 0 0-11.1 22.13h177.43c3.58-17.14-1.53-36.55-9.23-51.72Z"/><path d="M2377.19 2561.45c-5.7 13.76 2 22.13 2 22.13h96.61s13.11 0 .44-16.59a27.07 27.07 0 0 0-6.14-5.54Z"/><path fill="#837ab9" d="M2476.64 2480.65a13.47 13.47 0 0 1 9.62 4.66c5.89 6.44 7 18.07 5 26.59-1 4.25-2.86 7.62-4.38 9a2.61 2.61 0 0 1-1.76.85 3.24 3.24 0 0 1-2.12-1c-9.83-8.42-24.19-27.76-27.33-32a36.32 36.32 0 0 1 10.09-5.93 25.69 25.69 0 0 1 10.92-2.1Zm.44-6.53a32.09 32.09 0 0 0-13.78 2.54 59.36 59.36 0 0 0-14.57 8.61 3.27 3.27 0 0 0-.55 4.41s18 25.24 30.53 36a9.72 9.72 0 0 0 6.47 2.56 9.37 9.37 0 0 0 6-2.47c3.23-2.84 5.22-7.25 6.44-12.37 2.45-10.22 1.59-23.65-6.51-32.49a20.51 20.51 0 0 0-14-6.79Z"/><path fill="#837ab9" d="M2425 2480.65a25.33 25.33 0 0 1 10.9 2.1 35.43 35.43 0 0 1 10.08 5.93c-3.14 4.27-17.47 23.59-27.33 32a3.14 3.14 0 0 1-2.1 1 2.7 2.7 0 0 1-1.75-.85c-1.52-1.34-3.37-4.71-4.38-9-2-8.52-.93-20.15 5-26.59a13.42 13.42 0 0 1 9.62-4.66Zm-.44-6.53a20.66 20.66 0 0 0-14 6.79c-8.1 8.84-8.93 22.27-6.5 32.49 1.22 5.12 3.2 9.53 6.43 12.37a9.26 9.26 0 0 0 6 2.47 10 10 0 0 0 6.46-2.56c12.54-10.76 30.54-36 30.54-36a3.26 3.26 0 0 0-.56-4.41 59.17 59.17 0 0 0-14.56-8.61 32.09 32.09 0 0 0-13.78-2.54ZM2438.72 2512.94a3.27 3.27 0 0 0 .16 4.62 3.26 3.26 0 0 0 4.62-.17 8 8 0 0 1 5.95-2.7c2.2 0 4.62.95 7.09 3.74a3.27 3.27 0 0 0 4.61.3 3.27 3.27 0 0 0 .3-4.61c-3.46-3.93-7.75-5.93-11.93-6a14.61 14.61 0 0 0-10.82 4.8ZM2427.92 2533.64a3.23 3.23 0 0 0 .16 4.62 3.26 3.26 0 0 0 4.61-.14 8 8 0 0 1 6-2.72c2.19 0 4.62 1 7.06 3.73a3.26 3.26 0 0 0 4.62.3 3.25 3.25 0 0 0 .3-4.61c-3.46-3.92-7.76-5.91-11.91-6a14.55 14.55 0 0 0-10.82 4.78Z"/><path d="M2419.77 2408.3s80.52 19.59 112.63 21.39v-21.38c-37.18-10.21-74.64-12.81-112.65 0Z"/><path fill="#f9b098" d="m2151.78 2408.3-11.28 57.26c-28.72 13-68.29 11.26-91.32 0l1.17-57.26 49.31-9.17 52.12 9.17Z"/><path d="m2099.66 2399.13-49.31 9.17s59 26.17 96.69 24.12l4.74-24.12-52.12-9.17Z"/><path fill="#4f469c" d="M2060 1382.25s-28.69 492.32-32.19 541.28c-2.65 37 12.61 297 10 419.64-34.43 41.41 10 65.28 12.62 65.13h101.41c15.76-15.76 47.85-15.58 30.44-80.57 22.64-66.94 46.6-176.09 24.74-394.24l29.35-208.83s38.22 132.63 66.26 237.34c8.47 108.43 59.8 268.45 100.17 380.91-16.3 24.73-11.5 46.92 17 65.39h112.6c22.31-23.36 2.74-63.41-.4-67.23-2.77-109.32-11.12-218.34-70.32-394.81 0 0-26.68-410.77-37.16-459.73s-24.67-104.28-24.67-104.28Z"/><path fill="#fff" d="M2159.25 2508.53s-23.9-2.61-43.26-7.8-13.71-35.17-13.71-35.17c65.57-7.59 57 9.55 57 43Z"/><path fill="#4f469c" d="M2171 2583.58c14.53-25.17 8-46.89-11.77-75-37.06-3.37-51.07-10.06-57-43h-46.77s-22-35-33.42 0-94.06 56-126.12 74.17c-36.24 20.59-36.2 43.85-9 43.85Z"/><path fill="#837ab9" d="M2055.72 1454.85c-.09 1.6-.29 4.87-.39 6.58 54.55 10.32 150.52 24 262.43 19.72a169.83 169.83 0 0 0 33.37 45.65c12.47 11.9 28.53 22.61 47.91 27.14l59.69 392 .64 4.26a3.26 3.26 0 0 0 3.74 2.73 5.91 5.91 0 0 0 .69-.19c-.71-2.16-1.38-4.27-2.12-6.44 0 0-1.61-24.1-2.91-43.5l-52.92-347.52a88.75 88.75 0 0 0 26.73-.09c-.21-2.07-.42-4.44-.6-6.45-32.87 5.27-58.09-9.22-76.35-26.64-16.27-15.54-26.56-33.33-30.69-41.21 31.15-1.38 63.47-4.19 96.4-8.83-.49-2.16-1-4.28-1.43-6.43-153.79 21.61-294.17 2.54-364.19-10.75ZM2023.28 2482.27a28 28 0 0 1 18.06 7 27.62 27.62 0 0 1 9.51 16.22c1 6.12-.34 12.51-5.35 18.56-2.49 3-4.78 4.47-6.86 5.1a9.24 9.24 0 0 1-6.31-.42c-4.47-1.75-9.56-6.71-14-12.71a126.77 126.77 0 0 1-14-25.41c6.26-5.54 12.75-8.29 18.89-8.31Zm-47.49-15.07a23.75 23.75 0 0 0-7.25 1.08 20.38 20.38 0 0 0-13.53 13.39c-2 6.41.66 21.11 5 30.3 2.11-.65 6.06-2.47 6-2.7-4-8.49-6.16-21.14-4.75-25.64 1.48-4.71 5-7.36 9.26-9.12 16.11-6.69 26.53 16.16 26.6 16.32 0 0 6.44 16.09 16 29.06 4.77 6.48 10.26 12.32 16.86 14.91a16.17 16.17 0 0 0 10.54.6c3.58-1.07 7-3.47 10-7.21a29.41 29.41 0 0 0 6.78-23.79 34.85 34.85 0 0 0-34.25-28.41 34.85 34.85 0 0 0-21.71 8.15c-5.19-10.37-14.2-15.93-23.06-16.83-.84-.09-1.67-.11-2.5-.14ZM2197.76 1793.16a3.28 3.28 0 0 0-3.14 2.57s-8.18 37.4-16.53 75.73c-4.17 19.17-8.38 38.57-11.63 53.64s-5.46 25.41-5.86 27.82c-.15.87-.33 2.52-.68 5.65s-.82 7.48-1.41 12.92c-1.16 10.85-2.76 26-4.64 43.86-3.77 35.82-8.67 82.89-13.54 129.72-9.73 93.66-19.32 186.38-19.32 186.38v76.86h6.54V2332c0-.12 9.58-92.65 19.31-186.24 4.87-46.83 9.78-93.89 13.54-129.71 1.89-17.9 3.48-33 4.64-43.85.59-5.42 1.06-9.79 1.41-12.91s.62-5.23.63-5.28c.21-1.31 2.55-12.45 5.8-27.52s7.47-34.46 11.64-53.62c8.34-38.33 16.53-75.72 16.53-75.72a3.27 3.27 0 0 0-2.49-3.9 3.3 3.3 0 0 0-.77-.08Z"/><path d="M2193.54 1565.08s-17.88 7.88-17.88 37.6 2.62 195.84 23.61 240.42c6.23 13.24 11.59 23.18 16.07 30.7l21-149.13-42.77-159.59ZM2172.14 2530a129.87 129.87 0 0 0-25.93 19.68c-14.07 14.06-40.49 11.75-40.49 11.75h-235c-7.57 12.42-1.34 22.13 16.25 22.13h284c10.62-18.39 10-35 1.12-53.56Z"/><path fill="#837ab9" d="M1969.93 2493.69a3.27 3.27 0 0 0-2.94 3.58 3.26 3.26 0 0 0 3.57 2.93 8.1 8.1 0 0 1 6.27 1.92c1.63 1.47 2.83 3.78 2.83 7.5a3.27 3.27 0 0 0 6.54 0c0-5.22-1.9-9.56-5-12.35a14.64 14.64 0 0 0-11.28-3.58ZM1948.38 2506.06a3.26 3.26 0 0 0-2.94 3.58 3.25 3.25 0 0 0 3.56 2.93 8 8 0 0 1 6.26 1.92c1.63 1.47 2.83 3.78 2.83 7.5a3.27 3.27 0 0 0 6.54 0c0-5.22-1.89-9.58-5-12.35a14.64 14.64 0 0 0-11.27-3.58Z"/><path d="M2209.24 2205.85c-24.61 55.4-82.09 125.64-66.43 124.08 18.54-1.85 39.41-2.2 39.41-2.2 10.17-30.07 20.59-68.72 27-121.88ZM2369.39 2245.44c11.21 34.58 22.66 67.71 33.35 97.47h56s16.69-6.8-4.34-17.92c-12.9-6.84-52.89-42.64-85-79.55Z"/><path fill="#f9b098" d="M1388.94 1294.26c-.51 6.2 6.18 13.27 27 11.4 7.45-.68 17.42-2 27.27-3.32-17.69 11.3-36.75 23.55-41.36 26.62a9.3 9.3 0 0 0-4.21 8.56c.66 6.18 8.55 11.88 28.63 6.15 8-2.28 23.35-8.47 38.58-14.58-9.1 11.58-17.45 22.24-19.85 25.39a9.37 9.37 0 0 0-1.17 9.47c2.66 5.63 12 8.41 29.07-3.58 6.14-4.31 16.79-13.52 27.85-23.14-7.26 12.06-13.84 23-15.75 26.36a9.34 9.34 0 0 0 0 9.54c3.33 5.25 12.93 6.85 28.4-7.17 8.38-7.61 25.55-27.53 39.52-42.83 17-4.87 56.41-38 74.18-53.48 27.57-4.32 206.49-48.3 273.48-65.7 18.39-4.78-68.89-93.62-68.89-93.62l-237 101.44s-42.47-6.12-57.6-6.2-53.95-11.51-64.7-13.12-3.68 18.86 9.18 25.91 22.63 12 22.63 12-45.59 29.67-52.17 32-48 20.39-57.37 24.35a9.34 9.34 0 0 0-5.74 7.62Z"/><path d="m1614.12 1203.25-19.42 8.52 15.33 32.3s2.71 6 5.68-.17c2.43-5.07-13.31-36-1.59-40.65ZM1585.66 1276c10.29-8.75-18.59-14.21-36.75-17.43s-44.7-28.23-44.7-28.23c-20.87 43.07 38.59 82.14 81.45 45.66ZM1464.83 1329.09l33.17-19.49s-9.74 22-33.18 19.49ZM1500.73 1337.23l14.15-20.5s5.4 13.52-14.15 20.5ZM1443.19 1302.34l31.07-14.56s4.74 18.69-31.07 14.56Z"/><path fill="#f48032" d="m2144.23 1155.3-286.5 61.36-26-106.33s176-94.25 216.86-120.38c95.66-61.15 205.42 143.41 95.68 165.35Z"/><path d="M1864.13 1213.91c18.9-17.07-32.44-103.58-32.44-103.58-7.8 27.67-3.85 90.05-1.72 111.64 9-1.14 19.17-4.18 27.76-5.31a11.49 11.49 0 0 0 6.4-2.75Z"/><path fill="#fff" d="m1831.69 1110.33 26 106.33s25.64 40 38.51 24.45-5.52-77.86-24.28-107.39-40.27-23.39-40.27-23.39ZM2067.69 1358c-1.31 0-36.15 54.28-15.34 57.25 116.33 16.57 234.21 21.22 355.46 0 20.71-3.63-14-57.25-15.34-57.25Z"/><path fill="#f48032" d="m2284.37 921.7 179.27 71.09s-67.6 232.06-65.36 306c28.23 23.54 30.79 70.8 8.8 83.5-114 13.82-228.54 23-347.11 0-29.54-2.63-34.19-44.07-13.26-85.89 0 0-1.1-284.22-1.1-303.57 23-13.3 127.14-67.65 127.14-67.65l111.62-3.44Z"/><path fill="#f9b098" d="m2270.23 783.51 3.5 125.45c0 93.84-101 93.44-101 16.18l18.36-87.87 79.12-53.76Z"/><path d="m2240.63 803.62-49.52 33.65-8.11 38.63c15.81 1.28 38.25-.06 55.73-13.74 30.16-23.6 1.87-58.56 1.87-58.56Z"/><path fill="#f9b098" d="M2154 675.55V801s-2.18 44.59 49.18 49.18 67.1-48.74 67.54-74.09 0-66.12 0-105.77S2154 612.17 2154 675.55Z"/><path d="M2168.71 732.25S2155.33 749 2149.38 749s-1.86 15.61 10 14.86 18.77-41.06 9.3-31.59ZM2228.93 995.5l30-17.33s-5.66-20-16-17.4-20.25 23.93-14 34.73ZM2195.69 996.12l-30-17.34s5.65-20 16-17.39 20.24 23.93 14 34.73ZM2298.83 927.43c-4.23 18.06-13 43.3-31.37 75.08 0 0 67.91-29.82 88.93-52.25l-57.56-22.83ZM2211 1018.91a3.25 3.25 0 0 0-3 2c-21.41 50.52-28.63 118.8-31.21 175-1.29 28.09-1.41 53.14-1.48 71.33-.07 9.09-.07 16.48-.21 21.62-.08 2.56-.19 4.58-.34 5.88a9.87 9.87 0 0 1-.16 1c-24 17.56-34.77 47.64-32.32 72.18.47 4.64 4 20 5.84 26 2.4.18 4.79.34 7.19.49-2.11-5.53-6-21.91-6.52-27.11-2.24-22.41 8-51.16 30.46-67a3.23 3.23 0 0 0 1.65-2.64 15.08 15.08 0 0 0 .36-2.2c.18-1.64.3-3.75.37-6.4.16-5.31.19-12.7.22-21.79.07-18.19.18-43.12 1.46-71 2.57-55.84 9.93-123.67 30.72-172.72a3.26 3.26 0 0 0-1.74-4.29 3.33 3.33 0 0 0-1.13-.26h-.2Z"/><path fill="#fff" d="M2179 895.15c-51.07 13.68-34.48 111.67-17.28 108.89 12.3-2 5.2-40.33 19.42-38.47 12.15 1.58 14.13 22.63 14.45 28.77 0 .47.08 1.78.08 1.78 0 12.29-5.75 43.86 8.82 44.86 11.52.78 24.72-74.18 38.94-76s8 33.53 19.42 38.47 46.05-42.65 44.2-70.16-33.82-38.11-33.82-38.11c0 1.16.25 30.6-34.18 50.47-11 6.37-17.46 19.71-19.32 31.06a30.28 30.28 0 0 1-15 0c-2-11.21-8.67-23.72-19.22-30.45-15.54-9.92-6.62-48.67-6.52-51.1Z"/><path d="M2220.25 1081.5a4.76 4.76 0 0 1-4.76 4.75 4.76 4.76 0 0 1-4.76-4.75 4.76 4.76 0 0 1 4.76-4.76 4.76 4.76 0 0 1 4.76 4.76M2211.12 1145.71a4.76 4.76 0 1 1-4.76-4.76 4.76 4.76 0 0 1 4.76 4.76M2204.41 1215.08a4.76 4.76 0 0 1-4.76 4.76 4.76 4.76 0 0 1-4.76-4.76 4.76 4.76 0 0 1 4.76-4.75 4.76 4.76 0 0 1 4.76 4.75M2207.47 1278a4.76 4.76 0 0 1-4.76 4.76 4.76 4.76 0 0 1-4.71-4.76 4.76 4.76 0 0 1 4.76-4.76 4.76 4.76 0 0 1 4.76 4.76"/><path fill="#c84f49" d="M2260 783.63s.62 31.53-8.34 47.29-31.84 29.37-72 25.65-46.06-23.18-44.51-40.18 18.24-18.23 17.93-26.27 4.33-15.76 12.67-16.07 12.67 6.18 8.35 7.11-9-5.26-9 4.94 8.35 23.19 23.49 20.4 22.57-28.12 14.84-26.58-16.38 5.25-16.38 1.24 12-10.82 37.4-12.37 25 26.89 26.89 21 8.66-6.18 8.66-6.18ZM2169.7 666.48c1.54-13.91 17.31-35.54 26.89-15.45s1.24 52.85 21.94 63.05 32.77 7.73 32.77 7.73 3.71 28.75 10.2 32.45 36.17-16.07 36.17-16.07 19.19-20.07 22.58-44.8-13.68-51.11-36.56-74c-52-52-112.14-2.37-112.14-2.37s-17.93-12.37-29.67 6.49-5.26 57.8.31 72.94a123.52 123.52 0 0 0 12.36 25l-.6-46c0-9.92 9.3-9.07 15.74-9.07ZM2291.93 765.59c5.25 8.74 10.06 16.17 17.06 19.23s-19.79 39.37-34.72 24.19-1.13-38.62 17.66-43.42Z"/><path fill="#f9b098" d="M2302.79 766.22c-6.5 14.55-20.81 22.31-31.95 17.33s-14.9-20.82-8.39-35.38 20.81-22.32 32-17.33 14.9 20.82 8.38 35.38Z"/><path d="M2273.83 767.55c0-.76-1.3-13.66 4.92-20s14.76-1.09 13.66 1.43-7.43 2.4-5.9 6.34 2.35 20.91-12.68 12.23Z"/><path fill="#c84f49" d="M2191.71 643.16s16.12 8.24 13.3 37.37 11 61.12 45.4 48.43 28.39-28.51 28.39-28.51-19.4 27.37-44.69 25.31-25.54-43-20.44-57.38-10.54-30.65-22-25.22Z"/><path fill="#f9b098" d="M1924.52 1040.28c-5 3.7-5.94 13.38 9.12 27.84 5.39 5.18 16.19 9 25.38 13.85-20.13-5.93-41.89-12.27-47.23-13.73a9.32 9.32 0 0 0-9.22 2.44c-4.23 4.56-3.34 14.25 14.15 25.64 7 4.56 21.72 12.06 36.33 19.53-14.64-3.66-25.66-5.85-29.62-5.59-3.49.24-8.18.42-9.49 3.4-2.5 5.7 2.58 15.85 20.36 22.78 7 2.72 21.65 9.81 36.17 11.84-15.91-1.87-26.88-3.07-30.69-3.36-9.53-.73-11.2 9.91 7.31 19.57 9.79 5.11 47.56 13.42 68.27 13.91 14.84 9.64 65.7 17.61 89 20.87 21.35 18 110.39 92.44 167.49 131.56 15.67 10.73 52.47 35.07 85.36-6.13 9.16-11.5 25.48-38.43 39.07-60.62 18.1-29.56-99-46.68-99-46.68l-170.5-80.56s-23.26-36.07-33.13-47.53-26.72-48.26-32.56-57.42-16.65 9.6-13.53 23.93 5.84 24.91 5.84 24.91-52.31-14.92-58.37-18.37-51.87-18.28-61-22.76a9.31 9.31 0 0 0-9.51.68Z"/><path fill="#f48032" d="m2505.37 1078.89-109 185.2-99-46.69s13.93-120 19.35-168.24c12.7-112.82 240.74-69.36 188.72 29.73Z"/><path d="m2146 1145.9-19.18-9.06-14.3 32.77s-2.79 6 3.85 4.17c5.42-1.5 23.6-16.79 29.63-27.88ZM2398.21 1257.39c-1.36-25.44-100.91-40-100.91-40 16.61 23.48 66.8 57.66 84.94 69.59 4.76-7.69 9.56-15.51 14.08-22.9a11.51 11.51 0 0 0 1.89-6.7Z"/><path fill="#fff" d="m2297.3 1217.4 99 46.69s47.22 5.25 43.23-14.54-64-44.71-98.73-48.72-43.52 16.57-43.52 16.57Z"/><path d="m2053.42 1080.73 23.78 12.41s-15.52-23.54-20.9-28.27-7.4-3.17-7.4-3.17l4.52 19ZM1959 1082l17.19 3.83s-21.07-15.52-29.49-18.06-13.35.3-13.35.3A102.56 102.56 0 0 0 1959 1082Z"/><path fill="#56bb6a" d="M1301.26 448.2a50.36 50.36 0 0 0-50.48 50.48v484.67a50.37 50.37 0 0 0 50.48 50.48h346.19a50.38 50.38 0 0 0 50.49-50.48V615.53L1530.61 448.2Z"/><path d="m1568.12 608.31 129.82 34.79v-27.58l-129.82-7.21z"/><path fill="#83c887" d="M1697.94 615.53 1530.61 448.2V565a50.38 50.38 0 0 0 50.49 50.49Z"/><path fill="#fff" d="M1353.92 690.09a3.46 3.46 0 0 0-3.46 3.46 3.46 3.46 0 0 0 3.46 3.47h298a3.46 3.46 0 0 0 3.46-3.46 3.46 3.46 0 0 0-3.46-3.46h-298ZM1308.17 577.59a3.46 3.46 0 0 0-3.46 3.46 3.46 3.46 0 0 0 3.46 3.46h141a3.46 3.46 0 0 0 3.46-3.46 3.46 3.46 0 0 0-3.46-3.46h-141ZM1353.92 758.09a3.46 3.46 0 0 0-3.46 3.47 3.46 3.46 0 0 0 3.46 3.46h298a3.46 3.46 0 0 0 3.46-3.46 3.46 3.46 0 0 0-3.46-3.47h-298ZM1353.92 826.09a3.46 3.46 0 0 0-3.46 3.47 3.45 3.45 0 0 0 3.46 3.46h298a3.46 3.46 0 0 0 3.46-3.46 3.46 3.46 0 0 0-3.46-3.47h-298ZM1353.92 894.1a3.46 3.46 0 0 0-3.46 3.46 3.46 3.46 0 0 0 3.46 3.46h298a3.46 3.46 0 0 0 3.46-3.46 3.46 3.46 0 0 0-3.46-3.46h-298Z"/><path fill="#c84f49" d="m1182.48 829.7-95.07 164.67c-5.75 10-1.12 20.46 10.39 23.55l43.51 4.86 26 35.25c8.42 8.43 19.84 7.18 25.59-2.78l95.07-164.66c5.75-10-99.71-70.85-105.46-60.89Z"/><path fill="#c84f49" d="m1357.54 829.7 95.06 164.67c5.76 10 1.13 20.46-10.38 23.55l-43.52 4.86-26 35.25c-8.42 8.43-19.84 7.18-25.59-2.78l-95.07-164.66c-5.75-10 99.7-70.85 105.46-60.89Z"/><path d="M1354.46 828.6c1.57 0 2.63.32 3.08 1.1l29.79 51.61c-4.62 16.72-3.52 40.53-14.9 51.91-12.66 12.66-40.76 9.84-57.3 16.7-6.81 2.81-13.84 8.16-21 13.49l-42-72.82c-5.3-9.19 83.9-61.65 102.38-62Z"/><path d="M1185.55 828.6c-1.56 0-2.62.32-3.07 1.1l-29.79 51.61c4.62 16.72 3.52 40.53 14.9 51.91 12.66 12.66 40.76 9.84 57.3 16.7 6.8 2.81 13.84 8.16 21 13.49l42-72.82c5.3-9.19-83.91-61.65-102.39-62Z"/><path fill="#ebbf38" d="M1380.36 909.64c-12.67 12.66-40.76 9.84-57.3 16.7s-34.42 28.71-52.33 28.71-35.79-21.86-52.33-28.71-44.64-4-57.3-16.7-9.85-40.76-16.7-57.31-28.71-34.42-28.71-52.32 21.86-35.79 28.71-52.33 4-44.64 16.7-57.3 40.76-9.85 57.3-16.7 34.42-28.68 52.33-28.68 35.78 21.87 52.33 28.72 44.63 4 57.3 16.7 9.84 40.76 16.7 57.3 28.71 34.42 28.71 52.33-21.86 35.78-28.71 52.32-4 44.64-16.7 57.31Z"/><path fill="#fff" d="M1316.26 752.67a15.72 15.72 0 0 0-11.12 4.6l-56.84 56.84-31.06-21c-7-4.07-11.66-4.37-14.61-1.42s-3.6 7.88 1.19 14.85l33.37 40.92a15.72 15.72 0 0 0 22.22 0l67.95-68a15.72 15.72 0 0 0-11.1-26.83Z"/><path d="m1281.96 780.46-33.66 33.65 10.96 6.32 22.7-39.97z"/><path d="M1270.73 698.15A101.86 101.86 0 1 1 1168.87 800a101.81 101.81 0 0 1 101.86-101.86Zm0-6.92A108.78 108.78 0 1 0 1379.51 800a108.83 108.83 0 0 0-108.78-108.78Z"/><path fill="#fff" d="M1308.17 513.29a3.46 3.46 0 0 0-3.46 3.46 3.46 3.46 0 0 0 3.46 3.46h63.06a3.46 3.46 0 0 0 3.47-3.46 3.46 3.46 0 0 0-3.46-3.46h-63.07ZM1587.6 964.58a3.46 3.46 0 0 0-3.47 3.46 3.46 3.46 0 0 0 3.46 3.46h64.3a3.46 3.46 0 0 0 3.46-3.46 3.45 3.45 0 0 0-3.46-3.46h-64.29Z"/><path fill="#5f95cf" d="M722 1038a50.38 50.38 0 0 0-50.49 50.49v484.66A50.38 50.38 0 0 0 722 1623.6h346.18a50.38 50.38 0 0 0 50.49-50.49v-367.82L951.33 1038Z"/><path d="m988.83 1198.07 129.82 34.79v-27.57l-129.82-7.22z"/><path fill="#7dc6ee" d="M1118.65 1205.29 951.33 1038v116.8a50.37 50.37 0 0 0 50.48 50.49Z"/><path fill="#fff" d="M774.64 1279.87a3.45 3.45 0 0 0-3.46 3.45 3.46 3.46 0 0 0 3.46 3.46h298a3.46 3.46 0 0 0 3.46-3.46 3.46 3.46 0 0 0-3.46-3.46h-298ZM728.89 1167.35a3.46 3.46 0 0 0-3.46 3.46 3.46 3.46 0 0 0 3.46 3.46h140.94a3.46 3.46 0 0 0 3.46-3.46 3.46 3.46 0 0 0-3.46-3.46H728.89ZM774.64 1347.87a3.46 3.46 0 0 0-3.46 3.46 3.45 3.45 0 0 0 3.46 3.46h298a3.46 3.46 0 0 0 3.46-3.46 3.46 3.46 0 0 0-3.46-3.46h-298ZM774.64 1415.87a3.46 3.46 0 0 0-3.46 3.46 3.46 3.46 0 0 0 3.46 3.46h298a3.46 3.46 0 0 0 3.46-3.46 3.46 3.46 0 0 0-3.46-3.46h-298ZM774.64 1483.87a3.46 3.46 0 0 0-3.46 3.46 3.47 3.47 0 0 0 3.46 3.47h298a3.46 3.46 0 0 0 3.46-3.47 3.46 3.46 0 0 0-3.46-3.46h-298Z"/><path fill="#c84f49" d="m603.19 1419.47-95.07 164.66c-5.75 10-1.12 20.47 10.39 23.56l43.52 4.86 26 35.25c8.42 8.42 19.84 7.18 25.59-2.78l95.07-164.66c5.75-10-99.7-70.86-105.46-60.89Z"/><path fill="#c84f49" d="m778.25 1419.47 95.07 164.66c5.75 10 1.12 20.47-10.39 23.56l-43.52 4.86-26 35.25c-8.42 8.42-19.84 7.18-25.59-2.78l-95.07-164.66c-5.75-10 99.71-70.86 105.46-60.89Z"/><path d="M775.17 1418.37c1.57 0 2.63.32 3.08 1.1l29.79 51.6c-4.62 16.73-3.52 40.54-14.9 51.92-12.66 12.66-40.76 9.84-57.3 16.69-6.8 2.82-13.84 8.17-21 13.5l-42.05-72.82c-5.3-9.19 83.91-61.65 102.38-62Z"/><path d="M606.27 1418.37c-1.57 0-2.63.32-3.08 1.1l-29.79 51.6c4.62 16.73 3.52 40.54 14.9 51.92 12.66 12.66 40.76 9.84 57.3 16.69 6.81 2.82 13.84 8.17 21 13.5l42-72.82c5.3-9.19-83.91-61.66-102.38-62Z"/><path fill="#ebbf38" d="M801.07 1499.4c-12.66 12.67-40.76 9.85-57.3 16.71s-34.42 28.71-52.33 28.71-35.78-21.86-52.33-28.71-44.64-4-57.3-16.71-9.85-40.75-16.7-57.3-28.71-34.42-28.71-52.33 21.86-35.78 28.71-52.32 4-44.64 16.7-57.31 40.76-9.84 57.3-16.7 34.42-28.71 52.33-28.71 35.78 21.86 52.33 28.72 44.64 4 57.3 16.69 9.84 40.77 16.7 57.31 28.71 34.42 28.71 52.32-21.86 35.79-28.71 52.33-4 44.64-16.7 57.3Z"/><path fill="#fff" d="M737 1342.44a15.72 15.72 0 0 0-11.12 4.6L669 1403.88l-31.07-21c-7-4.07-11.66-4.37-14.61-1.42s-3.6 7.87 1.19 14.84l33.37 40.92a15.7 15.7 0 0 0 22.22 0l68-67.94a15.72 15.72 0 0 0-11.1-26.83Z"/><path d="m702.67 1370.22-33.66 33.66 10.96 6.32 22.7-39.98z"/><path d="M691.44 1287.92a101.85 101.85 0 1 1-101.85 101.85 101.81 101.81 0 0 1 101.85-101.85Zm0-6.92a108.78 108.78 0 1 0 108.72 109.4v-1.17A108.8 108.8 0 0 0 691.42 1281Z"/><path fill="#fff" d="M728.89 1103.06a3.46 3.46 0 0 0-3.46 3.46 3.45 3.45 0 0 0 3.46 3.46h63.05a3.45 3.45 0 0 0 3.46-3.45 3.46 3.46 0 0 0-3.46-3.46h-63.05ZM1008.31 1554.34a3.46 3.46 0 0 0-3.46 3.46 3.48 3.48 0 0 0 3.46 3.47h64.29a3.46 3.46 0 0 0 3.46-3.46 3.46 3.46 0 0 0-3.46-3.46h-64.29ZM1382.61 1544.7a50.37 50.37 0 0 0-50.49 50.48v484.67a50.38 50.38 0 0 0 50.49 50.48h346.19a50.37 50.37 0 0 0 50.48-50.48V1712L1612 1544.7Z"/><path d="m1649.46 1704.81 129.82 34.79v-27.57l-129.82-7.22z"/><path fill="#bad1ed" d="M1779.28 1712 1612 1544.7v116.84a50.36 50.36 0 0 0 50.48 50.48Z"/><path d="M1435.26 1786.6a3.46 3.46 0 0 0 0 6.92h298a3.46 3.46 0 0 0 3.46-3.46 3.45 3.45 0 0 0-3.46-3.46h-298ZM1389.52 1674.09a3.46 3.46 0 0 0-3.47 3.46 3.46 3.46 0 0 0 3.47 3.46h141a3.46 3.46 0 0 0 3.46-3.46 3.46 3.46 0 0 0-3.46-3.47h-141ZM1435.26 1854.6a3.46 3.46 0 0 0 0 6.92h298a3.46 3.46 0 0 0 3.46-3.46 3.45 3.45 0 0 0-3.46-3.46h-298ZM1435.26 1922.6a3.46 3.46 0 0 0 0 6.92h298a3.46 3.46 0 0 0 3.46-3.46 3.45 3.45 0 0 0-3.46-3.46h-298ZM1435.26 1990.6a3.47 3.47 0 0 0 0 6.93h298a3.46 3.46 0 0 0 3.46-3.47 3.45 3.45 0 0 0-3.46-3.46h-298Z"/><path fill="#c84f49" d="m1263.82 1926.2-95.06 164.67c-5.76 10-1.13 20.47 10.38 23.55l43.52 4.86 26 35.25c8.42 8.43 19.84 7.18 25.59-2.78l95.07-164.66c5.75-10-99.7-70.85-105.46-60.89Z"/><path fill="#c84f49" d="m1438.88 1926.2 95.12 164.67c5.75 10 1.12 20.47-10.39 23.55l-43.52 4.86-26 35.25c-8.42 8.43-19.84 7.18-25.59-2.78l-95.07-164.66c-5.75-10 99.7-70.85 105.46-60.89Z"/><path d="M1435.81 1925.11c1.56 0 2.62.31 3.07 1.09l29.79 51.61c-4.62 16.72-3.52 40.53-14.9 51.91-12.66 12.66-40.76 9.85-57.3 16.7-6.8 2.81-13.84 8.16-21 13.49l-42-72.82c-5.3-9.19 83.91-61.65 102.39-62Z"/><path d="M1266.9 1925.11c-1.57 0-2.63.31-3.08 1.09l-29.82 51.61c4.62 16.72 3.53 40.53 14.9 51.91 12.66 12.66 40.76 9.85 57.31 16.7 6.8 2.81 13.83 8.16 21 13.49l42-72.82c5.3-9.19-83.91-61.65-102.38-62Z"/><path fill="#ebbf38" d="M1461.7 2006.14c-12.66 12.66-40.76 9.85-57.3 16.7s-34.42 28.71-52.33 28.71-35.78-21.86-52.33-28.71-44.64-4-57.3-16.7-9.85-40.76-16.7-57.3-28.71-34.43-28.71-52.33 21.86-35.78 28.71-52.33 4-44.64 16.7-57.3 40.76-9.85 57.3-16.7 34.42-28.71 52.33-28.71 35.78 21.86 52.33 28.71 44.64 4 57.3 16.7 9.85 40.76 16.7 57.3 28.71 34.42 28.71 52.33-21.86 35.78-28.71 52.33-4 44.64-16.7 57.3Z"/><path fill="#fff" d="M1397.6 1849.17a15.76 15.76 0 0 0-11.12 4.6l-56.83 56.84-31.07-21c-7-4.07-11.66-4.37-14.61-1.42s-3.6 7.87 1.19 14.85l33.37 40.92a15.72 15.72 0 0 0 22.23 0l67.94-68a15.71 15.71 0 0 0-11.1-26.82Z"/><path d="m1363.3 1876.96-33.65 33.66 10.95 6.31 22.7-39.97z"/><path d="M1352.07 1794.65a101.86 101.86 0 1 1-101.86 101.86 101.81 101.81 0 0 1 101.86-101.86Zm0-6.92a108.78 108.78 0 1 0 108.78 108.78 108.83 108.83 0 0 0-108.78-108.78ZM1389.52 1609.79a3.46 3.46 0 0 0-3.47 3.46 3.46 3.46 0 0 0 3.47 3.46h63a3.46 3.46 0 0 0 3.47-3.46 3.46 3.46 0 0 0-3.46-3.47h-63.06ZM1668.94 2061.07a3.47 3.47 0 0 0-3.47 3.46 3.45 3.45 0 0 0 3.46 3.46h64.3a3.45 3.45 0 0 0 3.46-3.46 3.45 3.45 0 0 0-3.46-3.46h-64.29ZM399.81 2384.52h84.32l-46.73 199.07h-37.59v-199.07zM794.46 2384.52h-84.33l46.74 199.07h37.59v-199.07z"/><path fill="#ef9d34" d="M421.22 1830h355a51.82 51.82 0 0 1 51.93 52v543a51.83 51.83 0 0 1-51.93 51.93h-355a51.83 51.83 0 0 1-51.93-51.93v-543a51.82 51.82 0 0 1 51.93-52Z"/><path d="M369.3 2052.47v92.8l409.88-70.58-409.88-22.22z"/><path fill="#ef9d34" d="M339 1892.1h525.65a22.16 22.16 0 0 1 22.2 22.21V2074a22.15 22.15 0 0 1-22.2 22.21H339a22.15 22.15 0 0 1-22.2-22.21v-159.69a22.16 22.16 0 0 1 22.2-22.21Z"/><path d="M576.5 1994.13a25.35 25.35 0 1 1 25.34 25.34 25.33 25.33 0 0 1-25.34-25.34Z"/><path fill="#fff" d="M339 1895.57h525.65a18.62 18.62 0 0 1 18.73 18.74V2074a18.62 18.62 0 0 1-18.73 18.75H339a18.62 18.62 0 0 1-18.7-18.75v-159.69a18.62 18.62 0 0 1 18.7-18.74Zm0-6.93a25.68 25.68 0 0 0-25.65 25.67V2074a25.68 25.68 0 0 0 25.65 25.62h525.65a25.68 25.68 0 0 0 25.66-25.62v-159.69a25.68 25.68 0 0 0-25.66-25.67Z"/><path d="M369.3 2322v92.8l409.88-70.58L369.3 2322z"/><path fill="#ef9d34" d="M339 2161.64h525.65a22.15 22.15 0 0 1 22.2 22.2v159.64a22.15 22.15 0 0 1-22.2 22.21H339a22.15 22.15 0 0 1-22.2-22.21v-159.64a22.15 22.15 0 0 1 22.2-22.2Z"/><path d="M576.5 2263.66a25.35 25.35 0 1 1 25.34 25.34 25.34 25.34 0 0 1-25.34-25.35Z"/><path fill="#fff" d="M339 2165.09h525.65a18.63 18.63 0 0 1 18.73 18.75v159.64a18.63 18.63 0 0 1-18.73 18.75H339a18.63 18.63 0 0 1-18.73-18.75v-159.64a18.63 18.63 0 0 1 18.73-18.75Zm0-6.92a25.68 25.68 0 0 0-25.65 25.67v159.64a25.68 25.68 0 0 0 25.65 25.67h525.65a25.68 25.68 0 0 0 25.66-25.67v-159.64a25.68 25.68 0 0 0-25.66-25.67Z"/></g></svg>