<svg width="23" height="23" viewBox="0 0 23 23" fill="none" xmlns="http://www.w3.org/2000/svg">
<g clip-path="url(#clip0_2127_11790)">
<path d="M0.490854 11.3624C0.490315 13.2948 0.99919 15.1817 1.96681 16.8448L0.398315 22.5273L6.259 21.0025C7.88 21.8781 9.69619 22.3369 11.5418 22.337H11.5467C17.6394 22.337 22.5991 17.4176 22.6017 11.371C22.6028 8.441 21.4539 5.68581 19.3665 3.61296C17.2794 1.54028 14.5037 0.398218 11.5462 0.396881C5.45275 0.396881 0.49346 5.31603 0.490944 11.3624" fill="url(#paint0_linear_2127_11790)"/>
<path d="M0.0961328 11.3588C0.0955039 13.3608 0.622617 15.3151 1.62473 17.0378L0 22.924L6.07083 21.3445C7.74354 22.2495 9.62685 22.7266 11.5432 22.7273H11.5482C17.8595 22.7273 22.9973 17.6309 23 11.3679C23.0011 8.3326 21.8108 5.47837 19.6488 3.33126C17.4866 1.18441 14.6116 0.00124806 11.5482 0C5.23573 0 0.0986484 5.09566 0.0961328 11.3588ZM3.71154 16.7411L3.48486 16.3841C2.53198 14.8807 2.02903 13.1434 2.02975 11.3595C2.03173 6.15375 6.30146 1.91845 11.5518 1.91845C14.0943 1.91952 16.4838 2.90299 18.281 4.68736C20.0782 6.47191 21.0671 8.84412 21.0665 11.3672C21.0641 16.5729 16.7943 20.8088 11.5482 20.8088H11.5444C9.83618 20.8079 8.16087 20.3527 6.69983 19.4925L6.35213 19.2879L2.74958 20.2251L3.71154 16.7411Z" fill="url(#paint1_linear_2127_11790)"/>
<path d="M8.68588 6.6101C8.47152 6.13735 8.24592 6.12781 8.04206 6.11952C7.87513 6.11239 7.68431 6.11292 7.49366 6.11292C7.30283 6.11292 6.99278 6.18415 6.7307 6.46809C6.46836 6.75229 5.72913 7.43908 5.72913 8.83593C5.72913 10.2328 6.75451 11.5828 6.89745 11.7724C7.04058 11.9617 8.87698 14.92 11.7854 16.058C14.2026 17.0038 14.6945 16.8157 15.2191 16.7683C15.7437 16.721 16.9121 16.0816 17.1504 15.4187C17.389 14.7558 17.389 14.1875 17.3174 14.0688C17.2459 13.9505 17.0551 13.8794 16.7689 13.7375C16.4828 13.5956 15.0759 12.9086 14.8137 12.8139C14.5513 12.7192 14.3606 12.6719 14.1698 12.9562C13.9789 13.2401 13.431 13.8794 13.264 14.0688C13.0971 14.2586 12.9301 14.2822 12.644 14.1402C12.3577 13.9977 11.4362 13.6983 10.3429 12.7311C9.49223 11.9785 8.91795 11.0492 8.75102 10.7649C8.58409 10.4811 8.73314 10.3272 8.87662 10.1857C9.00519 10.0585 9.16286 9.85417 9.30607 9.68844C9.44875 9.52263 9.49636 9.40433 9.59178 9.21498C9.68728 9.02545 9.63949 8.85964 9.56806 8.71763C9.49636 8.57562 8.94032 7.17146 8.68588 6.6101Z" fill="white"/>
</g>
<defs>
<linearGradient id="paint0_linear_2127_11790" x1="1110.57" y1="2213.43" x2="1110.57" y2="0.396881" gradientUnits="userSpaceOnUse">
<stop stop-color="#1FAF38"/>
<stop offset="1" stop-color="#60D669"/>
</linearGradient>
<linearGradient id="paint1_linear_2127_11790" x1="1150" y1="2292.4" x2="1150" y2="0" gradientUnits="userSpaceOnUse">
<stop stop-color="#F9F9F9"/>
<stop offset="1" stop-color="white"/>
</linearGradient>
<clipPath id="clip0_2127_11790">
<rect width="23" height="23" fill="white"/>
</clipPath>
</defs>
</svg>
