<svg xmlns="http://www.w3.org/2000/svg" version="1.1" xmlns:xlink="http://www.w3.org/1999/xlink" width="32" height="32" x="0" y="0" viewBox="0 0 24 24" style="enable-background:new 0 0 512 512" xml:space="preserve"><g><path d="M7.8 10.5h7.4c.8 0 1.3-.9.8-1.5l-3.7-6.1c-.4-.6-1.3-.6-1.7 0L6.9 9c-.4.7.1 1.5.9 1.5z" fill="#D785F1" opacity="1" data-original="#000000"></path><circle cx="17" cy="17" r="4.5" fill="#D785F1" opacity="1" data-original="#000000"></circle><path d="M9.5 13h-6c-.5 0-1 .5-1 1v6c0 .5.5 1 1 1h6c.5 0 1-.5 1-1v-6c0-.5-.5-1-1-1z" fill="#D785F1" opacity="1" data-original="#000000"></path></g></svg>