<svg xmlns="http://www.w3.org/2000/svg" enable-background="new 0 0 2500 2000" viewBox="0 0 2500 2000"><rect width="2500" height="2000" fill="none"/><path fill="#a1c180" d="M1907.82,1103.67l-171.34-53.08c-15.96-4.94-24.89-21.89-19.95-37.85L1753.63,893
		c4.94-15.96,21.89-24.89,37.85-19.95l171.34,53.08c15.96,4.94,24.89,21.89,19.95,37.85l-37.09,119.73
		C1940.73,1099.68,1923.78,1108.61,1907.82,1103.67z"/><polyline fill="none" stroke="#fff" stroke-linecap="round" stroke-linejoin="round" stroke-miterlimit="10" stroke-width="13.191" points="1718.67 1035.79 1831.02 984.47 1843.89 1006.94 1867.22 995.68 1930.88 1101.53"/><polyline fill="none" stroke="#fff" stroke-linecap="round" stroke-linejoin="round" stroke-miterlimit="10" stroke-width="13.191" points="1980.63 940.93 1843.89 1006.94 1768.42 875.19"/><g><path fill="#ececec" d="M573.73,1429.88l129.91-40.25c12.1-3.75,18.87-16.6,15.12-28.7l-28.12-90.78c-3.75-12.1-16.6-18.87-28.7-15.12
		l-129.91,40.25c-12.1,3.75-18.87,16.6-15.12,28.7l28.12,90.78C548.78,1426.86,561.63,1433.63,573.73,1429.88z"/><polyline fill="none" stroke="#fff" stroke-linecap="round" stroke-linejoin="round" stroke-miterlimit="10" stroke-width="10.001" points="717.15 1378.42 631.96 1339.5 622.2 1356.54 604.51 1348 556.25 1428.26"/><polyline fill="none" stroke="#fff" stroke-linecap="round" stroke-linejoin="round" stroke-miterlimit="10" stroke-width="10.001" points="518.52 1306.49 622.2 1356.54 679.42 1256.65"/></g><g><path fill="#233d4c" d="M1529.52,1676.78H902.8c-61.44,0-111.25-49.81-111.25-111.25V434.47c0-61.44,49.81-111.25,111.25-111.25
			h626.71c61.44,0,111.25,49.81,111.25,111.25v1131.05C1640.77,1626.97,1590.96,1676.78,1529.52,1676.78z"/><path fill="#fff" d="M1603.68,458.46v1083.09c0,52.21-42.33,94.54-94.54,94.54H923.19c-52.21,0-94.54-42.33-94.54-94.54V458.46
			c0-52.23,42.34-94.57,94.57-94.57h160.54c4.11,0,7.91,2.2,9.97,5.76l6.43,11.16c2.05,3.56,5.85,5.76,9.97,5.76h212.09
			c4.11,0,7.91-2.2,9.97-5.76l6.43-11.16c2.05-3.56,5.85-5.76,9.97-5.76h160.54C1561.34,363.89,1603.68,406.23,1603.68,458.46z"/><path fill="#ececec" d="M915.71,1219.42L915.71,1219.42c0,8.38,6.79,15.17,15.17,15.17h81.57c8.38,0,15.17-6.79,15.17-15.17l0,0
			c0-8.38-6.79-15.17-15.17-15.17h-81.57C922.51,1204.25,915.71,1211.04,915.71,1219.42z"/><path fill="#ececec" d="M1013.09,1423.26L1013.09,1423.26c6.73,4.99,16.23,3.58,21.22-3.15l48.58-65.52
			c4.99-6.73,3.58-16.23-3.15-21.22l0,0c-6.73-4.99-16.23-3.58-21.22,3.15l-48.58,65.52
			C1004.96,1408.77,1006.37,1418.27,1013.09,1423.26z"/><path fill="#ececec" d="M899.95,1360.75L899.95,1360.75c4.29,7.19,13.6,9.55,20.8,5.26l117.38-70.02c7.19-4.29,9.55-13.6,5.26-20.8
			l0,0c-4.29-7.19-13.6-9.55-20.8-5.26l-117.38,70.02C898.01,1344.24,895.66,1353.55,899.95,1360.75z"/><g><path fill="#ffc749" d="M1414.64,1263.32L921.19,1114c-22.31-6.75-24.45-37.53-3.29-47.3l36.72-16.98
			c6.75-3.1,11.77-9.02,13.78-16.16c17.04-60.35,109.22-342.31,329.84-275.55c220.6,66.76,140.98,352.51,121.7,412.19
			c-2.29,7.05-1.39,14.76,2.51,21.08l21.15,34.49C1455.8,1245.64,1436.95,1270.07,1414.64,1263.32z"/><circle cx="1158.6" cy="1219.42" r="83.75" fill="#ffc749"/><path fill="#ffc749" d="M1325.86,674.94c-32.35-9.78-66.48,8.51-76.28,40.83c-9.78,32.35,8.51,66.48,40.83,76.28
			c32.35,9.78,66.48-8.51,76.28-40.83C1376.47,718.87,1358.18,684.74,1325.86,674.94z M1338.61,742.72
			c-5.1,16.82-22.87,26.33-39.69,21.26c-16.82-5.1-26.33-22.87-21.23-39.69c5.07-16.82,22.84-26.33,39.66-21.26
			C1334.17,708.12,1343.7,725.9,1338.61,742.72z"/><line x1="1316.22" x2="1059.77" y1="1233.53" y2="1155.93" fill="none" stroke="#f2a100" stroke-linecap="round" stroke-miterlimit="10" stroke-width="17.065"/></g><g><circle cx="1085.01" cy="730.5" r="91.47" fill="#a1c180"/><path fill="#fff" d="M1062.77,776.27c-6.5-4.11-11.6-10.07-15.28-17.86c-3.68-7.79-5.53-17.1-5.53-27.91
				c0-10.81,1.84-20.11,5.53-27.91c3.68-7.79,8.78-13.75,15.28-17.86c6.5-4.11,13.92-6.17,22.24-6.17c8.32,0,15.73,2.06,22.24,6.17
				c6.5,4.11,11.6,10.07,15.28,17.86c3.68,7.8,5.52,17.1,5.52,27.91c0,10.81-1.84,20.11-5.52,27.91
				c-3.69,7.8-8.78,13.75-15.28,17.86c-6.51,4.11-13.92,6.17-22.24,6.17C1076.69,782.44,1069.27,780.39,1062.77,776.27z
				 M1099.43,754.89c3.49-5.26,5.24-13.39,5.24-24.39c0-11-1.75-19.13-5.24-24.39c-3.49-5.26-8.3-7.89-14.42-7.89
				c-6.03,0-10.78,2.63-14.28,7.89c-3.49,5.26-5.24,13.39-5.24,24.39c0,11,1.74,19.13,5.24,24.39c3.49,5.26,8.25,7.89,14.28,7.89
				C1091.13,762.79,1095.93,760.16,1099.43,754.89z"/></g></g></svg>