<svg xmlns="http://www.w3.org/2000/svg" enable-background="new 0 0 5922 5000" viewBox="0 0 5922 5000"><ellipse cx="3203.942" cy="3905.059" fill="#36a6cf" rx="1754.259" ry="109.414"/><path fill="#36a6cf" d="M2525.76 1612.503c4.954 22.215-8.957 46.025-35.152 60.345l-113.759 62.544c1.762 84.121-13.478 166.07-43.174 241.777l85.115 98.088c19.536 22.424 24.412 49.667 12.068 68.857l-38.314 59.855c-12.168 19.03-38.848 26.114-67.462 17.839l-124.206-36.09c-56.555 58.964-124.676 107.467-202.149 141.424l-8.954 128.383c-2.116 29.585-17.985 52.293-40.192 57.079l-69.348 15.232c-22.215 4.953-46.025-8.957-60.345-35.152l-61.781-112.212c-85.142 2.048-168.103-13.074-244.639-42.979l-95.99 83.372c-22.424 19.536-49.835 24.404-68.857 12.069l-59.855-38.315c-19.031-12.168-26.114-38.848-17.84-67.462l35.274-121.227c-60.111-57.114-109.218-126.606-143.452-205.268l-125.538-8.815c-29.585-2.115-52.293-17.985-57.247-40.2l-15.231-69.347c-4.786-22.207 9.125-46.017 35.319-60.337l109.972-60.549c-1.999-86.145 13.499-169.926 44.105-247.099l-82.258-94.762c-19.536-22.424-24.404-49.835-12.069-68.857l38.315-59.855c12.167-19.031 38.848-26.115 67.462-17.84l120.892 35.258c57.265-59.768 126.74-108.541 205.553-142.432l8.864-126.542c2.116-29.585 17.985-52.293 40.201-57.247l69.347-15.231c22.207-4.786 46.017 9.125 60.337 35.319l61.312 111.519c85.117-1.546 167.894 13.903 244.405 44.309l96.692-84.009c22.424-19.536 49.667-24.412 68.857-12.069l59.855 38.315c19.031 12.168 26.114 38.848 17.84 67.462l-36.083 124.039c58.63 56.538 106.79 124.81 140.412 202.268l129.387 9.003c29.585 2.116 52.293 17.985 57.079 40.192l15.232 69.348zm-729.54 375.656c133.099-29.228 217.187-160.818 188.118-293.741-29.227-133.099-160.809-217.354-293.741-188.118-133.099 29.227-217.178 160.65-188.119 293.741 29.228 133.098 160.819 217.186 293.742 188.118zM3298.113 945.03c4.758 12.202-1.074 26.958-14.723 37.389l-59.236 45.503c8.348 47.688 6.834 95.625-3.443 141.274l56.971 48.354c13.068 11.047 18.221 26.115 12.875 38.107l-16.564 37.386c-5.258 11.885-19.813 18.244-36.809 16.036l-73.791-9.681c-27.016 38.472-61.521 72.005-102.619 98.081l6.117 73.796c1.381 17.011-5.662 31.311-17.875 35.972l-38.109 14.717c-12.201 4.757-26.957-1.076-37.389-14.723l-44.933-58.423c-48.243 8.598-96.745 7.241-142.884-3.083l-47.313 55.797c-11.047 13.068-26.211 18.23-38.107 12.875l-37.386-16.564c-11.886-5.258-18.244-19.813-16.036-36.81l9.477-72.024c-39.173-27.233-73.169-62.468-99.506-104.215l-72.166 5.948c-17.011 1.379-31.311-5.663-36.068-17.865l-14.717-38.109c-4.661-12.212 1.171-26.968 14.818-37.399l57.257-44.037c-8.658-48.818-7.159-97.82 3.509-144.382l-55.056-46.711c-13.068-11.047-18.23-26.211-12.876-38.107l16.564-37.386c5.259-11.886 19.814-18.244 36.81-16.036l71.832 9.497c27.349-38.991 62.604-72.795 104.467-98.951l-6.008-72.741c-1.38-17.011 5.663-31.311 17.865-36.067l38.109-14.718c12.211-4.661 26.967 1.172 37.399 14.819l44.606 58.07c48.272-8.311 96.699-6.752 142.867 3.86l47.656-56.22c11.047-13.068 26.115-18.22 38.107-12.876l37.387 16.565c11.885 5.258 18.242 19.813 16.035 36.81l-9.689 73.694c38.279 27.036 71.631 61.658 97.516 102.774l74.371-6.177c17.01-1.38 31.311 5.663 35.971 17.875l14.717 38.106zm-382.106 277.341c73.145-28.243 109.477-110.423 81.34-183.481-28.243-73.145-110.434-109.574-183.482-81.341-73.145 28.243-109.488 110.328-81.34 183.482 28.243 73.144 110.424 109.478 183.482 81.34z"/><path fill="#a8e0ff" d="M2780.384 3573.711h888.641v364.095h-888.641z"/><path fill="#a8e0ff" d="M3683.381 1643.067 1989.944 3681.099h812.653l1537.788-2038.032z"/><path fill="#a8e0ff" d="M4748.914 1726.719c0-46.199-37.451-83.652-83.65-83.652h-324.879L2802.597 3681.099h550.517l1395.801-1935.781v-18.599z"/><path fill="#a8e0ff" d="M3353.113 3681.099h1312.15c46.199 0 83.65-37.45 83.65-83.649V1745.318l-1395.8 1935.781zM2736.375 1643.067 1638.518 2905.229v692.22c0 46.199 37.452 83.649 83.651 83.649h267.775l1693.437-2038.031h-947.006z"/><path fill="#a8e0ff" d="M1722.169 1643.067c-46.199 0-83.651 37.453-83.651 83.652v1178.51l1097.856-1262.162H1722.169z"/><path fill="#dcf8ff" d="M1722.169 1726.719v1082.342l941.444-1082.342zM3613.873 1726.719 2165.428 3469.906h796.523l1315.315-1743.187zM4665.264 1861.329 3505.395 3469.906h1159.869z"/><path fill="#ceebf2" d="M4665.264 1726.719h-387.998L2961.951 3469.906h543.444l1159.869-1608.577zM2663.613 1726.719l-941.444 1082.342v660.845h443.259l1448.445-1743.187z"/><path fill="#e6faff" d="M4665.264 1726.719h-387.998L2961.951 3469.906h543.444l1159.869-1608.577zM2663.613 1726.719l-941.444 1082.342v660.845h443.259l1448.445-1743.187z"/><path d="M2776.274 3678.619h888.64l6.172 111.08-894.812-43.197z" opacity=".11"/><path fill="#a8e0ff" d="M3905.584 3943.977H2529.432c-27.154 0-49.371-22.217-49.371-49.371v-12.337c0-27.154 22.217-49.371 49.371-49.371h1376.152c27.154 0 49.373 22.217 49.373 49.371v12.337c0 27.154-22.219 49.371-49.373 49.371z"/><circle cx="3212.432" cy="3583.864" r="44.495" fill="#e3e9e7"/><path fill="#ff9e73" d="M2829.75 2131.554c-3.742-.125-1.5 1.222 0 0z"/><path fill="#4a344c" d="M4610.08 2349.913c.029-.274-.08-.642-.039-.907-.1.781-.064.987.039.907z"/><path fill="#a8e0ff" d="m4568.641 1424.048-4.346-13.387c-9.875 1.884-18.275 2.262-25.207 1.132-6.93-1.13-13.662-4.401-20.195-9.815-4.127-3.418-7.727-7.674-10.801-12.766-3.072-5.088-1.219-11.748 3.998-14.595 4.783-2.609 10.83-1.127 13.762 3.463 3.354 5.249 6.818 9.084 10.398 11.506 7.531 5.013 15.145 6.697 22.846 5.053l-19.604-60.399c-8.279 1.056-17.236.623-26.871-1.299-7.137-1.412-13.309-4.574-18.516-9.486s-9.041-11.164-11.504-18.753c-4.379-13.492-3.148-25.971 3.695-37.435 4.57-7.697 12.939-14.22 25.107-19.567l-4.049-12.474a5.874 5.874 0 0 1 11.173-3.627l4.049 12.474c11.375-2.527 21.172-2.134 29.395 1.179 6.736 2.686 12.463 6.86 17.178 12.525 4.324 5.197 2.844 13.043-3.203 16.064-4.43 2.212-9.863.993-12.813-2.985-2.49-3.36-5.227-5.909-8.209-7.647-4.838-2.818-10.553-3.857-17.148-3.115l17.756 54.708c10.332-.713 17.262-.903 20.787-.572 6.748.684 12.588 2.284 17.52 4.8 4.934 2.516 9.234 6.013 12.902 10.493s6.471 9.707 8.41 15.68c4.264 13.141 3.641 25.46-1.871 36.958-5.512 11.499-14.805 19.719-27.881 24.662l4.414 13.598a5.872 5.872 0 1 1-11.172 3.627zm-52.106-160.537c-7.014 3.52-11.869 8.358-14.57 14.517s-2.99 12.505-.869 19.041c2.098 6.465 5.664 11.289 10.697 14.471 5.033 3.182 12.293 4.671 21.781 4.465l-17.039-52.494zm53.735 127.502c7.082-3.308 12.139-8.484 15.174-15.528 3.035-7.043 3.24-14.606.617-22.687-2.234-6.887-5.734-11.868-10.5-14.943s-12.779-4.61-24.039-4.606l18.748 57.764z"/><path fill="#a8e0ff" d="m4751.082 1368.719-352.27 114.333c4.023 2.051 8.045 4.103 12.068 6.153l-70.965-218.649c-2.051 4.022-4.104 8.044-6.154 12.067l352.27-114.333-12.068-6.154 70.967 218.65c3.805 11.724 22.031 5.83 18.221-5.914-23.656-72.883-47.311-145.767-70.965-218.65-1.6-4.925-7.131-7.756-12.068-6.154l-352.27 114.333c-4.924 1.599-7.756 7.131-6.152 12.067 23.654 72.883 47.309 145.767 70.965 218.65 1.598 4.925 7.131 7.756 12.066 6.153l352.27-114.333c11.724-3.804 5.829-22.031-5.915-18.219zM3991.338 1040.551l-212.051-45.864 4.297 6.67 28.467-131.619-6.67 4.298 212.053 45.864c-1.434-2.223-2.865-4.447-4.299-6.67l-28.467 131.619c-1.527 7.058 9.439 9.441 10.969 2.372 9.488-43.873 18.979-87.746 28.467-131.618.641-2.965-1.326-6.027-4.299-6.67l-212.051-45.864c-2.965-.642-6.027 1.326-6.67 4.298l-28.469 131.618c-.641 2.965 1.328 6.028 4.299 6.67l212.053 45.864c7.056 1.526 9.441-9.439 2.371-10.968z"/><path fill="#a8e0ff" d="m3801.852 871.591 41.191 61.354c11.76 17.517 24.873 48.047 49.287 49.083 21.264.902 47.594-19.834 65.285-29.155l64.043-33.741c6.396-3.37.273-12.779-6.078-9.433l-54.213 28.562c-18.43 9.71-37.682 23.333-57.371 30.226-27.473 9.618-45.264-32.302-57.557-50.611l-35.156-52.364c-4.025-5.996-13.467.07-9.431 6.079z"/><path fill="#00497f" d="M3777.434 2538.438c-8.49 14.468 7.191 32.49 29.027 41.556 4.639 1.574-11.82 6.743-7.572 7.654 3.143 10.606 7.148 21.407 12.176 33.544-.598.078-2.055-4.066-2.646-3.987-26.07 3.48-48.498-10.426-52.225-30.615-3.794-20.542 3.583-38.096 21.24-48.152z"/><path fill="#3b5863" d="M3824.717 2778.537c3.354 1.85 6.887 3.749 10.717 3.772 8.898.054 84.422-107.797 84.422-107.797s4.607 17.229 22.447 20.867c-3.561 35.3-62.672 158.785-105.084 166.172-9.49 1.653-19.115-1.739-28.359-4.457-20.775-6.109-46.615-18.237-67.393-24.345 11.674-31.793 20.256-53.414 28.213-88.49 12.599 6.954 42.439 27.324 55.037 34.278z"/><path fill="#3b5863" d="M3769.68 2744.26c-7.957 35.076-12.107 58.079-23.781 89.871-25.203-7.41-79.785-26.628-104.988-34.037-13.211-3.885-5.908 12.884-13.992 1.738-7.045-9.712-7.953-22.43-8.611-34.409-2.016-36.683-4.029-73.367-6.045-110.052l157.417 86.889z"/><path fill="#7c3114" d="M3698.959 3167.215c-2.59-12.885-4.652 22.078-6.941 15.408-17.008-49.551-19.166-53.768-26.383-70.342-29.848 2.16-129.342-24.188-152.906-21.168-5.012 8.062-12.33 20.892-19.223 37.846-7.236 17.799-39.791 87.627-13.23 164.734 3.447 10.009 5.703 13.649 9.793 21.131.697.779 1.322 1.397 2.004 2.141 11.656 24.798 25.611 41.149 31.586 48.432 5.396 6.571 35.217 36.671 40.227 43.728 3.73 5.254 6.885 11.021 9.566 17.149 2.076 7.713 6.889 23.149 12.742 41.694h161.127c-6.057-79.972-20.829-187.916-48.362-300.753z"/><path fill="#8a3811" d="M3689.406 3295.064c7.123-27.853 10.594-56.565 9.105-85.277-2.096-40.368-11.146-33.377-45.992-69.12-31.758-32.579-185.172-8.269-198.123 35.345-3.127 10.531-.564 61.487-1.818 73.416-1.113 10.523-.598 14.771-.049 23.289.287.994.604 1.822.908 2.779.068 27.399 5.816 48.122 8.15 57.239 2.107 8.242 16.416 48.133 17.963 56.64 1.168 6.338 1.588 12.902 1.422 19.588-1.748 9.938-4.742 32.902-8.156 59.005h164.939c18.327-54.412 37.151-116.213 51.651-172.904z"/><path fill="#573b37" d="M3542.971 2575.343c-9.383-10.825-24.211-40.771-27.502-54.713-4.955-20.985-9.285-63.522-4.014-83.991 11.143-43.259 40.557-55.8 61.234-60.183 65.014-13.782 99.664 5.927 108.828 14.558 5.59 5.265 15.668 20 16.297 27.655.904 11.017-16.174 4.05-25.875 9.35s-20.945 6.796-31.852 8.594c-10.908 1.797-22.16 4.159-31.01 10.784-10.971 8.213-16.523 21.609-21.584 34.346-6.943 17.478-13.621 35.088-20.771 52.48-5.642 13.727-14.554 29.537-23.751 41.12z"/><path fill="#ef8d6b" d="m3532.125 2643.327 94.617 44.595-.82-162.154-73.072-13.132z"/><path fill="#ffa17b" d="M3564.275 2498.889c6.314 61.623 40.529 109.182 78.08 106.074 37.553-3.107 63.48-55.637 57.91-117.328-5.57-61.69-5.119-78.971-45.217-82.951-52.325-5.194-100.148 2.681-90.773 94.205z"/><path fill="#ffa17b" d="M3578.646 2517.214c3.732 7.745.627 17.038-6.936 20.755-7.564 3.717-16.721.45-20.453-7.295-3.734-7.747-.609-19.041 6.953-22.758 7.565-3.718 16.704 1.551 20.436 9.298z"/><path fill="#456676" d="M3492.508 2874.816c13.891-54.029-14.623-75.825-45.191-129.223 3.648-19.09 8.646-36.284 15.359-50.518 7.662-16.255 36.469-56.777 73.268-78.682 17.732 19.485 62.621 57.621 98.41 33.32 11.43 33.205 70.629 175.775 67.092 226.663-1.012 14.556-10.363 88.538-10.975 112.788.734 25.229 2.262 74.297 2.621 81.268 5.365 103.918 35.539 89.516 19.041 128.428-7.275 5.396-16.031 9.078-24.439 13.166l-.572.073c-44.613 5.645-89.965 1.55-133.041-11.357-21.018-6.298-42.113-10.264-63.426-5.566-2.551-13.03-4.383-25.841-5.033-38.175-6.339-90.26-12.302-193.759 6.886-282.185z"/><path fill="#3b5863" d="M3454.102 2989.846c-14.648-82.44-19.805-176.139-6.785-244.252 30.568 53.397 60.336 62.981 49.121 140.761-2.145 96.608-17.154 180.387-10.816 270.647.65 12.334 2.482 25.145 5.033 38.175-9.238 2.037-18.518 5.69-27.848 11.502-4.34 2.463-8.801 4.802-13.332 7.052-14.489-83.168 31.791-71.011 4.627-223.885z"/><path fill="#fff" d="M3629.326 2704.873c-8.525-11.898-46.514-36.935-55.813-42.468-10.197-6.066-23.648-13.404-34.66-18.107-7.355-3.142-15.994-6.306-23.855-8.14-1.588-.37-3.324-.797-4.275-2.028-1.148-1.486-.701-3.526-.209-5.298 3.254-11.681 3.945-13.204 7.199-24.885 1.559-5.597 39.477 2.403 44.615 3.718 17.99 4.6 37.396 12.127 51.902 20.671 41.475 24.426 24.813 51.563 15.096 76.537z"/><path fill="#573b37" d="m3561.531 2500.154 10.682 18.037c1.234 2.082 2.797 4.39 5.201 4.672 5.018.591 13.848-1.515 13.611-6.561-.777-16.709 3.797-29.511 13.676-43.008 4.797-6.553 19.654-17.476 37.551-20.937 10.838-2.096 45.428-.68 56.195-3.107 7.508-1.693 11.828-67.382-57.959-75.466-15.209-1.762-60.578 27.033-71 38.251-20.785 22.376-23.517 61.842-7.957 88.119z"/><path fill="#003759" d="M3916.652 2758.928h-.002c14.303-3.327 23.281-17.75 19.953-32.051l-25.939-111.504c-3.326-14.301-17.75-23.279-32.051-19.953-14.301 3.327-23.279 17.75-19.953 32.051l25.939 111.504c3.329 14.3 17.751 23.279 32.053 19.953z"/><path fill="#00497f" d="M4018.359 2427.632c-.162 71.019 33.486 146.646 74.357 202.799-113.994-52.976-175.678-3.813-243.254 5.084-8.307-20.055-12.748-37.137-15.217-53.638 113.71 31.418 151.818-65.025 184.114-154.245z"/><path fill="#00497f" d="M3808.424 2500.724c-14.449 24.618 12.234 55.284 49.389 70.71 7.896 2.68-20.111 11.475-12.883 13.025 5.346 18.047 12.164 36.426 20.719 57.077-1.02.132-3.498-6.92-4.504-6.785-44.361 5.921-82.521-17.74-88.865-52.095-6.456-34.951 6.099-64.82 36.144-81.932z"/><path fill="#00497f" d="M3808.424 2500.724a100.36 100.36 0 0 1 15.979-7.331c1.703-.61 3.5-1.28 5.246-1.914 57.922-21.077 131.174-26.279 199.318-127.706-7.314 20.368-10.559 41.896-10.607 63.859-32.297 89.22-70.404 185.663-184.113 154.245 0-.005 0-.011-.002-.016-38.577-15.965-40.27-56.519-25.821-81.137z"/><path fill="#fff" d="M4025.721 2368.666c3.73-6.062 6.627-11.419 12.723-13.562 61.252-21.527 133.473 265.795 61.111 275.941-2.127.298-4.379.015-6.838-.615-10.531-2.692-19.531-9.604-25.402-18.751-28.987-45.169-68.862-167.074-41.594-243.013z"/><ellipse cx="4077.537" cy="2496.051" fill="#00497f" rx="33.119" ry="119.16" transform="rotate(166.906 4077.501 2496.062)"/><linearGradient id="a" x1="-663.958" x2="-609.999" y1="3177.791" y2="3177.791" gradientTransform="scale(-1 1) rotate(13.097 599.621 -12123.357)" gradientUnits="userSpaceOnUse"><stop offset="0" stop-color="#f7c248"/><stop offset=".684" stop-color="#f7c248"/><stop offset=".874" stop-color="#fabd48"/><stop offset="1" stop-color="#ffb648"/></linearGradient><path fill="url(#a)" d="M4038.08 2466.478c19.693-1.648 38.135 11.301 42.746 31.117 4.582 19.695-6.094 39.335-24.287 46.655-4.068-12.521-7.893-26.223-11.26-40.694-2.99-12.855-5.384-25.319-7.199-37.078z"/><path fill="#fff" d="M4038.08 2466.478c19.693-1.648 38.135 11.301 42.746 31.117 4.582 19.695-6.094 39.335-24.287 46.655-4.068-12.521-7.893-26.223-11.26-40.694-2.99-12.855-5.384-25.319-7.199-37.078z"/><path fill="#ef8d6b" d="M3898.551 2665.805c1.012-11.116 12.572-25.893 20.686-27.249 8.111-1.356 15.088.687 18.504 8.169 8.486 18.593 14.379 62.298-5.848 59.801-20.375-2.516-34.942-23.12-33.342-40.721z"/><path fill="#ffa17b" d="M4017.699 3065.456c-7.336-20.712-32.375-21.214-42.084-22.799-9.732 7.265-22.648 29.188-21.438 30.33 1.879 1.773 10.609 6.381 22.998 9.288 13.794 3.237 46.225-.726 40.524-16.819z"/><path fill="#456676" d="M3522.766 2762.009c37.139-35.825 75.146-24.439 103.25 8.396l106.711 151.406c.863.256 4.615 4.589 5.029 4.938 19.205 16.14 85.223 69.267 237.391 110.86 4.336 1.186 6.637 5.73 5.002 9.774l-12.943 32.067c-36.371-4.799-62.344-.197-135.045-14.775-53.598-10.746-139.523-48.34-151.158-56.858-25.516-17.608-65.6-61.102-88.604-89.11-33.109-40.315-54.74-66.173-72.48-99.857-16.48-31.291 2.847-56.841 2.847-56.841z"/><defs><filter id="b" width="409.367" height="314.759" x="3482.992" y="2735.792" filterUnits="userSpaceOnUse"><feFlood flood-color="#fff" flood-opacity="1" result="back"/><feBlend in="SourceGraphic" in2="back"/></filter></defs><mask id="c" width="409.367" height="314.759" x="3482.992" y="2735.792" maskUnits="userSpaceOnUse"><g filter="url(#b)"><path fill="url(#SVGID_3_)" d="M3487.598 2789.05c31.695 66.933 107.117 115.642 156.707 170.646 8.498 9.427 21.484 21.664 31.982 28.797 10.213 6.938 17.496 8.668 29.037 13.05 49.379 18.751 99.102 37.599 151.076 47.01 12.02 2.177 25.008 3.717 35.959-1.693-1.355-6.164-7.191-10.151-12.66-13.302-27.52-15.853-57.586-26.682-86.4-40.037-28.813-13.357-57.07-29.806-77.346-54.247-14.08-16.972-23.725-37.081-34.604-56.262-24.857-43.823-56.793-83.622-94.189-117.384-16.074-14.512-38.285-31.514-61.422-29.701-25.297 1.979-54.138 19.335-38.14 53.123z" mask="url(#c)"/></g></mask><linearGradient id="d" x1="4622.525" x2="4622.525" y1="4613.846" y2="5109.872" gradientTransform="rotate(-47.577 1942.839 4964.14)" gradientUnits="userSpaceOnUse"><stop offset="0" stop-color="#fff"/><stop offset="1" stop-color="#fff"/></linearGradient><path fill="url(#d)" d="M3487.598 2789.05c31.695 66.933 107.117 115.642 156.707 170.646 8.498 9.427 21.484 21.664 31.982 28.797 10.213 6.938 17.496 8.668 29.037 13.05 49.379 18.751 99.102 37.599 151.076 47.01 12.02 2.177 25.008 3.717 35.959-1.693-1.355-6.164-7.191-10.151-12.66-13.302-27.52-15.853-57.586-26.682-86.4-40.037-28.813-13.357-57.07-29.806-77.346-54.247-14.08-16.972-23.725-37.081-34.604-56.262-24.857-43.823-56.793-83.622-94.189-117.384-16.074-14.512-38.285-31.514-61.422-29.701-25.297 1.979-54.138 19.335-38.14 53.123z" opacity=".1"/><path fill="#ffa17b" d="M3974.361 3062.63c13.725-17.161 37.543-9.421 47.234-7.734 6.813 10.056 11.822 35.003 10.305 35.684-2.359 1.06-12.117 2.548-24.773 1.231-14.09-1.467-43.428-15.848-32.766-29.181z"/><path fill="#ce365e" d="M4541.445 2938.312c-23.332-46.024-62.971-47.735-100.291-25.935l-150.469 108.027c-.9-.043-5.863 2.82-6.371 3.015-23.436 8.948-103.229 37.481-260.619 26.862-4.486-.303-8.148 3.236-7.932 7.593.568 11.514 1.139 23.025 1.709 34.538 35.934 7.397 58.959 20.264 132.42 30.339 54.156 7.428 147.66.099 161.445-4.132 29.879-8.266 82.014-36.205 112.93-55.118 44.502-27.225 73.418-44.558 101.225-70.56 25.83-24.154 15.953-54.629 15.953-54.629z"/><ellipse cx="4450.417" cy="4259.236" fill="#36a6cf" rx="487.245" ry="84.619"/><path fill="#00497f" d="M4348.662 3393.148c1.619-13.707 6.736 22.719 8.568 15.544 13.613-53.313 15.516-57.911 21.67-75.872 31.43-.262 133.359-36.264 158.285-35.096 5.928 8.018 14.674 20.828 23.324 37.994 9.082 18.021 49.07 88.371 27.787 171.341-2.762 10.769-4.816 14.771-8.463 22.95-.666.875-1.268 1.574-1.918 2.408-10.105 26.948-23.332 45.246-28.971 53.375-5.092 7.336-33.766 41.37-38.414 49.181-3.461 5.815-6.273 12.12-8.563 18.763-5.357 29.074-38.184 161.314-37.846 179.76 1.533 15.757 35.17 92.979 12.287 233.562-13.32 81.831-30.832 119.087-47.777 164.692-3.373 9.074-1.934 7.621-9.801 7.246l-17.482-1.001c-11.893-.567-27.408 2.897-25.771-12.229 4.256-39.263 3.664-84.326 3.277-139.313-.986-141.438-44.977-217.71-51.332-281.647-7.567-76.142-6.741-237.46 21.14-411.658z"/><path fill="#2b150d" d="M4377.322 4205.671c-3.012 5.731-8.994 13.421-16.063 18.568-14.945 10.886-36.086 15.424-50.939 21.274-5.203 2.051-8.855 9.551-8.713 17.979.043 2.558.135 5.396.121 7.165 42.68-.402 126.943 1.211 128.813-.34 5.002-4.147 3.727-24.045.51-46.758-5.43 1.021-21.385 1.253-29.25-.361-13.487-2.768-23.477-14.652-24.479-17.527z"/><path fill="#0b69aa" d="M4542.17 3632c-2.387 6.331-4.043 13.039-5.115 19.979-.121 29.564-9.066 165.524-5.469 183.618 4.295 15.237 51.057 85.293 53.393 227.708 1.355 82.907-9.305 122.669-17.904 170.548-1.725 9.528-.563 7.844-8.379 8.86l-17.385 2.109c-11.801 1.547-22.451 9.663-23.514-5.512-2.742-39.397-15.316-85.61-25.412-139.662-25.982-139.043-82.756-206.325-100.309-268.138-15.842-55.731-40.09-209.113-49.277-336.053-2.182-30.119-.426-60.444 6.457-89.848 9.678-41.336 17.732-32.426 60.402-62.889 38.893-27.766 172.166 31.152 186.703 76.673 34.047 106.626-51.007 204.099-54.191 212.607z"/><path fill="#432315" d="M4514.24 4209.327c-3.471 4.1-9.375 9.765-16.443 14.912-14.945 10.886-36.086 15.424-50.939 21.274-5.203 2.051-8.855 9.551-8.713 17.979.043 2.558.135 5.396.121 7.165 42.68-.402 126.941 1.211 128.813-.34 5.002-4.147 4.836-24.204 1.619-46.916-5.43 1.021-22.496 1.411-30.359-.203-13.487-2.768-24.511-13.376-24.099-13.871z"/><defs><filter id="e" width="173.271" height="406.165" x="4384.18" y="3449.191" filterUnits="userSpaceOnUse"><feFlood flood-color="#fff" flood-opacity="1" result="back"/><feBlend in="SourceGraphic" in2="back"/></filter></defs><mask id="f" width="173.271" height="406.165" x="4384.18" y="3449.191" maskUnits="userSpaceOnUse"><g filter="url(#e)"><path fill="url(#SVGID_6_)" d="M4412.809 3763.558c4.619 21.545 9.898 43.175 19.676 62.921 5.838 11.789 14.066 23.479 26.42 27.999 2.102.77 4.48 1.303 6.541.423 2.428-1.039 3.68-3.702 4.572-6.189 6.416-17.874 5.205-37.42 5.84-56.399.672-20.088 3.498-40.034 6.32-59.935 6.531-46.045 13.258-92.788 32.234-135.246 17.174-38.43 44.703-75.155 42.959-117.213-.227-5.459-1.027-11.094-3.949-15.71-4.613-7.29-13.488-10.575-21.918-12.409a114.316 114.316 0 0 0-31.996-2.346c-26.398 1.796-55.063 9.259-80.367 17.01-15.672 4.801-27.689 11.119-31.988 27.905-6.26 24.442-.9 55.666.463 80.594a1217.133 1217.133 0 0 0 8.354 90.613c4.079 31.372 16.839 66.695 16.839 97.982z" mask="url(#f)"/></g></mask><linearGradient id="g" x1="3399.695" x2="3399.695" y1="3449.191" y2="3855.356" gradientTransform="translate(1071.12)" gradientUnits="userSpaceOnUse"><stop offset="0" stop-color="#fff"/><stop offset="1" stop-color="#fff"/></linearGradient><path fill="url(#g)" d="M4412.809 3763.558c4.619 21.545 9.898 43.175 19.676 62.921 5.838 11.789 14.066 23.479 26.42 27.999 2.102.77 4.48 1.303 6.541.423 2.428-1.039 3.68-3.702 4.572-6.189 6.416-17.874 5.205-37.42 5.84-56.399.672-20.088 3.498-40.034 6.32-59.935 6.531-46.045 13.258-92.788 32.234-135.246 17.174-38.43 44.703-75.155 42.959-117.213-.227-5.459-1.027-11.094-3.949-15.71-4.613-7.29-13.488-10.575-21.918-12.409a114.316 114.316 0 0 0-31.996-2.346c-26.398 1.796-55.063 9.259-80.367 17.01-15.672 4.801-27.689 11.119-31.988 27.905-6.26 24.442-.9 55.666.463 80.594a1217.133 1217.133 0 0 0 8.354 90.613c4.079 31.372 16.839 66.695 16.839 97.982z" opacity=".1"/><defs><filter id="h" width="88.651" height="281.379" x="4469.915" y="3862.921" filterUnits="userSpaceOnUse"><feFlood flood-color="#fff" flood-opacity="1" result="back"/><feBlend in="SourceGraphic" in2="back"/></filter></defs><mask id="i" width="88.651" height="281.379" x="4469.915" y="3862.921" maskUnits="userSpaceOnUse"><g filter="url(#h)"><path fill="url(#SVGID_9_)" d="M4530.043 3900.411c26.66 77.712 30.316 161.397 27.898 243.521-6.412 2.252-10.973-6.299-12.23-12.977-9.756-51.807-7.443-107.396-32.16-153.961-14.074-26.512-48.797-61.586-42.986-94.615 2.396-13.623 15.328-21.546 29.15-18.978 17.244 3.204 25.273 22.275 30.328 37.01z" mask="url(#i)"/></g></mask><linearGradient id="j" x1="3443.119" x2="3443.119" y1="4144.3" y2="3862.921" gradientTransform="translate(1071.12)" gradientUnits="userSpaceOnUse"><stop offset="0" stop-color="#fff"/><stop offset="1" stop-color="#fff"/></linearGradient><path fill="url(#j)" d="M4530.043 3900.411c26.66 77.712 30.316 161.397 27.898 243.521-6.412 2.252-10.973-6.299-12.23-12.977-9.756-51.807-7.443-107.396-32.16-153.961-14.074-26.512-48.797-61.586-42.986-94.615 2.396-13.623 15.328-21.546 29.15-18.978 17.244 3.204 25.273 22.275 30.328 37.01z" opacity=".1"/><path fill="#aee8ff" d="M4397.119 3037.107c8.09 33.037 20.006 63.582 31.557 93.455 23.711-7.415 47.42-14.827 71.129-22.24 12.428-3.887 25.766-8.414 33.23-19.084 6.502-9.297 7.156-21.336 7.584-32.673 1.314-34.718 2.627-69.437 3.939-104.155-49.146 28.234-98.292 56.465-147.439 84.697z"/><path fill="#52382f" d="M4483.137 2840.371c9.83-9.322 35.74-42.151 40.125-54.969 6.6-19.293 14.602-58.926 11.531-78.678-6.492-41.742-33.018-56.26-52.072-62.295-59.916-18.973-94.346-3.624-103.77 3.653-5.746 4.439-16.592 17.377-17.891 24.522-1.867 10.285 14.848 5.305 23.488 11.188s19.086 8.33 29.186 11.028c10.098 2.699 20.471 5.961 28.188 13.014 9.568 8.742 13.555 21.863 17.143 34.316 4.92 17.091 9.58 34.281 14.703 51.31 4.043 13.443 1.781 35.161 9.369 46.911z"/><path fill="#ea8a63" d="m4500.441 2888.408-88.293 44.596-3.406-153.308 68.737-14.298z"/><path fill="#ff9e73" d="M4479.334 2760.434c-11.633 57.414-48.225 99.015-83.279 92.622-35.057-6.391-54.607-58.224-43.67-115.769 10.939-57.547 12.109-73.852 50.217-73.896 49.726-.056 94.005 11.772 76.732 97.043z"/><path fill="#ff9e73" d="M4464.117 2776.354c-4.229 6.945-2.164 15.978 4.611 20.174 6.773 4.197 15.693 1.968 19.922-4.977 4.229-6.946 2.332-17.864-4.443-22.062-6.775-4.196-15.863-.081-20.09 6.865z"/><path fill="#e54a6e" d="M4517.859 3136.012c-14.006-50.862 30.594-89.207 58.635-140.189-3.758-17.991-8.762-34.169-15.338-47.519-7.508-15.245-30.393-56.505-65.541-76.622-16.451 18.711-52.764 61.438-86.996 39.039-10.27 31.58-60.402 157.539-56.238 205.598 1.191 13.746 2.174 87.406 3.145 110.325-.285 23.865-.938 70.285-1.164 76.883-3.396 98.343-18.998 131.86-10.982 135.589.18.021 18.732-1.729 18.914-1.736 39.906-1.338 79.262-3.406 123.885-13.65 20.223-4.643 41.381-9.621 61.607-5.523 2.201-12.361 3.727-24.504 4.143-36.177 4.534-85.448-14.499-162.719-34.07-246.018z"/><path fill="#e54a6e" d="M4579.031 3223.469c6.061-78.95 10.873-163.454-2.537-227.646-28.041 50.982-72.641 89.327-58.635 140.189 19.57 83.299 38.604 160.57 34.068 246.017-.416 11.673-1.941 23.815-4.143 36.177 31.715 7.383 49.262 18.855 53.582 20.91 1.655-46.236-30.311-111.762-22.335-215.647z"/><path fill="#fff" d="M4408.748 2956.849c7.869-11.388 43.383-35.674 52.088-41.056 9.543-5.9 22.143-13.057 32.479-17.681 6.904-3.09 15.021-6.221 22.424-8.081 1.498-.376 3.131-.808 4.012-1.987 1.061-1.424.605-3.346.111-5.013-3.266-10.992-3.943-12.422-7.209-23.413-1.564-5.267-37.287 2.91-42.125 4.235-16.936 4.641-35.52 11.516-48.742 20.384-30.62 20.535-20.682 43.144-13.038 72.612z"/><path fill="#52382f" d="M4470.328 2777.081c-7.424-18.505 3.414-42.612-8.195-58.636-9.828-13.566-29.494-12.816-45.914-10.745l-22.627 2.855c-12.813 1.616-25.885 3.226-38.498.632-12.613-2.592-24.92-10.15-30.027-22.283-6.375-15.145 1.496-35.084 16.393-41.523 4.914 5.395 14.938 4.059 18.482-2.463 1.74.368 3.213 1.81 3.658 3.58 3.256 2.006 6.256-1.371 9.236-3.857 2.979-2.486 5.633-5.691 9.307-6.787 4.482-1.337 9.115.833 13.709 1.539 8.801 1.354 17.682-2.732 26.578-2.248 12.467.68 22.523 9.942 32.91 16.975 11.311 7.658 24.127 13.14 34.133 22.521 14.238 13.35 21.344 34.317 18.316 54.051-3.027 19.734-19.867 37.86-37.461 46.389z"/><path fill="#b76251" d="M4457.832 3546.98c44.434.891 82.35 30.771 100.078 73.402l21.949.44c-19.115-53.963-66.064-92.64-121.607-93.754-55.545-1.113-104.08 35.649-125.451 88.801l21.949.44c19.508-41.884 58.648-70.219 103.082-69.329z"/><path fill="#b76251" d="M4686.578 3637.46c0-13.95-11.143-24.021-24.805-24.021h-437.064c-13.664 0-24.842 11.413-24.842 25.363v15.012l486.748-8.671-.037-7.683z"/><path fill="#914330" d="m4216.85 3635.333-16.983 97.526h488.559l-1.889-97.526z"/><path fill="#66301f" d="M4210.217 3732.859v182.829c0 13.95 11.18 25.364 24.842 25.364h428.525c13.662 0 24.842-11.414 24.842-25.364v-182.829h-478.209z"/><path fill="#432315" d="M4246.445 3941.053h-32.088c-13.664 0-24.842-11.24-24.842-24.978l10.352-262.261c0-13.737 11.178-24.977 24.842-24.977h11.385c13.664 0 24.842 11.239 24.842 24.977l10.352 262.261c-.001 13.738-11.179 24.978-24.843 24.978z"/><path fill="#b76251" d="M4501.561 3760.337h-55.828c-5.996 0-10.902-4.906-10.902-10.901v-24.058c0-5.996 4.906-10.901 10.902-10.901h55.828c5.996 0 10.9 4.905 10.9 10.901v24.058c0 5.995-4.904 10.901-10.9 10.901z"/><path fill="#ffa17b" d="M4421 3560.54c-11.891-18.479 3.037-38.588 7.725-47.235 11.703-3.252 36.945-.049 37.107 1.607.252 2.572-1.447 12.296-6.729 23.873-5.88 12.888-28.863 36.111-38.103 21.755z"/><path fill="#e54a6e" d="M4483.914 2983.408c-51.061 7.445-65.316 44.473-56.547 86.794l54.434 177.054c-.328.839.805 6.457.826 7 1.012 25.064 2.625 109.79-57.607 255.589-1.715 4.154.471 8.754 4.67 9.938l33.281 9.389c18.465-31.702 38-49.426 70.963-115.845 24.303-48.964 47.158-139.928 47.541-154.342 1.689-30.955-8.176-89.275-16.248-124.607-11.621-50.858-18.832-83.79-34.615-118.435-14.663-32.183-46.698-32.535-46.698-32.535z"/><defs><filter id="k" width="122.584" height="498.78" x="4446.685" y="2951.252" filterUnits="userSpaceOnUse"><feFlood flood-color="#fff" flood-opacity="1" result="back"/><feBlend in="SourceGraphic" in2="back"/></filter></defs><mask id="l" width="122.584" height="498.78" x="4446.685" y="2951.252" maskUnits="userSpaceOnUse"><g filter="url(#k)"><path fill="url(#SVGID_12_)" d="M4526.822 2972.144c33.539 66.029 25.9 155.487 39.053 228.368 2.254 12.49 3.986 30.249 3.201 42.918-.764 12.32-3.852 19.141-7.449 30.95-15.391 50.527-30.914 101.386-55.281 148.249-5.635 10.839-12.363 22.053-23.346 27.403-4.045-4.845-3.627-11.901-2.771-18.155 4.305-31.465 14.143-61.87 21.213-92.831s11.355-63.376 4.434-94.37c-4.805-21.521-14.805-41.455-23.316-61.798-19.445-46.479-31.377-96.092-35.191-146.33-1.639-21.593-1.492-49.563 14.1-66.753 17.047-18.794 48.424-30.982 65.353 2.349z" mask="url(#l)"/></g></mask><linearGradient id="m" x1="-350.136" x2="-350.136" y1="3328.198" y2="3824.203" gradientTransform="scale(-1 1) rotate(4.692 2177.85 -47421.338)" gradientUnits="userSpaceOnUse"><stop offset="0" stop-color="#fff"/><stop offset="1" stop-color="#fff"/></linearGradient><path fill="url(#m)" d="M4526.822 2972.144c33.539 66.029 25.9 155.487 39.053 228.368 2.254 12.49 3.986 30.249 3.201 42.918-.764 12.32-3.852 19.141-7.449 30.95-15.391 50.527-30.914 101.386-55.281 148.249-5.635 10.839-12.363 22.053-23.346 27.403-4.045-4.845-3.627-11.901-2.771-18.155 4.305-31.465 14.143-61.87 21.213-92.831s11.355-63.376 4.434-94.37c-4.805-21.521-14.805-41.455-23.316-61.798-19.445-46.479-31.377-96.092-35.191-146.33-1.639-21.593-1.492-49.563 14.1-66.753 17.047-18.794 48.424-30.982 65.353 2.349z" opacity=".19"/><path fill="#aee8ff" d="m1868.307 2674.226-56.076-202.112 482.179-714.128 745.416 343.369 91.162 328.567-443.835 556.323-377.897 62.005z"/><path fill="#36a6cf" d="M1922.419 1989.602h1132.978V3017.08H1922.419z" transform="rotate(-15.507 2489.305 2503.857)"/><path fill="#fff" d="m1868.307 2674.226 144.136 519.506 712.337-197.636z"/><path fill="#fff" d="m3103.674 2331.474 144.137 519.506-704.986 195.598z"/><path fill="#fff" d="M1984.75 2104.762h787.678v21.972H1984.75z" transform="rotate(-15.507 2378.975 2116.19)"/><path fill="#fff" d="M2004.064 2174.377h787.678v21.972h-787.678z" transform="rotate(-15.507 2398.291 2185.818)"/><path fill="#fff" d="M2023.379 2243.991h787.678v21.972h-787.678z" transform="rotate(-15.507 2416.839 2254.502)"/><path fill="#fff" d="M2042.693 2313.606h787.678v21.972h-787.678z" transform="rotate(-15.507 2436.924 2325.074)"/><path fill="#fff" d="M2062.803 2386.088h787.678v21.972h-787.678z" transform="rotate(-15.507 2457.036 2397.569)"/><path fill="#aee8ff" d="m4383.928 2153.62-.086-.228c-9.918-26.681-28.617-39.61-57.023-40.007-5.279-.074-10.57.392-15.846.236-13.74-.406-27.998 1.175-41.107-1.969-35.336-8.473-40.293-19.369-29.795-49.732 16.389-22.511 22.678-53.559 14.426-84.532-13.707-51.461-62.318-83.19-108.576-70.868s-72.645 64.028-58.936 115.49c8.668 32.539 31.295 57.171 58.453 67.784 4.5 4.044 8.502 8.802 12.27 13.531 5.184 6.502 5.381 13.785 1.313 21.439-6.516 12.259-15.43 22.237-27.248 29.321-12.316 7.384-24.982 14.199-37.584 21.1-24.689 13.522-34.492 36.223-30.176 62.837 2.189 13.511 15.561 22.21 28.787 18.687l275.205-73.309c12.929-3.442 20.54-17.223 15.923-29.78z"/><path fill="#aee8ff" d="m4070.242 2127.974-.055-.143c-6.219-16.733-17.947-24.841-35.762-25.09-3.311-.046-6.629.246-9.938.148-8.617-.255-17.559.737-25.781-1.234-22.158-5.314-25.268-12.147-18.684-31.189 10.277-14.117 14.221-33.589 9.047-53.014-8.598-32.273-39.084-52.172-68.094-44.444s-45.559 40.155-36.961 72.429c5.436 20.407 19.627 35.854 36.658 42.511 2.822 2.536 5.332 5.52 7.695 8.486 3.25 4.078 3.375 8.645.822 13.445-4.086 7.688-9.676 13.946-17.088 18.389-7.725 4.631-15.668 8.905-23.57 13.232-15.484 8.481-21.631 22.717-18.926 39.408 1.375 8.474 9.76 13.929 18.055 11.719l172.594-45.975c8.109-2.161 12.883-10.803 9.988-18.678zM4529.891 2005.533l-.053-.143c-6.221-16.733-17.947-24.841-35.762-25.09-3.311-.046-6.629.246-9.938.148-8.617-.255-17.561.737-25.781-1.235-22.16-5.313-25.268-12.146-18.686-31.189 10.277-14.117 14.223-33.589 9.049-53.013-8.598-32.274-39.084-52.172-68.094-44.445s-45.559 40.155-36.961 72.429c5.436 20.407 19.627 35.854 36.658 42.51 2.822 2.536 5.332 5.521 7.695 8.486 3.25 4.078 3.373 8.646.822 13.445-4.086 7.688-9.676 13.945-17.088 18.389-7.725 4.631-15.668 8.904-23.57 13.232-15.484 8.48-21.633 22.717-18.926 39.408 1.375 8.474 9.76 13.929 18.055 11.719l172.592-45.975c8.111-2.158 12.884-10.8 9.988-18.676z"/><linearGradient id="n" x1="2576.82" x2="3157.455" y1="3796.441" y2="3796.441" gradientTransform="translate(-611.777 106.214)" gradientUnits="userSpaceOnUse"><stop offset="0" stop-color="#f2bf40"/><stop offset=".684" stop-color="#f2bf40"/><stop offset=".866" stop-color="#f7ba40"/><stop offset="1" stop-color="#ffb340"/></linearGradient><path fill="url(#n)" d="m2564.263 3828.558-364.717 1.97-215.758 1.164s.326 75.927.336 77.939c.089 17.824 91.746 32.353 215.997 36.089 23.787.715 48.751 1.041 74.513.913 160.338-.8 290.232-18.661 290.126-39.896-.01-2.012-.497-78.179-.497-78.179z"/><ellipse cx="2274.27" cy="3830.645" fill="#ffd65a" rx="290.321" ry="38.449" transform="translate(-19.068 11.385)"/><path fill="#ffd685" d="M2361.082 3923.162c108.821-5.236 167.526-17.484 184.852-25.839-.045-8.126-.112-19.503-.172-30.563-28.022 10.788-81.759 20.232-184.836 25.02l.156 31.382z"/><linearGradient id="o" x1="2576.821" x2="3157.457" y1="3704.731" y2="3704.731" gradientTransform="translate(-611.777 106.214)" gradientUnits="userSpaceOnUse"><stop offset="0" stop-color="#f2bf40"/><stop offset=".684" stop-color="#f2bf40"/><stop offset=".866" stop-color="#f7ba40"/><stop offset="1" stop-color="#ffb340"/></linearGradient><path fill="url(#o)" d="m2563.806 3736.846-364.717 1.97-215.758 1.164.335 77.939c.089 17.824 91.746 32.353 215.997 36.089 23.787.715 48.751 1.041 74.513.913 160.338-.8 290.232-18.661 290.126-39.896-.01-2.012-.496-78.179-.496-78.179z"/><ellipse cx="2273.813" cy="3738.933" fill="#ffd65a" rx="290.321" ry="38.45" transform="translate(-18.61 11.381)"/><path fill="#ffd685" d="M2360.625 3831.45c108.821-5.236 167.526-17.483 184.852-25.839-.045-8.125-.112-19.502-.172-30.563-28.022 10.788-81.759 20.233-184.836 25.021l.156 31.381z"/><linearGradient id="p" x1="2576.822" x2="3157.458" y1="3613.019" y2="3613.019" gradientTransform="translate(-611.777 106.214)" gradientUnits="userSpaceOnUse"><stop offset="0" stop-color="#f2bf40"/><stop offset=".684" stop-color="#f2bf40"/><stop offset=".866" stop-color="#f7ba40"/><stop offset="1" stop-color="#ffb340"/></linearGradient><path fill="url(#p)" d="m2563.349 3645.135-364.717 1.97-215.758 1.163.335 77.94c.089 17.823 91.746 32.353 215.997 36.089 23.787.715 48.75 1.041 74.513.912 160.338-.799 290.232-18.66 290.126-39.896-.01-2.012-.496-78.178-.496-78.178z"/><ellipse cx="2273.355" cy="3647.221" fill="#ffd65a" rx="290.321" ry="38.449" transform="translate(-18.147 11.374)"/><path fill="#ffd685" d="M2360.175 3741.406c108.821-5.236 167.526-17.484 184.853-25.839-.046-8.125-.112-19.502-.172-30.563-28.022 10.789-81.759 20.233-184.836 25.02l.155 31.382z"/><linearGradient id="q" x1="2518.511" x2="3099.146" y1="3507.481" y2="3507.481" gradientTransform="translate(-611.777 106.214)" gradientUnits="userSpaceOnUse"><stop offset="0" stop-color="#f2bf40"/><stop offset=".684" stop-color="#f2bf40"/><stop offset=".866" stop-color="#f7ba40"/><stop offset="1" stop-color="#ffb340"/></linearGradient><path fill="url(#q)" d="m2504.51 3539.889-364.717 1.971-215.758 1.163s.325 75.928.335 77.94c.089 17.823 91.746 32.353 215.997 36.089 23.787.715 48.751 1.041 74.513.913 160.339-.8 290.232-18.661 290.126-39.896-.01-2.013-.496-78.18-.496-78.18z"/><ellipse cx="2214.516" cy="3541.976" fill="#ffd65a" rx="290.321" ry="38.449" transform="translate(-17.623 11.08)"/><path fill="#ffd685" d="M2301.336 3636.161c108.821-5.236 167.526-17.484 184.852-25.839-.045-8.125-.112-19.502-.172-30.563-28.022 10.788-81.759 20.233-184.836 25.021l.156 31.381z"/><linearGradient id="r" x1="2460.769" x2="3041.406" y1="3414.273" y2="3414.273" gradientTransform="translate(-611.777 106.214)" gradientUnits="userSpaceOnUse"><stop offset="0" stop-color="#f2bf40"/><stop offset=".684" stop-color="#f2bf40"/><stop offset=".866" stop-color="#f7ba40"/><stop offset="1" stop-color="#ffb340"/></linearGradient><path fill="url(#r)" d="m2446.303 3446.969-364.717 1.97-215.758 1.163.335 77.94c.089 17.823 91.746 32.353 215.997 36.089 23.787.715 48.75 1.041 74.513.913 160.338-.8 290.232-18.661 290.126-39.896-.01-2.013-.496-78.179-.496-78.179z"/><ellipse cx="2156.309" cy="3449.055" fill="#ffd65a" rx="290.321" ry="38.449" transform="translate(-17.161 10.788)"/><path fill="#ffedca" d="M2446.627 3447.609c-.264 3.184-2.824 5.495-5.359 7.09-2.563 1.696-5.392 2.959-8.245 4.111-5.726 2.295-11.704 3.935-17.694 5.426-12.008 2.937-24.221 5.018-36.47 6.767-24.483 3.64-49.16 5.982-73.86 7.785-49.408 3.579-98.961 5.357-148.515 5.386-49.551.449-99.12-.813-148.561-3.915-24.716-1.559-49.417-3.647-73.932-7.048-12.267-1.627-24.5-3.584-36.537-6.396-6.005-1.434-12-3.011-17.746-5.248-2.866-1.125-5.706-2.358-8.287-4.029-2.552-1.568-5.135-3.854-5.429-7.035.109 3.2 2.643 5.73 5.143 7.45 2.539 1.844 5.348 3.249 8.188 4.544 5.724 2.518 11.7 4.338 17.691 6.029 12.009 3.322 24.226 5.786 36.481 7.916 24.55 4.078 49.288 6.747 74.049 8.934 49.553 4.176 99.281 5.389 148.974 5.46 49.688-.585 99.404-2.269 148.911-6.956 24.738-2.434 49.447-5.342 73.955-9.668 12.234-2.252 24.425-4.835 36.402-8.275 5.973-1.751 11.933-3.629 17.629-6.205 2.829-1.322 5.623-2.755 8.142-4.623 2.483-1.746 4.992-4.3 5.07-7.5z"/><path fill="#ffd685" d="M2243.317 3541.572c108.82-5.236 167.526-17.484 184.852-25.839-.045-8.125-.112-19.502-.172-30.563-28.022 10.788-81.759 20.232-184.836 25.02l.156 31.382z"/><linearGradient id="s" x1="2248.607" x2="2767.251" y1="3597.376" y2="3597.376" gradientTransform="rotate(-1.742 6802.019 450.303)" gradientUnits="userSpaceOnUse"><stop offset="0" stop-color="#f2bf40"/><stop offset=".684" stop-color="#f2bf40"/><stop offset=".866" stop-color="#f7ba40"/><stop offset="1" stop-color="#ffb340"/></linearGradient><circle cx="2605.491" cy="3726.326" r="259.312" fill="url(#s)"/><circle cx="2605.491" cy="3726.326" r="243.013" fill="#ffd65a"/><linearGradient id="t" x1="2423.686" x2="2602.388" y1="3608.278" y2="3608.278" gradientTransform="rotate(-1.742 6802.019 450.303)" gradientUnits="userSpaceOnUse"><stop offset="0" stop-color="#f2bf40"/><stop offset=".684" stop-color="#f2bf40"/><stop offset=".866" stop-color="#f7ba40"/><stop offset="1" stop-color="#ffb340"/></linearGradient><path fill="url(#t)" d="m2605.943 3904.348-.719-23.676c-16.843-1.604-30.597-4.949-41.263-10.036-10.667-5.087-20.004-13.543-28.014-25.366-5.058-7.466-8.872-16.037-11.442-25.712-2.568-9.667 3.562-19.556 13.332-21.7 8.955-1.966 18.029 3.275 20.606 12.073 2.946 10.06 6.741 17.889 11.385 23.487 9.808 11.645 21.32 17.95 34.535 18.917l-3.245-106.821c-13.875-2.191-28.143-7.107-42.805-14.748-10.87-5.641-19.354-13.655-25.454-24.044s-9.354-22.294-9.762-35.717c-.725-23.862 7.14-43.445 23.593-58.748 11.008-10.286 27.601-16.886 49.78-19.798l-.67-22.061c-.166-5.457 4.124-10.016 9.581-10.181 5.457-.166 10.015 4.123 10.181 9.58l.67 22.061c19.569 1.271 35.216 6.519 46.941 15.741 9.623 7.511 16.91 16.952 21.86 28.324 4.541 10.433-1.542 22.415-12.737 24.449-8.197 1.49-16.404-3.039-19.295-10.854-2.442-6.601-5.665-12.008-9.667-16.221-6.489-6.831-15.236-11.199-26.241-13.104l2.938 96.754c17.031 3.713 28.316 6.666 33.856 8.861 10.58 4.281 19.263 9.616 26.05 16.003s12.09 14.063 15.907 23.028 5.887 18.729 6.208 29.294c.706 23.241-6.1 42.854-20.418 58.838-14.318 15.985-33.205 24.894-56.66 26.726l.73 24.049c.166 5.456-4.124 10.015-9.581 10.18-5.456.168-10.014-4.121-10.18-9.578zm-8.623-283.926c-12.989 2.385-23.115 7.918-30.378 16.598-7.263 8.679-10.718 18.798-10.367 30.356.348 11.435 3.838 20.907 10.473 28.418 6.634 7.511 17.665 13.334 33.091 17.468l-2.819-92.84zm26.805 231.312c13-2.012 23.61-7.994 31.829-17.946 8.219-9.953 12.112-22.075 11.678-36.368-.37-12.18-3.681-21.875-9.934-29.088-6.252-7.211-18.478-13.464-36.676-18.758l3.103 102.16z"/><path fill="#ffedc0" d="m2605.403 3886.574-.719-23.676c-16.842-1.604-30.597-4.948-41.263-10.036-10.666-5.087-20.004-13.542-28.014-25.366-5.058-7.466-8.872-16.036-11.442-25.711-2.568-9.668 3.562-19.557 13.332-21.701 8.955-1.965 18.029 3.275 20.606 12.074 2.947 10.059 6.742 17.889 11.385 23.486 9.808 11.645 21.319 17.95 34.535 18.918l-3.245-106.822c-13.875-2.191-28.143-7.106-42.805-14.747-10.87-5.642-19.354-13.656-25.455-24.045-6.1-10.388-9.354-22.294-9.762-35.716-.725-23.863 7.14-43.445 23.593-58.749 11.008-10.286 27.601-16.886 49.78-19.798l-.67-22.061c-.166-5.457 4.124-10.015 9.58-10.181 5.457-.166 10.015 4.124 10.181 9.58l.669 22.061c19.569 1.271 35.216 6.519 46.94 15.741 9.624 7.511 16.91 16.952 21.86 28.324 4.541 10.434-1.542 22.416-12.737 24.45-8.198 1.489-16.405-3.04-19.296-10.854-2.442-6.601-5.665-12.008-9.666-16.22-6.49-6.832-15.237-11.2-26.242-13.104l2.938 96.754c17.032 3.713 28.316 6.666 33.857 8.861 10.58 4.282 19.263 9.616 26.05 16.003 6.787 6.388 12.089 14.063 15.907 23.028 3.818 8.965 5.887 18.729 6.208 29.294.706 23.241-6.1 42.854-20.418 58.839-14.318 15.984-33.205 24.893-56.66 26.725l.73 24.049c.166 5.457-4.124 10.015-9.581 10.18-5.452.166-10.01-4.123-10.176-9.58zm-8.623-283.926c-12.989 2.386-23.115 7.918-30.377 16.598-7.263 8.68-10.718 18.799-10.367 30.356.347 11.435 3.838 20.907 10.473 28.418 6.635 7.511 17.666 13.334 33.092 17.468l-2.821-92.84zm26.804 231.314c13.001-2.013 23.611-7.995 31.83-17.947 8.219-9.952 12.111-22.075 11.677-36.368-.37-12.18-3.681-21.875-9.934-29.087-6.252-7.212-18.478-13.465-36.676-18.759l3.103 102.161z"/><path fill="#a8e0ff" d="m1109.676 2836.07-6.342-6.968 107.314-97.545 11.235 32.089 123.412-115.256 6.438 6.888-133.973 125.116-11.306-32.292z"/><path fill="#a8e0ff" d="M1181.384 2950.272h52.378v165.13h-52.378z" transform="rotate(-19.3 1207.29 3032.479)"/><path fill="#a8e0ff" d="M1248.797 2898.993h52.377v192.006h-52.377z" transform="rotate(-19.3 1274.711 2994.67)"/><path fill="#a8e0ff" d="M1309.659 2793.731h52.377v273.531h-52.377z" transform="rotate(-19.3 1335.664 2930.322)"/><path fill="#a8e0ff" d="M1378.742 2737.174h52.377v304.965h-52.377z" transform="rotate(-19.3 1404.644 2889.35)"/><path fill="#a8e0ff" d="m1351.086 2668.801-18.67-23.295 20.982 2.312z"/></svg>