<svg xmlns="http://www.w3.org/2000/svg" viewBox="0 0 2000 2000"><rect width="1600" height="1600" x="87.105" y="296.084" fill="#6556ff" opacity=".2" rx="799.999"/><path fill="#080717" d="M1872.743,1771.471H1152.93a10,10,0,0,1-8.508-15.258L1270.153,1552.8,1149.278,873.813l-158.336-.1a10,10,0,0,1,0-20h0l166.711.1a10,10,0,0,1,9.84,8.248l123.011,690.988a9.986,9.986,0,0,1-1.336,7.01l-118.308,191.406h701.875a10,10,0,0,1,0,20Z"/><path fill="#080717" d="M1278.454,1560a10,10,0,0,1-9.879-8.439c-9.864-62.473-21.477-126.049-32.707-187.533-11.242-61.561-22.871-125.219-32.77-187.887a10,10,0,0,1,9.879-11.561h662.047a10,10,0,0,1,9.535,13.018l-118.805,375.4a10,10,0,0,1-9.535,6.983Zm-53.754-375.42c9.445,58.7,20.312,118.2,30.843,175.854,10.747,58.838,21.844,119.592,31.446,179.566l461.906-.021,112.477-355.4Z"/><circle cx="1204.899" cy="1806.861" r="89.223" fill="#fff"/><path fill="#090817" d="M1204.9,1900.084a93.223,93.223,0,1,1,93.223-93.222A93.329,93.329,0,0,1,1204.9,1900.084Zm0-178.445a85.223,85.223,0,1,0,85.223,85.223A85.319,85.319,0,0,0,1204.9,1721.639Z"/><circle cx="1820.674" cy="1806.861" r="89.223" fill="#fff"/><path fill="#090817" d="M1820.672,1900.084a93.223,93.223,0,1,1,93.223-93.222A93.329,93.329,0,0,1,1820.672,1900.084Zm0-178.445a85.223,85.223,0,1,0,85.223,85.223A85.318,85.318,0,0,0,1820.672,1721.639Z"/><path fill="#080717" d="M1346.622,1553.977a4,4,0,0,1-4-4v-375.4a4,4,0,0,1,8,0v375.4A4,4,0,0,1,1346.622,1553.977Z"/><path fill="#080717" d="M1447.055,1553.977a4,4,0,0,1-4-4v-375.4a4,4,0,0,1,8,0v375.4A4,4,0,0,1,1447.055,1553.977Z"/><path fill="#080717" d="M1552.551,1553.977a4,4,0,0,1-4-4v-375.4a4,4,0,0,1,8,0v375.4A4,4,0,0,1,1552.551,1553.977Z"/><path fill="#080717" d="M1658.043,1553.977a4,4,0,0,1-4-4v-375.4a4,4,0,0,1,8,0v375.4A4,4,0,0,1,1658.043,1553.977Z"/><path fill="#080717" d="M1763.54,1545.643a4,4,0,0,1-4-4V1174.578a4,4,0,0,1,8,0v367.065A4,4,0,0,1,1763.54,1545.643Z"/><path fill="#080717" d="M1832.821,1311.924H1245.708a4,4,0,0,1,0-8h587.113a4,4,0,0,1,0,8Z"/><path fill="#080717" d="M1791.079,1443.823H1274.3a4,4,0,0,1,0-8h516.778a4,4,0,0,1,0,8Z"/><path fill="#fff" d="M707.671,605.291c-1.918-27.04-4.446-66.448-31.33-97.939-15.431-18.073-36.823-31.12-60.875-39.067a21.376,21.376,0,0,1-14.611-20.323V383.509H517.24v63.74a19.951,19.951,0,0,1-14.3,19.212c-25.116,7.269-48,19.892-65.2,37.964-29.65,31.148-34.116,69.716-40.77,137.949-9.222,94.568-18.938,208.114-27.222,337.609H748.343C725.3,813.946,713.894,692.993,707.671,605.291Z"/><path fill="#090817" d="M748.344,983.983H369.751a4,4,0,0,1-3.993-4.256c7.219-112.848,16.383-226.481,27.235-337.742,6.875-70.536,11.863-108.811,41.851-140.317,16.9-17.756,40.067-31.26,66.985-39.049a16,16,0,0,0,11.41-15.369V383.51a4,4,0,0,1,4-4h83.617a4,4,0,0,1,4,4v64.451a17.339,17.339,0,0,0,11.863,16.526c25.774,8.515,47.442,22.439,62.664,40.267,27.457,32.158,30.321,72.619,32.219,99.393l.059.861c7.968,112.295,21.265,234.77,40.644,374.424a4,4,0,0,1-3.961,4.551Zm-374.328-8H743.751c-19.063-137.946-32.176-259.157-40.067-370.409l-.062-.863c-1.93-27.265-4.575-64.605-30.325-94.762-14.269-16.716-34.7-29.81-59.086-37.865a25.323,25.323,0,0,1-17.355-24.123V387.51H521.239v59.74A24.043,24.043,0,0,1,504.055,470.3c-25.562,7.4-47.488,20.15-63.414,36.881-28.234,29.662-32.8,64.935-39.687,135.578C390.247,752.537,381.188,864.621,374.016,975.983Z"/><path fill="#080717" d="M369.75,1899.5a4.219,4.219,0,0,1-4.206-3.879,5873.688,5873.688,0,0,1-15.663-662.282c3.427-103.6,9.7-208.435,18.658-311.6a4.216,4.216,0,0,1,4.2-3.853l234.845,6.2a4.217,4.217,0,0,1,4,5.134,3648.236,3648.236,0,0,0-83.516,965.867,4.217,4.217,0,0,1-4.214,4.415Z"/><path fill="#080717" d="M632.8,1899.6a4.218,4.218,0,0,1-4.185-3.795c-17.727-176.461-38.416-354.977-61.489-530.592C548.077,1220.278,526.906,1073.5,504.2,928.953a4.221,4.221,0,0,1,4.057-4.871l234.849-6.2a4.216,4.216,0,0,1,4.2,3.853c3.835,44.213,7.2,88.986,10.017,133.078.053.834,5.354,84.474,8.641,178.512,3.509,100.346,8.114,334.031,9.547,662.384a4.213,4.213,0,0,1-4.217,4.236Z"/><path fill="#fff" d="M315.08,1895.28s6.84-46,50.341-57.393v-36.7l155.093-7.457,3.345,101.55Z"/><path fill="#090817" d="M523.86,1899.28H315.079a4,4,0,0,1-3.957-4.588c.07-.477,7.418-46.621,50.3-59.825v-33.679a4,4,0,0,1,3.809-4l155.094-7.457a4,4,0,0,1,4.187,3.865l3.344,101.549a4,4,0,0,1-4,4.131Zm-203.848-8H519.727l-3.074-93.36L369.422,1805v32.887a4,4,0,0,1-2.988,3.869C333.5,1850.381,322.934,1879.791,320.012,1891.28Z"/><path fill="#fff" d="M825.414,1895.28c-2.011-9.809-8.618-35.188-31.281-53.322a76.791,76.791,0,0,0-23.106-12.7l-.3-35.529H622.3l11.784,92.981a77.453,77.453,0,0,0,1.188,9.373Z"/><path fill="#090817" d="M635.27,1900.084a4,4,0,0,1-3.93-3.244,81.9,81.9,0,0,1-1.25-9.867l-11.761-92.738a4,4,0,0,1,3.968-4.5H770.723a4,4,0,0,1,4,3.965l.281,32.755a79.917,79.917,0,0,1,21.629,12.383c22.16,17.731,30,42.473,32.7,55.643a4,4,0,0,1-3.9,4.8l-190.144.8Zm-8.434-102.353,11.215,88.476c.153,2.258.375,4.227.606,5.864l181.73-.77c-3.285-12.684-10.976-32-28.754-46.221a72.5,72.5,0,0,0-21.914-12.043,4,4,0,0,1-2.691-3.744l-.27-31.562Z"/><path fill="#6556ff" d="M505.665,460.244s64.582,19.77,105.7,0c0,0,89.274,14.695,92.788,79.871s55.884,449.178,55.884,449.178-231.97,42.176-397.512,0c0,0,26.36-374.315,41.122-435.471S434.756,467.888,505.665,460.244Z"/><rect width="154.111" height="41.676" x="979.538" y="842.879" fill="#080717" rx="11.866"/><path fill="#fff" d="M1459.458,671.372a178,178,0,0,0,89.038,338.154l64.913,78.515a3.86,3.86,0,0,0,6.817-2.826l-8.767-91.956c.55-.257,1.109-.48,1.659-.743a178.006,178.006,0,1,0-153.66-321.144Z"/><path fill="#090817" d="M1616.368,1093.449a7.81,7.81,0,0,1-6.039-2.861l-63.618-76.943a182,182,0,0,1-88.98-345.881c90.543-43.326,199.426-4.9,242.738,85.623a182,182,0,0,1-84.761,242.32l8.5,89.129a7.879,7.879,0,0,1-7.84,8.613Zm-67.871-87.923a4,4,0,0,1,3.082,1.451l64.914,78.515-9.016-91.855a3.99,3.99,0,0,1,2.3-4.006l1.617-.723a174.008,174.008,0,0,0,81.86-232.068c-41.411-86.549-145.512-123.271-232.067-81.861a174,174,0,0,0,87.039,330.556C1548.313,1005.53,1548.407,1005.526,1548.5,1005.526Z"/><path fill="#080717" d="M1474.237,929.362a4.06,4.06,0,0,1-2.892-1.2l-33.754-33.752a4.1,4.1,0,0,1,0-5.782l161.645-161.644a4.09,4.09,0,0,1,5.782,0l33.754,33.752a4.1,4.1,0,0,1,0,5.782L1477.127,928.165A4.065,4.065,0,0,1,1474.237,929.362Z"/><path fill="#080717" d="M1602.125,929.362a4.059,4.059,0,0,1-2.889-1.2L1437.591,766.521a4.1,4.1,0,0,1,0-5.782l33.754-33.754a4.092,4.092,0,0,1,5.782,0l161.645,161.644a4.1,4.1,0,0,1,0,5.782l-33.754,33.754A4.067,4.067,0,0,1,1602.125,929.362Z"/><path fill="#fff" d="M1112.266,842.879c-6.67-16.632-15.616-25.314-22.845-30.2,0,0-8.765-5.923-49.082-14.667h0L859.406,697.472c-57.359-57.1-95.09-106.67-119.5-142.6-10.873-16-22.85-36.849-47.8-54.228-37.574-26.172-68.823-12.61-99.371-11,5.267,27.213,3.153,48.771,23.312,90.9,40.53,84.7,97.441,133.666,124.886,156.987,82.286,69.92,169.333,99.888,231.437,113.034l-.014.012s50.286,12.529,64.695,29.4,15.114,19.682,28.911,16.167,18.89-8.083,12.211-11.6c-8.237-4.335-12.022-23.214-4.92-34.444C1080.041,839.379,1097.192,834.931,1112.266,842.879Z"/><path fill="#090817" d="M1057.727,901.461c-7.766,0-11.6-4.541-20.129-14.646l-3.59-4.231c-13.422-15.715-62.129-27.994-62.621-28.117-.062-.016-.129-.033-.191-.053-60.242-12.795-149.418-42.929-232.852-113.826-25.289-21.488-84.511-71.81-125.906-158.308-15.328-32.034-18.012-52.4-20.605-72.094-.883-6.686-1.715-13-3.024-19.774a4,4,0,0,1,3.715-4.754c6.727-.355,13.426-1.3,20.523-2.293,23.891-3.353,50.969-7.158,81.344,14,22.555,15.709,34.9,34.327,44.828,49.286,1.364,2.052,2.688,4.05,4,5.978,32.692,48.113,72.6,95.76,118.621,141.617l179.926,99.983c39.438,8.59,48.942,14.49,49.9,15.136,10.445,7.059,18.625,17.834,24.316,32.026a4,4,0,0,1-5.578,5.027c-13.484-7.115-28.352-2.73-33.762,5.83-3.172,5.012-4.011,12.78-2.14,19.791,1.164,4.35,3.285,7.791,5.539,8.977,4.84,2.547,5.215,5.853,5.011,7.6-.566,4.787-6.316,8.414-18.1,11.416A38.312,38.312,0,0,1,1057.727,901.461ZM973.684,846.8c4.984,1.268,51.84,13.535,66.41,30.594l3.614,4.264c10.933,12.949,11.128,13.207,21.265,10.623,6.731-1.713,9.856-3.295,11.246-4.229-4.308-2.312-7.664-7.26-9.449-13.943-1.93-7.215-2.125-17.869,3.106-26.131,6.746-10.668,20.984-15.254,34.664-12.17-4.625-8.492-10.442-15.133-17.356-19.809-.039-.023-9.379-5.763-47.691-14.074a3.91,3.91,0,0,1-1.094-.412L857.465,700.969a3.8,3.8,0,0,1-.879-.662C810.04,653.971,769.672,605.8,736.6,557.125q-1.986-2.927-4.047-6.052c-10.047-15.143-21.429-32.3-42.73-47.141-27.8-19.363-52.133-15.947-75.66-12.645-5.477.77-11.1,1.559-16.692,2.041.926,5.428,1.617,10.69,2.293,15.813,2.516,19.074,5.114,38.8,19.9,69.685,40.656,84.959,98.969,134.508,123.867,155.664C825.844,804.444,913.86,834.1,973.2,846.66A4.119,4.119,0,0,1,973.684,846.8Z"/><path fill="#6556ff" d="M603.472,467.909s53.053-10.467,107.615,36.356C750.323,537.936,831.817,662.6,831.817,662.6S810.2,731.314,762.4,761.541l-88.922-76.269c-94.073-59.1-140.217-137.346-120.752-187.333C556.679,487.789,581.541,481.072,603.472,467.909Z"/><path fill="#fff" d="M553.309,1266.5a4,4,0,0,1-3.992-3.836l-5.027-121.789-19.8-52.82a4,4,0,0,1,7.492-2.809L552,1138.668a3.933,3.933,0,0,1,.25,1.24l5.055,122.43a4,4,0,0,1-3.832,4.16C553.422,1266.5,553.368,1266.5,553.309,1266.5Z"/><path fill="#fff" d="M725.4,704.385a4,4,0,0,1-4-3.879L717.18,561.324a4,4,0,0,1,8-.242L729.4,700.264a4,4,0,0,1-3.879,4.119C725.477,704.385,725.438,704.385,725.4,704.385Z"/><path fill="#fff" d="M384.32,486.59c-68.31,37.571-201.879,92.259-199.635,175.735.6,22.466,10.721,38.246,30.93,68.888A416.867,416.867,0,0,0,334.193,849.358a80.082,80.082,0,0,1,6.874,16.569c8.516,29.694-4.028,52.64,8.435,63.792,2.869,2.567,8.25,5.57,18.979,4.745,2.774-9.936,14.2-50.466,25.833-80.663,2.475-6.423,5.234-13.1,11.6-15.816,9.585-4.1,18.48,4.559,31.632-.527,3.4-1.316,7.713-2.983,8.435-6.326,1.815-8.4-20.3-21.568-39.54-27.415a78.683,78.683,0,0,0-14.762-3.265h0Q346,726.168,300.318,651.882c33.524-8.574,138.441-40.006,188.739-136.018a229.416,229.416,0,0,0,19.307-50.891S440.555,455.661,384.32,486.59Z"/><path fill="#090817" d="M365,938.6c-7.683,0-13.781-1.979-18.168-5.9-8.066-7.218-7.535-17.916-6.921-30.3.515-10.379,1.1-22.141-2.692-35.37a76.229,76.229,0,0,0-6.07-14.888A419.252,419.252,0,0,1,212.274,733.416c-19.949-30.254-30.941-46.92-31.59-70.984C178.7,588.4,277.54,537.459,349.711,500.264c11.8-6.08,22.946-11.824,32.684-17.18,56.734-31.2,123.7-22.461,126.512-22.074a4,4,0,0,1,3.336,4.934A234.027,234.027,0,0,1,492.6,517.719c-45.351,86.564-133.863,122.51-186.055,136.66l87.52,142.326a88.256,88.256,0,0,1,13.535,3.186c14.465,4.4,45.2,18.578,42.289,32.084-1.18,5.461-7.035,7.719-10.906,9.215-8.082,3.123-14.875,1.744-20.336.631-4.359-.885-7.816-1.592-11.16-.159-4.668,1.994-6.949,7.1-9.446,13.578-10.8,28.047-21.578,65.5-25.71,80.3a4,4,0,0,1-3.543,2.912Q366.838,938.6,365,938.6Zm119.129-470.9c-24.386,0-63.558,3.51-97.886,22.389v0c-9.829,5.406-21.02,11.174-32.871,17.279C283.09,543.6,186.829,593.207,188.684,662.217c.563,20.9,9.688,35.58,30.27,66.795C249.5,775.321,289.012,814.69,336.4,846.022a4,4,0,0,1,1.3,1.4,84.264,84.264,0,0,1,7.215,17.4c4.16,14.506,3.515,27.518,3,37.973-.559,11.188-.957,19.27,4.261,23.942,2.95,2.634,7.4,3.949,13.243,3.861,4.625-16.424,14.867-51.492,25.168-78.236,2.375-6.153,5.621-14.579,13.765-18.057,5.633-2.41,10.856-1.352,15.9-.326,5.129,1.045,9.965,2.027,15.859-.254,1.707-.66,5.7-2.2,5.969-3.442.781-3.617-14.578-15.99-36.8-22.74a74.893,74.893,0,0,0-13.981-3.111,4,4,0,0,1-3.023-1.887L296.911,653.979a4,4,0,0,1,2.414-5.971c50.019-12.793,140.726-47.215,186.191-134a225.672,225.672,0,0,0,17.8-45.533C499.235,468.125,492.567,467.705,484.133,467.705ZM384.321,486.59h0Z"/><path fill="#6556ff" d="M506.631,460.244s-59.222-6.327-95.863,6.326-140.5,77.5-140.5,77.5,27.59,69.152,68.361,102.19c0,0,92.788-16.168,141.291-65.374S530.906,461.69,506.631,460.244Z"/><path fill="#fff" d="M392.731,635.438a4,4,0,0,1-3.969-4.516L400.9,537.49a4,4,0,1,1,7.93,1.032l-12.133,93.431A4,4,0,0,1,392.731,635.438Z"/><path fill="#fff" d="M707.7,277.216A142.767,142.767,0,0,0,425,254.091a28.485,28.485,0,1,0-.935,52.425c.636,6.032,9.178,75.285,73.1,109.86,43.819,23.7,96.84,22.007,138.12-2.527,40.86-24.283,56.293-62.665,60.615-74.765q1.455-3.329,2.736-6.744a28.481,28.481,0,1,0,9.065-55.124Z"/><path fill="#090817" d="M564.106,437.254a144.7,144.7,0,0,1-68.844-17.361c-57.914-31.326-71.6-89.94-74.519-108.143a31.818,31.818,0,0,1-6.176.819,32.481,32.481,0,0,1-2.18-64.926,31.982,31.982,0,0,1,9.66,1.146,146.771,146.771,0,0,1,289.477,24.535,32.483,32.483,0,0,1-1.777,64.821,32.145,32.145,0,0,1-8.739-.895q-.7,1.73-1.445,3.434c-6.637,18.619-23.695,53.7-62.234,76.6A143.346,143.346,0,0,1,564.106,437.254ZM424.067,302.516a4,4,0,0,1,3.976,3.58c.786,7.418,9.43,73.445,71.024,106.762,42,22.713,93.41,21.777,134.176-2.448,36.383-21.621,52.511-54.812,58.89-72.671,1.043-2.413,1.926-4.6,2.762-6.813a4.006,4.006,0,0,1,5.152-2.33,24.481,24.481,0,1,0,7.786-47.383,4.134,4.134,0,0,1-4.129-3.863,138.769,138.769,0,0,0-274.782-22.481,4,4,0,0,1-5.546,2.877,24.1,24.1,0,0,0-10.719-2.107,24.481,24.481,0,1,0,9.922,47.164A4.006,4.006,0,0,1,424.067,302.516Z"/><path fill="#080717" d="M465.481,264.948a4,4,0,0,1-2.594-7.045c30.574-26.026,62.66-12.286,64.008-11.688a4,4,0,0,1-3.23,7.318c-1.258-.548-28.981-12.191-55.59,10.459A3.982,3.982,0,0,1,465.481,264.948Z"/><circle cx="507.084" cy="292.668" r="15.304" fill="#080717"/><path fill="#080717" d="M657.461,267.891a3.98,3.98,0,0,1-2.925-1.274,44.2,44.2,0,0,0-47.817-11.32,4,4,0,0,1-2.789-7.5,52.871,52.871,0,0,1,30.75-1.764,52.2,52.2,0,0,1,25.707,15.131,4,4,0,0,1-2.926,6.727Z"/><circle cx="626.829" cy="293.394" r="15.304" fill="#080717"/><path fill="#080717" d="M565.9,333.346a74.838,74.838,0,0,1-8.5-.508,4,4,0,1,1,.938-7.945c8.257.965,17.273.219,18.523-1.545,1.039-3.279-4.277-22.076-9.988-37.4a4,4,0,0,1,7.5-2.793c6.39,17.149,13.152,38.831,9.066,44.739C580.364,332.338,572.442,333.346,565.9,333.346Z"/><ellipse cx="483.409" cy="330.742" fill="#6556ff" rx="13.801" ry="21.142" transform="rotate(-87.171 483.41 330.743)"/><ellipse cx="638.308" cy="334.55" fill="#6556ff" rx="13.801" ry="21.142" transform="rotate(-87.171 638.31 334.55)"/><path fill="#080717" d="M407.949,252.2s9.856.065,15.507,11.26,23.133,13.415,30.07-15.651,44.932-90.707,91.647-98.375c0,0,5.321,56.264,67.8,59.442s69.528,71.636,77.115,77.651,14.962-7.849,22.21-9.065,19.267,11.311,19.267,11.311c13.624-27.029,25.674-62.019,10.876-87.409-7.82-13.417-16.41-12.608-43.214-30.2-54.647-35.862-60.08-66.215-93.807-70.7-10.461-1.392-26.9-.728-48.824,12.189-71.036,4.467-123.785,22.2-138.557,41.928C407.8,168.261,406.269,181,406.269,181c-1.405,11.718,2.569,17.959,4.551,30.795C412.229,220.91,412.811,234.518,407.949,252.2Z"/><path fill="#080717" d="M416.454,295.449a3.989,3.989,0,0,1-2.2-.658c-5.769-3.8-7.355-8.365-7.668-11.529a17.873,17.873,0,0,1,2.114-9.779h-9.821a4,4,0,0,1,0-8h17.575a4,4,0,0,1,2.808,6.847c-1.445,1.446-5.125,6.108-4.711,10.164.215,2.1,1.555,3.94,4.1,5.614a4,4,0,0,1-2.2,7.341Z"/><path fill="#080717" d="M704.579,324.725a4,4,0,0,1-2.371-7.223c2.437-1.793,3.73-3.781,3.953-6.082.425-4.4-3.118-9.312-4.52-10.836a4,4,0,0,1,2.934-6.719h19.769a4,4,0,0,1,0,8h-12.32a19.625,19.625,0,0,1,2.105,10.276c-.429,4.584-2.914,8.668-7.187,11.807A3.97,3.97,0,0,1,704.579,324.725Z"/><path fill="#080717" d="M566.536,380.33a3.985,3.985,0,0,1-2.957-1.306c-15.942-17.5-35.868-12.1-36.707-11.854a4,4,0,0,1-2.231-7.683,45.514,45.514,0,0,1,44.852,14.15,4,4,0,0,1-2.957,6.693Z"/><path fill="#fff" d="M447.567,198.36a3.9,3.9,0,0,1-.715-.065,4,4,0,0,1-3.226-4.646c.082-.459,8.894-45.95,62.558-58.317a4,4,0,0,1,1.8,7.8c-48.582,11.2-56.41,51.535-56.48,51.942A4.006,4.006,0,0,1,447.567,198.36Z"/><path fill="#fff" d="M657.465,198.36c-.07,0-.136,0-.207-.006-62.246-3.156-82.449-44.9-83.281-46.676a4,4,0,0,1,7.246-3.4c.078.166,4.828,9.971,16.528,19.979,15.718,13.447,35.878,20.883,59.914,22.1a4,4,0,0,1-.2,8Z"/><path fill="#fff" d="M643.84,167.592a66.053,66.053,0,0,1-28.175-6.689,4,4,0,0,1,3.726-7.079c.184.1,18.711,9.62,36.875,3.94a4,4,0,0,1,2.391,7.637A49.56,49.56,0,0,1,643.84,167.592Z"/><path fill="#080717" d="M685.333,1855.266a4,4,0,0,1-3.047-6.588c1.23-1.439,30.715-35.145,89.527-23.342a4,4,0,1,1-1.57,7.844c-54.032-10.83-81.6,20.377-81.871,20.693A4,4,0,0,1,685.333,1855.266Z"/><path fill="#080717" d="M300.313,655.883a4.009,4.009,0,0,1-2.047-.564c-25.469-15.2-59.144-19.871-59.484-19.916a4,4,0,0,1,1.066-7.93c1.442.193,35.613,4.924,62.52,20.975a4,4,0,0,1-2.055,7.435Z"/><path fill="#080717" d="M821.247,724.768a4,4,0,0,1-3.164-6.44c.687-.894,17.152-21.947,40.839-24.826a4,4,0,1,1,.969,7.942c-20.316,2.468-35.324,21.578-35.476,21.771A3.991,3.991,0,0,1,821.247,724.768Z"/></svg>