<svg xmlns="http://www.w3.org/2000/svg" width="900" height="600" xmlns:v="https://vecta.io/nano"><path d="M0 600h900V0H0z" fill="#005430"/><g transform="scale(.375)" fill="#fff"><path d="M1800 635.53c-.168-28.106-11.073-103.815-13.841-129.214-2.761-25.398-5.544-48.44-4.872-53.836.657-5.207 8.67 7.239 12.907 8.246 2.191-.439 1.212-8.3-2.768-15.012-2.695-4.558-11.884-21.603-17.457-31.591-2.622-4.727-3.207-7.469-4.47-8.05-1.256-.581-11.402 19.888-10.292 22.157 2.768 4.16 4.667 6.145 5.098 13.493.438 7.347 4.236 59.805 9.079 99.568 3.645 29.997 11.643 94.624 11.928 134.805.08 13.108-1.373 25.601-3.119 30.821-4.477 8.198-11.475 15.593-37.536 30.841-29.297 17.146-68.382 31.415-85.182 40.964-10.445 5.956-6.983 6.753 2.111 4.146 9.072-2.607 55.979-10.96 78.768-20.59 21.394-9.063 35.279-24.223 45.819-46.34 13.016-27.343 14.009-50.547 13.827-80.409m-90.7-213.499c2.264-.878 21.014-1.844 26.061-.804-3.316 4.741-25.798 15.235-25.893 17.16.614 1.297 15.529-2.397 20.233-4.45 3.075-1.85 5.128-4.714 7.406-7.091 5.376-6.186 11.752-17.659 10.146-19.098-2.608-2.323-28.165-.878-31.532-.398-2.257.324-7.983 10.589-9.035 13.223-1.03 2.634.351 2.337 2.615 1.459M1747.6 588.62a78.87 78.87 0 0 0-.446-46.198c-5.464-17.403-19.035-28.012-28.822-33.448l-1.746 16.754s13.725 6.821 23.11 23.994c5.946 10.893 8.422 26.297 3.725 43.47-.782 4.261 2.264 1.911 4.178-4.572M1602.4 672.64a71.09 71.09 0 0 0-.394-41.599c-4.923-15.674-17.143-25.23-25.959-30.105l-1.578 15.08s12.359 6.145 20.81 21.596c5.361 9.799 7.582 23.69 3.367 39.148-.701 3.822 2.038 1.715 3.754-4.119M1098.3 444.51c5.653 10.339 7.998 24.98 3.55 41.288-.745 4.045 2.133 1.823 3.966-4.335a75.05 75.05 0 0 0-.438-43.888c-5.193-16.538-18.085-26.607-27.383-31.76l-1.643 15.91s13.038 6.476 21.949 22.785M758 449.86c4.748 11.129 5.069 26.155-2.6 41.984-1.49 3.978 2.14 2.093 5.186-3.856 6.223-12.162 9.715-27.384 6.559-44.199-3.236-17.288-16.223-29.072-25.945-35.454l-4.412 15.796s13.725 8.185 21.211 25.729m94.071 248.76c6.033-11.197 8.546-18.733 11.227-31.996 2.345-11.669 2.498-25.149 1.651-38.871 18.056-7.361 39.574-19.577 46.805-20.475-4.945 16.977 6.859 35.298 30.7 32.908l4.339 46.063c1.943 20.502 1.651 46.34 1.592 50.831-.08 4.511 3.185 3.66 6.537-6.388 4.47-13.452 5.851-48.582 4.229-71.812l-1.841-22.582c15.456-7.152 18.027-20.955 23.804-26.837 5.215 18.267 33.921 20.746 42.781 16.835 10.986-4.855 14.586-13.587 17.413-33.853 2.834-20.259-5.42-28.417-8.371-30.625-.292 2.451-7.48 26.263-7.48 26.263s6.815 7.199 7.158 10.737c-5.551 5.024-17.26 5.335-27.091 2.134-9.839-3.201-12.855-9.09-12.271-13.04.57-3.964 4.273-7.57 4.397-12.399.11-4.828-2.206-3.431-6.143.844-3.937 4.281-6.479 8.131-11.928 17.322-4.456 7.516-11.687 16.687-24.44 19.307l-6.114-60.298-9.831-82.604c-.519-6.557-1.49-14.29-1.329-17.923.161-2.89 1.972-1.742 4.777 1.283 2.812 3.019 7.728 8.286 8.575 7.874 2.863-1.405-.066-10.15-3.813-17.984-3.74-7.854-16.507-38.837-19.188-40.113-1.38-.648-9.999 18.422-10.511 22.177 1.337 2.35 4.828 6.044 4.952 16.552.044 2.931 1.928 30.565 4.543 56.692 2.286 23.075 5.317 44.969 5.61 47.515l7.012 66.842c-13.841-2.634-17.523-11.764-17.216-16.971.351-5.875 3.002-12.507 1.731-14.006-2.666-1.6-18.531 7.266-40.655 16.795-6.223 2.674-13.235 5.544-20.634 8.266l-5.493-44.543-.124-1.344c14.55-.939 26.463-8.286 31.883-15.282 6.771-8.745 11.504-26.742 11.964-40.532.46-13.803-10.679-39.04-13.33-47.062-2.673-8.029-4.054-13.594-4.288-16.37-.241-2.776 6.019 3.214 9.956 4.39 2.666.533 1.746-5.24-1.512-9.204-3.236-3.951-20.737-30.511-21.964-28.647-.752 1.094-7.764 20.631-8.225 23.622 2.761 1.823 5.989 6.848 6.216 11.663.234 4.815 4.09 25.986 8.363 37.75 4.288 11.764 13.418 34.333 13.995 40.539-6.523 4.599-21.372 12.385-36.061 11.919l-7.399-61.419c-.657-6.544-.701-13.526-.599-17.173.08-2.89 2.162-2.492 5.025.479 2.878 2.971 7.29 7.293 8.195 6.983 1.972-.655.263-7.212-3.645-14.999s-19.436-40.721-22.161-41.95c-1.38-.628-8.334 17.869-8.772 21.644 1.388 2.337 4.945 5.949 5.296 16.457.278 8.367 4.353 49.372 7.845 85.487-14.535-7.516-19.495-18.26-21.292-36.298-1.256-12.574-1.38-35.737-5.865-55.112-2.527-10.954-7.852-22.083-14.163-27.992-1.505 3.64-8.225 25.986-8.225 25.986 2.191 6.415 9.006 28.019 8.772 46.738-.226 18.72-1.702 37.02-22.68 49.629-20.963 12.615-52.408 7.597-60.172-12.081-7.764-19.692 9.495-69.064 9.269-80.72-.234-11.656-2.315-13.263-7.187-11.338-4.865 1.925-14.82 13.162-23.395 31.442-8.575 18.294-12.388 40.951-17.26 56.355-4.857 15.404-12.636 31.01-24.674 30.146-12.037-.851-18.516-11.865-22.219-27.796-3.711-15.944-1.439-36.939-.431-42.322 2.513-13.479-3.309-10.717-6.873 10.447-2.206 13.054-4.397 33.901 3.367 55.72 7.75 21.819 20.963 29.957 32.54 27.168 11.584-2.776 21.767-29.943 25.36-42.146 3.586-12.183 19.634-66.295 28.72-68.956 1.271 6.098-7.063 25.756-9.729 48.751-2.659 22.994 3.543 53.883 32.73 59.225 29.188 5.348 48.989-13.58 56.169-26.722 7.187-13.162 10.54-26.958 11.351-33.907.935 17.639 12.972 45.185 36.353 53.039l2.41.696 5.938 53.079c-4.551 1.405-9.145 2.674-13.717 3.768-.584-1.898-1.227-3.755-2.009-5.463-7.136-15.35-18.947-29.498-35.316-28.518-16.719.993-34.951 23.305-34.154 39.6.526 10.96 6.559 19.955 28.501 22.258 10.021 1.06 20.664-.054 31.656-2.451 1.548 4.531 2.527 9.036 2.637 13.142-6.954 8.131-64.489 51.526-107.569 55.7-43.08 4.167-56.22-18.416-56.651-41.086-.321-17.247 10.051-34.461 17.34-46.374 10.43-7.631 18.991-17.173 24.396-24.534l4.193 2.519c5.149 2.992 7.202 7.462 7.202 7.462.95-1.459 5.376-9.427 3.645-13.324-.796-.959-4.689-3.356-9.371-6.199 4.916-12.25 4.85-24.48-1.519-27.201-7.122-3.032-16.42 5.396-20.43 10.535-2.082 2.674-2.878 5.706-2.892 8.252-.029 3.275 1.512 6.233 5.325 8.867l10.642 7.064c-9.415 9.887-31.664 24.372-45.279 32.881-.504-1.249-2.498.068-5.179 3.228l-3.689 2.276c-10.861 6.645-36.908 21.238-42.028 24.811-5.128 3.579-1.914 2.931 0 2.134 3.616-1.952 8.363-4.315 13.695-6.922l24.929-12.068c-2.542 4.308-5.171 9.346-7.501 14.843-10.248 24.196-26.814 74.345 9.021 104.518 34.286 28.883 93.216 17.896 142.089-12.122 48.88-30.024 59.434-40.579 67.074-51.492M692.722 579.333c-1.695-1.249-1.928-2.917-.548-4.079 1.76-1.499 4.01-2.917 6.566-3.397 5.42-1.006 7.582 5.22 5.405 14.918-4.12-2.519-8.356-5.166-11.424-7.442m112.105 40.904c-24.885.115-26.032-4.403-25.565-7.293.46-2.877 8.21-10.771 18.041-5.565 4.156 2.208 8.838 6.827 13.169 12.628a85.02 85.02 0 0 1-5.646.23m-76.219 130.868c-47.017 12.831-92.88-7.05-95.656-46.414-2.126-30.058 8.838-52.708 15.909-65.471 6.742-3.336 13.111-6.578 18.377-9.481-12.308 19.82-19.51 46.367-14.696 68.855 5.449 25.473 27.61 40.917 65.132 35.933 37.149-4.923 87.38-40.255 101.623-53.579 4.339-4.808 7.202-9.144 11.102-17.977 1.607-3.626 3.864-8.414 4.704-13.824.548-3.525.84-7.293.906-11.129 4.361-1.303 8.743-2.762 13.155-4.329 1.497 16.126 2.6 32.023 2.666 45.773-23.147 27.147-76.205 58.806-123.222 71.644"/><path d="M1551 647.88c-1.592-26.337-5.434-74.007-7.582-98.19-1.899-21.522-5.632-51.02-8.363-76.985a139 139 0 0 1-.687-16.437c.08-2.877 2.958-1.769 5.836 1.189s7.377 6.672 8.225 6.22c2.812-1.459-.555-8.671-4.507-16.43-3.952-7.773-19.619-39.924-22.344-41.147-1.388-.621-8.729 18.639-9.152 22.414 1.402 2.323 4.989 5.922 5.376 16.43.394 10.515 5.705 58.853 9.539 97.947 2.659 27.174 6.092 71.515 8.59 104.95-.124.054 2.359 31.787 2.63 35.352 1.534 20.529.738 46.36.584 50.844-.168 4.504 3.126 3.721 6.661-6.274 3.601-10.204 5.653-32.989 5.931-53.559zm-133.5-92.2c-4.821 1.472-12.388-3.626-11.811-14.317.526-9.657 4.66-18.699 6.252-24.406 2.191-7.874 2.206-15.465.351-11.163-4.178 9.616-11.957 28.208-13.564 40.822-1.614 12.615 2.476 20.746 8.035 23.521 6.924 3.478 11.913-2.039 15.288-10.17 3.243-7.786 2.63-16.876.38-14.735-1.884 2.235-2.586 9.724-4.93 10.447M1348.2 594.54c2.556-6.794 3.155-13.452 1.191-9.799-4.434 8.185-12.739 24.001-15.171 34.988-2.425 10.987.519 18.422 5.193 21.238 5.829 3.525 10.628-.993 14.258-7.915 3.469-6.625 3.645-14.668 1.512-12.925-1.841 1.837-3.06 8.367-5.164 8.847-4.375.966-10.613-4.032-9.262-13.405 1.227-8.441 5.588-16.12 7.443-21.029m-201.8 143.32c4.273-6.935 6.398-14.127 3.433-10.494-6.618 8.117-19.144 23.872-24.199 35.427-5.04 11.555-3.433 20.232 1.059 24.183 5.602 4.93 11.847.878 17.304-6.004 5.237-6.598 7.195-15.35 4.456-13.857-2.403 1.682-5.149 8.59-7.567 8.718-4.974.243-10.715-6.382-7.195-16.363 3.185-9.009 9.62-16.586 12.709-21.61m353.8-202.4c-4.901 1.229-12.147-4.261-10.934-14.911 1.103-9.61 5.785-18.422 7.706-24.028 2.673-7.759 3.134-15.33 1.023-11.143-4.733 9.4-13.615 27.553-15.989 40.073-2.374 12.513 1.212 20.84 6.603 23.899 6.72 3.809 12.008-1.432 15.879-9.387 3.703-7.604 3.645-16.707 1.256-14.681-2.009 2.147-3.155 9.583-5.544 10.177m-1.5 130.651c6.705 3.809 12.023-1.432 15.879-9.387 3.696-7.604 3.645-16.707 1.271-14.681-2.023 2.134-3.17 9.583-5.558 10.177-4.901 1.222-12.161-4.261-10.934-14.911 1.103-9.61 5.778-18.429 7.706-24.028 2.666-7.759 3.126-15.343 1.023-11.143-4.748 9.4-13.615 27.553-15.989 40.059-2.374 12.527 1.212 20.854 6.603 23.913M1584.4 499.22c3.228-9.387 3.784-18.551 1.227-13.479-5.741 11.372-16.478 33.333-19.356 48.494-2.863 15.147 1.483 25.216 8.005 28.924 8.115 4.606 14.535-1.736 19.217-11.352 4.463-9.204 4.397-20.232 1.519-17.767-2.432 2.586-3.827 11.582-6.72 12.304-5.916 1.486-14.703-5.153-13.221-18.038 1.337-11.629 6.997-22.292 9.327-29.086M899.52 661.58c5.281-11.44 7.195-22.893 3.309-16.795-8.699 13.648-25.083 40.073-30.678 58.792-5.602 18.726-1.454 31.881 6.252 37.277 9.612 6.699 18.516-.567 25.652-12.122 6.829-11.082 8.188-24.959 4.251-22.184-3.396 2.971-6.333 14.141-10.058 14.729-7.655 1.202-17.822-8.131-14.272-24.169 3.214-14.472 11.731-27.249 15.543-35.528M1639 775c4.047-3.316 39.238-22.272 45.717-26.121 0 0 6.625-10.805 4.638-11.953-1.994-1.148-14.842 10.535-22.833 10.859-7.998.324-18.947-5.551-19.298-10.366 1.037-3.633 10.657-9.09 14.134-9.313 3.477-.203 2.914 7.712 4.076 8.678 1.161.952 5.785-5.463 6.369-8.137.57-2.667.095-13.837-6.267-12.237-10.072 2.546-25.265 21.225-26.996 27.1-1.746 5.889 7.64 11.014 14.492 13.803-.584.216-5.697 2.674-8.933 5.875 0 0-3.477 3.897-5.098 11.811M1519 798.48c4.047-3.316 39.238-22.258 45.717-26.121 0 0 6.64-10.805 4.638-11.953-1.994-1.148-14.842 10.535-22.833 10.859-7.998.324-18.947-5.551-19.298-10.366 1.037-3.633 10.657-9.09 14.134-9.299 3.477-.216 2.914 7.692 4.076 8.651 1.161.966 5.785-5.45 6.369-8.124.57-2.667.08-13.837-6.267-12.237-10.072 2.559-25.265 21.225-26.996 27.114-1.746 5.875 7.64 11.001 14.477 13.79-.57.216-5.683 2.667-8.918 5.875 0 0-3.477 3.897-5.098 11.811M1248.7 458.72c3.155 3.667 23.826 29.93 40.02 46.441 16.186 16.525 43.935 43.267 64.321 61.595l12.388 11.406 13.586 110.487c2.462 20.455 2.827 46.286 2.878 50.783.044 4.504 3.287 3.586 6.369-6.523 4.134-13.567 4.609-48.697 2.418-71.9-1.359-14.33-4.565-41.174-7.669-65.924 12.037 11.892 23.41 23.69 31.072 32.523 14.09 16.214 25.945 28.444 33.168 45.874 5.113 12.331 4.594 22.143 6.691 24.082 1.811 1.675 3.813-13.081 1.578-27.391-3.623-23.237-8.59-33.09-38.42-66.268-11.38-12.682-24.776-25.939-37.872-38.331l-1.38-10.501-11.942-82.361c-.679-6.544-1.87-14.249-1.775-17.889.073-2.897 1.914-1.769 4.806 1.189 2.878 2.951 7.918 8.117 8.772 7.665 2.819-1.459-.321-10.123-4.273-17.896-3.937-7.759-17.501-38.459-20.225-39.674-1.38-.621-9.51 18.632-9.926 22.4 1.41 2.323 4.989 5.943 5.376 16.437.11 2.931 2.71 30.524 5.975 56.577 2.892 23.021 6.472 44.854 6.844 47.38l.015.196-32.621-29.349c-16.873-15.336-54.139-51.729-55.636-57.178-.336-1.722 2.556-.662 7.874.189 5.339.858 10.087 2.674 9.233.054-.387-1.236-2.432-4.288-7.523-7.435l-27.873-17.106c-9.736-5.774-14.557-10.616-16.566-9.231-.993.682-.11 20.462.475 22.927 2.432.209 6.705 3.073 9.846 6.753"/><path d="M1275.3 423.15c3.995-.878 22.928-.398 29.801 1.047-2.878 1.999-22.249 11.784-26.076 14.114-3.805 2.337-4.77 3.687-2.856 3.458 5.551-1.54 18.063-3.458 24.06-6.584 5.653-2.647 15.288-15.559 19.035-20.374 3.725-4.815 3.725-7.219 2.776-8.509-3.827-2.08-28.501-4.167-40.4-1.216-3.294 2.235-9.736 14.141-10.686 16.619-.95 2.492.351 2.323 4.346 1.445m105.3-1.55c3.228-.709 18.487-.324 24.016.837-2.315 1.614-17.917 9.502-21 11.392-3.09 1.871-3.857 2.965-2.315 2.776 4.477-1.229 14.565-2.776 19.393-5.308 4.551-2.134 12.315-12.541 15.332-16.41 3.002-3.89 3.002-5.821 2.235-6.854-3.068-1.695-22.957-3.37-32.548-.986-2.659 1.796-7.837 11.392-8.604 13.391-.782 1.999.278 1.871 3.491 1.162m85.6-1.1c3.214-.709 18.472-.324 24.002.837-2.301 1.614-17.91 9.502-21 11.379-3.075 1.884-3.842 2.978-2.301 2.789 4.477-1.229 15.346-2.789 20.174-5.308 4.558-2.134 9.956-12.541 12.972-16.424 3.017-3.876 3.017-5.821 2.235-6.841-3.068-1.695-21.394-3.37-30.97-.999-2.659 1.81-7.852 11.406-8.619 13.405s.278 1.871 3.506 1.162m-53.399 41.69c-5.069 7.982 1.286 14.425 3.601 20.874-3.126 2.857-7.932.25-9.539-2.256-3.418-5.139-2.272-15.613-6.296-17.227-1.03 2.83-1.702 5.97-1.702 5.97s3.06 7.165 2.294 11.906c-.489 2.863-3.017 6.206-6.355 6.274-8.897.216-4.514-12.952-7.947-20.415-.701 1.823-1.205 3.782-2.023 5.49.628 1.945.971 4.673 1.074 6.247.205 3.127-.044 6.496.489 9.164.738 3.775 2.834 6.28 6.033 6.523 6.647.527 9.678-4.855 10.679-9.272 1.147 4.504 9.934 9.468 14.258 3.937 5.726-7.293 1.147-13.54-1.79-20.401-2.118-5.072-1.505-8.401-2.776-6.814m-249.7-21.17c.46 3.282 2.147 5.524 4.901 5.862 5.683.723 8.561-3.795 9.634-7.55.752 3.924 8.1 8.543 12.096 3.964 5.281-6.058 1.622-11.622-.584-17.653-1.578-4.471-.898-7.307-2.067-5.99-4.748 6.659.431 12.486 2.118 18.139-2.834 2.323-6.844-.115-8.115-2.323-2.703-4.572-1.227-13.547-4.602-15.107-1.023 2.404-1.746 5.072-1.746 5.072s2.286 6.301 1.395 10.346c-.548 2.451-2.878 5.227-5.77 5.153-7.662-.169-3.265-11.338-5.88-17.896-.679 1.533-1.212 3.214-2.009 4.633.46 1.715.628 4.065.628 5.436.058 2.701-.321 5.578 0 7.915M1344.4 750.3c.855-1.357 2.739-5.085 2.264-7.631s-3.594-13.169-9.649-15.829c-6.019-2.661-10.576 2.917-13.462 10.677l-2.001-.047c-.475 1.148-1.074 2.863-1.548 5.963-.672 4.477-1.943 7.361-9.62 14.33-6.457 5.835-27.376 19.847-40.933 26.432-13.571 6.598-23.337 12.291-26.938 14.019-3.586 1.702-2.542 2.337 1.045 1.263 3.579-1.067 21.591-6.868 28.771-9.826 7.165-2.978 15.93-7.874 26.492-14.729 11.745-7.617 18.764-15.235 21.124-21.988 1.68-4.815 2.111-6.74 2.111-6.74s4.412 2.607 11.899 4.315c7.458 1.715 9.576 1.162 10.445-.209m-10.124-15.093c3.323 1.263 5.347 4.882 5.946 7.077-3.813.088-10.832-1.85-13.82-3.201 1.797-3.478 4.923-4.984 7.874-3.876M1264.9 757.77c-10.416-1.445-36.66-5.436-43.08-20.671 5.39-7.861 30.217-17.815 61.319-27.127 31.101-9.292 63.598-21.353 72.333-27.174 1.914-.648 5.617-.452 5.617-.452 1.563-4.504 9.371-20.32 9.861-23.629l-86.065 5.706c-23.812 1.283-69.667.972-84.948.804 9.371-6.74 31.613-19.895 63.4-31.118l11.49-3.964c2.644 4.714 4.609 9.373 5.018 13.432 2.023-2.08 3.543-8.975 3.031-16.052 18.531-5.916 28.077-7.874 32.197-8.988 2.6-3.37 7.209-16.998 7.896-26.904-2.768-5.045-11.438-11.325-19.152-16.721-10.628-7.422-22.088-13.891-33.526-11.062-15.638 3.836-18.772 32.563-15.127 38.655 1.161 1.925 3.915 5.335 7.165 9.542-11.424 4.491-23.373 9.772-33.906 15.323-23.461 12.358-49.654 25.878-57.294 38.878l-2.191 1.067c-.614 1.229-5.449 21.347-6.15 23.514 4.879-.169 41.313-.101 66.687-.891l56.22-1.614c-12.863 3.046-46.572 15.573-56.264 22.94-9.693 7.388-15.784 18.618-15.945 37.871-9.035-3.539-25.828-11.622-40.137-30.976-15.952-21.569-12.651-43.753-19.035-72.866-9.276-42.247-29.085-77.917-41.422-88.83-4.156 14.911-4.689 26.148-4.689 26.148s15.456 34.171 23.278 55.983c7.823 21.819 14.506 43.314 14.177 48.129-6.442 14.127-44.578 43.72-76.358 61.041-30.137 16.424-56.688 18.193-66.096 6.496-1.848-2.283-3.104-4.984-3.813-8.043l12.403-5.76c27.099-12.345 75.226-38.331 86.504-51.965 12.169-16.525 12.001-39.789 4.865-53.106-7.107-13.31-18.253-28.721-19.122-34.171-.679-2.573 7.238 1.047 11.913 1.29 2.264-.169 1.132-3.214-3.725-8.029-3.886-3.836-18.911-16.282-24.652-21.137-1.439-1.236-2.513-.736-2.805.567-1.118 4.97-3.404 15.613-4.288 20.867l.614 2.647c1.651.979 3.55 2.08 4.47 4.828 1.3 3.897 5.851 14.769 13.308 28.491 7.472 13.716 18.268 28.856 19.327 36.501-8.78 11.197-53.05 35.042-96.174 54.693 2.666-8.266 6.873-17.612 12.454-27.992 1.585-1.756 3.031-3.924 4.375-6.368 4.302-7.861 4.719-17.47 2.111-15.438-2.235 2.154-3.842 9.954-6.398 10.481-5.237 1.074-12.585-5.038-10.737-16.214 1.673-10.082 7.063-19.186 9.393-25.013 3.228-8.063 4.112-16.032 1.665-11.696-5.5 9.684-15.821 28.444-18.991 41.552-3.155 13.088.197 22.035 5.726 25.5 2.067 1.317 4.047 1.729 5.931 1.472-3.784 7.199-8.458 16.032-11.869 26.567-17.34 7.759-34.213 14.695-48.179 19.692-50.202 17.97-85.978 28.559-111.002 36.419l-.979.439c1.841-5.949 1.592-11.028-.38-9.502-2.235 2.168-3.835 9.968-6.391 10.481-5.237 1.074-12.585-5.031-10.744-16.214 1.68-10.082 7.07-19.172 9.401-25.007 3.214-8.056 4.105-16.039 1.665-11.696-5.507 9.684-15.821 28.444-18.991 41.545-3.163 13.094.19 22.042 5.712 25.513 6.881 4.322 12.746-.979 17.245-9.177l1.578-3.37c1.563 0 4.2-.365 8.137-1.243 11.468-2.58 40.137-6.74 79.557-11.879 29.188-3.795 49.34-11.811 68.82-20.732-.088 2.154-.11 4.349-.015 6.611 1.059 26.749 18.589 34.299 42.562 29.295 23.125-4.855 55.373-26.06 74.7-40.363 20.152-14.911 31.781-28.235 34.746-32.881 5.376-11.392 6.851-23.98 7.217-29.916 1.76 16.356 3.185 38.992 18.655 58.408 14.243 17.869 43.431 42.801 98.329 43.483.183-6.53-2.432-26.918-2.432-26.918m-3.63-165.748c7.859-8.82 24.63-3.052 37.215 8.131-6.45 1.513-15.207 4.207-24.871 7.658-5.741-6.922-12.147-13.594-12.344-15.789M952.63 471.1c3.564-1.627 14.47-6.53 26.222-13.378 11.731-6.8 22.753-15.039 28.143-20.516 2.067-2.1 3.908-3.741 5.084-5.693 3.521 1.459 5.946 2.971 7.458 3.566 2.272.878 5.303 2.141 7.275-4.329 1.965-6.463-.643-10.636-4.485-15.62-3.25-4.18-8.407-10.461-12.592-12.021-3.55-1.33-5.237 6.598-4.697 6.402h2.374l.46.223c-4.887 2.465-8.67 10.136-9.05 12.831-.387 2.931.168 5.092 7.18 6.895l2.819.831c-5.851 6.929-16.756 14.094-24.184 19.172-10.54 7.226-25.499 16.255-29.757 18.861-4.258 2.593-3.9 3.41-2.25 2.776m63.342-50.905l.38-3.464c4.93 5.619 8.59 12.304 8.225 13.25-2.264.182-5.084-1.911-10.014-4.018.548-1.675 1.008-3.525 1.41-5.767m-14.156.007c-.029-1.053 1.87-3.984 5.887-5.585 4.01-1.614 5.785 2.89 6.136 8.374l-1.191 2.195-3.616-1.249c-3.827-1.121-6.413-1.756-7.217-3.734M1215.5 576.87c5.785-3.822 21.686-15.303 30.707-22.825 6.274-5.227 13.644-12.925 18.648-19.435a239.4 239.4 0 0 0 8.736 5.402c5.142 3.005 7.209 7.462 7.209 7.462.95-1.459 5.376-9.441 3.645-13.324-1.037-1.27-7.363-4.964-13.827-8.921 3.28-7.361 7.794-20.09 1.329-24.548-5.529-3.782-14.857 2.478-19.174 10.602-3.564 6.726-4.025 12.432 2.776 17.106l5.544 3.741c-6.859 7.503-19.495 18.605-28.486 26.162-11.168 9.346-21.73 18.51-23.571 20.698l-.533.851c-2.44-6.794-1.775-10.987-3.586-8.732-7.823 12.27 1.979 22.211 5.544 32.138-4.821 4.376-12.205.358-14.681-3.471-5.274-7.928-3.513-24.028-9.685-26.519-1.592 4.349-2.63 9.191-2.63 9.191s4.697 11.028 3.506 18.308c-.738 4.403-4.638 9.556-9.758 9.643-13.703.351-6.946-19.922-12.235-31.402-1.074 2.816-1.841 5.828-3.126 8.435.971 3.019 1.505 7.206 1.643 9.63.351 4.815-.044 9.981.767 14.114 1.132 5.808 4.361 9.67 9.291 10.028 10.219.831 14.886-7.476 16.434-14.249 1.76 6.929 15.295 14.546 21.949 6.051 8.816-11.23 1.76-20.847-2.746-31.409l-.533-1.371c.628.223 2.987-.81 6.844-3.356m39.969-63.236c3.389-6.287 10.525-6.821 12.665-3.525 1.702 2.62 1.841 7.732-.716 13.128-6.296-3.951-11.913-7.82-11.95-9.603M992.43 536.89c-12.037-.851-18.516-11.879-22.219-27.809-3.711-15.931-1.439-36.939-.431-42.322 1.008-5.375-4.667-2.6-6.873 10.454-2.191 13.04-4.397 33.894 3.367 55.727 7.75 21.806 20.963 29.943 32.54 27.154 11.577-2.776 21.767-29.943 25.36-42.133 3.586-12.196 19.634-61.933 28.72-64.607 1.271 6.098-7.063 21.394-9.729 44.388-2.651 22.994 1.965 53.154 31.152 58.502 29.188 5.355 48.989-13.58 56.169-26.742 7.187-13.142 10.54-26.958 11.351-33.901.935 17.646 12.972 45.198 36.353 53.052 22.592 7.59 39.852.642 47.477-9.198 6.771-8.739 12.286-26.736 12.76-40.539.46-13.79-11.46-39.026-14.126-47.062-2.673-8.016-4.054-13.58-4.288-16.356-.226-2.776 6.033 3.214 9.97 4.39 2.666.533 1.731-5.24-1.512-9.204-3.236-3.951-20.751-30.511-21.978-28.66-.752 1.108-7.764 20.644-8.225 23.636 2.776 1.823 5.989 6.848 6.23 11.663.219 4.815 4.857 25.986 9.145 37.75s12.622 34.333 13.206 40.539c-8.334 5.875-27.106 13.351-44.935 5.774-17.83-7.604-23.52-18.618-25.484-38.297-1.256-12.574-1.38-35.737-5.865-55.105-2.527-10.947-7.852-22.076-14.177-27.985-1.49 3.626-8.21 25.986-8.21 25.986 2.191 6.415 9.006 28.019 8.787 46.738-.241 18.706-1.716 37.014-22.694 49.629-20.963 12.615-50.83 7.59-58.594-12.095-7.764-19.679 9.495-63.952 9.269-75.608-.234-11.656-2.33-13.27-7.187-11.338-4.865 1.925-14.835 13.162-23.395 31.442-8.575 18.294-12.381 36.575-17.26 51.979-4.857 15.404-12.636 31.01-24.674 30.159M642.92 468.66c14.813-1.074 27.332-12.304 30.568-15.289 3.243-3.005 4.989-7.482 2.666-5.781-17.136 15.296-40.064 15.728-41.349 13.155.584-2.566 6.618-6.74 15.419-12.615 5.347-3.572 10.109-6.922 13.673-11.669l.971.169c6.523 1.432 14.053 4.281 16.354 1.999 3.747-3.694 4.244-9.745.183-16.268-3.433-5.538-11.438-10.69-18.392-14.411-6.939-3.701-8.283 2.208-9.174 4.315-.855 1.965-.504 3.64.964 3.68-2.235 3.046-3.827 6.969-4.412 10.211-.38 2.093-.073 3.809.782 5.22.248.398 1.534 1.972 3.966 2.904l3.017.939c-5.193 4.795-11.175 8.549-14.316 10.447-5.668 3.424-12.388 9.414-14.47 15.606-2.089 6.213-1.278 8.462 13.549 7.388m26.186-43.693l.57-3.16v-2.026c4.697 3.417 12.205 9.887 11.745 13.763l-14.024-3.255c.687-1.614 1.249-3.383 1.709-5.321m-13.922.986c-3.455-2.755-.088-5.504 2.973-7.273 3.952-2.283 6.267-.398 8.29 5.592-.709 1.715-1.702 3.383-2.871 4.984-3.075-.952-7.406-2.478-8.393-3.302M687.36 635.95c-4.258 3.694-5.909 15.714-5.04 16.437.862.723 14.17 5.213 16.252 6.186l.95-3.62c6.34 5.693 13.367 34.096 14.93 34.177 1.563.074 3.827-3.214 5.31-10.758 1.366-6.996 2.732-17.464 4.156-25.986 1.329-7.8 3.396-12.264 8.086-13.155 4.697-.878 8.173 5.139 9.386 9.231 0 0 3.294-7.867 3.995-12.757-.782-2.573-8.086-12.27-14.075-9.063-5.997 3.214-9.751 16.822-10.964 25.331-1.22 8.495-2.155 19.03-3.63 20.719-1.548-7.253-6.508-20.232-12.497-27.526-6.734-8.171-14.608-11.17-16.858-9.218M630.59 621.43c5.558-1.526 18.071-3.444 24.06-6.571 5.646-2.647 15.28-15.559 19.02-20.374 3.732-4.815 3.74-7.233 2.79-8.509-3.82-2.093-28.501-4.167-40.407-1.216-3.287 2.222-9.722 14.127-10.671 16.619-.964 2.478.351 2.323 4.339 1.445 3.995-.891 22.935-.412 29.787 1.033-2.856 2.012-22.227 11.798-26.054 14.127-3.813 2.323-4.777 3.687-2.863 3.444M1778.1 690.36c-.57-14.431-7.64-36.588-34.52-70.583-9.276-11.737-22.329-27.012-36.097-42.659l-1.103-14.398c-1.804-21.536-7.918-65.471-10.547-91.444-.643-6.551-.694-13.52-.599-17.16.095-2.89 2.177-2.505 5.04.466 2.863 2.965 7.275 7.293 8.195 6.996 1.958-.675.256-7.233-3.652-15.005-3.9-7.786-18.648-39.276-21.357-40.498-1.395-.621-8.349 17.869-8.78 21.65 1.38 2.323 4.945 5.936 5.288 16.451.365 10.508 6.705 72.569 10.35 111.676l.197 2.181-47.945-52.431-4.536-4.943-3.323-28.66c-.672-6.537-.716-13.52-.599-17.16.066-2.884 2.162-2.492 5.025.479 2.878 2.965 7.275 7.293 8.195 6.983 1.958-.662.256-7.219-3.659-15.005-3.893-7.786-19.268-39.999-21.993-41.221-1.38-.621-8.655 19.341-9.086 23.096 1.395 2.337 4.952 5.949 5.303 16.464.139 4.464 1.3 17.997 2.849 35.076-13.644-16.214-27.004-33.191-27.953-36.642-.336-1.702 2.549-.655 7.889.209 5.317.851 10.306 2.451 9.452-.182-.402-1.222-2.432-4.275-7.523-7.435l-27.873-17.092c-9.736-5.774-14.557-10.629-16.566-9.245-.993.682-.11 20.475.46 22.927 2.447.223 6.968 2.039 9.846 5.889 2.907 3.849 21.518 29.943 36.236 47.589l18.633 22.042 4.426 47.083c2.987 32.01 13.725 116.43 13.827 143.868-7.925 7.435-24.133 17.808-40.809 18.024-16.675.209-25.82-4.18-32.54-16.579l-5.916-11.203c-4.543-8.313-14.681-12.979-24.454-10.69l-1.49.398-2.659 1.276c-6.618 3.464-13.462 9.272-20.152 18.281-11.57 15.627-18.962 32.577-27.522 47.258-8.918 15.289-15.762 25.547-31.408 23.096-11.015-1.729-19.378-11.176-24.535-22.798 14.484-10.022 25.002-23.096 32.694-41.214 10.014-23.548 13.586-50.094 12.695-79.943-.855-28.093-13.659-94.185-17.041-119.516-3.375-25.344-8.225-46.144-7.662-51.553.526-5.22 8.838 7.07 13.096 7.989 2.177-.486 1.008-8.327-3.126-14.951-2.805-4.504-11.687-24.993-17.501-34.873-2.732-4.673-3.389-7.381-4.66-7.935-1.256-.574-10.934 20.097-9.766 22.346 2.863 4.092 4.821 6.044 5.42 13.378.614 7.334 7.246 61.17 13.045 100.817 4.368 29.916 14.017 84.258 15.258 124.426.409 13.108-1.461 22.515-3.082 27.769-4.163 8.05-10.949 16.991-34.79 33.961-3.681-23.98.321-43.463-3.17-45.266-3.937.425-4.565 11.602-5.011 25.392-.219 6.368.058 15.188 1.256 24.662-29.283 19.57-67.966 37.392-86.131 46.907-10.657 5.592-6.815 6.895 2.206 4.106 9.021-2.803 58.594-15.802 85.057-29.72l2.849-1.58c1.344 4.666 2.973 9.184 4.974 13.351 8.904 18.503 21.628 29.491 35.411 28.417 11.592-.891 19.999-13.297 27.332-28.093 7.414-14.978 19.94-43.422 32.226-54.005 4.719-4.079 9.598-7.307 14.345-9.245 0 0 8.393-2.803 16.113 2.242 2.768 1.823 4.835 4.417 6.143 7.32 3.046 6.665 6.647 15.147 14.009 22.251 12.972 12.493 33.833 9.914 49.479 2.647 15.624-7.273 23.6-18.618 27.077-32.097 5.931-23.062 4.981-46.691 3.849-67.68-1.307-23.953-5.135-48.433-7.312-74.372-.701-8.34-2.067-19.942-3.637-32.523 15.237 17.585 31.057 35.434 40.655 45.192 3.309 3.37 6.8 7.111 10.387 11.062l7.07 109.009c1.439 20.543.511 46.367.343 50.858-.175 4.491 2.323 3.721 5.909-6.247 4.806-13.378 7.823-48.46 6.771-71.725l-3.499-62.865c11.825 14.053 23.052 28.241 30.356 37.817 12.987 17.004 24.915 37.223 29.085 49.838 4.163 12.628 4.624 16.37 5.434 18.618s4.397-6.962 3.827-21.394M1558.8 1170.7c-1.173-3.355-4.765-5.817-9.061-5.817s-7.881 2.461-9.061 5.817H1500c-.41-4.513-.01-9.048 1.268-13.465l83.981-.051 2.339 3.941c2.111 3.553 4.78 6.762 7.873 9.575zm55.596-39.026h-100.92c7.756-5.597 11.824-13.766 10.732-22.029-.696-5.209-5.857-9.099-12.147-9.626h-3.16c-7.653.747-13.203 6.264-12.396 12.322l.308 2.33.374 3.582a36.35 36.35 0 0 1-1.254 13.421h-745.97c11.077 16.117 31.273 26 53.082 25.985l680.71-.418c-7.785 5.604-11.868 13.788-10.769 22.066.806 6.059 7.653 10.374 15.307 9.626 7.646-.747 13.195-6.264 12.396-12.33l-.308-2.322h40.004c.704 3.905 4.604 6.901 9.354 6.901s8.65-2.996 9.361-6.901h40.693v-.095c8.496 6.029 19.294 9.495 30.716 9.495 10.747 0 19.456-7.465 19.456-16.681v-4.821c0-16.842-15.922-30.506-35.569-30.506"/></g></svg>