<svg xmlns="http://www.w3.org/2000/svg" id="Layer_1" x="0" y="0" enable-background="new 0 0 600 500" version="1.1" viewBox="0 0 600 500" xml:space="preserve"><g id="Authentication_Code"><path fill="#d2e4ff" d="M88.1,439.8H519c21.9,0,39.1-18.7,37.1-40.5c-1.6-17.9-9.7-35.1-23.4-46.5c-8.9-7.4-19.8-12.5-26.9-21.7
						c-15-19.3-7.5-47.9,4.8-69.1c11.9-20.6,27.8-39.2,35.4-61.9c7.6-22.6,4-51.9-16.3-64.2c-13.1-7.9-29.4-6.7-44.7-7.2
						c-15.2-0.5-32.5-4.3-40.2-17.6c-6.6-11.4-4.2-26.7-11.3-37.8c-10.4-16.3-34.1-14.9-52.3-9c-36.4,11.9-72,14.2-110.2,16
						c-29.8,1.4-58.7-10.2-88.4-12C143.7,66,72.2,89.5,48,162.3c-4.8,14.4,3.6,37.3,11.6,50.2c8.3,13.3,23.1,21.6,30.3,35.5
						c10.4,20.2,1.6,45.1-10.6,64.2c-12.2,19.1-28.1,36.8-32.9,59c-4.3,19.4,0.9,40.6,13.6,55.7c0,0.1,0.1,0.1,0.1,0.2
						C67,435.2,77.4,439.8,88.1,439.8z" opacity=".3"/><path fill="#c6e2fa" d="M178.8,168.6h-31.6c-0.2,0-0.4-0.2-0.4-0.4s0.2-0.4,0.4-0.4h31.6c0.2,0,0.4,0.2,0.4,0.4
							S179,168.6,178.8,168.6z"/><path fill="#c6e2fa" d="M178.8,184.3h-31.6c-0.2,0-0.4-0.2-0.4-0.4s0.2-0.4,0.4-0.4h31.6c0.2,0,0.4,0.2,0.4,0.4
							S179,184.3,178.8,184.3z"/><path fill="#c6e2fa" d="M173,176.4h-44.6c-0.2,0-0.4-0.2-0.4-0.4s0.2-0.4,0.4-0.4H173c0.2,0,0.4,0.2,0.4,0.4
							S173.2,176.4,173,176.4z"/><path fill="#c6e2fa" d="M153.7,168.6c-0.2,0-0.4-0.2-0.4-0.4v-6.6c0-0.2,0.2-0.4,0.4-0.4s0.4,0.2,0.4,0.4v6.6
							C154.1,168.5,153.9,168.6,153.7,168.6z"/><path fill="#c6e2fa" d="M164.8,176.4c-0.2,0-0.4-0.2-0.4-0.4v-7.8c0-0.2,0.2-0.4,0.4-0.4s0.4,0.2,0.4,0.4v7.8
							C165.2,176.3,165,176.4,164.8,176.4z"/><path fill="#c6e2fa" d="M156.3,184c-0.2,0-0.4-0.2-0.4-0.4v-7.6c0-0.2,0.2-0.4,0.4-0.4s0.4,0.2,0.4,0.4v7.6
							C156.7,183.8,156.5,184,156.3,184z"/><path fill="#c6e2fa" d="M499.5,255.6H468c-0.2,0-0.4-0.2-0.4-0.4s0.2-0.4,0.4-0.4h31.6c0.2,0,0.4,0.2,0.4,0.4
							S499.7,255.6,499.5,255.6z"/><path fill="#c6e2fa" d="M499.5,271.2H468c-0.2,0-0.4-0.2-0.4-0.4s0.2-0.4,0.4-0.4h31.6c0.2,0,0.4,0.2,0.4,0.4
							S499.7,271.2,499.5,271.2z"/><path fill="#c6e2fa" d="M493.8,263.4h-44.6c-0.2,0-0.4-0.2-0.4-0.4s0.2-0.4,0.4-0.4h44.6c0.2,0,0.4,0.2,0.4,0.4
							S494,263.4,493.8,263.4z"/><path fill="#c6e2fa" d="M474.4,255.6c-0.2,0-0.4-0.2-0.4-0.4v-6.6c0-0.2,0.2-0.4,0.4-0.4s0.4,0.2,0.4,0.4v6.6
							C474.8,255.4,474.7,255.6,474.4,255.6z"/><path fill="#c6e2fa" d="M485.5,263.4c-0.2,0-0.4-0.2-0.4-0.4v-7.8c0-0.2,0.2-0.4,0.4-0.4s0.4,0.2,0.4,0.4v7.8
							C485.9,263.2,485.8,263.4,485.5,263.4z"/><path fill="#c6e2fa" d="M477.1,270.9c-0.2,0-0.4-0.2-0.4-0.4V263c0-0.2,0.2-0.4,0.4-0.4s0.4,0.2,0.4,0.4v7.6
							C477.5,270.8,477.3,270.9,477.1,270.9z"/><path fill="#fff" d="M453.3,106.9v226.5c0,8.1-6.6,14.7-14.7,14.7h-253c-8.1,0-14.7-6.6-14.7-14.7V106.9H453.3z"/><path d="M453.3,138.1v40.5h-10.9l-10.4,8.2c-1,0.8-2.6,0.1-2.6-1.2v-6.9h-7.9c-1.9,0-3.5-1.6-3.5-3.5v-33.4
							c0-1.9,1.6-3.5,3.5-3.5H453.3z" opacity=".08"/><path d="M352.9,327.5h-86.7c-3.7,0-6.8-3-6.8-6.8v-20.5c0-3.7,3-6.8,6.8-6.8h86.7c3.7,0,6.8,3,6.8,6.8v20.5
							C359.7,324.5,356.6,327.5,352.9,327.5z" opacity=".08"/><path d="M392.7,242.1v35.2c0,2.1-1.7,3.8-3.8,3.8H228.7c-2.1,0-3.8-1.7-3.8-3.8v-35.2c0-2.1,1.7-3.8,3.8-3.8h160.2
							C391,238.2,392.7,240,392.7,242.1z" opacity=".08"/><path fill="#060405" d="M453.3,95.4v11.5H170.8V95.4c0-8.1,6.6-14.7,14.7-14.7h253C446.7,80.7,453.3,87.3,453.3,95.4z"/><path fill="#fff" d="M189.6,94.8c0,2.4-1.9,4.3-4.3,4.3c-2.4,0-4.3-1.9-4.3-4.3s1.9-4.3,4.3-4.3
							C187.7,90.5,189.6,92.4,189.6,94.8z"/><path fill="#fff" d="M202.7,94.8c0,2.4-1.9,4.3-4.3,4.3c-2.4,0-4.3-1.9-4.3-4.3s1.9-4.3,4.3-4.3
							C200.8,90.5,202.7,92.4,202.7,94.8z"/><path fill="#fff" d="M215.8,94.8c0,2.4-1.9,4.3-4.3,4.3s-4.3-1.9-4.3-4.3s1.9-4.3,4.3-4.3S215.8,92.4,215.8,94.8z"/><path fill="#6193f6" d="M472,439.8c-67.3-19.3-65.2-124.7-65.2-124.7c25.5,1.1,23.4-21.6,23.4-21.6c27.8-3.9,55.6-3.9,83.5,0
						c0,0-2,22.7,23.4,21.6C537.1,315.1,539.3,420.5,472,439.8z"/><path fill="#fff" d="M472,424.5c-43.9-14.3-50.2-77-51.1-97.5c6-0.9,10.8-3.4,14.5-7.4c3.6-4,5.2-8.6,5.9-12.3
						c10.2-1.2,20.5-1.8,30.7-1.8c10.2,0,20.5,0.6,30.7,1.8c0.7,3.7,2.3,8.4,5.9,12.3c3.6,4,8.5,6.5,14.5,7.4
						C522.2,347.5,515.8,410.2,472,424.5z"/><g><circle cx="472" cy="365.1" r="23.6" fill="#060405"/></g><g><path fill="#fff" d="M467,375.2c-0.6,0-1.2-0.2-1.7-0.7l-5.2-5.2c-0.9-0.9-0.9-2.5,0-3.4c0.9-0.9,2.5-0.9,3.4,0l3.5,3.5
							l13.6-13.6c0.9-0.9,2.5-0.9,3.4,0c0.9,0.9,0.9,2.5,0,3.4l-15.3,15.3C468.2,375,467.6,375.2,467,375.2z"/></g><g><path d="M334.5,166.4h-2v-12.5c0-12-8.9-22.4-20.8-24.2h0c-1.2-0.2-2.5-0.3-3.7-0.3c-13.5,0-24.5,11-24.5,24.5v12.5h-3.1
							c-4.3,0-7.7,3.5-7.7,7.7v40.1c0,4.3,3.5,7.7,7.7,7.7h54.2c4.3,0,7.7-3.5,7.7-7.7v-40.1C342.3,169.8,338.8,166.4,334.5,166.4z
							 M288.9,153.9c0-10.5,8.5-19.1,19.1-19.1c1,0,2,0.1,2.9,0.2c9.2,1.4,16.1,9.5,16.1,18.8v12.5h-38.1V153.9z" opacity=".08"/><path fill="#f2cb2a" d="M341.3,219.1H281c-2.6,0-4.7-2.1-4.7-4.7v-46.3c0-2.6,2.1-4.7,4.7-4.7h60.3c2.6,0,4.7,2.1,4.7,4.7
									v46.3C346,217,343.9,219.1,341.3,219.1z"/><path d="M318.9,184.5c0.4,3.1-1,5.9-3.4,7.5c-1,0.7-1.6,1.9-1.6,3.2v8.9c0,1.4-0.9,2.6-2.2,2.9c-1.8,0.4-3.4-1-3.4-2.8v-9.1
									c0-1.3-0.7-2.4-1.7-3.2c-2-1.4-3.3-3.8-3.3-6.4c0-4.6,4-8.3,8.7-7.8C315.6,178.2,318.5,181,318.9,184.5z"/><path d="M336.2,151v12.5h-5.5V151c0-9.3-6.9-17.4-16.1-18.8c-1-0.1-1.9-0.2-2.9-0.2c-10.5,0-19.1,8.6-19.1,19.1v12.5h-5.5
									V151c0-13.5,11-24.5,24.5-24.5c1.3,0,2.5,0.1,3.7,0.3h0C327.3,128.6,336.2,139,336.2,151z"/></g><g><path fill="#d2e4ff" d="M396,238.8V274c0,2.1-1.7,3.8-3.8,3.8H231.9c-2.1,0-3.8-1.7-3.8-3.8v-35.2c0-2.1,1.7-3.8,3.8-3.8h160.2
						C394.3,235,396,236.7,396,238.8z"/></g><g><path fill="#fff" d="M259.2,269.5h-15.7c-2,0-3.6-1.6-3.6-3.6v-19.1c0-2,1.6-3.6,3.6-3.6h15.7c2,0,3.6,1.6,3.6,3.6V266
							C262.8,267.9,261.2,269.5,259.2,269.5z"/><path fill="#fff" d="M289.6,269.5h-15.7c-2,0-3.6-1.6-3.6-3.6v-19.1c0-2,1.6-3.6,3.6-3.6h15.7c2,0,3.6,1.6,3.6,3.6V266
							C293.1,267.9,291.5,269.5,289.6,269.5z"/><path fill="#fff" d="M319.9,269.5h-15.7c-2,0-3.6-1.6-3.6-3.6v-19.1c0-2,1.6-3.6,3.6-3.6h15.7c2,0,3.6,1.6,3.6,3.6V266
							C323.5,267.9,321.9,269.5,319.9,269.5z"/><path fill="#fff" d="M350.2,269.5h-15.7c-2,0-3.6-1.6-3.6-3.6v-19.1c0-2,1.6-3.6,3.6-3.6h15.7c2,0,3.6,1.6,3.6,3.6V266
							C353.8,267.9,352.2,269.5,350.2,269.5z"/><path fill="#fff" d="M380.6,269.5h-15.7c-2,0-3.6-1.6-3.6-3.6v-19.1c0-2,1.6-3.6,3.6-3.6h15.7c2,0,3.6,1.6,3.6,3.6V266
							C384.1,267.9,382.5,269.5,380.6,269.5z"/></g><g><path d="M255.4,257.4l-2.4-0.9l2.5-1c1-0.6,0.5-2.2-0.6-2.2c-0.5,0-0.6,0.1-2.6,1.8c0.4-2.5,0.4-2.6,0.4-2.6
						c0-0.3-0.1-0.6-0.4-0.8c-0.8-0.7-2-0.2-2,0.8c0,0,0,0.1,0.4,2.6c-1.9-1.6-2-1.6-2.1-1.6c-1.3-0.8-2.5,1.3-1.1,2l2.4,0.9l-2.5,1
						c-1,0.5-0.6,2.2,0.6,2.2c0.5,0,0.5-0.1,2.6-1.8c-0.4,2.5-0.4,2.6-0.4,2.6c0,0.7,0.6,1.1,1.2,1.1c0.6,0,1.2-0.5,1.2-1.1
						c0,0,0-0.1-0.4-2.6c2,1.6,2.1,1.8,2.6,1.8c0.7,0,1.2-0.6,1.2-1.2C255.9,257.9,255.8,257.6,255.4,257.4z"/></g><g><path d="M285.7,257.4l-2.4-0.9l2.5-1c0.4-0.2,0.5-0.6,0.5-1c0-0.2-0.1-0.4-0.2-0.6c-0.2-0.4-0.6-0.6-1-0.6
						c-0.2,0-0.4,0.1-0.5,0.1c-0.1,0-0.1,0.1-2.1,1.6c0.4-2.5,0.4-2.6,0.4-2.6c0-0.3-0.1-0.6-0.4-0.8c-0.5-0.4-1.2-0.4-1.6,0
						c-0.2,0.2-0.4,0.5-0.4,0.8c0,0,0,0.1,0.4,2.6c-1.9-1.6-2-1.6-2.1-1.6c-0.6-0.3-1.2-0.1-1.6,0.4c-0.1,0.2-0.2,0.4-0.2,0.6
						c0,0.4,0.2,0.8,0.6,1l2.4,0.9l-2.5,1c-0.4,0.2-0.6,0.5-0.6,1c0,0.2,0.1,0.4,0.2,0.6c0.2,0.4,0.6,0.6,1,0.6c0.2,0,0.4,0,0.5-0.1
						c0,0,0.1-0.1,2.1-1.6c-0.4,2.5-0.4,2.6-0.4,2.6c0,0.3,0.1,0.6,0.4,0.8c0.2,0.2,0.5,0.3,0.8,0.3c0.3,0,0.6-0.1,0.8-0.3
						c0.2-0.2,0.4-0.5,0.4-0.8c0,0,0-0.1-0.4-2.6c2,1.6,2,1.6,2.1,1.6c0.2,0.1,0.3,0.1,0.5,0.1c0.4,0,0.8-0.2,1.1-0.6
						c0.1-0.2,0.1-0.4,0.1-0.6C286.3,257.9,286.1,257.6,285.7,257.4z"/></g><g><path d="M316,257.4l-2.4-0.9l2.5-1c0.4-0.2,0.5-0.6,0.5-1c0-0.2-0.1-0.4-0.2-0.6c-0.2-0.4-0.6-0.6-1-0.6
						c-0.2,0-0.4,0.1-0.5,0.1c-0.1,0-0.1,0.1-2.1,1.6c0.4-2.5,0.4-2.6,0.4-2.6c0-0.3-0.1-0.6-0.4-0.8c-0.5-0.4-1.2-0.4-1.6,0
						c-0.2,0.2-0.4,0.5-0.4,0.8c0,0,0,0.1,0.4,2.6c-1.9-1.6-2-1.6-2.1-1.6c-0.6-0.3-1.2-0.1-1.6,0.4c-0.1,0.2-0.2,0.4-0.2,0.6
						c0,0.4,0.2,0.8,0.6,1l2.4,0.9l-2.5,1c-0.4,0.2-0.6,0.5-0.6,1c0,0.2,0.1,0.4,0.2,0.6c0.2,0.4,0.6,0.6,1,0.6c0.2,0,0.4,0,0.5-0.1
						c0,0,0.1-0.1,2.1-1.6c-0.4,2.5-0.4,2.6-0.4,2.6c0,0.3,0.1,0.6,0.4,0.8c0.2,0.2,0.5,0.3,0.8,0.3c0.3,0,0.6-0.1,0.8-0.3
						c0.2-0.2,0.4-0.5,0.4-0.8c0,0,0-0.1-0.4-2.6c2,1.6,2,1.6,2.1,1.6c0.2,0.1,0.3,0.1,0.5,0.1c0.4,0,0.8-0.2,1.1-0.6
						c0.1-0.2,0.1-0.4,0.1-0.6C316.6,257.9,316.4,257.6,316,257.4z"/></g><g><path d="M346.4,257.4l-2.4-0.9l2.5-1c0.4-0.2,0.5-0.6,0.5-1c0-0.2-0.1-0.4-0.2-0.6c-0.2-0.4-0.6-0.6-1-0.6
						c-0.2,0-0.4,0.1-0.5,0.1c-0.1,0-0.1,0.1-2.1,1.6c0.4-2.5,0.4-2.6,0.4-2.6c0-0.3-0.1-0.6-0.4-0.8c-0.5-0.4-1.2-0.4-1.6,0
						c-0.2,0.2-0.4,0.5-0.4,0.8c0,0,0,0.1,0.4,2.6c-1.9-1.6-2-1.6-2.1-1.6c-0.6-0.3-1.2-0.1-1.6,0.4c-0.1,0.2-0.2,0.4-0.2,0.6
						c0,0.4,0.2,0.8,0.6,1l2.4,0.9l-2.5,1c-0.4,0.2-0.6,0.5-0.6,1c0,0.2,0.1,0.4,0.2,0.6c0.2,0.4,0.6,0.6,1,0.6c0.2,0,0.4,0,0.5-0.1
						c0,0,0.1-0.1,2.1-1.6c-0.4,2.5-0.4,2.6-0.4,2.6c0,0.3,0.1,0.6,0.4,0.8c0.2,0.2,0.5,0.3,0.8,0.3c0.3,0,0.6-0.1,0.8-0.3
						c0.2-0.2,0.4-0.5,0.4-0.8c0,0,0-0.1-0.4-2.6c2,1.6,2,1.6,2.1,1.6c0.2,0.1,0.3,0.1,0.5,0.1c0.4,0,0.8-0.2,1.1-0.6
						c0.1-0.2,0.1-0.4,0.1-0.6C346.9,257.9,346.7,257.6,346.4,257.4z"/></g><g><path d="M376.7,257.4l-2.4-0.9l2.5-1c0.4-0.2,0.5-0.6,0.5-1c0-0.2-0.1-0.4-0.2-0.6c-0.2-0.4-0.6-0.6-1-0.6
						c-0.2,0-0.4,0.1-0.5,0.1c-0.1,0-0.1,0.1-2.1,1.6c0.4-2.5,0.4-2.6,0.4-2.6c0-0.3-0.1-0.6-0.4-0.8c-0.5-0.4-1.2-0.4-1.6,0
						c-0.2,0.2-0.4,0.5-0.4,0.8c0,0,0,0.1,0.4,2.6c-1.9-1.6-2-1.6-2.1-1.6c-0.6-0.3-1.2-0.1-1.6,0.4c-0.1,0.2-0.2,0.4-0.2,0.6
						c0,0.4,0.2,0.8,0.6,1l2.4,0.9l-2.5,1c-0.4,0.2-0.6,0.5-0.6,1c0,0.2,0.1,0.4,0.2,0.6c0.2,0.4,0.6,0.6,1,0.6c0.2,0,0.4,0,0.5-0.1
						c0,0,0.1-0.1,2.1-1.6c-0.4,2.5-0.4,2.6-0.4,2.6c0,0.3,0.1,0.6,0.4,0.8c0.2,0.2,0.5,0.3,0.8,0.3c0.3,0,0.6-0.1,0.8-0.3
						c0.2-0.2,0.4-0.5,0.4-0.8c0,0,0-0.1-0.4-2.6c2,1.6,2,1.6,2.1,1.6c0.2,0.1,0.3,0.1,0.5,0.1c0.4,0,0.8-0.2,1.1-0.6
						c0.1-0.2,0.1-0.4,0.1-0.6C377.3,257.9,377.1,257.6,376.7,257.4z"/></g><g><path fill="#ff7545" d="M355.4,324.6h-86.7c-3.7,0-6.8-3-6.8-6.8v-20.5c0-3.7,3-6.8,6.8-6.8h86.7c3.7,0,6.8,3,6.8,6.8v20.5
						C362.2,321.5,359.1,324.6,355.4,324.6z"/></g><g><path fill="#fff" d="M287.6,301.3c-0.2,0.1-0.3,0.3-0.5,0.6l-4,10.1l-4-10.1c-0.1-0.2-0.3-0.4-0.4-0.6
							c-0.5-0.4-1.2-0.3-1.6,0.1c-0.2,0.2-0.3,0.5-0.3,0.9c0,0.2,0,0.3,0.1,0.5l4.6,11.2l0,0c0.4,0.9,1,1.1,1.5,1.1h0.4
							c0.5,0,1.1-0.2,1.5-1.1l4.6-11.2c0.1-0.1,0.1-0.3,0.1-0.4c0-0.4-0.1-0.7-0.3-0.9C288.8,301,288.1,300.9,287.6,301.3z"/><path fill="#fff" d="M301.1,303.5c0.3,0,0.6-0.1,0.8-0.3c0.2-0.2,0.3-0.5,0.3-0.8c0-0.3-0.1-0.6-0.3-0.8
							c-0.2-0.2-0.5-0.3-0.8-0.3h-7.5c-0.3,0-0.6,0.1-0.9,0.4c-0.2,0.2-0.3,0.5-0.3,0.9v11.3c0,0.3,0.1,0.6,0.4,0.9h0
							c0.2,0.2,0.5,0.4,0.9,0.4h7.5c0.3,0,0.6-0.1,0.8-0.3c0.2-0.2,0.3-0.5,0.3-0.8c0-0.3-0.1-0.6-0.3-0.8c-0.2-0.2-0.5-0.3-0.8-0.3
							h-6.2v-3.4h5.6c0.3,0,0.6-0.1,0.8-0.3c0.2-0.2,0.3-0.5,0.3-0.8c0-0.3-0.1-0.6-0.3-0.8c-0.2-0.2-0.5-0.3-0.8-0.3h-5.6v-3.4
							H301.1z"/><path fill="#fff" d="M316,307.6c0.5-0.7,0.7-1.4,0.7-2.3c0-1.2-0.5-2.3-1.4-3c-0.9-0.7-2.3-1.1-4-1.1h-4.3
							c-0.3,0-0.6,0.1-0.9,0.4c-0.2,0.2-0.3,0.5-0.3,0.9v11.4c0,0.3,0.1,0.6,0.4,0.9c0.5,0.5,1.2,0.5,1.7,0c0.2-0.2,0.4-0.5,0.4-0.9
							v-4h3.5c0.8,0,1.3,0.2,1.7,0.5c0.4,0.4,0.6,0.8,0.7,1.2c0.1,0.5,0.2,1.1,0.2,1.6v0.6c0,0.4,0.1,0.6,0.3,0.9
							c0.2,0.2,0.5,0.3,0.9,0.3c0.3,0,0.6-0.1,0.9-0.4c0.2-0.2,0.4-0.5,0.4-0.9v-0.9c0-0.9-0.2-1.8-0.5-2.7
							c-0.3-0.7-0.7-1.2-1.3-1.6C315.3,308.4,315.7,308,316,307.6z M314.2,305.4c0,0.6-0.3,1.1-0.8,1.5c-0.6,0.4-1.3,0.6-2.3,0.6h-3
							v-4h2.9c1.2,0,2.1,0.2,2.5,0.5C314,304.4,314.2,304.8,314.2,305.4z"/><path fill="#fff" d="M320.7,301.4c-0.2,0.2-0.3,0.5-0.3,0.9v11.5c0,0.3,0.1,0.6,0.4,0.9c0.2,0.2,0.5,0.4,0.9,0.4
							c0.3,0,0.6-0.1,0.9-0.3c0.2-0.2,0.4-0.5,0.4-0.9v-11.5c0-0.3-0.1-0.6-0.4-0.9C322,300.9,321.2,301,320.7,301.4z"/><path fill="#fff" d="M335.5,301.2h-7.3c-0.3,0-0.6,0.1-0.9,0.4c-0.2,0.2-0.3,0.5-0.3,0.9v11.4c0,0.3,0.1,0.6,0.4,0.9
							c0.2,0.2,0.5,0.4,0.9,0.4c0.3,0,0.6-0.1,0.9-0.3c0.2-0.2,0.4-0.5,0.4-0.9v-4.6h5.4c0.3,0,0.6-0.1,0.8-0.3
							c0.2-0.2,0.3-0.5,0.3-0.8c0-0.3-0.1-0.6-0.3-0.8c-0.2-0.2-0.5-0.3-0.8-0.3h-5.4v-3.4h6c0.3,0,0.6-0.1,0.8-0.3
							c0.2-0.2,0.3-0.5,0.3-0.8c0-0.3-0.1-0.6-0.3-0.8C336.1,301.3,335.9,301.2,335.5,301.2z"/><path fill="#fff" d="M349.8,301.4c-0.5-0.6-1.5-0.5-1.9,0.2l-3.6,5.2l-3.6-5.2c-0.3-0.4-0.6-0.6-1.1-0.6
							c-0.3,0-0.6,0.1-0.9,0.4c-0.2,0.2-0.3,0.5-0.3,0.9c0,0.2,0.1,0.5,0.2,0.7l4.4,6.2v4.6c0,0.3,0.1,0.6,0.4,0.9
							c0.2,0.2,0.5,0.3,0.9,0.3c0.3,0,0.6-0.1,0.9-0.4c0.2-0.2,0.4-0.5,0.4-0.9v-4.6l4.4-6.2c0.1-0.2,0.2-0.5,0.2-0.7
							C350.2,302,350.1,301.7,349.8,301.4z"/></g><g><path fill="#6193f6" d="M137.7,425.3v-3.2h-18.8c-0.2,6.1-0.7,17.6-0.9,17.6h30.6C149.7,429.7,137.7,425.3,137.7,425.3z"/><path fill="#060405" d="M148.2,435.4c0.4,1.3,0.6,2.8,0.4,4.4H118c0.1,0,0.2-1.8,0.3-4.4H148.2z"/><path fill="#6193f6" d="M69.5,425.3v-3.2H50.7c-0.2,6.1-0.7,17.6-0.9,17.6h30.6C81.5,429.7,69.5,425.3,69.5,425.3z"/><path fill="#060405" d="M80,435.4c0.4,1.3,0.6,2.8,0.4,4.4H49.8c0.1,0,0.2-1.8,0.3-4.4H80z"/><g><path fill="#060405" d="M139.8,424.2l-7.4-141.7l-39.8-0.8l25.1,142.5C117.7,425.8,139.8,425.8,139.8,424.2z"/></g><g><path fill="#060405" d="M71.9,425.4l38.5-148.7l-43.6,3.7l-16.9,145C49.8,426.9,71.9,426.9,71.9,425.4z"/></g><g><path fill="#fff" d="M128.3,231.3l28.6,10.4l41.2-22.8c0,0,5.5,1.6,8.5-1.7c3-3.3-1.9-7.9-1.9-7.9s9-6.9,8.3-9.1
								c-0.6-2.3-12.6,6.7-12.6,6.7s0.6-3.2-0.4-4.2c-1.1-1.1-3.7,5.3-3.7,5.3l-40.4,9.3l-12.5-10.4L128.3,231.3z"/><path fill="#060405" d="M157,242.2l-0.2-0.1l-29.2-10.6l15.8-25.4l12.8,10.6l39.9-9.2c0.7-1.7,2.3-5.2,3.6-5.4
								c0.3-0.1,0.6,0,0.8,0.3c0.8,0.8,0.8,2.4,0.7,3.5c3.2-2.3,9.9-7,11.8-6.4c0.3,0.1,0.5,0.3,0.6,0.7c0.7,2.3-5.9,7.6-8.1,9.3
								c1.8,1.9,4,5.6,1.5,8.2c-2.9,3.1-7.7,2.1-8.8,1.9L157,242.2z M129.1,231l27.8,10.1l41.1-22.7l0.2,0.1c0.1,0,5.2,1.5,8-1.5
								c2.1-2.2-0.1-5.5-2.3-7.6l0.5-0.4c4.2-3.2,8.5-7.4,8.2-8.6c-0.8-0.4-6.2,2.8-11.8,7l-1.1,0.8l0.3-1.3
								c0.2-1.1,0.4-3.1-0.3-3.8c-0.4,0.1-1.8,2.5-2.8,5.1l-0.1,0.2l-40.9,9.4l-12.3-10.2L129.1,231z"/><path fill="#6193f6" d="M114.3,210.1l20.7,17.4c6.5-5.6,10.7-14,11.1-20.4c-7.5-6.4-13.1-11.8-22-17.4L114.3,210.1z"/><g><path fill="#6193f6" d="M60,193.4c3-7.5,22.2-12.3,22.2-12.3h26.7c0,0,19.5,7.3,26.5,21.1c4.7,9.4-0.9,84.3-0.9,84.3
											c0,7-70.2,6.8-70.2-0.2C64.2,286.4,50.7,216.8,60,193.4z"/><path fill="#060405" d="M140.2,222.8l-0.5-0.2l-0.5,0c0-1.3-2.5-15.2-10.6-22l0.6-0.8C138.1,207.3,140.4,222.3,140.2,222.8z"/><path fill="#fff" d="M88.3,147.5c0,0,2.5,22.3-6.1,33.7c0,0,8,13.8,19.9,13.4c11.9-0.3,15-8.7,14.1-9.8
												c-0.9-1.1-11.1-6.9-11.1-19.1S88.3,147.5,88.3,147.5z"/><path fill="#060405" d="M101.7,195.1c-11.8,0-19.6-13.1-20-13.7l-0.2-0.3l0.2-0.3c6.3-8.3,7-23.9,5.9-34.1
												c8.7,3.1,17.9,9.7,17.9,18.9c0,10.1,7.2,15.7,9.9,17.8c0.6,0.4,0.9,0.7,1.1,0.9c0.5,0.6,0.2,2-0.3,3
												c-1.6,3.5-6.2,7.4-14.2,7.6C102,195.1,101.9,195.1,101.7,195.1z M82.8,181.1c1.2,1.9,8.8,13.2,19.3,12.9
												c9-0.2,12.3-5.1,13.1-6.6c0.7-1.4,0.7-2.2,0.6-2.4c-0.1-0.1-0.5-0.4-0.9-0.8c-2.8-2.2-10.3-8-10.3-18.6
												c0-10.3-12.5-16.1-15.8-17.4C89.2,152.4,90.4,170.8,82.8,181.1z"/><path fill="#fff" d="M87.9,143.8c0.2,4.8,2.1,12.1,4.9,16.9v0c3,5.2,9.1,9.4,16.6,8.3c10.4-1.6,7.4-29.1,3.9-40.5
												c-0.7-2.3-1.5-3.9-2.3-4.6c-4.6-3.8-19.6,2.5-21.5,7.3C88.1,134.8,87.7,139.9,87.9,143.8z"/><path fill="#060405" d="M106.9,169.7c-6.9,0-12.1-4.5-14.6-8.7l-0.1-0.1c-2.8-4.8-4.7-12-4.9-17c-0.2-3.7,0.2-8.9,1.7-12.8
												c2-5,17.4-11.5,22.3-7.5c0.8,0.7,1.7,2.3,2.4,4.8c2.7,8.7,5.7,29.4,0.5,37.7c-1.2,1.9-2.8,3.1-4.8,3.4
												C108.6,169.7,107.8,169.7,106.9,169.7z M93.3,160.6c2.6,4.4,8.4,9.1,16,7.9c1.6-0.3,3-1.2,4.1-2.9
												c4.8-7.7,2.2-27.8-0.6-36.9c-0.9-3-1.7-4-2.1-4.3c-4.2-3.5-18.9,2.5-20.7,7.1c-1.4,3.7-1.8,8.8-1.6,12.4v0
												c0.2,4.8,2.1,11.9,4.9,16.7L93.3,160.6z"/><path fill="#060405" d="M76.4,123.6c-7,11.2,2.1,28.2,11.9,38.3l4.5-1.2v0c-2.8-4.8-4.8-12-4.9-16.9c0,0-0.2-5.1,1.8-4.5
											c2.1,0.7,2.4,4.3,2.4,4.3h2.6c0,0-0.2-13.7,2.3-14.2c1.5-0.3,10.1,1.3,17.4,2.1c3.4,0.4,10.6,1.2,13-9.5
											c3-13-6.2-14.6-12.8-14.1C95.2,109.2,79.9,118,76.4,123.6z"/><path fill="#060405" d="M101.4,262.5c0,1.6,1.3,2.8,2.8,2.8h66.1c1.6,0,2.8-1.3,2.8-2.8c0-1.6-1.3-2.8-2.8-2.8h-66.1
											C102.7,259.7,101.4,261,101.4,262.5z"/><path fill="#fff" d="M133,259.7h40.8c2.2,0,4-1.4,4.6-3.5l8.3-31.8c0.8-3-1.5-5.9-4.6-5.9h-40.8c-2.1,0-4,1.5-4.6,3.5
												l-8.3,31.8C127.7,256.8,130,259.7,133,259.7z"/><path fill="#060405" d="M173.9,260.2H133c-1.6,0-3.1-0.7-4.1-2c-1-1.3-1.3-2.9-0.9-4.5l8.3-31.8c0.6-2.3,2.7-3.9,5-3.9h40.8
												c3.4,0,5.9,3.3,5.1,6.6l-8.3,31.8C178.3,258.6,176.3,260.2,173.9,260.2z M141.4,218.9c-1.9,0-3.6,1.3-4.1,3.2l-8.3,31.8
												c-0.3,1.3-0.1,2.6,0.7,3.7c0.8,1,2,1.6,3.3,1.6h40.8c1.9,0,3.6-1.3,4.1-3.2l8.3-31.8c0.7-2.7-1.3-5.3-4.1-5.3H141.4z"/><path fill="#d2e4ff" d="M170.1,255.3c-0.3,1.4-0.4,3,0,4.4h3.8c2.2,0,4-1.4,4.6-3.5l8.3-31.8c0.8-3-1.5-5.9-4.6-5.9h-13.6
											c3.2,1.8,6.1,4,7.7,7.3c2.3,4.7,1.2,10.3-0.6,15.1C173.8,245.6,171.1,250.2,170.1,255.3z"/><path fill="#060405" d="M170.4,265.9h-66.1c-1.8,0-3.3-1.5-3.3-3.3s1.5-3.3,3.3-3.3h66.1c1.8,0,3.3,1.5,3.3,3.3
											S172.2,265.9,170.4,265.9z M104.3,260.2c-1.3,0-2.3,1.1-2.3,2.3c0,1.3,1.1,2.3,2.3,2.3h66.1c1.3,0,2.3-1.1,2.3-2.3
											c0-1.3-1.1-2.3-2.3-2.3H104.3z"/><path fill="#060405" d="M173.9,260.2H133c-1.6,0-3.1-0.7-4.1-2c-1-1.3-1.3-2.9-0.9-4.5l8.3-31.8c0.6-2.3,2.7-3.9,5.1-3.9
											h40.8c3.4,0,5.9,3.3,5.1,6.6l-8.3,31.8C178.3,258.6,176.3,260.2,173.9,260.2z M141.4,218.9c-1.9,0-3.6,1.3-4.1,3.2
											l-8.3,31.8c-0.3,1.3-0.1,2.6,0.7,3.7c0.8,1,2,1.6,3.3,1.6h40.8c1.9,0,3.6-1.3,4.1-3.2l8.3-31.8c0.7-2.7-1.3-5.3-4.1-5.3
											H141.4z"/><g><path fill="#d2e4ff" d="M155.8,239.5c-0.2,1.8,1.2,3.3,3,3.3c1.8,0,3.4-1.5,3.6-3.3c0.2-1.8-1.2-3.3-3-3.3
											C157.5,236.3,155.9,237.7,155.8,239.5z"/></g><g><path fill="#fff" d="M46.8,265.9c4.6,6.8,63.1,5.6,63.1,5.6s15.9,6.5,21.2-1.4c5.3-7.9-8.8-7.6-8.8-7.6s3-1.2,1.1-4
										c-1.9-2.8-12.5,1.9-12.5,1.9l-40.7-13.3l1.9-20.2l-25.9,0.8C46.3,227.6,41.4,257.7,46.8,265.9z"/><path fill="#060405" d="M122,274.5c-5.6,0-11.3-2.2-12.2-2.5c-3.6,0.1-58.8,1.1-63.4-5.8l0,0c-5.5-8.3-0.8-37.4-0.6-38.6
										l0.1-0.4l26.9-0.8l-1.9,20.4l40.1,13.1c1.7-0.8,10.9-4.6,12.9-1.7c0.7,1,0.9,1.9,0.6,2.8c-0.1,0.4-0.3,0.7-0.6,1
										c2.5,0.1,7.2,0.7,8.5,3.3c0.7,1.4,0.4,3.1-0.9,5C129.4,273.6,125.8,274.5,122,274.5z M110,271L110,271
										c0.3,0.1,15.7,6.3,20.7-1.1c1.1-1.6,1.4-3,0.8-4c-1.3-2.4-7.1-2.9-9.2-2.8l-2.8,0l2.6-1c0,0,1.1-0.4,1.4-1.3
										c0.2-0.5,0-1.2-0.5-1.9c-1.2-1.8-7.9,0.3-11.9,2.1L111,261l-0.2-0.1l-41-13.5l1.9-20.1l-24.9,0.7c-0.6,3.6-4.4,30,0.5,37.5
										l0,0c3.6,5.4,46.4,5.7,62.6,5.4L110,271z"/></g><g><path fill="#6193f6" d="M62.5,190.1c0,0-13.8,7.6-17.3,37.2c0.2,1.8,28.4,4,28.2,2.2C73.3,229.4,80.7,197.1,62.5,190.1z"/></g><g><path fill="#060405" d="M68.8,230.6c-7.7,0-23.9-1.3-24.1-3.3l1-0.1c0-0.1,0-0.1-0.1-0.1c1.4,1.5,25.1,3.4,27.2,2.2
										c0.2-1.1,4.3-20.8-1.4-30.9l0.9-0.5c6,10.5,1.8,30.2,1.5,31.6c0,0.2-0.1,0.6-0.7,0.8c-0.3,0.1-0.7,0.2-1.3,0.2
										C71.1,230.6,70.1,230.6,68.8,230.6z"/></g><g><ellipse cx="101.1" cy="141.7" fill="#060405" rx="1.4" ry="1.9"/></g><g><ellipse cx="111.8" cy="140.8" fill="#060405" rx="1.4" ry="1.9"/></g><g><path fill="#060405" d="M108.2,150.5l0.1-1c0.4,0,0.8-0.6,0.4-1.4c-0.4-0.8-2.4-2.9-2.4-6.7h1c0,4.8,3.2,5.8,2.5,8
										C109.5,150.1,108.8,150.5,108.2,150.5z"/></g><g><path fill="#060405" d="M104.8,158.8c-0.6,0-1.2-0.1-1.7-0.3c-1-0.5-1.9-1.4-2.2-2.4l0.9-0.3c0.3,0.8,0.9,1.5,1.7,1.8
										c0.8,0.3,1.7,0.4,2.5,0l0.4,0.9C105.9,158.7,105.4,158.8,104.8,158.8z"/></g></g></g></g><g><path fill="#060405" d="M421.2,136.3v33.4c0,1.9,1.6,3.5,3.5,3.5h7.9v6.9c0,1.3,1.5,2.1,2.6,1.2l10.4-8.2H509
						c1.9,0,3.5-1.6,3.5-3.5v-33.4c0-1.9-1.6-3.5-3.5-3.5h-84.3C422.8,132.8,421.2,134.4,421.2,136.3z"/></g><g><path fill="#fff" d="M453.1,155.4l-3.9-1.5l4-1.6c0.6-0.4,0.9-0.9,0.9-1.6c0-0.3-0.1-0.6-0.3-1c-0.4-0.6-1-0.9-1.6-0.9
						c-0.4,0-0.7,0.1-0.9,0.2c-0.1,0-0.2,0.1-3.4,2.7c0.6-4,0.6-4.1,0.6-4.2c0-0.5-0.2-0.9-0.6-1.3c-0.7-0.7-1.9-0.7-2.6,0
						c-0.4,0.4-0.6,0.8-0.6,1.3c0,0.1,0,0.2,0.6,4.2c-3.1-2.5-3.3-2.6-3.3-2.6c-0.9-0.5-1.9-0.2-2.5,0.7c-0.2,0.3-0.2,0.6-0.2,1
						c0,0.7,0.3,1.2,0.9,1.6l3.9,1.5l-3.9,1.5c-0.6,0.3-0.9,0.8-0.9,1.5c0,0.4,0.1,0.7,0.3,1c0.4,0.6,1,0.9,1.7,0.9
						c0.3,0,0.6-0.1,0.8-0.2c0.1,0,0.2-0.1,3.4-2.7c-0.6,4-0.6,4.1-0.6,4.2c0,0.5,0.2,0.9,0.6,1.3c0.4,0.4,0.8,0.5,1.3,0.5
						c0.5,0,0.9-0.2,1.3-0.5c0.4-0.4,0.6-0.8,0.6-1.3c0-0.1,0-0.2-0.6-4.2c3.1,2.5,3.3,2.6,3.4,2.7c0.3,0.1,0.5,0.2,0.8,0.2
						c0.7,0,1.3-0.3,1.7-1c0.2-0.3,0.2-0.6,0.2-0.9C454,156.3,453.7,155.8,453.1,155.4z"/></g><g><path fill="#fff" d="M473.3,155.4l-3.9-1.5l4-1.6c0.6-0.4,0.9-0.9,0.9-1.6c0-0.3-0.1-0.6-0.3-1c-0.4-0.6-1-0.9-1.6-0.9
						c-0.4,0-0.7,0.1-0.9,0.2c-0.1,0-0.2,0.1-3.4,2.7c0.6-4,0.6-4.1,0.6-4.2c0-0.5-0.2-0.9-0.6-1.3c-0.7-0.7-1.9-0.7-2.6,0
						c-0.4,0.4-0.6,0.8-0.6,1.3c0,0.1,0,0.2,0.6,4.2c-3.1-2.5-3.3-2.6-3.3-2.6c-0.9-0.5-1.9-0.2-2.5,0.7c-0.2,0.3-0.2,0.6-0.2,1
						c0,0.7,0.3,1.2,0.9,1.6l3.9,1.5l-3.9,1.5c-0.6,0.3-0.9,0.8-0.9,1.5c0,0.4,0.1,0.7,0.3,1c0.4,0.6,1,0.9,1.7,0.9
						c0.3,0,0.6-0.1,0.8-0.2c0.1,0,0.2-0.1,3.4-2.7c-0.6,4-0.6,4.1-0.6,4.2c0,0.5,0.2,0.9,0.6,1.3c0.4,0.4,0.8,0.5,1.3,0.5
						c0.5,0,0.9-0.2,1.3-0.5c0.4-0.4,0.6-0.8,0.6-1.3c0-0.1,0-0.2-0.6-4.2c3.1,2.5,3.3,2.6,3.4,2.7c0.3,0.1,0.5,0.2,0.8,0.2
						c0.7,0,1.3-0.3,1.7-1c0.2-0.3,0.2-0.6,0.2-0.9C474.2,156.3,473.9,155.8,473.3,155.4z"/></g><g><path fill="#fff" d="M493.5,155.4l-3.9-1.5l4-1.6c0.6-0.4,0.9-0.9,0.9-1.6c0-0.3-0.1-0.6-0.3-1c-0.4-0.6-1-0.9-1.6-0.9
						c-0.4,0-0.7,0.1-0.9,0.2c-0.1,0-0.2,0.1-3.4,2.7c0.6-4,0.6-4.1,0.6-4.2c0-0.5-0.2-0.9-0.6-1.3c-0.7-0.7-1.9-0.7-2.6,0
						c-0.4,0.4-0.6,0.8-0.6,1.3c0,0.1,0,0.2,0.6,4.2c-3.1-2.5-3.3-2.6-3.3-2.6c-0.9-0.5-1.9-0.2-2.5,0.7c-0.2,0.3-0.2,0.6-0.2,1
						c0,0.7,0.3,1.2,0.9,1.6l3.9,1.5l-3.9,1.5c-0.6,0.3-0.9,0.8-0.9,1.5c0,0.4,0.1,0.7,0.3,1c0.4,0.6,1,0.9,1.7,0.9
						c0.3,0,0.6-0.1,0.8-0.2c0.1,0,0.2-0.1,3.4-2.7c-0.6,4-0.6,4.1-0.6,4.2c0,0.5,0.2,0.9,0.6,1.3c0.4,0.4,0.8,0.5,1.3,0.5
						c0.5,0,0.9-0.2,1.3-0.5c0.4-0.4,0.6-0.8,0.6-1.3c0-0.1,0-0.2-0.6-4.2c3.1,2.5,3.3,2.6,3.4,2.7c0.3,0.1,0.5,0.2,0.8,0.2
						c0.7,0,1.3-0.3,1.7-1c0.2-0.3,0.2-0.6,0.2-0.9C494.5,156.3,494.2,155.8,493.5,155.4z"/></g><g><path fill="#bdd6ff" d="M130.9,101.1c6.1,1.9,12.3,0.9,17.3-2.3l-3.1-4.2l0.7-0.5l0,0l0.7-0.5l3.1,4.2c3.2-2.5,5.7-5.9,7-10
						c3.5-10.8-2.5-22.4-13.3-25.8c-10.8-3.5-22.4,2.5-25.8,13.3C114.1,86,120.1,97.6,130.9,101.1z"/><polygon fill="#bdd6ff" points="158.2 106.6 156.9 107.5 146.2 93 147.4 92.1"/></g><g><path fill="#fff" d="M145.3,88.9h-17.6c-1.1,0-2.1-0.9-2.1-2.1V75.2c0-1.1,0.9-2.1,2.1-2.1h17.6c1.1,0,2.1,0.9,2.1,2.1v11.7
							C147.3,88,146.4,88.9,145.3,88.9z M127.7,74.7c-0.3,0-0.6,0.2-0.6,0.6v11.7c0,0.3,0.3,0.6,0.6,0.6h17.6c0.3,0,0.6-0.3,0.6-0.6
							V75.2c0-0.3-0.3-0.6-0.6-0.6H127.7z"/><path fill="#fff" d="M136.5,83.1c-0.5,0-0.9-0.2-1.3-0.5l-8.8-7.7l1-1.1l8.8,7.7c0.2,0.2,0.5,0.2,0.6,0l8.8-7.7l1,1.1
							l-8.8,7.7C137.4,82.9,136.9,83.1,136.5,83.1z"/></g><g><path fill="#c6e2fa" d="M299.4,403.5h-31.6c-0.2,0-0.4-0.2-0.4-0.4s0.2-0.4,0.4-0.4h31.6c0.2,0,0.4,0.2,0.4,0.4
					S299.6,403.5,299.4,403.5z"/><path fill="#c6e2fa" d="M299.4,419.2h-31.6c-0.2,0-0.4-0.2-0.4-0.4s0.2-0.4,0.4-0.4h31.6c0.2,0,0.4,0.2,0.4,0.4
					S299.6,419.2,299.4,419.2z"/><path fill="#c6e2fa" d="M293.7,411.4h-44.6c-0.2,0-0.4-0.2-0.4-0.4s0.2-0.4,0.4-0.4h44.6c0.2,0,0.4,0.2,0.4,0.4
					S293.9,411.4,293.7,411.4z"/><path fill="#c6e2fa" d="M274.4,403.5c-0.2,0-0.4-0.2-0.4-0.4v-6.6c0-0.2,0.2-0.4,0.4-0.4s0.4,0.2,0.4,0.4v6.6
					C274.7,403.4,274.6,403.5,274.4,403.5z"/><path fill="#c6e2fa" d="M285.5,411.4c-0.2,0-0.4-0.2-0.4-0.4v-7.8c0-0.2,0.2-0.4,0.4-0.4s0.4,0.2,0.4,0.4v7.8
					C285.8,411.2,285.7,411.4,285.5,411.4z"/><path fill="#c6e2fa" d="M277,418.9c-0.2,0-0.4-0.2-0.4-0.4V411c0-0.2,0.2-0.4,0.4-0.4s0.4,0.2,0.4,0.4v7.6
					C277.4,418.8,277.2,418.9,277,418.9z"/></g><g><path fill="#c6e2fa" d="M507.5,107.7h-31.6c-0.2,0-0.4-0.2-0.4-0.4s0.2-0.4,0.4-0.4h31.6c0.2,0,0.4,0.2,0.4,0.4
					S507.7,107.7,507.5,107.7z"/><path fill="#c6e2fa" d="M507.5,123.3h-31.6c-0.2,0-0.4-0.2-0.4-0.4s0.2-0.4,0.4-0.4h31.6c0.2,0,0.4,0.2,0.4,0.4
					S507.7,123.3,507.5,123.3z"/><path fill="#c6e2fa" d="M501.8,115.5h-44.6c-0.2,0-0.4-0.2-0.4-0.4s0.2-0.4,0.4-0.4h44.6c0.2,0,0.4,0.2,0.4,0.4
					S502,115.5,501.8,115.5z"/><path fill="#c6e2fa" d="M482.4,107.7c-0.2,0-0.4-0.2-0.4-0.4v-6.6c0-0.2,0.2-0.4,0.4-0.4s0.4,0.2,0.4,0.4v6.6
					C482.8,107.5,482.6,107.7,482.4,107.7z"/><path fill="#c6e2fa" d="M493.5,115.5c-0.2,0-0.4-0.2-0.4-0.4v-7.8c0-0.2,0.2-0.4,0.4-0.4s0.4,0.2,0.4,0.4v7.8
					C493.9,115.3,493.7,115.5,493.5,115.5z"/><path fill="#c6e2fa" d="M485.1,123.1c-0.2,0-0.4-0.2-0.4-0.4v-7.6c0-0.2,0.2-0.4,0.4-0.4s0.4,0.2,0.4,0.4v7.6
					C485.5,122.9,485.3,123.1,485.1,123.1z"/></g></g></svg>