<?xml version="1.0" encoding="UTF-8"?>
<svg id="Layer_2" data-name="Layer 2" xmlns="http://www.w3.org/2000/svg" xmlns:xlink="http://www.w3.org/1999/xlink" viewBox="0 0 262.86 197.4">
  <defs>
    <style>
      .cls-1 {
        fill: url(#linear-gradient);
      }
    </style>
    <linearGradient id="linear-gradient" x1="74.31" y1="62.11" x2="214.48" y2="175.86" gradientUnits="userSpaceOnUse">
      <stop offset=".12" stop-color="#17488c"/>
      <stop offset=".61" stop-color="#4490ce"/>
    </linearGradient>
  </defs>
  <g id="Layer_1-2" data-name="Layer 1">
    <path class="cls-1" d="M216.77,55.9c0,9.18,0,18.36,.01,27.54,0,1.19,.1,2.39,.27,3.57,.26,1.72,1.29,2.88,3.02,2.96,3.81,.18,7.63,.2,11.45,.19,6.73-.02,13.48-.49,20.17,.69,4.83,.85,8.15,3.69,10.18,7.98,2.53,5.33-.09,12.43-5.39,15.14-2.89,1.48-5.92,2.3-9.22,2.29-10.32-.04-20.65,.09-30.97,.04-10.14-.05-18.79-3.59-25.38-11.48-3.24-3.88-5.29-8.47-5.37-13.49-.26-14.67-.21-29.35-.25-44.03-.01-6.6,.17-13.19,.08-19.79-.09-6.4,3.06-10.52,8.64-13.11,6.51-3.02,14.24-1.66,19.05,3.36,2.34,2.45,3.24,5.48,3.43,8.76,.18,3.15,.28,6.3,.3,9.46,.04,6.64,.01,13.29,.01,19.93-.02,0-.03,0-.05,0Zm-46.05,28.6c0-5.78,0-11.56,0-17.35,0-.67-.11-1.33-.14-2-.22-4.73-2.71-8.15-6.32-10.9-3.33-2.53-7.24-2.87-11.2-2.67-5.9,.3-13.93,4.9-13.63,13.78,.27,8.31,.14,16.63-.03,24.95-.07,3.32-.66,6.63-1.14,9.92-.21,1.46-1.28,2.37-2.75,2.56-1.84,.23-3.71,.4-5.56,.41-7.45,.07-14.91,.04-22.36,.1-3.23,.02-6.26,.85-8.92,2.72-4.22,2.96-6.74,6.77-5.63,12.19,.93,4.54,3.81,7.5,7.9,9.37,3.52,1.61,7.32,1.79,11.1,1.82,7.31,.05,14.63,.09,21.93-.07,3.95-.08,7.91-.36,11.83-.9,13.54-1.84,24.52-12.33,24.82-27.29,.11-5.54,.02-11.09,.02-16.63h.1Zm-93.11-26.15c0-5.93,0-11.85,0-17.78,0-.33,0-.67-.02-1-.21-3.4-1.24-6.4-3.75-8.88-4.39-4.33-9.63-5.61-15.54-4.6-6.35,1.09-10.77,5.42-11.6,11.26-.23,1.65-.39,3.33-.41,4.99-.05,8.08-.03,16.15-.07,24.23,0,1.91-.09,3.82-.24,5.73-.29,3.73-1.44,4.76-5.16,4.77-7.6,.02-15.19-.02-22.79,.09-4.24,.06-8.4,.69-12.12,2.93C.05,83.62-1.81,91.3,1.95,96.78c2.97,4.34,7.28,6.46,12.45,6.51,10.61,.11,21.21,.04,31.82,.02,4.66,0,9.28-.29,13.59-2.32,10.51-4.94,17.31-12.63,17.78-24.73,.23-5.96,.04-11.94,.04-17.92h0Zm14.83-13.5c0,10.37-.01,20.74,0,31.11,0,3.02,.59,5.91,2.58,8.31,4.36,5.24,10.02,7.08,16.65,6.19,6.27-.84,11.5-6.21,12.12-12.5,.26-2.66,.4-5.34,.41-8.01,.05-10.9,.07-21.79,.03-32.69-.02-7.55-.14-15.1-.25-22.65-.05-3.26-.56-6.37-2.96-8.88C115.55-.02,108.3-1.57,101.02,1.66c-5.43,2.41-8.64,6.39-8.6,12.65,.07,10.18,.02,20.36,.02,30.54h.01ZM58.49,195.7c3.36,1.74,6.99,1.86,10.63,1.6,6.52-.46,12.17-4.2,13.53-11.62,1.32-7.2-1.2-15.23-9.47-17.82-5.66-1.77-11.21-1.82-16.24,1.98-.38,.28-.87,.42-1.46,.69-.03-.64-.07-1.02-.07-1.39,0-3.01,.11-6.03-.01-9.03-.05-1.35-.32-2.78-.88-4.01-.92-2.03-3.47-2.85-6.38-2.36-2.58,.43-4.04,1.79-4.4,4.2-.19,1.27-.28,2.57-.3,3.85-.07,4.64-.11,9.27-.12,13.91,0,5.35,0,10.7,.08,16.06,.03,2.02,.97,3.72,2.9,4.39,2.44,.85,4.98,1.02,7.26-.6,.4-.28,.73-.81,.86-1.28,.43-1.65,.97-3.31,1.08-5,.15-2.37-.11-4.77-.09-7.15,.03-3.63,1.73-5.92,5.12-7.11,2.98-1.04,7.07-.04,8.94,2.28,2.11,2.62,2.25,5.6,.84,8.49-1.35,2.77-3.91,3.96-6.97,3.93-1.13-.01-2.25-.22-3.35-.33-.79,1.95-1.54,3.83-2.33,5.79,.42,.26,.61,.41,.82,.51ZM163.55,36.77c5.69-3.2,9.53-11.1,3.77-18.17-4.39-5.39-12.3-7.31-19.11-4.49-5.82,2.41-8.51,6.41-8.37,12.43,.11,4.62,2.03,8.11,6.18,10.38,2.72,1.49,5.56,2.21,8.64,2.11,3.19,.15,6.15-.73,8.89-2.27Zm22.77,159.97c2.14-.09,3.76-1.02,4.62-3.04,.98-2.29,.79-4.69,.49-7.06-.46-3.65-2.44-6.31-5.96-7.34-2.58-.76-5.32-1.13-8.02-1.25-4.99-.23-9.95,.13-14.53,2.48-2.88,1.48-5.04,3.63-5.17,7.03-.12,3.27,1.08,6.11,3.92,8,4.21,2.79,12.4,2.36,16.36-.79,.44-.35,.93-.62,1.49-.99,1.6,2.7,4.09,3.09,6.78,2.97Zm-7.32-9.05c-1.57,2.38-5.3,3.21-7.81,1.83-.88-.48-1.74-1.15-1.44-2.21,.25-.87,.81-1.92,1.54-2.35,2.5-1.45,5.3-1.24,8.16-1.07,.68,1.49,.28,2.71-.44,3.8Zm-68.68,6.55c2,2.74,4.81,2.77,7.74,2.25,1.57-.28,2.79-1.29,3.28-2.73,2.05-6.08,.78-13.28-7.5-14.97-3.46-.7-7.11-.66-10.67-.65-3.35,0-6.65,.69-9.69,2.23-3.1,1.57-5.18,3.95-5.28,7.58-.1,3.55,1.41,6.26,4.59,7.97,3.14,1.69,6.52,1.61,9.92,1.31,2.3-.2,4.33-1.07,6-2.73,.28-.28,.7-.44,1.03-.63,.27,.17,.48,.24,.59,.38Zm-2.75-4.89c-1.84,.97-3.86,1.32-5.79,.36-.74-.37-1.6-1.3-1.66-2.03-.06-.81,.52-2.02,1.2-2.47,1.06-.71,2.42-1.12,3.71-1.29,1.57-.21,3.2-.05,4.72-.05,.79,2.36,.02,4.33-2.17,5.48Zm105.69-52.18c0,2.96-.04,5.92,.01,8.88,.05,2.53,2.53,4.18,4.84,3.16,6.64-2.92,13.26-5.89,19.87-8.88,1.33-.6,2.7-1.47,2.68-3.05-.02-1.59-1.42-2.36-2.76-2.98-4.17-1.9-8.33-3.82-12.5-5.73-2.34-1.07-4.72-2.08-7.04-3.2-2.01-.97-5.36,.6-5.11,3.35,.26,2.79,.06,5.63,.06,8.45-.02,0-.04,0-.06,0Zm-70.36,49.1s.07-.07,.1-.1c1.87-1.98,3.78-3.93,5.61-5.94,2.02-2.23,4.14-4.39,5.9-6.81,1.78-2.45,.88-4.84-2.12-5.36-2.92-.51-5.95-.37-9.12-.52,.24,4.69-2.39,7.64-5.15,10.56-2.99,3.15-5.95,6.34-8.83,9.59-1.16,1.31-2.24,2.74-3.1,4.27-.89,1.58-.42,3.03,1.17,3.9,.89,.49,1.96,.82,2.97,.88,2.76,.16,5.54,.13,8.31,.18,.65,.01,1.29,0,2.12,0-1.78-5.18-1.4-6.9,2.16-10.64Zm73.18-11.58c1.43,0,2.87,0,4.27-.23,2.19-.36,3.61-2,3.57-3.83-.05-1.85-1.34-3.18-3.68-3.52-3.61-.53-7.03-.09-10.01,2.29-.43,.34-.98,.53-1.53,.83-.44-.36-.82-.63-1.16-.95-2.13-2.01-4.65-1.86-7.11-1.02-2.22,.76-3.17,2.71-3.26,4.95-.13,3.05-.1,6.11-.14,9.16,0,.64,0,1.28,0,1.63,1.85-1.11,3.58-2.57,5.57-3.22,2.01-.66,4.29-.51,6.49-.73,.98-4.12,2.55-5.33,6.99-5.35Zm-25,1.23c-.96-5.04-4.12-7.79-9.06-8.68-4.52-.81-9.06-.69-13.53,.2-2.27,.45-4.57,1.09-6.62,2.11-2.27,1.13-2.05,3.94,.24,5.11,.74,.38,1.64,.64,2.47,.63,3.48-.03,6.97-.31,10.45-.24,6.29,.12,12.5,.6,17.02,6.29-.31-1.81-.61-3.62-.95-5.42Zm-68.57,5.56c-.34-1.77-.67-3.55-1.01-5.32-.9-4.75-3.74-7.59-8.42-8.65-5.82-1.32-11.59-.77-17.32,.5-1.28,.29-2.58,.78-3.7,1.46-1.93,1.16-1.89,3.77,.02,4.98,.66,.42,1.49,.7,2.26,.78,1.28,.13,2.58,.03,3.86,.05,4.57,.08,9.17-.06,13.71,.35,3.18,.29,6.24,1.49,8.56,3.94,.61,.64,1.12,1.38,1.67,2.07,.12-.05,.24-.11,.36-.16Zm77.51,3.35c-2.69,1.96-3.21,4.71-2.58,7.78,.46,2.23,1.9,3.65,4.15,3.95,1.07,.14,2.19,.08,3.26-.07,2.31-.31,3.88-1.68,4.03-3.95,.2-3.03,.05-6.08,.05-9.24-3.34-.94-6.26-.41-8.92,1.52Zm-70.15-16.81c-.59,0-1.2,.3-1.76,.54-1.64,.72-2.39,1.8-2.27,3.27,.13,1.6,1.06,2.64,2.55,3.11,2.62,.81,5.28,.82,7.87-.05,2.7-.92,4.57-3.99,4.41-6.9-3.61,0-7.21-.03-10.81,.03Zm18.18,28.98c1.88-.27,3.8-.37,5.61-.87,1.7-.48,2.66-1.99,2.57-3.26-.13-1.71-1.28-3.15-3.03-3.58-2.35-.57-4.73-.61-7.08,0-1.61,.42-2.81,1.43-3.5,2.95-1.05,2.33,.3,4.46,2.82,4.5,.86,.02,1.72,0,2.58,0,.01,.08,.02,.16,.03,.25Zm-79.57-16.59c-2.54-1.22-5.1-2.39-7.67-3.52-1.57-.69-2.35-.16-2.37,1.59-.03,2.24-.03,4.49,0,6.73,.03,1.74,.78,2.22,2.41,1.51,2.58-1.12,5.15-2.28,7.69-3.5,.54-.26,.93-.81,1.6-1.42-.7-.6-1.11-1.13-1.66-1.4Z"/>
  </g>
</svg>