<svg xmlns="http://www.w3.org/2000/svg" version="1.1" xmlns:xlink="http://www.w3.org/1999/xlink" width="32" height="32" x="0" y="0" viewBox="0 0 64 64" style="enable-background:new 0 0 512 512" xml:space="preserve" class=""><g><path d="m57.02 40.81-9.37-12.56a2.234 2.234 0 0 0-3.09-.47l-2.59 1.86c-.48.35-.8.86-.89 1.45-.05.34-.02.67.09.99-.99.29-2.59.63-4.42.53-1.64-.09-3.23.04-4.75.39a17 17 0 0 0-4.75-.39c-1.83.1-3.43-.24-4.42-.53.1-.32.14-.65.09-.99-.09-.59-.41-1.1-.89-1.45l-2.59-1.86c-.98-.71-2.37-.5-3.09.47L6.98 40.81a2.185 2.185 0 0 0 .48 3.09l2.59 1.86a2.237 2.237 0 0 0 3.09-.47l.11-.14c.79 1.45 1.86 2.98 3.2 4.59-.31.41-.49.84-.53 1.28-.09 1.22.39 2.46 1.3 3.31.72.67 1.64 1.04 2.59 1.04.08 0 .17-.01.26-.02.18.83.59 1.62 1.23 2.21.74.7 1.69 1.07 2.67 1.07h.04c.2.76.6 1.47 1.19 2.01.72.66 1.61 1 2.54 1 .17 0 .34-.01.52-.04.66-.09 1.38-.45 2.13-1.02 2.5.94 4.49 1.41 6.04 1.41.89 0 1.64-.15 2.26-.46 1.27-.62 1.77-1.73 2.06-2.68.38.04.74.07 1.08.07.87 0 1.61-.15 2.22-.44 1.35-.64 1.85-1.84 2.14-2.82.12-.39.14-.79.11-1.19h.18c.87 0 1.61-.15 2.22-.44 1.35-.64 1.85-1.85 2.14-2.82.53-1.82-.67-3.41-1.4-4.16.17-.54.54-1.39 1.2-2.08l.22.3a2.237 2.237 0 0 0 3.09.47l2.59-1.86c.48-.35.8-.86.89-1.45.09-.58-.06-1.16-.41-1.64zm-45.47 3.28c-.07.1-.22.12-.33.05l-2.59-1.86c-.06-.04-.08-.09-.08-.13 0-.03 0-.09.04-.14l9.37-12.56c.07-.1.22-.12.32-.05l2.59 1.86c.06.04.08.09.08.13 0 .05 0 .1-.04.14l-9.36 12.55zm8.68 9.2c-.06.02-.12.05-.17.06-.7.1-1.22-.26-1.46-.48-.47-.44-.73-1.09-.68-1.7.01-.17.49-.85 2.42-1.69.65-.29 1.42-.1 1.88.45.31.39.4.9.27 1.37-1.14.63-1.89 1.29-2.26 1.99zm3.99 3.33c-.77.11-1.3-.28-1.55-.51-.49-.46-.76-1.15-.71-1.79.01-.19.5-.89 2.53-1.79.22-.1.45-.14.68-.14.5 0 .99.22 1.32.63.52.64.47 1.57-.11 2.16-.84.84-1.62 1.37-2.16 1.45zm5.81 1.63c-.79.81-1.54 1.31-2.05 1.38-.52.07-1.03-.09-1.44-.47a2.16 2.16 0 0 1-.64-1.1c.6-.34 1.23-.83 1.89-1.49.26-.26.46-.56.62-.87.61-.2 1.3-.02 1.73.5.49.6.45 1.47-.11 2.03zm18.89-7.58c-.26.89-.56 1.33-1.08 1.58-.92.44-3.1.51-8.28-1.66-.51-.21-1.09.03-1.31.54-.21.51.03 1.09.54 1.31 2.13.89 3.93 1.48 5.44 1.79.11.32.13.61.05.88-.26.89-.57 1.33-1.08 1.58-.92.44-3.11.51-8.29-1.66-.51-.21-1.09.03-1.31.54-.21.51.03 1.09.54 1.31 1.76.74 3.29 1.26 4.63 1.6-.24.67-.52 1.05-.96 1.26-.74.36-2.36.49-5.87-.72.79-1.25.73-2.89-.25-4.08a3.608 3.608 0 0 0-2.87-1.31c-.07-.67-.33-1.32-.78-1.88a3.69 3.69 0 0 0-3.51-1.3 3.57 3.57 0 0 0-.76-1.79 3.602 3.602 0 0 0-4.23-1.01c-.59.26-1.1.52-1.55.79-1.5-1.81-2.66-3.54-3.39-5.09l7.11-9.54c1.07.36 3.16.92 5.67.78.18-.01.36 0 .54-.01h-.01c-1.83 1.05-3.71 1.78-5.48 2.42-.58.21-1.05.66-1.29 1.22-.23.55-.22 1.18.03 1.72 1.2 2.6 3.58 3.45 6.37 2.28 6.05-2.54 9.19-.02 12.51 2.64 2.19 1.75 4.44 3.56 7.43 3.56.15 0 .32-.02.47-.03.43.44 1.23 1.39.97 2.27zm-1.38-4.23h-.05c-2.3 0-4.12-1.46-6.19-3.12-3.29-2.64-7.39-5.92-14.53-2.92-1.83.77-3.03.36-3.79-1.27 0-.01-.03-.05 0-.11.01-.03.05-.09.13-.12 1.85-.67 3.83-1.44 5.8-2.57 2.24-1.29 4.92-1.89 7.74-1.73 2.51.14 4.6-.42 5.67-.78l7.12 9.55c-1.07.99-1.63 2.26-1.89 3.06zm7.83-4.16-2.59 1.86c-.1.07-.25.05-.32-.05l-9.37-12.56s-.04-.09-.04-.14c0-.04.03-.09.08-.13l2.59-1.86s.09-.04.14-.04c.07 0 .14.03.19.09l9.37 12.56c.04.05.04.11.04.14 0 .04-.02.09-.08.13zM28.23 14.78c.73 0 1.47-.28 2.02-.84a2.845 2.845 0 0 0 0-4.04 2.88 2.88 0 0 0-4.05 0 2.845 2.845 0 0 0 0 4.04c.56.56 1.29.84 2.02.84zm-.61-3.47c.17-.17.39-.25.61-.25a.855.855 0 0 1 .86.86c0 .23-.09.45-.25.61a.87.87 0 0 1-1.23 0c-.16-.16-.25-.38-.25-.61s.09-.45.25-.61zM33.75 17.42a2.845 2.845 0 0 0 0 4.04 2.848 2.848 0 0 0 4.04 0 2.845 2.845 0 0 0 0-4.04 2.88 2.88 0 0 0-4.05 0zm2.64 2.63a.87.87 0 0 1-1.23 0c-.16-.16-.25-.38-.25-.61s.09-.45.25-.61a.87.87 0 0 1 1.23 0c.16.16.25.38.25.61s-.09.45-.25.61zM26.34 21.33c.2.2.45.29.71.29s.51-.1.71-.29l9.91-9.89a.996.996 0 1 0-1.41-1.41l-9.91 9.89a.996.996 0 0 0 0 1.41z" fill="#4381F8" opacity="1" data-original="#000000" class=""></path><path d="M19 19.9c.34 1.05 1.31 1.58 2.17 2.05.47.26.95.52 1.14.78s.29.81.39 1.34c.18.95.38 2.03 1.26 2.67.87.64 1.96.5 2.92.39.54-.07 1.1-.13 1.42-.03.29.09.7.48 1.06.83.72.67 1.53 1.44 2.65 1.44s1.93-.77 2.65-1.44c.36-.34.78-.73 1.06-.83.32-.1.88-.04 1.42.03.96.12 2.05.25 2.92-.39.88-.64 1.08-1.72 1.26-2.67.1-.53.2-1.08.39-1.34.18-.25.67-.52 1.14-.78.86-.47 1.83-1 2.17-2.05.33-1.01-.13-1.99-.54-2.86-.24-.5-.48-1.02-.48-1.37s.24-.87.48-1.37c.41-.86.87-1.84.54-2.86-.34-1.05-1.31-1.58-2.17-2.05-.47-.26-.95-.52-1.14-.78s-.29-.81-.39-1.34c-.18-.95-.38-2.03-1.26-2.67-.87-.64-1.96-.5-2.92-.39-.54.07-1.1.13-1.42.03-.29-.09-.7-.48-1.06-.83-.72-.67-1.53-1.44-2.65-1.44s-1.93.77-2.65 1.44c-.36.34-.78.73-1.06.83-.32.1-.88.04-1.42-.03-.96-.12-2.05-.25-2.92.39-.88.64-1.08 1.72-1.26 2.67-.1.53-.2 1.08-.39 1.34-.18.25-.67.52-1.14.78-.86.47-1.83 1-2.17 2.05-.33 1.01.13 1.99.54 2.86.24.5.48 1.02.48 1.37s-.24.87-.48 1.37c-.41.86-.87 1.84-.54 2.86zm2.35-6.44c-.23-.48-.53-1.13-.45-1.39.1-.29.72-.64 1.23-.91.66-.36 1.34-.74 1.79-1.36.45-.63.6-1.4.74-2.14.11-.56.24-1.26.48-1.43s.94-.08 1.5-.02c.72.09 1.54.19 2.28-.05.71-.23 1.27-.76 1.81-1.27.45-.42.95-.9 1.28-.9s.83.48 1.27.9c.54.51 1.1 1.04 1.82 1.27.74.24 1.56.14 2.28.05.56-.07 1.26-.15 1.5.02.24.18.37.87.48 1.43.14.75.29 1.52.74 2.14s1.13.99 1.79 1.36c.51.28 1.13.62 1.23.91.08.26-.22.91-.45 1.39-.31.67-.67 1.42-.67 2.22s.36 1.55.67 2.22c.23.48.53 1.13.45 1.39-.1.29-.72.64-1.23.91-.66.36-1.34.74-1.79 1.36-.45.63-.6 1.4-.74 2.14-.11.56-.24 1.26-.48 1.43-.23.17-.94.09-1.5.02-.72-.09-1.54-.19-2.28.05-.71.23-1.27.76-1.81 1.27-.45.42-.95.9-1.28.9s-.83-.48-1.27-.9c-.54-.51-1.1-1.04-1.82-1.27-.34-.11-.7-.15-1.06-.15-.41 0-.83.05-1.22.1-.56.07-1.26.16-1.5-.02s-.37-.87-.48-1.43c-.14-.75-.29-1.52-.74-2.14s-1.13-.99-1.79-1.36c-.51-.28-1.13-.62-1.23-.91-.08-.26.22-.91.45-1.39.31-.67.67-1.42.67-2.22s-.36-1.55-.67-2.22z" fill="#4381F8" opacity="1" data-original="#000000" class=""></path></g></svg>