<svg xmlns="http://www.w3.org/2000/svg" enable-background="new 0 0 2000 2000" viewBox="0 0 2000 2000"><rect width="2000" height="2000" fill="#fff" fill-rule="evenodd" clip-rule="evenodd" display="none"/><path fill="#d5f0ff" d="M163.1,648.7c-53.8,190,164.2,593.4,571.9,758.4c407.8,165,812.8,93.1,904.7-160.5    c37.4-103.8-73.1-221.7-48.4-336.4c18.1-108.6,342.1-312.2,230.1-551.5c-112-239.4-691.1-307.3-904.5-161    C703.4,344.3,630.3,382,578,401.7C502.3,433.2,216.8,458.9,163.1,648.7L163.1,648.7z" opacity=".5"/><polygon fill="#4b76ba" fill-rule="evenodd" points="1764.2 703.2 1767.2 750.5 1712.8 687.9 1755.5 683.6" clip-rule="evenodd"/><polygon fill="#dfe4f3" fill-rule="evenodd" points="1562.5 579.3 1821.7 641.4 1715.6 743.7" clip-rule="evenodd"/><path fill="#8dafdc" fill-rule="evenodd" d="M1762.4,698.5c4.2,20.3,0.7,31.8,4.9,52.1c4.4-10.9,12.2-45.7,16.6-72.6l-205.5-90.1     L1762.4,698.5z" clip-rule="evenodd"/><path fill="#8dafdc" d="M1774.4,764l-0.8-1.1l-0.8-1.1l-0.8-1l-0.8-1.1l-0.8-1l2.9-2.3l0.9,1.1l0.8,1l0.8,1.1     l0.8,1.1l0.8,1.1l0.3,0.5l-3,2.2L1774.4,764z M1354.9,1085.9l1.9,1.8l1.9,1.9l0.6,0.5l-2.5,2.7l-0.7-0.6l-1.9-1.8l-1.9-1.9     l-0.7-0.9l2.6-2.6L1354.9,1085.9z M1368.3,1098.5l1.9,1.7l1.9,1.6l0.7,0.5l-2.4,2.8l-0.6-0.5l-2-1.6l-1.9-1.7l-1.1-0.9l2.5-2.8     L1368.3,1098.5z M1381.9,1109.5l2,1.4l2,1.5l1.4,0.9l-2.1,3.1l-1.4-1l-2-1.5l-2.1-1.4l-0.6-0.4l2.2-2.9L1381.9,1109.5z      M1397.7,1120.2l2,1.2l2,1.2l0.7,0.4l-1.8,3.2l-0.8-0.5l-2-1.2l-2-1.3l-1.5-0.9l1.9-3.1L1397.7,1120.2z M1413.7,1129.1l2,1l1.9,1     l0.9,0.5l-1.5,3.4l-0.9-0.5l-2-1l-2-1.1l-1.7-0.8l1.7-3.2L1413.7,1129.1z M1429.6,1136.4l2.1,0.8l2,0.7l1.7,0.6l-1.3,3.5     l-1.6-0.7l-2-0.7l-2.1-0.8l-1.1-0.5l1.3-3.4L1429.6,1136.4z M1447.6,1142.5l2,0.6l2,0.5l1.1,0.3l-1,3.6l-1-0.4l-2-0.5l-2.1-0.5     l-2-0.6l1.1-3.6L1447.6,1142.5z M1463.3,1146.4l2,0.4l1.9,0.4l1.9,0.3l1.2,0.3l-0.7,3.6l-1.2-0.3l-1.9-0.3l-2-0.4l-2-0.4l-0.1,0     l0.8-3.6L1463.3,1146.4z M1482.5,1149.6l1.9,0.2l1.9,0.2l1.8,0.2l0.1,0l-0.3,3.7l-0.1,0l-1.9-0.2l-1.8-0.2l-1.9-0.3l-1.5-0.1     l0.4-3.6L1482.5,1149.6z M1499.2,1150.7l1.8,0.1l1.8,0.1l1.7,0l1.7-0.1l0.1,3.7l-1.7,0l-1.8-0.1l-1.9,0l-1.8-0.1l-0.1,0l0.1-3.7     L1499.2,1150.7z M1518.7,1150.4l1.8-0.1l1.7-0.2l1.8-0.1l0.6,0l0.3,3.5l-0.6,0.1l-1.8,0.1l-1.8,0.2l-1.7,0.1l-1.5,0.1l-0.3-3.7     L1518.7,1150.4z M1535.4,1148.8l1.6-0.3l1.6-0.2l1.6-0.2l1.6-0.3l0.8-0.1l0.7,3.6l-0.8,0.1l-1.6,0.3l-1.6,0.2l-1.7,0.3l-1.6,0.2     l-0.1,0.1l-0.5-3.7L1535.4,1148.8z M1553.6,1145.4l1.4-0.3l1.5-0.3l1.4-0.4l1.4-0.3l0.9-0.3l1,3.5l-0.9,0.3l-1.5,0.3l-1.4,0.4     l-1.5,0.3l-1.4,0.3l-0.6,0.1l-0.9-3.5L1553.6,1145.4z M1570.8,1140.4l1.3-0.5l1.1-0.4l1.2-0.5l1.1-0.4l1.5-0.6l0.2-0.1l1.3,3.4     l-0.2,0.1l-1.5,0.6l-1.3,0.5l-1.2,0.5l-1.2,0.4l-1.3,0.5l-0.3,0.1l-1.2-3.5L1570.8,1140.4z M1587.8,1133.3l1.5-0.7l1.5-0.7     l1.5-0.7l1.3-0.7l1.7,3.2l-1.4,0.8l-1.5,0.7l-1.5,0.7l-1.5,0.7l-0.6,0.2l-1.6-3.3L1587.8,1133.3z M1604.4,1124.6l1.6-0.9l1.4-0.9     l1.4-0.9l0.7-0.4l1.9,3l-0.7,0.5l-1.4,0.9l-1.6,0.9l-1.5,1l-1.1,0.6l-1.8-3.2L1604.4,1124.6z M1619,1115.5l1.5-1l1.4-1l1.5-1.1     l1.4-1l0,0l2.2,3l0,0l-1.5,1.1l-1.4,1l-1.5,1l-1.5,1l-0.2,0.2l-2-3L1619,1115.5z M1634.4,1104.1l1.4-1.1l1.4-1.1l1.3-1.1l0.6-0.5     l2.3,2.8l-0.5,0.5l-1.4,1.2l-1.4,1.1l-1.4,1.1l-1.1,0.8l-2.2-2.8L1634.4,1104.1z M1647.7,1092.6l1.3-1.1l1.3-1.2l1.3-1.2l1-0.9     l2.5,2.7l-1,0.9l-1.3,1.2l-1.4,1.2l-1.3,1.2l-0.5,0.4l-2.4-2.7L1647.7,1092.6z M1661.5,1079.3l1.3-1.3l1.2-1.2l1.2-1.2l0.3-0.3     l2.7,2.5l-0.3,0.3l-1.2,1.2l-1.3,1.3l-1.2,1.2l-1.2,1.2l-2.7-2.6L1661.5,1079.3z M1673.2,1066.5l1.1-1.4l1.2-1.3l1.1-1.3l0.7-1     l2.9,2.3l-0.8,1l-1.1,1.4l-1.2,1.3l-1.1,1.3l-0.6,0.7l-2.7-2.4L1673.2,1066.5z M1684.9,1051.7l0.3-0.4l-1.8,0.4l-1.9,0.5     l-1.9,0.5l-1.3,0.2l-0.7-3.6l1.2-0.2l1.9-0.5l1.9-0.4l1.9-0.5l0,0l0.8,3.3l0.5-0.7l1-1.3l1-1.4l0.4-0.6l3,2.1l-0.4,0.6l-1,1.4     l-1,1.4l-1,1.4l-1,1.3l-2.9-2.2L1684.9,1051.7z M1694.5,1037.9l0.9-1.4l0.9-1.4l1-1.4l0.8-1.4l0.3-0.4l3.2,1.9l-0.3,0.4l-0.9,1.4     l-1,1.4l-0.9,1.5l-0.9,1.4l-0.1,0.1l-3.1-2L1694.5,1037.9z M1704.5,1021.1l0.8-1.4l0.8-1.4l0.8-1.4l0.3-0.8l3.2,1.7l-0.3,0.8     l-0.8,1.4l-0.8,1.4l-0.8,1.5l-0.7,1.3l-3.2-1.7L1704.5,1021.1z M1712.1,1005.6l0.7-1.4l0.5-1.3l0.7-1.4l0.5-1.4l0.2-0.4l3.4,1.3     l-0.2,0.5l-0.7,1.4l-0.5,1.4l-0.7,1.4l-0.5,1.4l-0.3,0.6l-3.4-1.5L1712.1,1005.6z M1718.6,988.9l0.4-1.4l0.4-1.1l0.3-1.2l0.4-1.1     l0.3-1.2l0.2-0.5l3.5,1l-0.1,0.6l-0.4,1.1l-0.3,1.2l-0.4,1.1l-0.4,1.1l-0.4,1.4l-0.2,0.5l-3.4-1.2L1718.6,988.9z M1723,971.8     l0.3-1.1l0.2-1.1l0.2-1.2l0.2-1.1l0.2-1.1l0.2-1.2l0-0.3l3.6,0.4l-0.1,0.4l-0.2,1.1l-0.2,1.2l-0.2,1.2l-0.2,1.1l-0.3,1.2     l-0.2,1.2l0,0.1l-3.6-0.8L1723,971.8z M1725.1,953.2l0-1l-0.1-1.1l0.1-1.1l0.1-1.1l-0.1-1.1l0-1l0,0l3.6-0.1l0,0l0.1,1.1     l-0.1,1.1l0.1,1.1l-0.1,1.1l-0.1,1.2l-0.1,1.1l0,0.8l-3.6-0.1L1725.1,953.2z M1724.6,935.3l-0.2-2.1l-0.2-2l-0.2-2.1l-0.1-0.2     l3.6-0.5l0.1,0.3l0.3,2l0.2,2.1l0.2,2.1l0.1,0.8l-3.7,0.3L1724.6,935.3z M1721.6,917l-0.5-1.9l-0.5-1.9l-0.6-1.9l0,0l3.6-1.1     l0,0.1l0.6,1.9l0.5,2l0.6,2.1l0.3,1.1l-3.6,0.8L1721.6,917z M1716.5,899.8l-0.7-1.9l-0.7-1.9l-0.7-1.9l-0.1-0.2l3.4-1.3l0.1,0.2     l0.8,1.9l0.7,1.9l0.7,2l0.4,0.9l-3.5,1.3L1716.5,899.8z M1709.6,883.7l-0.8-1.7l-0.8-1.8l-0.9-1.7l-0.4-0.9l3.1-1.7l0.6,1     l0.8,1.7l0.9,1.8l0.8,1.8l0.2,0.4l-3.2,1.7L1709.6,883.7z M1700.5,867.3l-1-1.6l-1-1.5l-1-1.6l-0.5-0.5l3.1-2.2l0.5,0.6l1,1.6     l1,1.6l1.1,1.6l0.5,1l-3,1.9L1700.5,867.3z M1690.4,853.6l-0.8-0.9l-0.8-0.8l-0.8-0.9l-0.9-0.8l-0.9-0.8l-0.8-0.7l2.5-2.8     l0.8,0.8l1,0.8l0.8,0.9l0.8,0.9l0.9,0.8l0.8,0.9l0.2,0.2l-2.7,2.4L1690.4,853.6z M1677.1,842.1l-1-0.7l-1-0.7l-1-0.7l-1.1-0.6     l-1-0.7l-1-0.6l1.9-3.1l1.1,0.6l1,0.7l1.1,0.6l1,0.7l1,0.7l1.1,0.7l0,0.1L1677.1,842.1L1677.1,842.1z M1661.4,832.8l-1.1-0.5     l-1.1-0.5l-1.1-0.5l-1.1-0.5l-1.1-0.5l-0.8-0.3l1.4-3.4l0.9,0.4l1.1,0.5l1.1,0.5l1.1,0.5l1.2,0.6l1.1,0.5l0.2,0.1l-1.6,3.3     L1661.4,832.8z M1644.3,825.9l-1.1-0.4l-1.1-0.4l-1.2-0.3l-1.1-0.4l-1.2-0.3l-0.6-0.2l1-3.6l0.6,0.2l1.1,0.4l1.3,0.3l1.1,0.4     l1.2,0.4l1.1,0.4l0.5,0.2l-1.2,3.4L1644.3,825.9z M1626.9,821.3l-1.2-0.3l-1.2-0.2l-2.3-0.5l-1.9-0.3l0.6-3.6l2,0.3l2.3,0.5     l1.2,0.2l1.3,0.3l0.5,0.1l-0.8,3.6L1626.9,821.3z M1608.7,818.6l-2.2-0.2l-2.2-0.1l-2.1-0.1l0.1-3.7l2.2,0.1l2.2,0.1l2.3,0.2     l0.9,0l-0.3,3.7L1608.7,818.6z M1591.3,818.1l-1,0.1l-0.9,0.1l-0.9,0.1l-1,0.1l-0.9,0.1l-0.9,0.1l-0.8,0.1l-0.6,0.1l-0.5-3.7     l0.7,0l0.9-0.2l0.9-0.1l0.9-0.1l1-0.1l0.9-0.1l1-0.1l1-0.1l0.2,0l0.2,3.6L1591.3,818.1z M1573.7,821.1l-0.7,0.2l-0.6,0.2     l-0.6,0.1l-0.7,0.3l-0.7,0.3l-0.8,0.4l-1,0.5l-1.1,0.5l-1.7-3.2l1.1-0.5l1-0.5l1-0.5l0.8-0.4l0.8-0.3l0.7-0.2l0.6-0.2l0.7-0.2     l0.4-0.2l1.2,3.5L1573.7,821.1z M1557.1,830.3l-1.6,1.1l-1.6,1.2l-1.5,1l-2.2-3l1.5-1.1l1.7-1.1l1.6-1.1l1.4-1l2,3L1557.1,830.3z      M1543.7,840.3l-1.9,1.5l-1.8,1.6l-1.8,1.6l0,0l-2.4-2.8l0,0l1.9-1.6l1.8-1.6l1.8-1.5l0.2-0.1l2.3,2.8L1543.7,840.3z      M1530.3,852.4l-0.9,1l-0.8,1l-0.9,0.8l-0.9,1l-0.8,1l-0.5,0.5l-2.7-2.4l0.4-0.6l0.9-1l0.9-1l0.9-1l0.9-1l0.9-0.8l0.1-0.2     l2.6,2.6L1530.3,852.4z M1518.4,866l-0.7,1l-0.8,1.1l-0.8,1.1l-0.7,1l-0.8,1.1l-0.3,0.5l-3-2.1l0.3-0.5l0.8-1.1l0.7-1.1l0.8-1.1     l0.8-1.1l0.8-1.1l0-0.1l2.9,2.3L1518.4,866z M1508.4,881.2l-0.6,1.2l-0.6,1.1l-0.6,1.2l-0.5,1.1l-0.5,1.2l-0.1,0.2l-3.4-1.5     l0.1-0.2l0.5-1.2l0.6-1.2l0.6-1.2l0.6-1.2l0.6-1.2l0.2-0.3l3.2,1.7L1508.4,881.2z M1501.5,898.1l-0.4,1.1l-0.3,1.3l-0.3,1.3     l-0.3,1.3l-0.3,1.3l-3.5-0.6l0.2-1.4l0.3-1.3l0.3-1.4l0.3-1.3l0.4-1.4l0.2-0.6l3.5,1L1501.5,898.1z M1498.7,916l-0.1,1.3l0,1.3     l0.1,1.3l0,1.3l0.1,0.7l-3.7,0.4l-0.1-0.8l0-1.4l-0.1-1.4l0-1.4l0-1.4l0.1-1.1l3.6,0L1498.7,916z M1500.9,933.7l0.3,1.4l0.4,1.4     l0.7,2.4l0.2,0.6l-3.5,1.2l-0.2-0.7l-0.7-2.4l-0.4-1.5l-0.4-1.5l-0.3-1l3.5-1L1500.9,933.7z M1506.6,950.3l1,2.2l0.9,2.2l0.7,1.6     l-3.4,1.4l-0.7-1.6l-1-2.2l-0.8-2.3l-0.2-0.6l3.4-1.3L1506.6,950.3z M1514.1,967.4l1,2l1.1,2l0.7,1.3l-3.2,1.8l-0.8-1.4l-1-2     l-1-2l-0.6-1.2l3.3-1.6L1514.1,967.4z M1522.8,982.9l1.1,1.8l1.1,1.8l1.2,1.7l-3,2l-1.1-1.8l-1.3-1.8l-1.1-1.8l-0.4-0.7l3.1-1.9     L1522.8,982.9z M1533.7,998.4l1.3,1.6l1.3,1.6l0.9,1.1l-2.8,2.3l-1-1.1l-1.3-1.6l-1.3-1.6l-1.1-1.4l2.9-2.3L1533.7,998.4z      M1545.6,1011.9l1.4,1.3l1.4,1.4l1.3,1.1l-2.5,2.8l-1.2-1.2l-1.5-1.4l-1.4-1.4l-1.1-1.2l2.6-2.6L1545.6,1011.9z M1558.7,1023.4     l1.5,1.1l1.5,1.2l1.6,1.1l0.5,0.3l-2.1,3l-0.5-0.3l-1.6-1.1l-1.6-1.2l-1.6-1.2l-0.8-0.6l2.3-2.9L1558.7,1023.4z M1574.2,1033.8     l1.6,0.9l1.6,0.9l1.6,0.9l-1.7,3.2l-1.6-0.9l-1.7-0.9l-1.6-0.9l-1.5-0.9l1.9-3.2L1574.2,1033.8z M1589,1041.2l1.8,0.7l1.6,0.7     l1.8,0.7l1.3,0.5l-1.2,3.4l-1.4-0.5l-1.8-0.7l-1.8-0.7l-1.8-0.7l-0.2-0.1l1.4-3.3L1589,1041.2z M1606.2,1047.3l1.8,0.5l1.8,0.5     l1.8,0.4l1.3,0.3l-0.8,3.6l-1.4-0.3l-1.8-0.5l-1.8-0.4l-1.9-0.5l-0.4-0.2l1-3.5L1606.2,1047.3z M1624.2,1051l1.8,0.3l1.8,0.2     l1.8,0.2l1,0.1l-0.3,3.7l-1-0.1l-1.9-0.2l-1.8-0.3l-1.9-0.2l-0.6-0.1l0.4-3.6L1624.2,1051z M1642.7,1052.4l1.8,0.1l1.9,0l1.9,0     l0.4,0l0.1,3.7l-0.4-0.1l-1.9,0l-2,0l-2,0l-1.2-0.1l0.1-3.7L1642.7,1052.4z M1659.7,1051.7l1.9-0.1l2-0.1l1.9-0.3l1.3-0.2     l0.5,3.7l-1.4,0.1l-2,0.2l-1.9,0.3l-2,0.1l0,0l-0.4-3.6L1659.7,1051.7z M1696.1,1044.5l1.8-0.6l1.9-0.6l1.4-0.6l0.7-0.2l1.2,3.5     l-0.7,0.2l-1.5,0.5l-1.9,0.6l-2,0.7l-0.9,0.3l-1.1-3.6L1696.1,1044.5z M1712.2,1038.8l1.3-0.6l1.4-0.6l1.3-0.6l1.3-0.6l1.3-0.6     l0-0.1l1.6,3.3l-0.1,0.1l-1.3,0.6l-1.3,0.7l-1.3,0.6l-1.4,0.6l-1.3,0.6l-0.1,0L1712.2,1038.8L1712.2,1038.8z M1728.7,1031     l1.2-0.7l1.2-0.7l1.2-0.6l1.2-0.7l1.1-0.7l0.4-0.2l1.8,3.1l-0.2,0.2l-1.2,0.7l-1.2,0.7l-1.2,0.7l-1.3,0.7l-1.2,0.7l-0.1,0     l-1.7-3.2L1728.7,1031z M1744.7,1021.3l1.1-0.8l1-0.7l1.1-0.7l1-0.7l1.1-0.8l0,0l2.2,3l0,0l-1.1,0.8l-1.1,0.7l-1,0.8l-1.1,0.7     l-1.1,0.7l-0.6,0.5l-2-3L1744.7,1021.3z M1758.9,1010.6l1-0.8l0.9-0.8l1.9-1.6l1.4-1.2l2.4,2.7l-1.4,1.3l-1.9,1.6l-1,0.8l-1,0.8     l-0.4,0.3l-2.3-2.8L1758.9,1010.6z M1773,997.4l1.6-1.7l1.6-1.6l0.7-0.8l2.7,2.5l-0.6,0.7l-1.6,1.7l-1.7,1.7l-1.2,1.2l-2.6-2.6     L1773,997.4z M1784.7,983.8l1.3-1.7l1.2-1.7l0.8-1.2l3,2.1l-0.8,1.2l-1.3,1.8l-1.4,1.8l-0.9,1.2l-2.9-2.2L1784.7,983.8z      M1795.1,968.7l1-1.6l0.9-1.7l0.8-1.4l3.2,1.8l-0.8,1.4l-1,1.7l-0.9,1.7l-1,1.6l-3.1-1.9L1795.1,968.7z M1803.3,952.8l0.5-1.4     l0.6-1.6l0.5-1.4l0.2-0.7l3.5,1.2l-0.3,0.8l-0.5,1.4l-0.6,1.6l-0.6,1.6l-0.7,1.5l-3.4-1.4L1803.3,952.8z M1808.7,936l0.4-1.6     l0.4-1.6l0.4-1.6l0.3-1.1l3.6,0.8l-0.3,1.1l-0.4,1.6l-0.4,1.7l-0.5,1.6l-0.3,1.3l-3.6-0.9L1808.7,936z M1812.1,918.4l0.2-1.6     l0.2-1.6l0.2-1.6l0.1-1.2l3.7,0.3l-0.2,1.3l-0.1,1.6l-0.3,1.7l-0.2,1.6l-0.2,1.2l-3.6-0.6L1812.1,918.4z M1814,900.6l0-1.6     l0.1-1.6l0-1.6l0-1.4l3.7,0l-0.1,1.5l0,1.6l0,1.7l-0.1,1.6l0,0.9l-3.6-0.2L1814,900.6z M1814.1,882.8l-0.1-1.7l-0.1-1.5l-0.1-1.7     l-0.1-1.7l0-0.2l3.6-0.2l0,0.2l0.1,1.7l0.1,1.7l0.1,1.7l0.1,1.7l0,0.6l-3.6,0.1L1814.1,882.8z M1812.7,865.1l-0.3-1.7l-0.2-1.6     l-0.2-1.6l-0.2-1.6l-0.1-0.7l3.6-0.5l0.1,0.7l0.2,1.6l0.3,1.7l0.2,1.6l0.2,1.7l0.1,0.2l-3.7,0.4L1812.7,865.1z M1809.5,846     l-0.3-1.5l-0.3-1.6l-0.3-1.6l-0.3-1.1l3.5-0.9l0.2,1.2l0.3,1.5l0.4,1.6l0.3,1.7l0.2,1.2l-3.5,0.8L1809.5,846z M1805.3,829.1     l-0.4-1.5l-0.4-1.5l-0.4-1.5l-0.5-1.5l-0.1-0.3l3.4-1.1l0.2,0.4l0.4,1.5l0.5,1.5l0.4,1.6l0.4,1.5l0.1,0.6l-3.4,1.1L1805.3,829.1z      M1799.5,811.4l-0.6-1.4l-0.6-1.4l-0.7-1.4l-0.6-1.4l3.4-1.4l0.7,1.4l0.5,1.5l0.6,1.4l0.5,1.5l0.4,1l-3.4,1.3L1799.5,811.4z      M1792.3,794.6l-0.6-1.3l-0.7-1.3l-0.7-1.4l-0.7-1.3l-0.1-0.1l3.3-1.7l0,0.2l0.8,1.3l0.7,1.3l0.6,1.4l0.7,1.3l0.5,1.2l-3.3,1.6     L1792.3,794.6z M1784.2,779.2l-0.7-1.2l-0.8-1.3l-0.7-1.2l-0.8-1.2l-0.5-0.7l3.2-2l0.5,0.8l0.8,1.3l0.7,1.2l0.8,1.2l0.7,1.3     l0.4,0.5l-3.2,1.8L1784.2,779.2z"/><path fill="#16b79e" fill-rule="evenodd" d="M1410,1615.5c-5.4-43.2,22-129.7,71.5-173.7c15.1-13.6,67.4-60.2,93.6-29.2        c0.4,24.3-41.7,58.8,1.3,73c22.9,0.6-3.3-57.1,15.2-69.5c27.1-13.3,84.2-9.2,101.9,20.9c-0.8,15.2-71.8,64.5-60,80.7        c14.9,12.3,38.4-38.9,57.6-58.3c21.4-17.5,55.4,12.2,78,28.3c-34.3,8.6-60.6,22.2-55.5,33.5c15.5,25.8,36.2-33.8,55.5-33.5        c32.7,23.2,50.5,16.2,58,38.1c-8.1,26.9-12.5,39-32.4,56.8c-44.1,37.5-107.9-27.8-114.7-9.4c1.7,17.6,69.2,23.6,71,34.3        c7.3,21.2-26.6,52.9-46.1,48.9c-28.7-5.9-80.3-63.7-92.1-52.8c-14.9,13.5,73.6,54.1,69.5,88.5c-6,28-41.9,48.4-68.2,57.9        c-32.9,19.8-54.6-115-68.3-112.7c-27.1,24.1,58.5,126.7,1.3,134.5c-31,1.5-56-17.1-79.3-36.7        C1431.9,1704.8,1412.9,1646.4,1410,1615.5L1410,1615.5z M1632.3,1657.6c-0.3-4.8-5-8.4-10.3-8c-5.3,0.4-9.4,4.6-9,9.5        c0.4,4.8,5,8.4,10.4,8C1628.7,1666.7,1632.7,1662.4,1632.3,1657.6L1632.3,1657.6z M1589.4,1550.9c-10.1,10.7-12-10.8-7.7-17.7        c3.5-9.4,10.9-22.1,22.2-21.9C1611.2,1521.8,1601.7,1537.2,1589.4,1550.9L1589.4,1550.9z M1527.5,1549.7        c21.5-1.8,19.6-46,9.2-51.7C1526,1496,1512.4,1546.9,1527.5,1549.7L1527.5,1549.7z M1508.6,1650.8c0.9,8-8.8,1.1-10.1-3.1        c-2.6-4.9-5.3-12.6-1.2-17.2C1504.2,1631.2,1507.3,1640.7,1508.6,1650.8L1508.6,1650.8z M1684.3,1593.9        c-2.9-8.6-14.4-13.2-22.8-14.6c-4.5,5.2,3.7,11.2,8.4,15.3C1674.7,1599.5,1684,1600.2,1684.3,1593.9L1684.3,1593.9z" clip-rule="evenodd"/><path fill="#4b76ba" d="M1277.9,1668.5c-0.7-2.2,0.4-4.6,2.5-5.5c74.3-34.1,150.7-61.9,227.1-82.7         c86.2-23.4,175.7-38.7,265.8-45.5c2.5-0.2,4.8,1.7,5,4.3c0.2,2.5-1.7,4.8-4.3,5c-170.9,12.8-331.1,54.5-489.8,127.4         c-2.3,1.1-5.1,0-6.1-2.3C1278.1,1668.9,1278,1668.7,1277.9,1668.5z"/><path fill="#4b76ba" d="M1642.8,1555.9c-0.3-0.8-0.3-1.7,0-2.6c5.4-18.3,14.3-33.8,26.6-46.2         c11.4-11.5,25.8-20.3,42.7-26.2c2.4-0.8,5.1,0.4,5.9,2.8c0.8,2.4-0.4,5.1-2.8,5.9c-32.5,11.4-53.9,33.7-63.5,66.3         c-0.7,2.5-3.3,3.9-5.7,3.1C1644.4,1558.6,1643.2,1557.4,1642.8,1555.9z"/><path fill="#4b76ba" d="M1483.3,1592c0-0.1,0-0.2-0.1-0.3c-14.8-62.1,4-118.4,54.3-163         c1.9-1.7,4.8-1.5,6.5,0.4c1.7,1.9,1.5,4.8-0.4,6.5c-47.6,42.2-65.4,95.4-51.5,153.9c0.6,2.5-0.9,5-3.4,5.6         C1486.5,1595.8,1484.1,1594.4,1483.3,1592z"/><path fill="#4b76ba" d="M1563.7,1618c-4-13.3-6.9-28.2-8.7-45.5c-0.3-2.5,1.6-4.8,4.1-5.1         c2.5-0.3,4.8,1.6,5.1,4.1c6.5,59.7,26.5,95.3,69,123.1c2.1,1.4,2.7,4.3,1.3,6.4c-1.4,2.1-4.3,2.7-6.4,1.3         c-24.1-15.8-41.6-34.3-53.3-56.8C1570.4,1637.2,1566.7,1628.1,1563.7,1618z"/><path fill="#4b76ba" d="M1447,1646c-4.6-15.2-5.9-29.5-6.1-42.4c0-2.6,2-4.7,4.6-4.7c2.6,0,4.7,2,4.7,4.6        c0.5,36,10.5,83.5,83.2,131.8c2.1,1.4,2.7,4.3,1.3,6.4c-1.4,2.1-4.3,2.7-6.4,1.3C1477.7,1709.4,1456,1675.9,1447,1646z"/><path fill="#62caeb" fill-rule="evenodd" d="M1341.6,1544.2c-32.7-28.7-69.6-111.6-61.6-177.4c2.3-20.2,10.4-89.8,50.7-84        c16.4,18,7.8,71.7,49.4,53.8c17.5-14.7-40.4-40.5-34.8-62c11.5-28,57-62.8,90.1-52c9.5,12-10.9,96,8.5,100.2        c19.3-0.6,2.9-54.6,4.5-81.8c4.4-27.2,49.6-27.6,77.1-30.5c-20.1,29.2-30.8,56.8-19.3,61.9c28.6,9.1,4.7-49.3,19.3-61.9        c39.9-4.4,48.5-21.4,68.7-10c11.7,25.5,16.5,37.5,13.4,64.1c-8.2,57.3-99.3,50.6-92.1,68.9c13,12.1,67.4-28.2,75.8-21.4        c19.6,11.1,15.2,57.3-2,67.1c-25.3,14.6-102.3,5.7-104,21.6c-2.2,20,91-8.3,110.7,20.2c14.1,25,0.7,64-12.6,88.5        c-11.5,36.7-117.1-49.8-125.8-39c-4.3,36,127.8,56.1,90.2,99.8c-22.2,21.7-53.3,24.4-83.7,25.2        C1417.2,1596.5,1364.3,1565.5,1341.6,1544.2L1341.6,1544.2z M1535.9,1428.2c-3.4-3.4-9.3-2.9-13,0.9c-3.8,3.8-4,9.7-0.5,13.1        c3.4,3.4,9.3,3,13-0.8C1539.3,1437.5,1539.5,1431.6,1535.9,1428.2L1535.9,1428.2z M1433.1,1376.9c-0.5,14.7-16.1-0.2-17.4-8.2        c-3.6-9.3-6.4-23.8,2.1-31.1C1430.1,1340.6,1433.2,1358.4,1433.1,1376.9L1433.1,1376.9z M1385.9,1417        c14.9-15.6-15.8-47.4-27.4-44.8C1349.2,1377.8,1372.7,1424.9,1385.9,1417L1385.9,1417z M1438.8,1505.2c6,5.5-5.8,6.7-9.6,4.4        c-5.2-1.8-12.3-5.8-12.3-12C1422.6,1493.5,1431.1,1498.5,1438.8,1505.2L1438.8,1505.2z M1532.6,1346.1        c-7.9-4.5-19.6-0.3-26.8,4.3c0.1,6.8,10.1,5.9,16.5,5.9C1529.1,1356.6,1536.6,1351,1532.6,1346.1L1532.6,1346.1z" clip-rule="evenodd"/><g><path fill="#4b76ba" d="M1274.9,1669.2c-0.4-1.3-0.3-2.7,0.2-4c33-74.8,71.7-146.3,115.2-212.6         c49-74.7,105.9-145.6,168.9-210.5c2.2-2.3,5.9-2.3,8.2-0.1c2.3,2.2,2.3,5.9,0.1,8.2c-119.4,123-211.6,260.3-281.9,419.7         c-1.3,2.9-4.7,4.2-7.6,3C1276.5,1672.1,1275.3,1670.7,1274.9,1669.2z"/><path fill="#4b76ba" d="M1467.2,1327.2c-3.6-12-5.1-24.1-4.4-36.2c0.9-16.3,5.9-32.6,14.7-48.4         c1.6-2.8,5.1-3.8,7.9-2.2c2.8,1.6,3.8,5.1,2.2,7.9c-16.6,29.8-17.8,60.3-3.5,90.7c1.4,2.9,0.1,6.3-2.8,7.7         c-2.9,1.4-6.3,0.1-7.7-2.8C1471,1338.3,1468.9,1332.7,1467.2,1327.2z"/><path fill="#4b76ba" d="M1317.6,1394.8c-6.9-22.8-8.7-48-5.4-75.2c0.4-3.2,3.3-5.4,6.4-5         c3.2,0.4,5.4,3.3,5,6.4c-7.6,62.8,14.2,114,63.1,148.2c2.6,1.8,3.3,5.4,1.4,8.1c-1.8,2.6-5.4,3.3-8.1,1.4         C1348.7,1456.8,1327.7,1428.4,1317.6,1394.8z"/><path fill="#4b76ba" d="M1419.2,1414.2c-0.6-1.9-0.2-4,1.3-5.6c2.1-2.4,5.8-2.5,8.2-0.4         c44.2,40,82.5,53.4,132.3,46.1c3.2-0.5,6.1,1.7,6.6,4.9c0.5,3.2-1.7,6.1-4.9,6.6c-28.7,4.2-54.2,1.8-78.1-7.3         c-20.8-7.9-41.1-21.2-63.7-41.7C1420,1416,1419.5,1415.1,1419.2,1414.2z"/><path fill="#4b76ba" d="M1354.7,1513.3c-0.6-2.1-0.1-4.4,1.6-5.9c2.4-2.2,6-2,8.2,0.4         c24.1,26.4,62.7,55.1,148.7,43.2c3.2-0.4,6.1,1.8,6.5,4.9c0.4,3.2-1.8,6.1-4.9,6.5c-41.5,5.8-75.7,3.1-104.5-8.3         c-26.4-10.4-42.9-26.1-54.3-38.5C1355.4,1514.9,1355,1514.1,1354.7,1513.3z"/></g><g><path fill="#16b79e" fill-rule="evenodd" d="M590,1615.5c-2.9,30.9-21.9,89.3-57.8,119.6c-23.3,19.6-48.3,38.2-79.3,36.7        c-57.1-7.8,28.4-110.4,1.3-134.5c-13.7-2.3-35.3,132.5-68.3,112.7c-26.2-9.5-62.1-30-68.2-57.9c-4.2-34.4,84.4-75,69.5-88.5        c-11.9-10.8-63.5,46.9-92.1,52.8c-19.4,4-53.3-27.7-46.1-48.9c1.8-10.7,69.3-16.6,71-34.3c-6.8-18.4-70.5,46.9-114.7,9.4        c-19.9-17.7-24.3-29.9-32.4-56.8c7.5-21.9,25.3-14.9,58-38.1c19.3-0.2,40,59.4,55.5,33.5c5.1-11.4-21.2-25-55.5-33.5        c22.6-16,56.6-45.8,78-28.3c19.3,19.4,42.7,70.6,57.6,58.3c11.8-16.1-59.3-65.4-60-80.7c17.7-30.1,74.8-34.2,101.9-20.9        c18.5,12.3-7.8,70.1,15.2,69.5c43-14.2,0.9-48.7,1.3-73c26.2-31,78.5,15.7,93.6,29.2C568.1,1485.9,595.4,1572.4,590,1615.5        L590,1615.5z M367.7,1657.6c-0.4,4.8,3.6,9.1,9,9.5c5.4,0.4,10-3.2,10.4-8c0.4-4.9-3.7-9.1-9-9.5        C372.6,1649.2,368,1652.8,367.7,1657.6L367.7,1657.6z M410.6,1550.9c-12.3-13.8-21.8-29.1-14.5-39.5        c11.3-0.2,18.7,12.5,22.2,21.9C422.5,1540.2,420.7,1561.6,410.6,1550.9L410.6,1550.9z M472.5,1549.7        c15.2-2.8,1.6-53.7-9.2-51.7C452.8,1503.7,451,1547.9,472.5,1549.7L472.5,1549.7z M491.4,1650.8c1.3-10.1,4.4-19.6,11.3-20.3        c4.1,4.6,1.4,12.3-1.2,17.2C500.2,1651.9,490.5,1658.8,491.4,1650.8L491.4,1650.8z M315.7,1593.9c0.2,6.4,9.5,5.6,14.5,0.8        c4.7-4.2,12.8-10.2,8.4-15.3C330.2,1580.7,318.6,1585.3,315.7,1593.9L315.7,1593.9z" clip-rule="evenodd"/><path fill="#4b76ba" d="M722.1,1668.5c0.7-2.2-0.4-4.6-2.5-5.5c-74.3-34.1-150.7-61.9-227.1-82.7         c-86.2-23.4-175.7-38.7-265.8-45.5c-2.5-0.2-4.8,1.7-5,4.3c-0.2,2.5,1.7,4.8,4.3,5c170.9,12.8,331.1,54.5,489.8,127.4         c2.3,1.1,5.1,0,6.1-2.3C721.9,1668.9,722,1668.7,722.1,1668.5z"/><path fill="#4b76ba" d="M357.2,1555.9c0.3-0.8,0.3-1.7,0-2.6c-5.4-18.3-14.3-33.8-26.6-46.2         c-11.4-11.5-25.8-20.3-42.7-26.2c-2.4-0.8-5.1,0.4-5.9,2.8c-0.8,2.4,0.4,5.1,2.8,5.9c32.5,11.4,53.9,33.7,63.5,66.3         c0.7,2.5,3.3,3.9,5.7,3.1C355.6,1558.6,356.8,1557.4,357.2,1555.9z"/><path fill="#4b76ba" d="M516.7,1592c0-0.1,0-0.2,0.1-0.3c14.8-62.1-4-118.4-54.3-163c-1.9-1.7-4.8-1.5-6.5,0.4         c-1.7,1.9-1.5,4.8,0.4,6.5c47.6,42.2,65.4,95.4,51.5,153.9c-0.6,2.5,0.9,5,3.4,5.6C513.5,1595.8,515.9,1594.4,516.7,1592z"/><path fill="#4b76ba" d="M436.3,1618c4-13.3,6.9-28.2,8.7-45.5c0.3-2.5-1.6-4.8-4.1-5.1c-2.5-0.3-4.8,1.6-5.1,4.1         c-6.5,59.7-26.5,95.3-69,123.1c-2.1,1.4-2.7,4.3-1.3,6.4c1.4,2.1,4.3,2.7,6.4,1.3c24.1-15.8,41.6-34.3,53.3-56.8         C429.6,1637.2,433.3,1628.1,436.3,1618z"/><g><path fill="#4b76ba" d="M553,1646c4.6-15.2,5.9-29.5,6.1-42.4c0-2.6-2-4.7-4.6-4.7s-4.7,2-4.7,4.6        c-0.5,36-10.5,83.5-83.2,131.8c-2.1,1.4-2.7,4.3-1.3,6.4c1.4,2.1,4.3,2.7,6.4,1.3C522.3,1709.4,544,1675.9,553,1646z"/></g><g><path fill="#62caeb" fill-rule="evenodd" d="M658.4,1544.2c-22.7,21.3-75.6,52.3-122.5,51.3c-30.4-0.8-61.5-3.6-83.7-25.2        c-37.6-43.7,94.5-63.7,90.2-99.8c-8.7-10.8-114.3,75.7-125.8,39c-13.3-24.5-26.7-63.5-12.6-88.5        c19.7-28.5,112.9-0.2,110.7-20.2c-1.7-15.9-78.7-7-104-21.6c-17.2-9.8-21.6-56.1-2-67.1c8.4-6.8,62.8,33.5,75.8,21.4        c7.2-18.2-83.9-11.6-92.1-68.9c-3.1-26.6,1.6-38.6,13.4-64.1c20.2-11.4,28.8,5.6,68.7,10c14.6,12.6-9.4,71,19.3,61.9        c11.5-5.1,0.8-32.7-19.3-61.9c27.5,2.9,72.7,3.3,77.1,30.5c1.5,27.3-14.9,81.2,4.5,81.8c19.5-4.3-1-88.3,8.5-100.2        c33.1-10.8,78.6,24,90.1,52c5.6,21.5-52.3,47.2-34.8,62c41.6,17.9,33-35.8,49.4-53.8c40.3-5.8,48.4,63.8,50.7,84        C727.9,1432.6,691,1515.5,658.4,1544.2L658.4,1544.2z M464.1,1428.2c-3.5,3.4-3.3,9.3,0.4,13.1c3.7,3.8,9.6,4.2,13,0.8        c3.5-3.3,3.3-9.2-0.5-13.1C473.4,1425.3,467.5,1424.9,464.1,1428.2L464.1,1428.2z M566.9,1376.9c-0.1-18.5,3-36.3,15.4-39.3        c8.5,7.3,5.7,21.8,2.1,31.1C583,1376.7,567.4,1391.6,566.9,1376.9L566.9,1376.9z M614.1,1417c13.3,7.9,36.8-39.2,27.4-44.8        C629.9,1369.6,599.2,1401.4,614.1,1417L614.1,1417z M561.2,1505.2c7.7-6.6,16.2-11.7,21.9-7.6c0,6.2-7,10.2-12.3,12        C567,1511.8,555.2,1510.6,561.2,1505.2L561.2,1505.2z M467.4,1346.1c-4,4.9,3.4,10.5,10.3,10.2c6.3,0,16.3,0.9,16.5-5.9        C487,1345.8,475.3,1341.6,467.4,1346.1L467.4,1346.1z" clip-rule="evenodd"/></g><g><path fill="#4b76ba" d="M725.1,1669.2c0.4-1.3,0.3-2.7-0.2-4c-33-74.8-71.7-146.3-115.2-212.6         c-49-74.7-105.9-145.6-168.9-210.5c-2.2-2.3-5.9-2.3-8.2-0.1c-2.3,2.2-2.3,5.9-0.1,8.2c119.4,123,211.6,260.3,281.9,419.7         c1.3,2.9,4.7,4.2,7.6,3C723.5,1672.1,724.7,1670.7,725.1,1669.2z"/><path fill="#4b76ba" d="M532.8,1327.2c3.6-12,5.1-24.1,4.4-36.2c-0.9-16.3-5.9-32.6-14.7-48.4         c-1.6-2.8-5.1-3.8-7.9-2.2c-2.8,1.6-3.8,5.1-2.2,7.9c16.6,29.8,17.8,60.3,3.5,90.7c-1.4,2.9-0.1,6.3,2.8,7.7         c2.9,1.4,6.3,0.1,7.7-2.8C529,1338.3,531.1,1332.7,532.8,1327.2z"/><path fill="#4b76ba" d="M682.4,1394.8c6.9-22.8,8.7-48,5.4-75.2c-0.4-3.2-3.3-5.4-6.4-5c-3.2,0.4-5.4,3.3-5,6.4         c7.6,62.8-14.2,114-63.1,148.2c-2.6,1.8-3.3,5.4-1.4,8.1c1.8,2.6,5.4,3.3,8.1,1.4C651.3,1456.8,672.3,1428.4,682.4,1394.8z"/><path fill="#4b76ba" d="M580.8,1414.2c0.6-1.9,0.2-4-1.3-5.6c-2.1-2.4-5.8-2.5-8.2-0.4         c-44.2,40-82.5,53.4-132.3,46.1c-3.2-0.5-6.1,1.7-6.6,4.9c-0.5,3.2,1.7,6.1,4.9,6.6c28.7,4.2,54.2,1.8,78.1-7.3         c20.8-7.9,41.1-21.2,63.7-41.7C580,1416,580.5,1415.1,580.8,1414.2z"/><path fill="#4b76ba" d="M645.3,1513.3c0.6-2.1,0.1-4.4-1.6-5.9c-2.4-2.2-6-2-8.2,0.4         c-24.1,26.4-62.7,55.1-148.7,43.2c-3.2-0.4-6.1,1.8-6.5,4.9c-0.4,3.2,1.8,6.1,4.9,6.5c41.5,5.8,75.7,3.1,104.5-8.3         c26.4-10.4,42.9-26.1,54.3-38.5C644.6,1514.9,645,1514.1,645.3,1513.3z"/></g></g><path fill="#62cbec" d="M729.3,536c19.2-31.7,58-44.2,91.5-31.5c9.3-29.6,13.8-60.1,13.9-90.3     c-35.7,2-68.9-21.6-77.6-57.6c-8.8-36,9.8-72.2,42.4-86.9c-14-26.8-32.1-51.7-54-73.8c-23.8,26.7-64,33.4-95.7,14.2     c-31.7-19.2-44.2-58-31.5-91.5c-29.6-9.3-60.1-13.8-90.3-13.9c2,35.7-21.7,68.9-57.7,77.6c-36,8.8-72.2-9.8-86.9-42.4     c-26.8,14-51.7,32.1-73.8,54c26.7,23.8,33.4,64,14.2,95.7c-19.3,31.7-58,44.2-91.5,31.5c-9.3,29.6-13.8,60.1-13.9,90.3     c35.7-2,68.9,21.7,77.6,57.6c8.8,36-9.8,72.2-42.4,86.9c14,26.8,32.1,51.7,54,73.8c23.8-26.7,64-33.4,95.7-14.2     c31.7,19.2,44.2,58,31.5,91.4c29.6,9.3,60.1,13.8,90.3,13.9c-2-35.7,21.7-68.9,57.7-77.6c36-8.8,72.2,9.8,86.9,42.4     c26.8-14,51.7-32.1,73.8-54C716.8,607.8,710,567.7,729.3,536z M447.8,542.3C376.2,498.8,353.5,405.6,397,334     c43.5-71.6,136.8-94.3,208.3-50.8c71.6,43.5,94.3,136.8,50.8,208.3C612.6,563.1,519.3,585.8,447.8,542.3z"/><linearGradient id="a" x1="-2128.409" x2="-1753.847" y1="2036.253" y2="2036.253" gradientTransform="rotate(75.605 339.14 2814.953)" gradientUnits="userSpaceOnUse"><stop offset="0" stop-color="#62cbec"/><stop offset=".204" stop-color="#62cbec"/><stop offset=".248" stop-color="#7bd3f0"/><stop offset=".31" stop-color="#96dcf5"/><stop offset=".381" stop-color="#aee3f8"/><stop offset=".462" stop-color="#bfe9fb"/><stop offset=".56" stop-color="#ccedfd"/><stop offset=".692" stop-color="#d3efff"/><stop offset="1" stop-color="#d5f0ff"/></linearGradient><path fill="url(#a)" d="M707.9,366.1c-25.6-99.9-128-160.5-228-134.8c-99.9,25.6-160.5,128-134.8,228      c25.6,99.9,128,160.5,228,134.8C673,568.5,733.6,466.1,707.9,366.1z M391.8,447.3c-19-74.1,25.9-150.2,100.2-169.2      c74.2-19,150.2,25.9,169.2,100.1c19,74.2-25.9,150.2-100.1,169.3C486.9,566.5,410.8,521.5,391.8,447.3z"/><path fill="#62cbec" d="M626.2,254.2c86.5,54.3,113.6,168.2,60.4,255.8c-53.2,87.6-166.8,116-254.9,64.2l25.1-41.2      c65.3,38,149.2,16.8,188.7-48c39.4-64.8,19.5-149-44.2-189.6L626.2,254.2z"/><g><path fill="#2c7efe" d="M1640.9,372.6c17.4-13.9,41.9-12.9,58.1,1.2c11.4-14.8,20.2-31.1,26.5-48.1     c-20.6-6.3-34.4-26.5-31.9-48.6c2.5-22.1,20.5-38.8,41.9-40.3c-2.4-18-7.4-35.8-15.2-52.8c-19,10.1-43,5.6-56.9-11.8     c-13.9-17.4-12.9-41.9,1.2-58.1c-14.8-11.4-31.1-20.2-48.1-26.5c-6.3,20.5-26.5,34.4-48.6,31.9c-22.1-2.5-38.7-20.4-40.3-41.9     c-18,2.4-35.8,7.4-52.8,15.2c10.1,19,5.6,43-11.8,56.9c-17.4,13.9-41.9,12.9-58.1-1.2c-11.4,14.8-20.2,31.1-26.5,48.1     c20.6,6.3,34.4,26.5,31.9,48.6c-2.5,22.1-20.5,38.7-41.9,40.3c2.4,18,7.4,35.8,15.2,52.8c19-10.1,43-5.6,56.9,11.8     c13.9,17.4,12.9,41.9-1.1,58.1c14.8,11.4,31.1,20.2,48.1,26.6c6.3-20.6,26.5-34.4,48.6-31.9c22.1,2.5,38.7,20.5,40.3,41.9     c18-2.4,35.8-7.4,52.8-15.2C1619,410.5,1623.5,386.5,1640.9,372.6z M1480.8,318c-31.4-39.3-24.9-96.7,14.4-128.1     c39.3-31.4,96.7-24.9,128.1,14.4c31.4,39.4,24.9,96.7-14.4,128.1C1569.5,363.7,1512.2,357.3,1480.8,318z"/><linearGradient id="b" x1="1229.497" x2="1454.655" y1="46.12" y2="46.12" gradientTransform="rotate(31.293 1063.324 528.427)" gradientUnits="userSpaceOnUse"><stop offset="0" stop-color="#fff"/><stop offset=".013" stop-color="#f2f7ff"/><stop offset=".058" stop-color="#c9deff"/><stop offset=".109" stop-color="#a3c7ff"/><stop offset=".164" stop-color="#83b3fe"/><stop offset=".225" stop-color="#67a2fe"/><stop offset=".294" stop-color="#5195fe"/><stop offset=".374" stop-color="#408bfe"/><stop offset=".473" stop-color="#3583fe"/><stop offset=".613" stop-color="#2e7ffe"/><stop offset="1" stop-color="#2c7efe"/></linearGradient><path fill="url(#b)" d="M1600.9,159.7c-55.9-26.9-123.4-3.3-150.3,52.5c-26.9,55.9-3.3,123.4,52.5,150.3     c55.9,26.9,123.4,3.3,150.3-52.5C1680.3,254.1,1656.7,186.6,1600.9,159.7z M1515.7,336.4c-41.4-20-59-70.1-39-111.6     c20-41.5,70.1-59,111.6-39c41.5,20,59,70.1,39,111.6C1607.3,338.8,1557.2,356.4,1515.7,336.4z"/><path fill="#2c7efe" d="M1602.6,160.6c54.9,27.6,77.5,94.2,50.6,149.6c-26.9,55.4-93.2,78.9-148.9,52.9l12.7-26.1     c41.2,19,90.3,1.6,110.2-39.4c19.9-41,3.2-90.3-37.2-110.9L1602.6,160.6z"/></g><ellipse cx="1000" cy="1877.9" fill="#dfe6ff" fill-rule="evenodd" clip-rule="evenodd" rx="806.8" ry="56.6"/><g><path fill="#9a86ad" fill-rule="evenodd" d="M886.2,905.2c-4.8,21.3-22.8,40.7-48.3,49.3c-25.3,8.6-51.5,3.9-68.1-10     c11-4.4,22.8-40.7,48.3-49.3C843.4,886.6,869.6,891.2,886.2,905.2L886.2,905.2z" clip-rule="evenodd"/><path fill="#9a86ad" fill-rule="evenodd" d="M1005.3,561.6c11.5,18.4,34.9,30.8,61.7,30.5c26.9-0.3,50-13.2,61.1-32     c-12-0.4-34.9-30.7-61.8-30.4C1039.5,530,1016.4,543,1005.3,561.6L1005.3,561.6z" clip-rule="evenodd"/><path fill="#9a86ad" fill-rule="evenodd" d="M1316.5,982.3c-13.9-16.6-18.9-42.5-10.4-68c8.3-25.5,27.6-43.6,48.7-48.6     c-3.1,11.4,18.9,42.5,10.6,68C1356.9,959.2,1337.6,977.2,1316.5,982.3L1316.5,982.3z" clip-rule="evenodd"/><path fill="#8dafdb" fill-rule="evenodd" d="M662.1,367.6h675.8c40.3,0,73.3,33.1,73.3,73.3v1347.3c0,40.3-33.1,73.3-73.3,73.3H662.1     c-40.3,0-73.3-33.1-73.3-73.3V441C588.8,400.7,621.9,367.6,662.1,367.6L662.1,367.6z" clip-rule="evenodd"/><path fill="#384077" fill-rule="evenodd" d="M683.9,398.4h632.1c37.7,0,68.5,31,68.5,68.7v1294.9c0,37.7-30.8,68.7-68.5,68.7H683.9     c-37.7,0-68.5-31-68.5-68.7V467.1C615.4,429.4,646.2,398.4,683.9,398.4L683.9,398.4z" clip-rule="evenodd"/><polygon fill="#454d8c" fill-rule="evenodd" points="887 1830.8 1384.6 1352.3 1384.6 1578.7 1122.5 1830.8" clip-rule="evenodd"/><polygon fill="#454d8c" fill-rule="evenodd" points="988 398.4 615.4 758.1 615.4 685 912.2 398.4" clip-rule="evenodd"/><polygon fill="#454d8c" fill-rule="evenodd" points="1191.4 398.4 615.4 952 615.4 806.3 1039.6 398.4" clip-rule="evenodd"/><rect width="700" height="1060.2" x="650" y="584.5" fill="#62caeb" fill-rule="evenodd" clip-rule="evenodd"/><path fill="#b3cad6" fill-rule="evenodd" d="M888.3,489.8h223.4c6.1,0,10.8,4.9,10.8,11v9.7c0,0.6-0.4,1.1-1.1,1.1H878.6     c-0.7,0-1.1-0.6-1.1-1.1v-9.7C877.5,494.7,882.3,489.8,888.3,489.8L888.3,489.8z" clip-rule="evenodd"/><polygon fill="#b4ddf5" fill-rule="evenodd" points="1350 888.8 754.3 1644.7 650 1644.7 650 1582 1350 693.9" clip-rule="evenodd"/><polygon fill="#b4ddf5" fill-rule="evenodd" points="1350 1112.2 930.3 1644.7 863.8 1644.7 1350 1027.9" clip-rule="evenodd"/><path fill="#2c7efe" fill-rule="evenodd" d="M1085.3,1584.4H914.7c-17.7,0-32.1-14.4-32.1-32.1v-4.3c0-17.7,14.4-32.1,32.1-32.1h170.6      c17.7,0,32.1,14.4,32.1,32.1v4.3C1117.4,1570,1103,1584.4,1085.3,1584.4z" clip-rule="evenodd"/><path fill="#fff" fill-rule="evenodd" d="M781.6,1024.9h436.8c12.7,0,23-8.7,23-19.4v-32.3c0-10.7-10.3-19.4-23-19.4H781.6        c-12.7,0-23,8.7-23,19.4v32.3C758.6,1016.3,768.9,1024.9,781.6,1024.9z" clip-rule="evenodd"/><path fill="#fff" fill-rule="evenodd" d="M781.6,1170.7h436.8c12.7,0,23-8.7,23-19.4v-32.3c0-10.7-10.3-19.4-23-19.4H781.6        c-12.7,0-23,8.7-23,19.4v32.3C758.6,1162.1,768.9,1170.7,781.6,1170.7z" clip-rule="evenodd"/><path fill="#fff" fill-rule="evenodd" d="M781.6,1316.7h436.8c12.7,0,23-8.7,23-19.4v-32.3c0-10.7-10.3-19.4-23-19.4H781.6        c-12.7,0-23,8.7-23,19.4v32.3C758.6,1308,768.9,1316.7,781.6,1316.7z" clip-rule="evenodd"/><path fill="#fff" fill-rule="evenodd" d="M781.6,1462.5h436.8c12.7,0,23-8.7,23-19.4v-32.3c0-10.7-10.3-19.4-23-19.4H781.6        c-12.7,0-23,8.7-23,19.4v32.3C758.6,1453.8,768.9,1462.5,781.6,1462.5z" clip-rule="evenodd"/><ellipse cx="814.2" cy="990.4" fill="#2c7efe" fill-rule="evenodd" clip-rule="evenodd" rx="7.3" ry="7"/><ellipse cx="835" cy="990.4" fill="#2c7efe" fill-rule="evenodd" clip-rule="evenodd" rx="7.3" ry="7"/><ellipse cx="858.5" cy="990.4" fill="#2c7efe" fill-rule="evenodd" clip-rule="evenodd" rx="7.3" ry="7"/><ellipse cx="879.2" cy="990.4" fill="#2c7efe" fill-rule="evenodd" clip-rule="evenodd" rx="7.3" ry="7"/><ellipse cx="902.6" cy="990.4" fill="#2c7efe" fill-rule="evenodd" clip-rule="evenodd" rx="7.3" ry="7"/><ellipse cx="923.3" cy="990.4" fill="#2c7efe" fill-rule="evenodd" clip-rule="evenodd" rx="7.3" ry="7"/><ellipse cx="946.9" cy="990.4" fill="#2c7efe" fill-rule="evenodd" clip-rule="evenodd" rx="7.3" ry="7"/><ellipse cx="967.6" cy="990.4" fill="#2c7efe" fill-rule="evenodd" clip-rule="evenodd" rx="7.3" ry="7"/><ellipse cx="814.2" cy="1137.5" fill="#2c7efe" fill-rule="evenodd" clip-rule="evenodd" rx="7.3" ry="7"/><ellipse cx="835" cy="1137.5" fill="#2c7efe" fill-rule="evenodd" clip-rule="evenodd" rx="7.3" ry="7"/><ellipse cx="858.5" cy="1137.5" fill="#2c7efe" fill-rule="evenodd" clip-rule="evenodd" rx="7.3" ry="7"/><ellipse cx="879.2" cy="1137.5" fill="#2c7efe" fill-rule="evenodd" clip-rule="evenodd" rx="7.3" ry="7"/><ellipse cx="902.6" cy="1137.5" fill="#2c7efe" fill-rule="evenodd" clip-rule="evenodd" rx="7.3" ry="7"/><ellipse cx="923.3" cy="1137.5" fill="#2c7efe" fill-rule="evenodd" clip-rule="evenodd" rx="7.3" ry="7"/><ellipse cx="946.9" cy="1137.5" fill="#2c7efe" fill-rule="evenodd" clip-rule="evenodd" rx="7.3" ry="7"/><ellipse cx="967.6" cy="1137.5" fill="#2c7efe" fill-rule="evenodd" clip-rule="evenodd" rx="7.3" ry="7"/><g><ellipse cx="814.2" cy="1281.2" fill="#2c7efe" fill-rule="evenodd" clip-rule="evenodd" rx="7.3" ry="7"/><ellipse cx="835" cy="1281.2" fill="#2c7efe" fill-rule="evenodd" clip-rule="evenodd" rx="7.3" ry="7"/><ellipse cx="858.5" cy="1281.2" fill="#2c7efe" fill-rule="evenodd" clip-rule="evenodd" rx="7.3" ry="7"/><ellipse cx="879.2" cy="1281.2" fill="#2c7efe" fill-rule="evenodd" clip-rule="evenodd" rx="7.3" ry="7"/><ellipse cx="902.6" cy="1281.2" fill="#2c7efe" fill-rule="evenodd" clip-rule="evenodd" rx="7.3" ry="7"/><ellipse cx="923.3" cy="1281.2" fill="#2c7efe" fill-rule="evenodd" clip-rule="evenodd" rx="7.3" ry="7"/><ellipse cx="946.9" cy="1281.2" fill="#2c7efe" fill-rule="evenodd" clip-rule="evenodd" rx="7.3" ry="7"/><ellipse cx="967.6" cy="1281.2" fill="#2c7efe" fill-rule="evenodd" clip-rule="evenodd" rx="7.3" ry="7"/></g><g><ellipse cx="814.2" cy="1427" fill="#2c7efe" fill-rule="evenodd" clip-rule="evenodd" rx="7.3" ry="7"/><ellipse cx="835" cy="1427" fill="#2c7efe" fill-rule="evenodd" clip-rule="evenodd" rx="7.3" ry="7"/><ellipse cx="858.5" cy="1427" fill="#2c7efe" fill-rule="evenodd" clip-rule="evenodd" rx="7.3" ry="7"/><ellipse cx="879.2" cy="1427" fill="#2c7efe" fill-rule="evenodd" clip-rule="evenodd" rx="7.3" ry="7"/><ellipse cx="902.6" cy="1427" fill="#2c7efe" fill-rule="evenodd" clip-rule="evenodd" rx="7.3" ry="7"/><ellipse cx="923.3" cy="1427" fill="#2c7efe" fill-rule="evenodd" clip-rule="evenodd" rx="7.3" ry="7"/><ellipse cx="946.9" cy="1427" fill="#2c7efe" fill-rule="evenodd" clip-rule="evenodd" rx="7.3" ry="7"/><ellipse cx="967.6" cy="1427" fill="#2c7efe" fill-rule="evenodd" clip-rule="evenodd" rx="7.3" ry="7"/></g><g><path fill="#fff" fill-rule="evenodd" d="M1000,908.8c74.1,0,134.4-60.5,134.4-134.5c0-74.1-60.4-134.5-134.4-134.5      c-74.2,0-134.5,60.5-134.5,134.5C865.5,848.3,925.9,908.8,1000,908.8L1000,908.8z" clip-rule="evenodd"/><path fill="#2c7efe" fill-rule="evenodd" d="M1023.5,795.5c35.9,8.9,63.8,37.6,71.7,73.7c-24.4,24.4-58,39.5-95.2,39.5      c-37.2,0-70.9-15.1-95.3-39.5c7.9-36.2,35.9-64.9,71.7-73.7c-14.3-8.2-24-23.6-24-41.4c0-26.2,21.3-47.6,47.6-47.6      c26.2,0,47.6,21.3,47.6,47.6C1047.6,771.9,1037.9,787.3,1023.5,795.5L1023.5,795.5z" clip-rule="evenodd"/></g></g><g><path fill="#242c62" fill-rule="evenodd" d="M520.1,1841.2l-52,4.5c-9.4,23.6-104.3,11.6-82.4,45c13.3,3.1,92.5,3.9,144.4,2.3     C540.2,1879.1,530.7,1853.6,520.1,1841.2L520.1,1841.2z" clip-rule="evenodd"/><path fill="#15489d" fill-rule="evenodd" d="M645.6,1839.8l-52,4.5c-9.4,23.6-104.3,11.6-82.4,45c13.3,3.1,92.5,3.9,144.4,2.3     C665.8,1877.7,656.2,1852.1,645.6,1839.8L645.6,1839.8z" clip-rule="evenodd"/><path fill="#dd4a71" fill-rule="evenodd" d="M606.3,1070.4l-59.4-17.2c-13.4,24.6-35.5,92.7-40.4,137c-4,20.9,16.8,104.3,28.9,159.1     l80.3-129L606.3,1070.4z" clip-rule="evenodd"/><path fill="#2c7efe" fill-rule="evenodd" d="M611.8,1265.5l-87.9,23.7c-17.2,64.2-91.6,213.5-91.6,254.3l32.7,304.3     c21.4,0.1,42.6,1.2,63.9,1.3l3.9-290.7l38.2-90.3l20.9,378.1c20.5,1.3,41.1,2.6,61.6,3.9c6.3-175.7,12.6-351.5,18.9-527.2     L611.8,1265.5z" clip-rule="evenodd"/><path fill="#2c7efe" fill-rule="evenodd" d="M344.9,1095.9l33.5-18.4c2.6-1.4,5.9-0.5,7.3,2.1l36.3,65.8c1.4,2.6,0.5,5.8-2.1,7.3     l-33.5,18.4c-2.5,1.4-5.8,0.5-7.3-2.1l-36.3-65.9C341.4,1100.5,342.4,1097.3,344.9,1095.9L344.9,1095.9z" clip-rule="evenodd"/><path fill="#fff" fill-rule="evenodd" d="M353.7,1101.6l3.7-2.1c1-0.6,2.3-0.2,2.9,0.8l1.4,2.7c0.6,1,0.2,2.3-0.8,2.8l-3.7,2.1     c-1,0.6-2.3,0.2-2.8-0.8l-1.5-2.7C352.3,1103.4,352.7,1102.2,353.7,1101.6L353.7,1101.6z" clip-rule="evenodd"/><path fill="#ffcdad" fill-rule="evenodd" d="M448.2,1153.6l-10.3-9.4c-8.6-6.4-19.9-23.4-25.6-19.4c-3.6,3,7.4,11.4,6.1,18     c-8.1,10.8-40.7-8.7-46.7,0.5c-9.1,13.5-2.7,34.1,12.6,37.5c8.1,2.4,31.9-6.9,54.4-10.9L448.2,1153.6z" clip-rule="evenodd"/><polygon fill="#ffcdad" fill-rule="evenodd" points="428.3 1170.7 436.1 1146.1 475.4 1140.7 479.8 1169.2" clip-rule="evenodd"/><path fill="#ea718b" fill-rule="evenodd" d="M636,989.5l-43.6,18.2c-18.8,12.3-40.2,28.3-45.5,45.5l-24.2,239.7     c29.4,42.2,84.1,43.2,149.8,32c9.8-86.5,21.5-200.7,31.3-287.2C698.3,1008.4,675,987.9,636,989.5L636,989.5z" clip-rule="evenodd"/><path fill="#f8a780" fill-rule="evenodd" d="M613.3,932.6l-37.6,37.9c5.8,13.6,11.7,27.3,17.5,41c18.7,23.2,36.1-3.5,44.1-18.7     L613.3,932.6z" clip-rule="evenodd"/><path fill="#ffcdad" fill-rule="evenodd" d="M595,849.9c2.6,5.1,5.1,10.4,7.4,16c24.7,59.1,19.5,117.7-11.7,130.6     c-31.1,13-76.4-24.4-101.1-83.6c-2.3-5.5-4.3-11-6.1-16.4L595,849.9z" clip-rule="evenodd"/><path fill="#1a164f" fill-rule="evenodd" d="M575,876c-15.9-3.8-59.1,19.2-88.7,28.8c-22-0.7-51.6-8.7-56.6-37.4     c-1.9-41.7,60.7-16.9,86-32c21.9-27.5,65.5-11.3,73.6-6.7c29.9,19.1,27,56.7,27.3,87.3C593.2,910.9,593.1,879.4,575,876L575,876z     " clip-rule="evenodd"/><path fill="#dd4a71" fill-rule="evenodd" d="M641.7,1015.2c-0.9-31.6,38.8-20.5,54.1,2.1c18.9,31.7,19.8,81.9,4.7,106     c-33.7,41.5-197.2,51.3-242.8,51.4c-8.4-10.1-10.3-19.2-3.1-34.1l195.8-47.3C647.4,1067.3,644.6,1041.2,641.7,1015.2     L641.7,1015.2z" clip-rule="evenodd"/></g></svg>