<svg xmlns="http://www.w3.org/2000/svg" enable-background="new 0 0 500 500" viewBox="0 0 500 500"><polyline fill="none" points="277.11 162.16 276.19 161.36 270.04 156.07"/><line x1="253.64" x2="251.41" y1="141.94" y2="140.02" fill="none"/><circle cx="241.42" cy="215.37" r="147.98" fill="#d7e3f4"/><circle cx="399.22" cy="162.16" r="41.77" fill="#d7e3f4"/><circle cx="394.69" cy="91.05" r="11.87" fill="#d7e3f4"/><ellipse cx="276.49" cy="410.88" fill="#d7e3f4" rx="172.2" ry="13.91"/><path fill="#1a004d" d="M372.52,102.34v295.57c0,9.22-7.47,16.69-16.69,16.69H195.61c-9.22,0-16.69-7.47-16.69-16.69V102.33
							c0-9.22,7.47-16.69,16.69-16.69h42.45c3.78,0,6.84,3.06,6.84,6.84v0h61.65v0c0-3.78,3.06-6.84,6.84-6.84h42.43
							C365.04,85.64,372.52,93.12,372.52,102.34z"/><path fill="#516cdd" d="M195.61,409.76c-6.53,0-11.84-5.31-11.84-11.84V102.33c0-6.53,5.31-11.84,11.84-11.84h42.45
							c1.1,0,1.99,0.89,1.99,1.99v4.85h71.34v-4.85c0-1.1,0.89-1.99,1.99-1.99h42.43c6.54,0,11.86,5.32,11.86,11.86v295.57
							c0,6.53-5.31,11.84-11.84,11.84H195.61z"/><path fill="#fff" d="M429.63,167.26v131.63c0,5.74-3.85,10.38-8.58,10.38h-179.4c-4.72,0-8.58-4.63-8.58-10.38
																					V167.26c0-5.7,3.86-10.33,8.58-10.33h179.4C425.78,156.92,429.63,161.56,429.63,167.26z"/><path fill="#d7e3f4" d="M421.05,309.61h-179.4c-4.92,0-8.93-4.81-8.93-10.72V167.26c0-5.89,4-10.68,8.93-10.68
																					h179.4c4.92,0,8.93,4.79,8.93,10.68v131.63C429.98,304.8,425.97,309.61,421.05,309.61z M241.65,157.27
																					c-4.54,0-8.23,4.48-8.23,9.99v131.63c0,5.53,3.69,10.03,8.23,10.03h179.4c4.54,0,8.23-4.5,8.23-10.03V167.26
																					c0-5.51-3.69-9.99-8.23-9.99H241.65z"/><path fill="#1a004d" d="M429.71,167.24v18.89H233.14v-18.89c0-5.72,3.84-10.35,8.6-10.35h179.38
																					C425.86,156.89,429.71,161.53,429.71,167.24z"/><path fill="#1a004d" d="M430.06,186.48H232.8v-19.23c0-5.9,4.01-10.7,8.95-10.7h179.38c4.93,0,8.93,4.8,8.93,10.7
																					V186.48z M233.49,185.78h195.87v-18.54c0-5.52-3.7-10-8.24-10H241.74c-4.55,0-8.25,4.49-8.25,10V185.78z"/><circle cx="388.96" cy="172" r="2.29" fill="#fff"/><circle cx="398.92" cy="172" r="2.29" fill="#fff"/><circle cx="408.89" cy="172" r="2.29" fill="#fff"/><circle cx="329.38" cy="245.92" r="46.59" fill="#516cdd"/><polyline fill="none" stroke="#fff" stroke-linecap="round" stroke-linejoin="round" stroke-miterlimit="10" stroke-width="3.536" points="303 239.72 311.53 259.93 361.57 231.91"/><g><polygon fill="#f9c5bb" points="160 388.95 157.64 392.88 147.2 389.19 147.64 382.85 150.12 377.05 153.49 369.12 161.87 372.2 166.66 373.96 165.89 375.7 165.37 376.87"/><polygon fill="#f9c5bb" points="147.66 382.24 149.79 377.49 162.61 383.65 160.18 389.14 157.12 390.81 146.73 387.44"/><path fill="#e9c09f" d="M165.37,376.87c-2.94,0.38-9.47,1.04-15.25,0.19l3.37-7.93l8.37,3.07l4.02,3.5L165.37,376.87z" opacity=".4"/><path fill="#db5353" d="M173.13,407.74c0,0-0.58,3.91-6.46,1.81s-10.17-4.13-12.77-6.13c-2.6-2-4.16-2.61-7.33-3.81
							c-3.17-1.19-6.31-2.53-7.11-4.79c-0.66-1.86,1.54-3.65,1.54-3.65l16.77,8.07L173.13,407.74z"/><path fill="#1a004d" d="M160.18,389.14c0,0,4.43,7.88,6.95,11.04c2.52,3.16,7.31,4.07,6,7.57s-10.21-1.64-15.39-4.71
							c-5.18-3.07-7.99-6.97-11.22-7.49c-3.23-0.52-5.75-3.35-5.51-4.38s5.56-8.48,6.66-8.92c0,0-0.32,3.43,4.95,6.11
							C157.88,391.03,160.18,389.14,160.18,389.14z"/><linearGradient id="a" x1="-2861.752" x2="-2859.861" y1="488.206" y2="488.206" gradientTransform="rotate(26.887 -1159.74 6771.566)" gradientUnits="userSpaceOnUse"><stop offset="0" stop-color="#e9eefa"/><stop offset="1" stop-color="#fff"/></linearGradient><path fill="url(#a)" d="M163.15,398.9l0.06,0.09c0.11,0.17,0.34,0.21,0.5,0.1l1.83-1.23c0.17-0.11,0.21-0.34,0.1-0.5l-0.06-0.09
							c-0.11-0.17-0.34-0.21-0.5-0.1l-1.83,1.23C163.08,398.51,163.04,398.74,163.15,398.9z"/><linearGradient id="b" x1="-2863.456" x2="-2861.565" y1="487.071" y2="487.071" gradientTransform="rotate(26.887 -1159.74 6771.566)" gradientUnits="userSpaceOnUse"><stop offset="0" stop-color="#e9eefa"/><stop offset="1" stop-color="#fff"/></linearGradient><path fill="url(#b)" d="M162.14,397.12l0.06,0.09
							c0.11,0.17,0.34,0.21,0.5,0.1l1.83-1.23c0.17-0.11,0.21-0.34,0.1-0.5l-0.06-0.09c-0.11-0.17-0.34-0.21-0.5-0.1l-1.83,1.23
							C162.08,396.73,162.03,396.95,162.14,397.12z"/><linearGradient id="c" x1="-2865.441" x2="-2863.549" y1="485.877" y2="485.877" gradientTransform="rotate(26.887 -1159.74 6771.566)" gradientUnits="userSpaceOnUse"><stop offset="0" stop-color="#e9eefa"/><stop offset="1" stop-color="#fff"/></linearGradient><path fill="url(#c)" d="M160.91,395.16l0.06,0.09
							c0.11,0.17,0.34,0.21,0.5,0.1l1.83-1.23c0.17-0.11,0.21-0.34,0.1-0.5l-0.06-0.09c-0.11-0.17-0.34-0.21-0.5-0.1l-1.83,1.23
							C160.85,394.77,160.8,394.99,160.91,395.16z"/><linearGradient id="d" x1="-2867.401" x2="-2865.51" y1="484.693" y2="484.693" gradientTransform="rotate(26.887 -1159.74 6771.566)" gradientUnits="userSpaceOnUse"><stop offset="0" stop-color="#e9eefa"/><stop offset="1" stop-color="#fff"/></linearGradient><path fill="url(#d)" d="M159.7,393.22l0.06,0.09
							c0.11,0.17,0.34,0.21,0.5,0.1l1.83-1.23c0.17-0.11,0.21-0.34,0.1-0.5l-0.06-0.09c-0.11-0.17-0.34-0.21-0.5-0.1l-1.83,1.23
							C159.63,392.82,159.59,393.05,159.7,393.22z"/><polygon fill="#f9c5bb" points="68.32 359.65 63.88 360.75 59.12 350.74 63.93 346.59 69.78 344.25 77.78 341.05 81.51 349.15 83.65 353.79 81.86 354.47 80.67 354.93"/><polygon fill="#f9c5bb" points="64.37 346.17 69.24 344.33 73.92 357.76 68.31 359.9 64.97 358.92 60.03 349.18"/><path fill="#e9c09f" d="M80.67,354.93c-2.34-1.82-7.42-5.98-10.89-10.68l8-3.2l3.73,8.1l0.35,5.32L80.67,354.93z" opacity=".4"/><path fill="#db5353" d="M64.26,382.21c0,0-3.18,2.35-5.84-3.31c-2.66-5.65-4.25-10.12-4.66-13.38c-0.42-3.26-1.08-4.79-2.47-7.88
							c-1.39-3.09-2.66-6.25-1.62-8.42c0.85-1.78,3.68-1.48,3.68-1.48l6.11,17.58L64.26,382.21z"/><path fill="#1a004d" d="M68.31,359.9c0,0-2.46,8.7-2.92,12.71c-0.46,4.02,2.27,8.05-1.13,9.59c-3.4,1.54-6.04-8.39-7.52-14.23
							c-1.48-5.84-0.69-10.58-2.61-13.24c-1.91-2.66-1.68-6.44-0.79-7s9.94-2.04,11.02-1.58c0,0-2.65,2.2-0.83,7.82
							S68.31,359.9,68.31,359.9z"/><linearGradient id="e" x1="-5616.289" x2="-5614.398" y1="2504.055" y2="2504.055" gradientTransform="rotate(72.025 -1306.848 5343.889)" gradientUnits="userSpaceOnUse"><stop offset="0" stop-color="#e9eefa"/><stop offset="1" stop-color="#fff"/></linearGradient><path fill="url(#e)" d="M63.49,368.9l-0.02,0.1
							c-0.04,0.2,0.09,0.39,0.28,0.43l2.16,0.43c0.2,0.04,0.39-0.09,0.43-0.28l0.02-0.1c0.04-0.2-0.09-0.39-0.28-0.43l-2.16-0.43
							C63.72,368.58,63.53,368.71,63.49,368.9z"/><linearGradient id="f" x1="-5617.993" x2="-5616.102" y1="2502.92" y2="2502.92" gradientTransform="rotate(72.025 -1306.848 5343.889)" gradientUnits="userSpaceOnUse"><stop offset="0" stop-color="#e9eefa"/><stop offset="1" stop-color="#fff"/></linearGradient><path fill="url(#f)" d="M64.04,366.93l-0.02,0.1
							c-0.04,0.2,0.09,0.39,0.28,0.43l2.16,0.43c0.2,0.04,0.39-0.09,0.43-0.28l0.02-0.1c0.04-0.2-0.09-0.39-0.28-0.43l-2.16-0.43
							C64.27,366.61,64.08,366.73,64.04,366.93z"/><linearGradient id="g" x1="-5619.977" x2="-5618.086" y1="2501.726" y2="2501.726" gradientTransform="rotate(72.025 -1306.848 5343.889)" gradientUnits="userSpaceOnUse"><stop offset="0" stop-color="#e9eefa"/><stop offset="1" stop-color="#fff"/></linearGradient><path fill="url(#g)" d="M64.57,364.67l-0.02,0.1
							c-0.04,0.2,0.09,0.39,0.28,0.43l2.16,0.43c0.2,0.04,0.39-0.09,0.43-0.28l0.02-0.1c0.04-0.2-0.09-0.39-0.28-0.43l-2.16-0.43
							C64.8,364.35,64.61,364.48,64.57,364.67z"/><linearGradient id="h" x1="-5621.938" x2="-5620.046" y1="2500.542" y2="2500.542" gradientTransform="rotate(72.025 -1306.848 5343.889)" gradientUnits="userSpaceOnUse"><stop offset="0" stop-color="#e9eefa"/><stop offset="1" stop-color="#fff"/></linearGradient><path fill="url(#h)" d="M65.09,362.44l-0.02,0.1
							c-0.04,0.2,0.09,0.39,0.28,0.43l2.16,0.43c0.2,0.04,0.39-0.09,0.43-0.28l0.02-0.1c0.04-0.2-0.09-0.39-0.28-0.43l-2.16-0.43
							C65.32,362.12,65.13,362.25,65.09,362.44z"/><g><path fill="#1a004d" d="M167.75,378.79c0.01,1.25-17.91-6.28-17.91-6.28l20.04-59.92l-12.32-30.61c0,0-6.38,28.23-7.75,39.97
							c-1.41,12.06-66.55,34.86-66.55,34.86l-6.65-18.56c18.79-8.33,49.27-24.06,49.27-24.06c-2.64-44.06-4.89-53.21-4.24-68.27
							c0.39-8.96,5.7-12.85,5.7-12.85s41.57,0,42.32,0c0,0,25.06,48.7,26.53,78.45C196.91,325.59,167.75,378.79,167.75,378.79z"/></g><g><path fill="#efc0c1" d="M182.2,148.4c0,0,9.17-1.86,11.26-2.13l22.23-34.57l9.82,3.64c0,0-7.61,26.2-16.29,40.1
								c-6.17,9.88-23.34,13.29-23.64,12.96L182.2,148.4z"/><path fill="#efc0c1" d="M215.04,113.1c0,0,0.91-2.28,0.92-5.74c0-3.46,0.16-6.87,1.93-9.32s5.44-6.78,7.89-6.97
									s6.14,1.2,6.78,2.21c0.64,1.01-0.01,1.63-0.01,1.63s1.83,0.28,2.55,1.04c0.72,0.75,0.26,1.47,0.26,1.47s2.14,0.4,2.44,1.33
									s-0.7,1.97-2.04,1.75c-1.33-0.22-5.46,0.54-6.22,1.97c-0.76,1.44-0.78,7.76-2.48,11.1c-1.09,2.14-2.48,2.97-2.48,2.97
									L215.04,113.1z"/><path fill="#efc0c1" d="M221.92,114.4c0,0,0.3-0.27,0.76-0.81c0.46-0.53,1.09-1.34,1.58-2.43c0.24-0.54,0.44-1.16,0.47-1.82
										c0.02-0.65-0.04-1.43,0.02-2.19c0.06-1.53,0.43-3.27,1.48-4.63c0.26-0.35,0.57-0.64,0.7-0.91c0.15-0.29,0.11-0.57-0.09-0.8
										c-0.43-0.47-1.24-0.64-1.93-0.63c-1.47,0.01-2.52,1.06-3.19,2.05c-0.68,0.99-1.15,1.89-1.45,2.53
										c-0.31,0.64-0.46,1.02-0.46,1.02s0.11-0.39,0.35-1.06c0.26-0.66,0.62-1.62,1.28-2.67c0.33-0.52,0.73-1.07,1.29-1.55
										c0.57-0.49,1.34-0.78,2.15-0.84c0.8-0.03,1.71,0.07,2.4,0.78c0.35,0.35,0.43,1.01,0.19,1.43
										c-0.23,0.46-0.54,0.72-0.76,1.03c-0.97,1.23-1.33,2.81-1.43,4.3c-0.07,0.76-0.04,1.45-0.11,2.19
										c-0.08,0.73-0.33,1.38-0.61,1.93c-0.57,1.11-1.3,1.86-1.8,2.36C222.25,114.16,221.92,114.4,221.92,114.4z" opacity=".5"/><path fill="#efc0c1" d="M235.35,97.41c0,0-0.12,0.02-0.32,0.06c-0.19,0.03-0.61,0.09-0.85,0.13
										c-0.33,0.05-0.86,0.13-1.18,0.18c-0.43,0.07-0.89,0.13-1.34,0.23c-0.45,0.08-0.9,0.18-1.31,0.3
										c-0.41,0.11-0.79,0.23-1.09,0.38c-0.3,0.15-0.56,0.28-0.71,0.42c-0.16,0.13-0.25,0.21-0.25,0.21s0.06-0.1,0.16-0.29
										c0.11-0.18,0.32-0.42,0.62-0.64c0.3-0.22,0.67-0.44,1.1-0.6c0.42-0.18,0.9-0.29,1.37-0.38c0.47-0.08,0.95-0.14,1.4-0.16
										c0.45-0.02,0.87,0,1.22,0.01c0.36,0.01,0.65,0.07,0.86,0.09C235.23,97.39,235.35,97.41,235.35,97.41z" opacity=".5"/><path fill="#efc0c1" d="M232.54,94.91c0,0-0.16-0.01-0.45-0.02c-0.26-0.01-0.81-0.04-1.17-0.06
										c-0.48-0.03-1.04-0.04-1.64-0.04c-0.59,0-1.23,0.01-1.82,0.13c-0.61,0.07-1.08,0.36-1.54,0.75
										c-0.44,0.37-0.83,0.77-1.13,1.14c-0.3,0.37-0.56,0.68-0.72,0.91c-0.17,0.23-0.26,0.36-0.26,0.36s0.06-0.15,0.16-0.42
										c0.12-0.26,0.28-0.64,0.54-1.05c0.27-0.41,0.59-0.9,1.05-1.34c0.42-0.44,1.09-0.85,1.78-0.95
										c0.68-0.11,1.34-0.11,1.95-0.06c0.61,0.04,1.18,0.15,1.66,0.24c0.48,0.09,0.87,0.21,1.15,0.28
										C232.39,94.86,232.54,94.91,232.54,94.91z" opacity=".5"/><path fill="#efc0c1" d="M61.95,132.28c0,0-1.86-1.6-3.46-4.67c-1.6-3.07-3.32-6.02-6.02-7.38s-7.95-3.5-10.22-2.54
									s-4.89,3.9-4.99,5.09c-0.1,1.19,0.77,1.44,0.77,1.44s-1.49,1.1-1.78,2.1c-0.29,1,0.45,1.42,0.45,1.42s-1.71,1.35-1.55,2.3
									c0.16,0.96,1.53,1.42,2.62,0.61c1.08-0.81,5.09-2.04,6.42-1.12c1.34,0.92,4.27,6.52,7.32,8.71c1.95,1.4,3.57,1.49,3.57,1.49
									L61.95,132.28z"/><path fill="#efc0c1" d="M56.44,136.61c0,0-0.4-0.1-1.05-0.37c-0.65-0.26-1.58-0.69-2.52-1.42c-0.47-0.37-0.92-0.83-1.26-1.4
										c-0.32-0.57-0.63-1.29-1.03-1.94c-0.75-1.33-1.89-2.7-3.45-3.42c-0.39-0.19-0.8-0.3-1.04-0.49
										c-0.26-0.19-0.36-0.45-0.29-0.75c0.17-0.62,0.8-1.14,1.42-1.45c1.31-0.67,2.73-0.22,3.77,0.34
										c1.06,0.56,1.89,1.14,2.46,1.57c0.57,0.42,0.87,0.69,0.87,0.69s-0.28-0.3-0.8-0.78c-0.53-0.47-1.3-1.15-2.37-1.78
										c-0.54-0.31-1.15-0.61-1.86-0.78c-0.73-0.17-1.55-0.07-2.29,0.25c-0.72,0.34-1.48,0.85-1.77,1.79
										c-0.15,0.48,0.08,1.09,0.49,1.36c0.41,0.3,0.82,0.39,1.14,0.56c1.42,0.64,2.47,1.88,3.25,3.15
										c0.41,0.64,0.71,1.27,1.11,1.9c0.41,0.61,0.93,1.07,1.43,1.43c1.02,0.72,2.01,1.04,2.69,1.26
										C56.04,136.55,56.44,136.61,56.44,136.61z" opacity=".5"/><path fill="#efc0c1" d="M36.69,127.74c0,0,0.11-0.04,0.31-0.1c0.18-0.06,0.58-0.2,0.81-0.27c0.32-0.11,0.83-0.28,1.13-0.39
										c0.41-0.14,0.85-0.29,1.29-0.42c0.44-0.14,0.88-0.26,1.3-0.34c0.42-0.09,0.81-0.16,1.15-0.17
										c0.33-0.01,0.63-0.01,0.82,0.05c0.2,0.04,0.32,0.07,0.32,0.07s-0.1-0.06-0.28-0.18c-0.18-0.11-0.48-0.23-0.84-0.28
										c-0.36-0.05-0.8-0.08-1.25-0.02c-0.46,0.04-0.93,0.16-1.39,0.29c-0.46,0.15-0.91,0.31-1.31,0.5
										c-0.41,0.19-0.77,0.4-1.08,0.57c-0.31,0.17-0.55,0.36-0.72,0.48C36.78,127.67,36.69,127.74,36.69,127.74z" opacity=".5"/><path fill="#efc0c1" d="M38.02,124.23c0,0,0.14-0.08,0.39-0.23c0.23-0.13,0.7-0.41,1.01-0.59c0.41-0.25,0.91-0.51,1.43-0.79
										c0.53-0.27,1.1-0.55,1.68-0.73c0.57-0.21,1.12-0.18,1.71-0.05c0.56,0.12,1.09,0.3,1.53,0.49c0.44,0.19,0.81,0.35,1.06,0.48
										c0.25,0.13,0.4,0.2,0.4,0.2s-0.12-0.11-0.33-0.3c-0.22-0.17-0.54-0.44-0.97-0.68c-0.43-0.24-0.94-0.53-1.55-0.7
										c-0.58-0.2-1.36-0.25-2.02-0.02c-0.65,0.21-1.24,0.52-1.76,0.85c-0.52,0.32-0.98,0.68-1.36,0.97
										c-0.39,0.3-0.68,0.59-0.89,0.78C38.13,124.11,38.02,124.23,38.02,124.23z" opacity=".5"/><line x1="193.46" x2="199.35" y1="146.27" y2="154.39" fill="none" stroke="#313131" stroke-miterlimit="10" stroke-width=".2"/><path fill="#db5353" d="M153.35,181.61c0,0-9.38-14.98-7.85-19.04c1.28-3.38-1.33-7.68,13.66-11.59
								c13.58-3.54,28.94-3.87,28.94-3.87l4.29,21.62L153.35,181.61z"/><path fill="#efc0c1" d="M167.33,159.66c-0.05-0.1-8.54,11.31-15.09,9.93c-7.32-1.55-12.15-15.69-12.15-15.69l-0.55-14.67
							l-0.01-0.24l-0.08-0.87l1.45,0.36l5.77,1.41l2.32,0.57l5.92,1.45c0,0,0.53,3.75,1.58,6.72c0.12,0.31,0.22,0.61,0.33,0.89
							c0.21,0.48,0.51,0.93,0.82,1.3c0.72,0.89,1.54,1.42,1.55,1.43C160.96,155.12,167.28,159.66,167.33,159.66z"/><path fill="#e5e6e7" d="M157.64,150.82c-11.81,4.5-17.56-9.66-18.11-11.59l-0.01-0.24l-0.08-0.87l1.45,0.36
							c1.65,0.85,3.96,1.8,5.77,1.41l2.32,0.57l5.92,1.45c0,0,0.53,3.75,1.58,6.72c0.12,0.31,0.22,0.61,0.33,0.89
							C157.04,150,157.34,150.45,157.64,150.82z"/><path fill="#efc0c1" d="M160.79,132.39c0.08,7.5-1.06,15.31-8.15,15.87c-4.96,0.39-11.16-5.21-13.65-11.1
							c-1.28-3.04-2.44-5.69-2.92-7.77c-0.38-1.65-0.55-2.7-0.55-2.7l0.33-3.86l0.19-2.26c0,0,1.24-1.62,2.62-3.44
							c1.72-2.28,5.63-0.5,5.66-0.63c0.04-0.21,9.33-3.83,13.28-0.67c0.01,0.01,0.02,0.01,0.02,0.02c0.36,0.29,0.66,0.6,0.88,0.93
							c0.18,0.28,0.31,0.57,0.39,0.88c0.14,0.6,0.33,1.5,0.56,2.64c0.09,0.48,0.19,1,0.29,1.56c0.16,0.94,0.33,1.97,0.48,3.06
							C160.53,127.22,160.77,129.79,160.79,132.39z"/><path fill="#1a004d" d="M135.73,129.39c0,0-7.98-15.59,5.46-18.36c0,0,9.07-6.98,16.94-3.14c7,3.41,5.79,10.47,1.67,12.85
							c-2.69,1.56-16.79,0.47-18.56,2.16c-1.76,1.69-1.94,15.1-1.94,15.1S137.64,132.3,135.73,129.39z"/><ellipse cx="144.33" cy="111.01" fill="#1a004d" rx="5.5" ry="5.78" transform="rotate(-10.391 144.353 110.997)"/><ellipse cx="152.86" cy="111.28" fill="#1a004d" rx="7.15" ry="7.5" transform="rotate(-10.391 152.882 111.264)"/><ellipse cx="160.91" cy="114" fill="#1a004d" rx="5.5" ry="5.78" transform="rotate(-10.391 160.936 113.986)"/><ellipse cx="143.59" cy="120.91" fill="#1a004d" rx="3.98" ry="4.18" transform="rotate(-10.391 143.615 120.897)"/><ellipse cx="136.56" cy="115.34" fill="#1a004d" rx="3.98" ry="4.18" transform="rotate(-10.391 136.578 115.33)"/><ellipse cx="135.76" cy="120.75" fill="#1a004d" rx="3.98" ry="4.18" transform="rotate(-10.391 135.786 120.741)"/><ellipse cx="136.85" cy="125.37" fill="#1a004d" rx="3.37" ry="3.54" transform="rotate(-10.391 136.87 125.352)"/><ellipse cx="151.54" cy="121.19" fill="#1a004d" rx="3.98" ry="4.18" transform="rotate(-10.391 151.56 121.178)"/><ellipse cx="139.74" cy="110.48" fill="#1a004d" rx="3.96" ry="4.15" transform="rotate(-10.391 139.763 110.46)"/><path fill="#efc0c1" d="M138.32,130.3c0,0-4.76-1.98-3.8,2.29c0.96,4.27,5.36,5.37,5.36,5.37L138.32,130.3z"/><path fill="#edaa98" d="M137.55,131.88c0,0-3.51-0.38,0.72,3.6"/><ellipse cx="156.67" cy="132.22" fill="#1a004d" rx="1.19" ry=".69" transform="rotate(-87.656 156.669 132.213)"/><ellipse cx="148.57" cy="132.77" fill="#1a004d" rx="1.19" ry=".69" transform="rotate(-87.656 148.571 132.77)"/><path fill="#1a004d" d="M154.89,129.25c0,0,1.71-1.8,3.54-1.19L154.89,129.25z"/><path fill="#1a004d" d="M145.43,129.23c0.15-0.05,2.59-0.91,4.36,0.46L145.43,129.23z"/><path fill="none" stroke="#edaa98" stroke-linecap="round" stroke-linejoin="round" stroke-miterlimit="10" stroke-width=".224" d="M152.93,133.84c0,0-0.14,1.98,0.79,2.39c0.92,0.41,1.61,2.29-0.8,1.96"/><path fill="#fff" d="M156.1,141.38c0,0-0.07,0.2-0.24,0.47c-0.31,0.49-0.97,1.21-2.19,1.35c-1.2,0.13-2.12-0.45-2.63-0.89
								c-0.28-0.25-0.44-0.45-0.44-0.45"/><path fill="#db5353" d="M171.16,164.5c0.54,12.63-0.41,25.04,0.05,37.48c-0.03,13.36,2.62,35.53,2.61,35.66
						c0.01-0.39-6.08,3.25-17.93,6.59c-11.28,3.18-29.58,2.16-34.93,0.35c-0.19-0.06-3.3-35.8-3.23-36.56
						c-0.45-46.11-1.25-49.3,4.41-52.97c2.62-2,4.75-2.13,7.94-3.09l0-0.01c2.19-0.73,8.53-2.1,9.79-2.25
						c3.57,4.17,10.17,11.31,14.81,11.67c5.05-1.83,2.59-9.17,2.95-10.55C165.73,151.75,171.28,155.73,171.16,164.5z"/><g><path fill="#efc0c1" d="M106.25,154.29c0,0-9.18,1.82-11.21,2.37l-33.95-25.25l-6.36,7.63c0,0,15.94,22.69,29.31,32.17
								c9.5,6.73,26.66,3.26,26.81,2.84L106.25,154.29z"/><path fill="#db5353" d="M139.88,149.7c0,0-0.69-0.18-9.12,0.64c-8.43,0.82-30.6,4.43-30.6,4.43l3.6,20.58
								c0,0,20.33-2.58,30.6-5.01C144.62,167.9,139.88,149.7,139.88,149.7z"/><path fill="none" stroke="#313131" stroke-miterlimit="10" stroke-width=".2" d="M117.43,173.42c0,0,3.39-0.51,8.3-1.51"/></g><path fill="none" stroke="#313131" stroke-miterlimit="10" stroke-width=".2" d="M171.11,168.73c0.01,6.16-0.39,13.32,0.07,25.76"/></g></g><g><path fill="#c63e3e" d="M400.82,385.29c0,0,9.42-34.02,22.3-28.27c12.87,5.75-2.99,25.05-22.41,30.11"/><path fill="#db5353" d="M401.63,361.96c0,0,8.5-47.58,20.23-45.05s-21.03,71.14-21.03,71.14l-2.41-10.34l3.68-15.75"/><path fill="#c63e3e" d="M397.49,389.55c0,0-19.21-65.1-7.24-67.69c19.65-4.25,11.26,43.79,9.65,67.23"/><path fill="#db5353" d="M399.22,386.56c0,0-10.11-45.28-23.68-44.02s22.99,44.71,22.99,44.71"/><path fill="#1a004d" d="M420.65,383.45c0,0-0.28,12.94-0.52,18.47c-0.1,2.62-0.77,7.18-3,11.3h-29.78
					c-2.25-4.12-2.89-8.68-3.02-11.3c-0.23-5.53-0.51-18.47-0.51-18.47H420.65z"/></g><g><path fill="#c63e3e" d="M400.82,385.29c0,0,9.42-34.02,22.3-28.27c12.87,5.75-2.99,25.05-22.41,30.11"/><path fill="#db5353" d="M401.63,361.96c0,0,8.5-47.58,20.23-45.05s-21.03,71.14-21.03,71.14l-2.41-10.34l3.68-15.75"/><path fill="#c63e3e" d="M397.49,389.55c0,0-19.21-65.1-7.24-67.69c19.65-4.25,11.26,43.79,9.65,67.23"/><path fill="#db5353" d="M399.22,386.56c0,0-10.11-45.28-23.68-44.02s22.99,44.71,22.99,44.71"/><path fill="#1a004d" d="M420.65,383.45c0,0-0.28,12.94-0.52,18.47c-0.1,2.62-0.77,7.18-3,11.3h-29.78
				c-2.25-4.12-2.89-8.68-3.02-11.3c-0.23-5.53-0.51-18.47-0.51-18.47H420.65z"/></g></svg>