<svg xmlns="http://www.w3.org/2000/svg" viewBox="0 0 1100 1100"><defs><linearGradient id="a" x1="1091.051" x2="1046.765" y1="558.604" y2="827.27" gradientTransform="matrix(-1 0 0 1 1978.738 0)" gradientUnits="userSpaceOnUse"><stop offset="0" stop-color="#423eaf"/><stop offset=".637" stop-color="#4e4ac0"/><stop offset="1" stop-color="#5652cc"/></linearGradient></defs><g data-name="Secondary shapes"><path fill="#423eaf" d="M255.75388,393.07311c34.90909-1.21392,50.1742-30.11953,43.06384-70.64219C267.52778,329.82244,238.42151,359.042,255.75388,393.07311Z"/><path fill="#ced3f8" d="M192.59742,489.02968C158.31067,464.79383,122.67555,481.34586,100,525.29126,135.31469,540.98311,184.4244,534.19993,192.59742,489.02968Z"/><path fill="none" stroke="#bbc0e6" stroke-linecap="round" stroke-linejoin="round" stroke-width="2" d="M192.59742,489.02968c-16.04687,7.3687-56.99535,20.178-81.46724,31.28864"/><path fill="#e9edf7" d="M257.59949,394.71936c15.98868-52.04571-18.82229-89.24917-82.13508-99.40223C170.42056,345.17309,198.64705,402.92741,257.59949,394.71936Z"/><path fill="none" stroke="#dde2f8" stroke-linecap="round" stroke-linejoin="round" stroke-width="2" d="M257.59949,394.71936C242.0299,377.93195,209.68234,332.67005,186.094,307.017"/><path fill="#ced3f8" d="M866.82856,458.31759c30.2064-18.19,29.49878-51.1767,3.35212-83.43573C846.19994,396.74478,834.85134,436.79832,866.82856,458.31759Z"/><path fill="#807dfb" d="M872.77319,485.61365c61.2126,3.50586,92.54687-44.55751,86.64152-116.52128C903.54022,376.97182,847.96323,423.35226,872.77319,485.61365Z"/><path fill="none" stroke="#5652cc" stroke-linecap="round" stroke-linejoin="round" stroke-width="2" d="M872.77319,485.61365c14.1778-21.53626,54.98707-69.06739,76.70312-101.75418"/><path fill="#423eaf" d="M875.59864,490.3398c12.0828,33.12869,44.59926,38.73331,81.26024,19.23243C939.97851,481.85788,902.83262,463.06346,875.59864,490.3398Z"/><path fill="none" stroke="#807dfb" stroke-linecap="round" stroke-linejoin="round" stroke-width="2" d="M908.73666,412.04229c1.93054-22.90407,21.69845-102.22,39.62189-144.33957"/><path fill="none" stroke="#807dfb" stroke-linecap="round" stroke-linejoin="round" stroke-width="2" d="M945.68631,265.68238a5.31421,5.31421,0,1,1,7.38516,1.37921A5.31472,5.31472,0,0,1,945.68631,265.68238Z"/><path fill="none" stroke="#807dfb" stroke-linecap="round" stroke-linejoin="round" stroke-width="2" d="M910.75324,298.35789a5.14549,5.14549,0,1,1,7.15469,1.338A5.14457,5.14457,0,0,1,910.75324,298.35789Z"/><path fill="none" stroke="#807dfb" stroke-linecap="round" stroke-linejoin="round" stroke-width="2" d="M939.60246,342.79133a5.83962,5.83962,0,1,1,8.11936,1.51846A5.83982,5.83982,0,0,1,939.60246,342.79133Z"/><path fill="none" stroke="#807dfb" stroke-linecap="round" stroke-linejoin="round" stroke-width="2" d="M897.09952,356.13864a6.7581,6.7581,0,1,1,9.39656,1.75773A6.75934,6.75934,0,0,1,897.09952,356.13864Z"/><path fill="none" stroke="#807dfb" stroke-linecap="round" stroke-linejoin="round" stroke-width="2" d="M957.20705,279.757a4.41041,4.41041,0,1,1,6.13065,1.1463A4.40971,4.40971,0,0,1,957.20705,279.757Z"/><path fill="none" stroke="#807dfb" stroke-linecap="round" stroke-linejoin="round" stroke-width="2" d="M956.8931,279.214c-3.43936,2.06079-14.79169,8.189-17.47419,11.96885"/><path fill="none" stroke="#807dfb" stroke-linecap="round" stroke-linejoin="round" stroke-width="2" d="M917.90793,299.69588c2.00647,2.93045,9.10426,14.68607,11.13342,24.14083"/><path fill="none" stroke="#807dfb" stroke-linecap="round" stroke-linejoin="round" stroke-width="2" d="M939.60246,342.79133c-3.20771.662-16.06009,7.79649-19.05,11.94347"/><path fill="none" stroke="#807dfb" stroke-linecap="round" stroke-linejoin="round" stroke-width="2" d="M904.42129,358.84134c1.56212,3.51221,8.72316,20.52687,9.4068,24.09663"/><path fill="#e9edf7" d="M388.3145,587.78821c-8.382-22.98705-42.90751-44.63478-66.3306-39.17507-23.42258,5.4597-24.37507,28.291-37.88141,27.72523-13.50556-.56335-32.98428-21.83-49.96148-14.65638-30.17347,12.75374-.65513,57.96068-21.92306,69.632-21.26548,11.67266-36.11487-14.56007-57.69987-6.76361-21.58889,7.79154,4.933,43.693-15.671,62.64185-20.60465,18.94893-56.99976,67.14206-26.66374,84.815,23.97815,13.96637,28.10427-20.95787,39.99716-22.40605,13.5626-1.652,17.72164,15.30321,32.27043,10.21061,20.55772-7.199,17.12406-35.84836,34.97235-38.96611,17.84556-3.11918,26.57831,19.15257,44.1689,2.97983,21.77619-20.02742-11.47965-52.83009,25.99914-63.17862,37.47749-10.34855,30.18035,39.22069,54.21747,36.09386,26.23521-3.41395,15.019-49.8412,32.92984-47.9082C401.11,651.4655,401.31945,623.44537,388.3145,587.78821Z"/><path fill="none" stroke="#ced3f8" stroke-linecap="round" stroke-linejoin="round" stroke-width="2" d="M385.57578,581.8765c-6.41363,1.34316-23.27947-3.55071-32.328,4.76867-9.044,8.31678-14.74673,20.32983-26.57571,26.91248-26.384,14.68036-48.66289.538-65.04965,8.65355-12.17068,6.028-4.37227,18.39686-17.10384,30.10374-12.73027,11.70934-17.65008.46587-33.152,14.7208-13.736,12.631-4.55272,20.88321-18.16081,34.63312-20.43379,20.649-41.31571,13.3259-48.4166,20.5629-6.22489,6.34207-3.66854,12.77007-3.66854,12.77007"/><path fill="#e9efff" d="M549.9775,851.24725c0-11.65114,100.74219-21.0958,225.00935-21.0958,124.27093,0,225.01315,9.44466,225.01315,21.0958,0,11.65231-100.74222,21.0932-225.01315,21.0932C650.71969,872.34045,549.9775,862.89956,549.9775,851.24725Z"/><path fill="none" stroke="#ced3f8" stroke-linecap="round" stroke-width="3" d="M591.5894,335.95747a12.16777,12.16777,0,0,0,17.20067,0,12.17231,12.17231,0,0,1,17.20067,0,12.15558,12.15558,0,0,0,17.19057,0,12.16636,12.16636,0,0,1,17.19575,0,12.16777,12.16777,0,0,0,17.20067,0,12.17231,12.17231,0,0,1,17.20067,0,12.15557,12.15557,0,0,0,17.19056,0,12.16636,12.16636,0,0,1,17.19575,0,12.16781,12.16781,0,0,0,17.2007,0,12.17228,12.17228,0,0,1,17.20065,0,12.15572,12.15572,0,0,0,17.19069,0,12.12385,12.12385,0,0,1,8.44459-3.557h13.94241"/><polygon fill="#ced3f8" points="789.534 341.636 814.973 332.4 789.534 323.165 789.534 341.636"/><path fill="none" stroke="#ced3f8" stroke-linecap="round" stroke-width="3" d="M522.63452,720.03422a12.16781,12.16781,0,0,0-17.20067,0,12.17253,12.17253,0,0,1-17.20067,0,12.1556,12.1556,0,0,0-17.19056,0,12.16658,12.16658,0,0,1-17.19575,0,12.16782,12.16782,0,0,0-17.20068,0,12.17253,12.17253,0,0,1-17.20067,0,12.1556,12.1556,0,0,0-17.19056,0,12.16658,12.16658,0,0,1-17.19575,0,12.1678,12.1678,0,0,0-17.20066,0,12.17255,12.17255,0,0,1-17.20069,0,12.1556,12.1556,0,0,0-17.19056,0,12.122,12.122,0,0,1-8.44472,3.55705h-13.9424"/><polygon fill="#ced3f8" points="324.69 714.355 299.251 723.591 324.69 732.827 324.69 714.355"/><polyline fill="none" stroke="#dde2f8" stroke-linecap="round" stroke-linejoin="round" stroke-width="3" points="513.683 331.758 481.385 364.06 464.068 346.744"/><path fill="none" stroke="#dde2f8" stroke-linecap="round" stroke-linejoin="round" stroke-width="3" d="M438.92164,345.59528a49.30455,49.30455,0,1,1,49.30389,49.30389A49.30352,49.30352,0,0,1,438.92164,345.59528Z"/><rect width="447.218" height="225.822" x="176.822" y="382.262" fill="#807dfb"/><path fill="#fff" d="M607.909,540.3368l-.0013-90.32962c-33.84953.00194-61.29361-23.10862-61.29491-51.61553l-292.36594.0013c.00064,28.50444-27.44357,51.61617-61.29426,51.61617V540.3368c33.85069.00259,61.29426,23.11236,61.29426,51.61991l292.36724-.00247C546.6128,563.44916,574.05572,540.3368,607.909,540.3368Z"/><path fill="#e9edf7" d="M330.85444,495.17354a69.5763,69.5763,0,1,1,69.57565,69.577A69.57793,69.57793,0,0,1,330.85444,495.17354Z"/><path fill="#bbc0e6" d="M388.00806,493.46845c-10.29085-2.84762-9.67187-26.803-8.30161-29.89362-2.27286-6.71227,8.33713-9.84921,19.49958-12.8214,6.775-1.8027,30.99686-8.11119,18.6451,9.42,3.24064,3.91145,7.3744,26.83017-4.99952,33.295,23.32872,5.773,24.75861,22.50728,24.758,41.82954h-74.362C363.24879,515.9782,365.578,499.24275,388.00806,493.46845Z"/><line x1="318.757" x2="259.087" y1="495.172" y2="495.172" fill="none" stroke="#807dfb" stroke-linecap="round" stroke-linejoin="round" stroke-width="4"/><line x1="302.573" x2="275.271" y1="470.978" y2="470.979" fill="none" stroke="#807dfb" stroke-linecap="round" stroke-linejoin="round" stroke-width="4"/><line x1="302.573" x2="275.27" y1="519.368" y2="519.368" fill="none" stroke="#807dfb" stroke-linecap="round" stroke-linejoin="round" stroke-width="4"/><line x1="482.106" x2="541.775" y1="495.174" y2="495.174" fill="none" stroke="#807dfb" stroke-linecap="round" stroke-linejoin="round" stroke-width="4"/><line x1="498.287" x2="525.59" y1="470.978" y2="470.978" fill="none" stroke="#807dfb" stroke-linecap="round" stroke-linejoin="round" stroke-width="4"/><line x1="498.288" x2="525.589" y1="519.371" y2="519.368" fill="none" stroke="#807dfb" stroke-linecap="round" stroke-linejoin="round" stroke-width="4"/><rect width="334.434" height="215.832" x="386.715" y="482.644" fill="#423eaf" rx="12.963"/><path fill="#5652cc" d="M386.71505,647.91985v37.59389a13.00067,13.00067,0,0,0,12.96256,12.96256H557.17276L692.92268,562.72639h28.2265v-67.1199a13.00067,13.00067,0,0,0-12.96256-12.96256H627.81873L462.54215,647.91985Z"/><path fill="#20196f" d="M400.79213,515.05293a18.33179,18.33179,0,1,1,18.33179,18.33114A18.33164,18.33164,0,0,1,400.79213,515.05293Z"/><rect width="96.355" height="21.164" x="457.145" y="504.471" fill="#362e94"/><rect width="59.856" height="17.925" x="636.233" y="612.923" fill="#807dfb"/><rect width="59.854" height="17.925" x="561.415" y="612.923" fill="#807dfb"/><rect width="59.854" height="17.925" x="486.595" y="612.923" fill="#807dfb"/><rect width="59.856" height="17.925" x="411.776" y="612.923" fill="#807dfb"/><rect width="38.024" height="10.803" x="545.723" y="647.274" fill="#9f9cff"/><rect width="160.305" height="10.803" x="423.443" y="661.533" fill="#9f9cff"/><rect width="58.332" height="10.803" x="423.443" y="675.792" fill="#9f9cff"/><rect width="70.864" height="10.803" x="512.884" y="675.792" fill="#9f9cff"/><rect width="11.235" height="10.803" x="491.712" y="675.792" fill="#9f9cff"/><rect width="50.551" height="48.605" x="415.664" y="556.536" fill="#fcba06" rx="5.185"/><line x1="415.664" x2="466.216" y1="566.582" y2="566.582" fill="none" stroke="#dc8b00" stroke-linecap="round" stroke-linejoin="round"/><line x1="415.664" x2="430.357" y1="575.575" y2="575.575" fill="none" stroke="#dc8b00" stroke-linecap="round" stroke-linejoin="round"/><line x1="451.523" x2="466.216" y1="586.102" y2="586.102" fill="none" stroke="#dc8b00" stroke-linecap="round" stroke-linejoin="round"/><line x1="415.664" x2="430.357" y1="586.102" y2="586.102" fill="none" stroke="#dc8b00" stroke-linecap="round" stroke-linejoin="round"/><line x1="415.664" x2="466.216" y1="595.095" y2="595.095" fill="none" stroke="#dc8b00" stroke-linecap="round" stroke-linejoin="round"/><path fill="none" stroke="#dc8b00" stroke-linecap="round" stroke-linejoin="round" d="M435.54114,566.58221a5.20079,5.20079,0,0,0-5.185,5.185v18.14255a5.20076,5.20076,0,0,0,5.185,5.185H446.339a5.20077,5.20077,0,0,0,5.185-5.185V575.5776l14.69177-.00259"/><path fill="none" stroke="#fff" stroke-linecap="round" stroke-linejoin="round" stroke-width="2" d="M675.28908,515.094a11.23113,11.23113,0,0,1,0,15.88355"/><path fill="none" stroke="#fff" stroke-linecap="round" stroke-linejoin="round" stroke-width="2" d="M679.88921,510.47235a17.76826,17.76826,0,0,1,0,25.127"/><path fill="none" stroke="#fff" stroke-linecap="round" stroke-linejoin="round" stroke-width="2" d="M684.48937,505.85068a24.30269,24.30269,0,0,1,0,34.37036"/><path fill="none" stroke="#fff" stroke-linecap="round" stroke-linejoin="round" stroke-width="2" d="M689.08965,501.22886a30.83866,30.83866,0,0,1-.0013,43.61384"/><path fill="#ffd03e" d="M832.61582,452.154c-1.0747-9.21237-14.1993-16.35513-22.52246-12.36694-8.32183,3.98819-17.78684,12.76515-17.70076,32.67474.22529,51.95784-9.65867,79.77615-43.47515,121.39879,0,0,7.13953,7.94711,10.22954,11.85739C832.5956,539.74441,836.2198,483.0319,832.61582,452.154Z"/><path fill="#ed9f00" d="M797.0726,451.36475c-8.73456,18.32608,12.22072,66.2794,10.60039,79.13631-1.62032,12.85368-10.09537,30.95824-24.59348,51.44634,15.33744-16.98551,26.22651-33.16394,33.85588-48.21464.08478-.16955.16074-.3203.22283-.44552.08478-.16839.16579-.33612.25057-.50451l.00259-.005C818.80006,526.078,798.85741,447.62218,797.0726,451.36475Z"/><path fill="#fcba06" d="M758.06462,606.04974c-2.24447-2.96727-9.91183-13.08416-10.60545-13.76767a76.12072,76.12072,0,0,1,7.42936-8.48517c2.29878,2.26716,14.01823,15.03476,14.01072,15.58411-.99.92035-6.61415,4.92811-9.07134,6.66873Z"/><path fill="#e9efff" d="M732.38124,570.13177c-19.31849,12.6372-36.80279,22.46671-59.71762,17.67419-20.89708-4.37112-53.67564-11.22713-53.67564-11.22713L596.13641,685.83029c-14.18675,67.82428,40.2004,143.6287,77.38417,165.71574l.005-.0013L732.385,570.13942Z"/><path fill="#d0d4f6" d="M780.00855,610.25881c-22.28316-4.66108-34.07858-19.41105-47.62355-40.11939L673.52563,851.54473c42.92462-5.33564,123.12919-52.98318,137.31464-120.805l22.85157-109.25146S802.226,614.90576,780.00855,610.25881Z"/><path d="M810.84027,730.73974l22.85157-109.25146s-24.77444-5.18114-45.88047-9.59658c-10.30926,49.28691-18.08926,86.48078-24.23,115.84539-8.51936,40.72954-35.74841,94.45328-90.05572,123.80764C716.45025,846.21026,796.65482,798.56155,810.84027,730.73974Z" style="mix-blend-mode:multiply" fill="#e9edf7"/><path fill="#e19100" d="M351.35473,245.469l-6.80729,4.35075a17.49808,17.49808,0,0,1-8.91241,2.68494c-13.14416.45757-27.14477-11.82461-31.20387-27.37512-3.01393-11.54731.28492-21.70283,7.56366-26.35626l6.80729-4.35143c-7.27939,4.654-10.57953,14.81014-7.565,26.35548,4.0604,15.5507,18.06152,27.83609,31.20452,27.37592A17.49161,17.49161,0,0,0,351.35473,245.469Z"/><path fill="#fcba06" d="M327.71516,191.73757c13.14352-.45888,27.14478,11.82522,31.20245,27.37641,4.061,15.54937-3.33423,28.57973-16.47594,29.03925-13.143.46017-27.14412-11.82522-31.20452-27.37592C307.1782,205.22732,314.57022,192.19709,327.71516,191.73757Z"/><path fill="#ffe357" d="M332.31337,197.648l.9862,3.771c3.99311.95122,7.78376,4.80084,9.0174,9.5231l-4.042.14049c-.75572-2.907-3.3691-5.19887-5.8281-5.11474-2.44746.08607-3.82538,2.5172-3.0672,5.42742a7.435,7.435,0,0,0,2.27285,3.66737,5.19775,5.19775,0,0,0,3.542,1.43159c4.68493-.1632,9.67124,4.211,11.11812,9.75368,1.22976,4.70839-.5,8.76425-3.93245,9.95991l.90958,3.48421-4.04133.14181-.90828-3.485c-3.97732-.93537-7.77365-4.79887-9.00536-9.50791l4.04185-.14116c.75456,2.89506,3.36794,5.18749,5.81488,5.10142,2.45887-.08724,3.83679-2.5172,3.08237-5.41278-.76078-2.90646-3.37351-5.199-5.83251-5.1136a9.93692,9.93692,0,0,1-6.76607-2.72668,14.19023,14.19023,0,0,1-4.33442-7.01287c-1.233-4.72239.5-8.76373,3.91794-9.97327l-.98555-3.77223Z"/><path d="M347.47854,200.13536c-5.79829-5.373-12.891-8.6376-19.76338-8.39779-13.14494.45952-20.537,13.48975-16.478,29.03974a39.76125,39.76125,0,0,0,7.4947,14.73483Z" style="mix-blend-mode:screen" fill="#4c4c4c"/><path fill="#e19100" d="M623.00587,759.96l5.20782,7.39514c4.37733,6.22061,3.48618,15.81589-3.25334,24.98586-9.489,12.907-27.02643,20.14772-39.09781,16.1577a15.39907,15.39907,0,0,1-7.94722-5.67112l-5.20525-7.39786a15.3806,15.3806,0,0,0,7.94463,5.67113c12.07644,3.99013,29.61388-3.25076,39.10287-16.15758C626.4946,775.77571,627.38318,766.18043,623.00587,759.96Z"/><path fill="#fcba06" d="M615.0663,754.29129c12.07137,3.99507,14.1752,17.7451,4.69127,30.65193-9.489,12.90682-27.02643,20.14771-39.10287,16.15758-12.0688-3.99247-14.18286-17.7324-4.69634-30.63923C585.44735,757.55475,602.99231,750.29869,615.0663,754.29129Z"/><path fill="#ffe357" d="M611.22055,760.09917l-2.26845,3.15457c2.79758,2.00764,2.97986,6.14957.14428,10.084l-3.7445-1.21523c1.74437-2.41791,1.31155-4.99514-.967-5.737-2.27868-.73926-5.54966.633-7.289,3.05333a4.79589,4.79589,0,0,0-1.03545,3.509,2.76261,2.76261,0,0,0,1.99493,2.23553c4.33948,1.41266,5.15975,6.32689,1.83306,10.94986-2.84064,3.947-7.7725,6.41284-11.86634,6.19766l-2.09371,2.91152-3.7445-1.21524,2.09373-2.914c-2.78995-2.02034-2.96209-6.14464-.12147-10.09161l3.73179,1.21264c-1.752,2.43048-1.32154,5.00537.957,5.74709,2.281.73938,5.55213-.63543,7.30156-3.06591,1.73672-2.42037,1.30884-4.99512-.96973-5.73438a5.2829,5.2829,0,0,1-3.78494-4.27363,9.09738,9.09738,0,0,1,1.96966-6.6787c2.8331-3.93686,7.765-6.42061,11.84869-6.19273l2.26586-3.152Z"/><path d="M622.58055,759.43328a15.45922,15.45922,0,0,0-7.51425-5.142c-12.074-3.9926-29.61895,3.26346-39.10794,16.17028a28.49932,28.49932,0,0,0-5.86867,14.54243Z" style="mix-blend-mode:screen" fill="#4c4c4c"/><path fill="#f7d3c9" d="M797.08273,600.214c-1.83809,2.06842-1.88994,3.86984-6.81042,5.13058-4.92046,1.26215-6.88636,1.06851-9.1574,1.73556-2.27092.66835-9.28133,2.03175-8.827,3.09637s8.73584.26832,8.751,1.13668c.014.86837-17.245,13.33978-13.48278,15.26264,3.76086,1.9217,14.58406,3.685,23.1921-2.64436,5.7559-4.23305,8.86238-10.78524,12.85368-12.92834C805.92486,605.28131,802.41331,601.13809,797.08273,600.214Z"/><path fill="#362e94" d="M831.60694,562.29979c0,34.98751.12276,191.82442.12276,263.46163h12.71186c7.14082-17.76026,54.7378-229.67536,59.56583-263.46163Z"/><path fill="#f0ccc0" d="M844.44156,830.41213v-4.65071H831.7297a31.44575,31.44575,0,0,1-1.45583,8.4573C833.5779,835.48957,838.41345,832.20977,844.44156,830.41213Z"/><path fill="#20196f" d="M844.44156,830.41213c-6.02811,1.79764-10.86366,5.07744-14.16769,3.80659-1.75189,1.27085-27.53145,10.54349-30.15688,12.336-2.68364,1.84056-2.29127,4.69128.55065,4.69128,4.15709,0,38.38889-1.50767,38.38889-1.50767.69507.752,1.25711,1.50767,1.25711,1.50767h7.823C850.471,847.2028,849.838,835.063,844.44156,830.41213Z"/><path fill="#f0ccc0" d="M937.91642,830.41213v-4.65071H925.20313a31.44178,31.44178,0,0,1-1.4557,8.4573C927.05263,835.48957,931.887,832.20977,937.91642,830.41213Z"/><path fill="#20196f" d="M937.91642,830.41213c-6.0294,1.79764-10.86379,5.07744-14.169,3.80659-1.75072,1.27085-27.53157,10.54349-30.157,12.336-2.68234,1.84056-2.29,4.69128.55324,4.69128,4.15336,0,38.38889-1.50767,38.38889-1.50767.69117.752,1.25322,1.50767,1.25322,1.50767h7.82566C943.94324,847.2028,943.31157,835.063,937.91642,830.41213Z"/><path fill="url(#a)" d="M918.13711,548.37774c19.77931,44.96,19.77931,205.74647,19.77931,277.38368h-12.712c-7.1395-17.76026-67.41672-229.67536-72.24089-263.46163C862.61573,562.29979,918.13711,548.37774,918.13711,548.37774Z"/><path fill="#fcba06" d="M918.13711,548.37774c-18.14383,36.04824-86.524,36.04824-86.524,36.04824-2.17213-40.46615-41.989-114.23376-34.54056-137.59813,8.81431-27.64669,22.02871-30.11009,45.441-20.00772C874.08967,440.44405,911.16973,520.73922,918.13711,548.37774Z"/><path fill="#f8d8d0" d="M816.73668,399.27144c1.15444,4.41479,7.31542,20.50224,12.70435,23.66692-1.79765,2.97608-14.27917,11.11436-26.04542,11.0782,1.11141-3.5533,3.84314-6.73379-.83427-10.40235-5.09377-3.99569-7.44842,5.02872-14.89295-1.87592-8.68388-8.04911-17.89443-27.06882-15.364-34.39253,2.83051-8.19727,10.3562-19.8313,27.84177-17.13742C814.41379,372.40394,814.39227,390.29967,816.73668,399.27144Z"/><path fill="#423eaf" d="M802.24751,393.8947c-3.20019,1.32594-4.90788-7.76742-8.07127-8.83839-3.73812-1.26644-13.62974,1.07032-22.2921,5.66928-8.66366,4.592-19.0096-4.97993-15.17152-12.18906,3.84574-7.21172,11.80436-2.53937,15.55-5.69588,4.36229-3.6767,1.03675-9.46552,8.76995-11.79036,7.14212-2.15075,6.55984,5.52114,11.40177,4.918,4.99134-.62221,9.25615-9.265,17.59951-4.3693,6.19014,3.6325,1.24557,9.15546,4.2267,14.74881,1.8622,3.49183,15.25007,10.66495,7.25229,19.13935-8.008,8.47193-9.72075-2.46146-10.84862-6.81353-1.13164-4.34894-4.09254-6.337-6.20026-5.59579C802.36133,383.81074,806.8185,392.00722,802.24751,393.8947Z"/><path fill="#ed9f00" d="M826.61182,419.5913c-1.928,2.16086-15.8982,10.75932-22.26048,9.79788a16.03686,16.03686,0,0,0-.95573,4.62738c4.45588.72731,18.86662-2.34558,26.37583-10.94728C828.52328,421.6762,826.61182,419.5913,826.61182,419.5913Z"/><path fill="#ed9f00" d="M833.92594,440.8289c-6.66094,6.3877-12.91058,17.68172-6.60909,36.56869,12.09667,36.26225,14.18027,61.45318,1.628,89.315a109.85864,109.85864,0,0,1,2.66834,17.71335s4.43955-.00117,11.3486-.59615c42.98917-59.1019,27.60118-113.72627,16.22226-138.28735C855.28514,437.12628,840.58572,434.44069,833.92594,440.8289Z"/><path fill="#ffd03e" d="M859.184,445.54248c-3.31284-8.66368-17.79319-12.3519-24.87568-6.43578s-14.093,16.75448-9.103,36.02866c13.02206,50.30019,5.05968,86.93655-29.995,127.52052,0,0,6.40286,8.62321,9.37258,12.62463C879.9874,551.55123,870.28568,474.57966,859.184,445.54248Z"/><path fill="#fcba06" d="M804.57416,615.9451s-9.98532-14.08538-10.77513-14.912a76.61332,76.61332,0,0,1,7.68253-8.25742c2.23046,2.3369,13.55884,15.45137,13.53473,16.00074C813.70746,609.922,804.57416,615.9451,804.57416,615.9451Z"/><path fill="#fcba06" d="M302.70144,799.76656l-13.78414-5.47733a3.24338,3.24338,0,0,0-3.21277.4708l-11.63727,9.19783a3.2478,3.2478,0,0,0-1.19942,3.018l2.1501,14.67777a3.24232,3.24232,0,0,0,2.01282,2.54572l13.7835,5.47862a3.252,3.252,0,0,0,3.21276-.46963l11.63779-9.20031a3.24509,3.24509,0,0,0,1.19877-3.01665l-2.14815-14.67906A3.24886,3.24886,0,0,0,302.70144,799.76656Z"/><path fill="#dde2f8" d="M969.22775,552.81208l7.04218-13.83544a3.246,3.246,0,0,1,4.36592-1.42342l13.836,7.04334a3.24845,3.24845,0,0,1,1.42163,4.36721l-7.04207,13.836a3.24564,3.24564,0,0,1-4.36605,1.42291l-13.83728-7.04333A3.24839,3.24839,0,0,1,969.22775,552.81208Z"/><path fill="#fcba06" stroke="#6b67e9" d="M744.97165,928.12005l8.16616,21.58448a3.24582,3.24582,0,0,0,5.54966.905l14.60946-17.8628a3.24659,3.24659,0,0,0-1.99-5.25969L748.53,923.7667A3.246,3.246,0,0,0,744.97165,928.12005Z"/><path fill="#6b67e9" d="M480.84673,149.22891l-15.76391,16.85134a3.24524,3.24524,0,0,0,1.63548,5.37985l22.47633,5.22689a3.24731,3.24731,0,0,0,3.84312-4.10654l-6.71422-22.07809A3.24469,3.24469,0,0,0,480.84673,149.22891Z"/></g></svg>